<svg width="123" height="55" viewBox="0 0 123 55" fill="none" xmlns="http://www.w3.org/2000/svg">
<path d="M29.4319 0.622559L4.57639 3.29021L3.81577 3.57522L0.592903 35.2037L3.88292 51.3223L120.771 50.8919L122.264 9.30669L113.588 5.45768L80.5006 3.37857L49.7123 1.99914L29.4319 0.622559Z" fill="#77625C"/>
<path d="M3.59845 49.7232C3.57747 49.6776 3.56068 49.6292 3.54179 49.5807C3.48614 49.4489 3.4241 49.3223 3.3561 49.2017L3.16725 48.8782L115.116 48.9352H121.133V54.2391H4.45033C4.46717 53.611 4.44717 52.982 4.39052 52.3581C4.35508 51.9136 4.27495 51.4777 4.15237 51.0627C4.03277 50.6865 3.87751 50.3502 3.74951 49.9911C3.70777 49.8934 3.65701 49.8034 3.59845 49.7232Z" fill="#3F3332"/>
<path d="M1.451 29.1188C1.4531 29.0185 1.44173 28.9185 1.41743 28.8238C1.43687 27.8856 1.51656 26.9515 1.65558 26.0322C9.46098 27.3479 17.3132 28.2267 25.2123 28.6685C33.815 29.1435 42.4178 29.0418 51.0205 28.3635C59.6708 27.6377 68.2623 26.388 76.7951 24.6143C85.2845 22.8658 93.7361 21.0517 102.363 20.171C109.005 19.4952 115.668 19.2793 122.327 19.5241C122.156 20.8641 122.107 22.2277 122.182 23.584C114.625 24.1967 107.067 25.1372 99.5608 26.2074C90.6024 27.4828 81.6818 28.9791 72.7277 30.3486C64.0777 31.6439 55.4058 32.8324 46.6992 33.5863C38.0377 34.3743 29.3416 34.5838 20.6592 34.2019C14.1883 33.9124 7.73394 33.1418 1.3251 31.8933C1.39854 30.9414 1.4489 30.0308 1.451 29.1188Z" fill="#846D69"/>
<path d="M1.12679 34.1534V35.8634C1.87481 35.9546 2.62388 36.0415 3.37505 36.117C7.74564 36.5617 12.1274 36.8519 16.5204 36.9877C25.3193 37.2727 34.1329 36.9877 42.9203 36.3393C51.7905 35.6824 60.6387 34.6949 69.468 33.5349C78.2974 32.3749 87.198 31.0895 96.0494 29.7956C104.738 28.5131 113.378 27.2462 122.046 26.0193C121.696 27.8105 121.858 29.6488 121.919 31.4686C118.162 31.7394 114.404 32.0448 110.646 32.3849C103.084 33.1145 95.5346 34.017 87.9985 35.0924C80.4627 36.1712 72.9385 37.4309 65.4426 38.7876C63.5773 39.1239 61.721 39.4682 59.8739 39.8207C59.0555 39.9277 58.2426 40.1028 57.44 40.3451C56.9154 40.5332 56.2482 40.898 56.2482 41.582C56.2482 42.266 56.949 42.6793 57.44 42.913C58.2045 43.2122 58.9824 43.4435 59.769 43.6056C61.5651 44.0806 63.3664 44.5318 65.173 44.9594C72.3489 46.6623 79.5888 48.0032 86.8676 49.1005H44.9262C44.8402 48.9575 44.7306 48.8443 44.6062 48.77C44.4819 48.6957 44.3463 48.6624 44.2107 48.673H23.0102C24.4412 48.3196 25.8711 47.9932 27.3021 47.6498L34.9848 45.8129L42.8405 43.9319L44.7216 43.4816C45.3011 43.3851 45.8747 43.2317 46.4379 43.0227C46.8859 42.8218 47.2646 42.4128 46.9625 41.8756C46.6604 41.3384 45.9858 41.2286 45.4255 41.2286C44.1666 41.2286 42.8888 41.3612 41.6246 41.4524C40.3027 41.5474 38.9798 41.6495 37.6558 41.7587C35.0331 41.9725 32.4103 42.209 29.8032 42.4228C24.6342 42.8503 19.4516 43.1781 14.2596 43.1097C10.0867 43.0883 5.91931 42.6936 1.78458 41.9283C1.76255 41.5521 1.74577 41.1731 1.73633 40.7968C1.69122 39.292 1.80556 37.6732 1.19289 36.2638C1.13451 36.1406 1.05205 36.042 0.954735 35.9788C1.01034 35.3447 1.06699 34.749 1.12679 34.1534Z" fill="#846D69"/>
<path d="M115.228 44.2599C115.466 43.7226 116.053 43.5645 116.549 43.506C117.34 43.3847 118.136 43.321 118.933 43.3151C119.687 43.3048 120.44 43.3524 121.19 43.4576V47.6244C120.063 47.2496 118.935 46.8378 117.814 46.4359C117.14 46.1965 116.334 46.0283 115.716 45.6208C115.242 45.3728 115.035 44.7786 115.228 44.2599Z" fill="#846D69"/>
<path d="M75.661 40.7172C76.0523 39.503 77.2462 39.1824 78.3048 39.0214C79.7074 38.8034 81.1059 38.6096 82.5086 38.4214C85.3062 38.0519 88.108 37.7279 90.914 37.4496C96.6359 36.8938 102.367 36.539 108.107 36.3851C111.324 36.3091 114.541 36.2887 117.759 36.3238C119.006 36.3238 120.252 36.3651 121.5 36.4079C121.5 37.9526 121.517 39.4931 121.53 41.0378C119.587 41.0962 117.64 41.1091 115.699 41.1518L105.804 41.3827C104.989 41.3827 104.174 41.4211 103.353 41.4382C102.803 41.4382 101.78 41.2957 101.36 41.7874C100.845 42.403 101.56 43.1768 102.04 43.4589C102.704 43.8043 103.384 44.09 104.075 44.3139C107.074 45.472 110.11 46.517 113.182 47.449C114.869 47.9634 116.567 48.4366 118.293 48.9025H99.3751C96.1113 48.0575 92.8497 47.1925 89.5691 46.3375L81.0776 44.1059C79.7102 43.8209 78.3593 43.4613 77.0248 43.0271C76.0974 42.6766 75.2749 41.88 75.661 40.7172Z" fill="#846D69"/>
<path d="M3.59845 5.60565C5.22667 5.45318 6.8507 5.32065 8.50305 5.16532L19.652 4.145L41.8659 2.11148L47.3496 1.5999L48.1102 1.53149C49.6846 1.8389 51.2731 1.99367 52.8637 1.99463C53.0191 1.99487 53.1725 1.94609 53.3117 1.85213C53.4689 2.0495 53.5786 2.30679 53.6264 2.59029C53.66 3.23725 53.2424 3.78447 52.6581 3.88564C51.8031 4.08942 50.9344 4.2419 50.0647 4.34165C49.1488 4.49698 48.2382 4.64661 47.3254 4.79196C40.0635 5.97474 32.7896 7.03591 25.5039 7.97548C18.2182 8.91505 10.8954 9.71021 3.53549 10.361L3.21342 10.3838C3.21552 10.3406 3.21552 10.2973 3.21342 10.2541C3.22066 10.2018 3.22066 10.1482 3.21342 10.0959C3.24413 8.58668 3.37298 7.08408 3.59845 5.60565Z" fill="#846D69"/>
<path d="M5.86873 15.4374C15.3254 14.0608 24.4296 12.9308 33.7846 11.0426L37.1774 10.4598C45.0825 9.08321 52.9707 7.58978 60.7593 5.65032C62.9688 5.10025 65.1719 4.51219 67.3687 3.88613C68.3213 3.61965 69.3463 3.4173 70.2286 2.91853C70.3585 2.8442 70.4843 2.75753 70.6053 2.65918C70.8602 2.69196 71.1162 2.73043 71.3732 2.76036C72.8031 2.93421 74.1985 3.17361 75.6169 3.37882C78.4088 3.78385 81.2146 3.98697 84.0223 3.98731C89.2224 5.06653 94.4201 6.1315 99.6153 7.18222C105.427 8.38637 111.192 9.59195 116.916 11.0099C118.58 11.4136 120.24 11.8454 121.896 12.3052C124.38 13.0006 121.896 12.328 121.896 12.338C121.896 13.3355 121.965 14.3259 122.001 15.3163C119.661 14.8019 117.324 14.2675 114.972 13.81C111.056 13.0576 107.126 12.4102 103.183 11.8677C95.4598 10.8407 87.7019 10.2432 79.9098 10.075C72.0667 9.90688 64.2333 10.1819 56.4097 10.9001C49.474 11.5485 42.5677 12.4449 35.6688 13.3939L32.7124 13.8058C23.7488 15.2308 14.9929 16.7157 5.94846 16.1371C5.60855 16.1172 5.51833 15.4958 5.86873 15.4374Z" fill="#846D69"/>
<path d="M0.242455 31.8551L0.59285 28.2925C1.13 22.6798 1.67659 17.0671 2.23261 11.4544C2.47181 8.98053 2.79599 6.51951 3.0845 4.04423C3.12436 3.6951 3.16528 3.34454 3.20304 2.99541L4.04234 2.89424L9.89428 2.24727L22.4836 0.809417L25.5827 0.45886L29.029 0.0840773L29.6375 0L34.4739 0.285006L43.4333 0.810842C60.0254 1.78461 76.6143 2.77643 93.2001 3.7863C99.166 4.15966 105.126 4.53634 111.08 4.91635C112.129 4.98048 113.178 5.05885 114.234 5.12013L116.175 6.02645L116.341 6.10483L120.251 7.90891L120.447 7.99869L121.837 8.64708L122.676 9.03896L122.655 10.1291C122.55 16.0815 122.468 22.0238 122.305 27.979C122.13 34.8192 121.954 41.6593 121.741 48.4994V49.5055C121.696 50.9405 121.651 52.377 121.594 53.812C121.594 54.1354 121.57 54.496 121.553 54.8351H120.466C102.188 55.0332 83.9007 54.952 65.6346 54.962C45.541 54.962 25.4442 55.0817 5.35372 54.8964H4.30461L4.03498 53.7564C3.72724 52.3599 3.42615 50.9619 3.1317 49.5625L2.98377 48.8628C2.9544 48.7203 2.92397 48.5778 2.89565 48.4353C2.19624 45.076 1.49683 41.7201 0.797424 38.3675C0.618027 37.5125 0.447021 36.6389 0.258179 35.7768L9.91821e-05 34.5427L0.242455 31.8551ZM121.794 9.7472L113.226 5.8811C99.2387 5.20136 85.2572 4.37484 71.2673 3.61387C57.3743 2.83866 43.4854 2.04112 29.6008 1.22125L27.6463 1.10725L21.3621 1.85966L20.7799 1.92664C15.1846 2.59165 9.58164 3.26427 3.97099 3.94448C3.80418 6.10483 3.6678 8.27087 3.49365 10.4212C3.2555 13.2613 2.99323 16.0971 2.71941 18.9301C2.18751 24.5005 1.6703 30.0695 1.10797 35.64C2.06197 39.9037 3.00896 44.1707 3.94896 48.441C12.6622 48.3954 21.3764 48.365 30.0918 48.3498C51.2838 48.3498 72.4734 48.3574 93.6606 48.3726C102.64 48.3726 111.615 48.4073 120.587 48.4766C120.664 45.591 120.769 42.6996 120.844 39.8167C121.021 32.7571 121.207 25.7218 121.445 18.675C121.543 15.6967 121.674 12.7198 121.794 9.7472ZM5.09145 53.7578C13.4186 53.717 21.7475 53.6908 30.0781 53.6794C51.266 53.6794 72.4553 53.687 93.6459 53.7022C102.588 53.7022 111.526 53.7369 120.461 53.8063C120.461 52.3812 120.506 50.9562 120.54 49.5312C102.233 49.7321 83.9196 49.6509 65.6126 49.658C45.1371 49.658 24.6542 49.7834 4.18291 49.5867C4.49345 50.9728 4.7963 52.3632 5.09145 53.7578Z" fill="black"/>
<path d="M51.0392 16.7383C52.5757 15.7353 54.2244 15.0866 55.9176 14.8188C57.806 14.4397 59.7154 14.2103 61.6122 13.9737C65.6646 13.4721 69.7239 13.1235 73.7903 12.9278C78.8449 12.6941 83.8988 12.7093 88.9521 12.9734C89.9603 13.0247 90.9737 13.0888 91.9819 13.16C98.6962 13.6887 105.354 14.4426 112.007 16.325C112.007 16.325 113.032 17.0105 112.007 17.4508H87.9155L64.4878 17.4223H51.2019C51.012 17.3966 50.8735 17.2085 50.8976 17.0048C50.9042 16.9484 50.9205 16.8949 50.9451 16.8486C50.9697 16.8024 51.0019 16.7646 51.0392 16.7383Z" fill="#846D69"/>
<path opacity="0.15" d="M104.567 4.9519C104.567 4.9519 83.585 45.7077 30.8786 49.0366H60.4395L120.838 48.9753L122.151 8.99044L113.444 5.60314L104.567 4.9519Z" fill="black"/>
<path d="M77.2084 21.1943C68.6266 25.7273 58.8185 25.8798 49.4803 25.2257C44.3481 24.8509 39.2294 24.3194 34.1108 23.8406L17.8999 22.3343C12.7131 21.8384 7.52319 21.3853 2.33743 20.8281C2.43079 19.8804 2.50214 18.947 2.54725 17.978C5.13856 18.0692 7.72986 18.179 10.3233 18.273L26.5425 18.8273L58.8667 19.9574L77.0436 20.6058C77.3353 20.6243 77.4664 21.0518 77.2084 21.1943Z" fill="#846D69"/>
<path d="M28.8046 37.1138C28.8815 36.6464 28.9941 36.2152 28.9986 35.7833C29.2117 32.6529 29.4251 29.4865 29.6021 26.3558C29.7007 23.8365 29.7277 21.2806 29.8267 18.7254C29.8294 18.4734 29.7248 18.1485 30.0162 17.8268C30.0499 18.0431 30.1204 18.1877 30.1549 18.3319C30.8425 21.3975 31.4942 24.4627 32.2183 27.4925C32.7688 29.9089 33.3913 32.3259 34.0862 34.7075C34.3299 35.5015 34.4977 36.6548 35.8304 36.5934C35.8664 36.5936 35.9013 36.7019 35.9373 36.7022C36.1169 36.7396 36.2965 36.7771 36.5121 36.8148C36.5508 36.5631 36.6243 36.4196 36.6262 36.2397C36.7998 33.4329 36.9731 30.6622 37.1467 27.8555C37.3674 24.0052 37.588 20.1548 37.8087 16.3045C37.9031 14.1811 38.4295 12.0612 37.9119 9.93309C37.7388 9.2837 37.8111 9.24828 37.1632 9.24315C36.9472 9.24144 36.7672 9.24001 36.5512 9.2383C35.8304 9.3046 35.7944 9.30432 35.7505 10.06C35.6614 11.6793 35.5363 13.2984 35.4472 14.9177C35.2618 18.8404 35.1127 22.7273 34.9633 26.6502C34.961 26.8662 34.9231 27.0459 34.9209 27.2619C34.4692 25.7103 34.1252 24.1955 33.7815 22.6448C32.9556 19.0381 32.238 15.3963 31.0149 11.8946C30.6651 10.9198 30.3158 9.90898 29.7133 9.00418C29.1365 9.07162 28.5602 9.10306 27.8758 9.13364C27.7928 10.177 27.6378 11.2198 27.5912 12.2275C27.3966 17.0141 27.2025 21.7647 27.0079 26.5513C26.9082 29.1785 26.7729 31.7695 26.6011 34.3963C26.5553 35.3319 27.0524 35.9839 27.4408 36.707C27.476 36.7793 27.6189 36.8884 27.7269 36.8892C28.0497 36.9998 28.4093 37.0386 28.8046 37.1138ZM28.1467 10.7558C28.3024 13.0611 27.4496 32.4589 26.9895 35.1194C26.9994 34.1834 26.9737 33.2112 27.0195 32.2755C27.4513 25.4747 27.8468 18.7097 27.9186 11.9061C27.9227 11.5101 27.9269 11.1141 27.9307 10.7541C28.0027 10.7547 28.0747 10.7553 28.1467 10.7558ZM36.2958 9.56029C36.2616 12.8001 35.9034 16.0374 35.7612 19.2763C35.583 22.515 35.5128 25.7545 35.4058 29.0658C35.0603 27.695 35.8126 10.9965 36.2958 9.56029ZM44.5975 29.6066C44.3712 30.5768 44.1465 31.403 43.9218 32.2293C43.6974 33.0195 43.4371 33.8095 42.8539 34.4889C42.1123 33.115 41.9052 28.8652 42.4964 27.4299C43.3963 27.437 44.3675 27.5167 45.3043 27.4521C46.277 27.3878 46.5313 27.1738 46.5415 26.2018C46.5545 24.9779 46.4954 23.7534 46.3279 22.5641C46.193 21.699 45.9498 20.869 45.5978 20.1102C45.2117 19.1711 44.674 18.9509 43.7009 19.0512C43.4485 19.0852 43.1961 19.1192 42.9085 19.0809C42.1533 19.0029 41.5735 19.3583 41.2067 20.0034C40.8398 20.6486 40.4723 21.3657 40.2487 22.0839C39.424 25.1735 39.2466 28.3402 39.6811 31.5117C39.8459 32.953 40.2271 34.3601 41.0418 35.6266C41.4313 36.2417 41.8216 36.7848 42.6859 36.7556C42.8659 36.757 43.0808 36.8668 43.26 36.9402C43.8693 37.197 44.2661 37.1281 44.7038 36.5916C44.9228 36.3053 45.1422 35.983 45.254 35.6239C45.5538 34.5103 45.8539 33.3606 46.1177 32.2467C46.2708 31.3838 46.3163 30.4842 45.9295 29.6171C45.6028 29.8665 44.9965 29.3217 44.8798 30.1488C44.7737 29.968 44.7388 29.8597 44.5975 29.6066ZM44.0919 33.1667C44.2064 32.5555 44.3212 31.9084 44.436 31.2613C44.5368 31.9461 44.458 32.5935 44.0559 33.1664C44.0491 33.8143 43.6841 34.2795 43.1756 34.7074C43.5053 34.17 43.7986 33.6683 44.0919 33.1667ZM42.4752 26.0257C42.7109 24.1555 42.7299 22.3556 43.9718 20.6734C44.1479 21.0348 44.29 21.2159 44.3594 21.4684C44.7417 22.7675 44.7996 24.1 44.6776 25.4311C44.6355 26.0068 44.4544 26.1133 43.9144 26.109C43.4824 26.1056 43.0148 26.0659 42.4752 26.0257ZM41.6747 20.0072C40.1607 23.5953 40.1227 27.1951 40.0851 30.7589C39.3974 27.6933 40.2161 21.7597 41.6747 20.0072ZM45.1183 24.6065C45.1153 24.8945 45.1118 25.2185 45.1088 25.5065L45.0728 25.5062C45.0758 25.2182 45.0793 24.8942 45.0823 24.6063L45.1183 24.6065ZM47.6597 35.463C47.5566 34.9941 47.6692 34.563 47.961 34.2053C47.9985 34.0616 47.9644 33.8813 48.0383 33.7019C48.7045 31.9791 49.3707 30.2563 50.037 28.5336C50.0737 28.4619 50.1468 28.3544 50.2912 28.3196C50.2533 28.4993 50.2518 28.6433 50.1783 28.7867C49.5121 30.5095 48.8462 32.1963 48.1804 33.883C48.1433 33.9907 48.0341 34.0979 47.961 34.2053C47.8488 34.6004 47.7362 35.0315 47.6241 35.4267C47.6191 35.8946 47.6146 36.3266 47.61 36.7586C47.8616 36.7966 48.1144 36.7266 48.1852 36.8352C48.577 37.2343 48.7957 36.984 49.0151 36.6617C49.1254 36.4466 49.236 36.1954 49.3463 35.9803C49.9 34.6887 50.4896 33.3973 51.0429 32.1416C51.1172 31.9262 51.2271 31.7471 51.4101 31.4605C51.6193 32.1102 51.7576 32.6513 51.9686 33.121C52.3904 34.0964 52.8121 35.0717 53.2702 36.0114C53.4816 36.4451 53.5536 36.4456 54.0258 36.0534C54.1323 36.1982 54.2024 36.3788 54.3456 36.4519C54.4528 36.5247 54.6677 36.6344 54.7764 36.5633C54.8852 36.4922 54.9235 36.2765 54.961 36.1328C54.9621 36.0248 54.8913 35.9162 54.8564 35.8079C54.196 33.5706 53.572 31.2976 52.9115 29.0603C52.7369 28.5549 52.7414 28.123 52.9627 27.6207C53.8109 25.7194 54.6593 23.782 55.4715 21.8804C55.6571 21.3419 55.7352 20.7665 55.7769 20.2268C55.7803 19.9028 55.6038 19.5774 55.5348 19.2888C54.3131 19.0632 53.5871 19.6334 53.1429 20.7819C52.7731 21.715 52.2952 22.6473 51.8533 23.5798C51.7434 23.7589 51.6335 23.9381 51.4505 24.2246C50.7836 22.5993 50.5855 20.9057 49.6283 19.4941C49.3403 19.4918 49.0527 19.4535 48.8004 19.4875C48.584 19.5218 48.3669 19.6281 48.0417 19.7335C48.1111 19.9861 48.1073 20.3461 48.2115 20.7069C48.7662 22.7274 49.3569 24.7481 49.9476 26.7688C50.0866 27.2379 50.0461 27.6696 49.8615 28.1002C49.3818 29.2124 48.938 30.3249 48.5302 31.4377C48.0849 32.6942 47.6753 33.987 47.2656 35.2798C47.2273 35.4955 47.0799 35.8184 47.4012 36.0729C47.4031 35.8929 47.4043 35.7849 47.4774 35.6775C47.5142 35.6058 47.5869 35.5344 47.6597 35.463ZM54.0869 20.0334C53.3134 21.6833 52.576 23.3335 51.7661 25.0192C51.7362 24.4429 53.3585 20.8196 54.0869 20.0334ZM57.988 13.4041C58.0205 13.7283 58.0891 14.0529 58.0853 14.4129C58.041 15.2045 57.925 15.9596 57.8086 16.7508C57.6404 15.6334 58.0122 14.5203 57.988 13.4041C58.0247 13.3324 58.0255 13.2604 58.0622 13.1887C58.0262 13.1884 57.9902 13.1881 57.9899 13.2241C57.9167 13.3315 57.8076 13.4386 57.7704 13.5464C57.6939 13.9778 57.6173 14.4092 57.5768 14.8409C57.4972 15.5603 57.4176 16.2796 57.3376 17.035C56.5089 17.1005 55.7161 17.1662 54.9234 17.2319C55.3891 17.4516 55.3493 17.8113 55.2015 18.1702C55.92 18.3198 56.5668 18.433 57.2853 18.5827C57.283 18.7986 57.2803 19.0506 57.2777 19.3026C57.2329 20.1303 57.1882 20.958 57.1794 21.7859C57.1756 25.566 57.1357 29.3458 57.1678 33.1261C57.1598 33.8821 57.2234 34.6746 57.3958 35.396C57.4985 35.9008 57.8175 36.3714 58.0646 36.8413C58.2453 36.7708 58.3901 36.6999 58.5712 36.5933C58.713 36.8105 58.8171 37.1713 59.2158 36.9225C59.2477 33.8986 59.28 30.8388 59.3119 27.815C59.3446 24.7191 59.2329 21.6582 59.4092 18.5995C59.9859 18.532 60.4911 18.428 60.9598 18.3597C60.892 17.9632 60.823 17.6746 60.7548 17.3141C60.3592 17.275 59.892 17.1993 59.4244 17.1595C59.432 16.4396 59.4748 15.7919 59.4461 15.1077C59.4169 14.4594 59.3161 13.7746 59.2506 13.1621C58.7125 12.9778 58.351 13.1189 57.988 13.4041ZM57.4565 33.0564C57.507 28.2687 57.5572 23.5169 57.6077 18.7292C57.6437 18.7295 57.6797 18.7298 57.7157 18.7301C57.6652 23.5178 57.615 28.2695 57.5645 33.0573C57.5285 33.057 57.4925 33.0567 57.4565 33.0564Z" fill="white"/>
<g clip-path="url(#clip0_103_577)">
<path d="M74.2884 17.4454C74.2414 17.5846 74.2345 17.734 74.2684 17.8769C74.3023 18.0198 74.3756 18.1506 74.4802 18.2546L81.1592 24.6964L76.779 31.2443C76.6798 31.3962 76.6347 31.5765 76.6509 31.7567C76.6671 31.9368 76.7437 32.1064 76.8685 32.2385C76.9933 32.3706 77.1591 32.4577 77.3396 32.4858C77.5201 32.5139 77.7048 32.4815 77.8646 32.3937L89.6837 25.8027C89.8105 25.729 89.9156 25.6236 89.9883 25.497C90.0609 25.3705 90.0987 25.2272 90.0979 25.0817C90.0937 24.9378 90.0518 24.7975 89.9763 24.6745C89.9008 24.5515 89.7942 24.45 89.6672 24.38L75.4406 16.9754C75.2677 16.8822 75.0662 16.8553 74.8745 16.9C74.6829 16.9447 74.5146 17.0578 74.402 17.2177C74.3457 17.2831 74.3067 17.3614 74.2884 17.4454Z" fill="white"/>
<path d="M84.8667 18.1407C84.815 18.2966 84.8135 18.4645 84.8624 18.6213C84.9114 18.7781 85.0083 18.9159 85.1398 19.0158L92.7997 25.0759L83.6021 32.4259C83.455 32.5505 83.3561 32.7217 83.322 32.9103C83.2879 33.099 83.3208 33.2935 83.415 33.4609C83.5152 33.6302 83.6753 33.7567 83.8643 33.8158C84.0533 33.8749 84.2578 33.8624 84.438 33.7807L102.185 25.9854C102.327 25.9192 102.448 25.8146 102.533 25.6837C102.618 25.5528 102.664 25.4008 102.666 25.2451C102.666 25.0864 102.618 24.9314 102.529 24.7993C102.441 24.6672 102.315 24.5637 102.167 24.5018L85.9446 17.6475C85.7654 17.5702 85.5642 17.5589 85.3773 17.6155C85.1904 17.6722 85.0302 17.7932 84.9255 17.9566L84.8667 18.1407Z" fill="white"/>
</g>
<defs>
<clipPath id="clip0_103_577">
<rect width="16.7563" height="29.3872" fill="white" transform="matrix(0.303968 -0.952682 -0.954434 -0.298424 98.2478 39.03)"/>
</clipPath>
</defs>
</svg>
