<svg width="123" height="55" viewBox="0 0 123 55" fill="none" xmlns="http://www.w3.org/2000/svg">
<path d="M93.5682 0.622559L118.424 3.29021L119.184 3.57522L122.407 35.2037L119.117 51.3223L2.22934 50.8919L0.73645 9.30669L9.41261 5.45768L42.4995 3.37857L73.2878 1.99914L93.5682 0.622559Z" fill="#77625C"/>
<path d="M119.402 49.7232C119.423 49.6776 119.439 49.6292 119.458 49.5807C119.514 49.4489 119.576 49.3223 119.644 49.2017L119.833 48.8782L7.88409 48.9352H1.86743V54.2391H118.55C118.533 53.611 118.553 52.982 118.609 52.3581C118.645 51.9136 118.725 51.4777 118.848 51.0627C118.967 50.6865 119.122 50.3502 119.25 49.9911C119.292 49.8934 119.343 49.8034 119.402 49.7232Z" fill="#3F3332"/>
<path d="M121.549 29.1188C121.547 29.0185 121.558 28.9185 121.583 28.8238C121.563 27.8856 121.483 26.9515 121.344 26.0322C113.539 27.3479 105.687 28.2267 97.7877 28.6685C89.185 29.1435 80.5823 29.0418 71.9796 28.3635C63.3293 27.6377 54.7378 26.388 46.205 24.6143C37.7156 22.8658 29.2639 21.0517 20.6371 20.171C13.995 19.4952 7.33181 19.2793 0.673523 19.5241C0.844365 20.8641 0.892991 22.2277 0.818301 23.584C8.37505 24.1967 15.9329 25.1372 23.4393 26.2074C32.3976 27.4828 41.3182 28.9791 50.2724 30.3486C58.9223 31.6439 67.5943 32.8324 76.3009 33.5863C84.9623 34.3743 93.6584 34.5838 102.341 34.2019C108.812 33.9124 115.266 33.1418 121.675 31.8933C121.602 30.9414 121.551 30.0308 121.549 29.1188Z" fill="#846D69"/>
<path d="M121.873 34.1534V35.8634C121.125 35.9546 120.376 36.0415 119.625 36.117C115.254 36.5617 110.873 36.8519 106.48 36.9877C97.6807 37.2727 88.8671 36.9877 80.0797 36.3393C71.2095 35.6824 62.3613 34.6949 53.532 33.5349C44.7026 32.3749 35.802 31.0895 26.9506 29.7956C18.2619 28.5131 9.62243 27.2462 0.953613 26.0193C1.30402 27.8105 1.14245 29.6488 1.08055 31.4686C4.83777 31.7394 8.5957 32.0448 12.3543 32.3849C19.9163 33.1145 27.4654 34.017 35.0015 35.0924C42.5373 36.1712 50.0615 37.4309 57.5574 38.7876C59.4227 39.1239 61.279 39.4682 63.1261 39.8207C63.9445 39.9277 64.7574 40.1028 65.56 40.3451C66.0846 40.5332 66.7518 40.898 66.7518 41.582C66.7518 42.266 66.051 42.6793 65.56 42.913C64.7955 43.2122 64.0176 43.4435 63.231 43.6056C61.4349 44.0806 59.6336 44.5318 57.827 44.9594C50.6511 46.6623 43.4112 48.0032 36.1324 49.1005H78.0738C78.1598 48.9575 78.2694 48.8443 78.3938 48.77C78.5181 48.6957 78.6537 48.6624 78.7893 48.673H99.9898C98.5588 48.3196 97.1289 47.9932 95.6979 47.6498L88.0152 45.8129L80.1595 43.9319L78.2784 43.4816C77.6989 43.3851 77.1253 43.2317 76.5621 43.0227C76.1141 42.8218 75.7354 42.4128 76.0375 41.8756C76.3396 41.3384 77.0142 41.2286 77.5745 41.2286C78.8334 41.2286 80.1112 41.3612 81.3754 41.4524C82.6973 41.5474 84.0202 41.6495 85.3442 41.7587C87.9669 41.9725 90.5897 42.209 93.1968 42.4228C98.3658 42.8503 103.548 43.1781 108.74 43.1097C112.913 43.0883 117.081 42.6936 121.215 41.9283C121.237 41.5521 121.254 41.1731 121.264 40.7968C121.309 39.292 121.194 37.6732 121.807 36.2638C121.865 36.1406 121.948 36.042 122.045 35.9788C121.99 35.3447 121.933 34.749 121.873 34.1534Z" fill="#846D69"/>
<path d="M7.7718 44.2599C7.53365 43.7226 6.9472 43.5645 6.45097 43.506C5.65951 43.3847 4.86385 43.321 4.06738 43.3151C3.31345 43.3048 2.55968 43.3524 1.80969 43.4576V47.6244C2.93749 47.2496 4.06529 46.8378 5.18574 46.4359C5.86032 46.1965 6.66603 46.0283 7.28396 45.6208C7.75816 45.3728 7.96483 44.7786 7.7718 44.2599Z" fill="#846D69"/>
<path d="M47.3391 40.7172C46.9477 39.503 45.7538 39.1824 44.6953 39.0214C43.2926 38.8034 41.8942 38.6096 40.4915 38.4214C37.6939 38.0519 34.892 37.7279 32.086 37.4496C26.3642 36.8938 20.6332 36.539 14.8932 36.3851C11.6759 36.3091 8.45862 36.2887 5.24135 36.3238C3.99395 36.3238 2.74761 36.3651 1.50021 36.4079C1.50021 37.9526 1.48343 39.4931 1.46979 41.0378C3.41274 41.0962 5.3599 41.1091 7.30075 41.1518L17.196 41.3827C18.0111 41.3827 18.8263 41.4211 19.6467 41.4382C20.1975 41.4382 21.2204 41.2957 21.64 41.7874C22.1551 42.403 21.4396 43.1768 20.9602 43.4589C20.2963 43.8043 19.6164 44.09 18.9249 44.3139C15.9258 45.472 12.8901 46.517 9.81757 47.449C8.1306 47.9634 6.43314 48.4366 4.70735 48.9025H23.6249C26.8887 48.0575 30.1504 47.1925 33.431 46.3375L41.9225 44.1059C43.2898 43.8209 44.6407 43.4613 45.9752 43.0271C46.9026 42.6766 47.7251 41.88 47.3391 40.7172Z" fill="#846D69"/>
<path d="M119.402 5.60565C117.773 5.45318 116.149 5.32065 114.497 5.16532L103.348 4.145L81.1341 2.11148L75.6504 1.5999L74.8898 1.53149C73.3154 1.8389 71.7269 1.99367 70.1363 1.99463C69.9809 1.99487 69.8275 1.94609 69.6883 1.85213C69.5311 2.0495 69.4214 2.30679 69.3736 2.59029C69.34 3.23725 69.7576 3.78447 70.3419 3.88564C71.1969 4.08942 72.0656 4.2419 72.9353 4.34165C73.8512 4.49698 74.7618 4.64661 75.6746 4.79196C82.9365 5.97474 90.2104 7.03591 97.4961 7.97548C104.782 8.91505 112.105 9.71021 119.465 10.361L119.787 10.3838C119.784 10.3406 119.784 10.2973 119.787 10.2541C119.779 10.2018 119.779 10.1482 119.787 10.0959C119.756 8.58668 119.627 7.08408 119.402 5.60565Z" fill="#846D69"/>
<path d="M117.131 15.4374C107.675 14.0608 98.5704 12.9308 89.2154 11.0426L85.8226 10.4598C77.9175 9.08321 70.0293 7.58978 62.2407 5.65032C60.0312 5.10025 57.8281 4.51219 55.6313 3.88613C54.6787 3.61965 53.6537 3.4173 52.7714 2.91853C52.6415 2.8442 52.5157 2.75753 52.3947 2.65918C52.1398 2.69196 51.8838 2.73043 51.6268 2.76036C50.1969 2.93421 48.8015 3.17361 47.3831 3.37882C44.5912 3.78385 41.7854 3.98697 38.9777 3.98731C33.7776 5.06653 28.5799 6.1315 23.3847 7.18222C17.5726 8.38637 11.8078 9.59195 6.0838 11.0099C4.41991 11.4136 2.75986 11.8454 1.10367 12.3052C-1.37958 13.0006 1.10367 12.328 1.10367 12.338C1.10367 13.3355 1.03547 14.3259 0.998755 15.3163C3.33932 14.8019 5.6757 14.2675 8.0278 13.81C11.9445 13.0576 15.8741 12.4102 19.8167 11.8677C27.5402 10.8407 35.2981 10.2432 43.0902 10.075C50.9333 9.90688 58.7667 10.1819 66.5903 10.9001C73.526 11.5485 80.4323 12.4449 87.3312 13.3939L90.2876 13.8058C99.2512 15.2308 108.007 16.7157 117.052 16.1371C117.391 16.1172 117.482 15.4958 117.131 15.4374Z" fill="#846D69"/>
<path d="M122.758 31.8551L122.407 28.2925C121.87 22.6798 121.323 17.0671 120.767 11.4544C120.528 8.98053 120.204 6.51951 119.916 4.04423C119.876 3.6951 119.835 3.34454 119.797 2.99541L118.958 2.89424L113.106 2.24727L100.516 0.809417L97.4174 0.45886L93.971 0.0840773L93.3625 0L88.5261 0.285006L79.5667 0.810842C62.9747 1.78461 46.3858 2.77643 29.8 3.7863C23.8341 4.15966 17.8741 4.53634 11.92 4.91635C10.8709 4.98048 9.82177 5.05885 8.76636 5.12013L6.8255 6.02645L6.65869 6.10483L2.74865 7.90891L2.55352 7.99869L1.16345 8.64708L0.324158 9.03896L0.345138 10.1291C0.450049 16.0815 0.53188 22.0238 0.695541 27.979C0.869694 34.8192 1.04594 41.6593 1.25891 48.4994V49.5055C1.30403 50.9405 1.34914 52.377 1.40579 53.812C1.40579 54.1354 1.42992 54.496 1.44671 54.8351H2.53359C20.8123 55.0332 39.0993 54.952 57.3654 54.962C77.4591 54.962 97.5558 55.0817 117.646 54.8964H118.695L118.965 53.7564C119.273 52.3599 119.574 50.9619 119.868 49.5625L120.016 48.8628C120.046 48.7203 120.076 48.5778 120.104 48.4353C120.804 45.076 121.503 41.7201 122.203 38.3675C122.382 37.5125 122.553 36.6389 122.742 35.7768L123 34.5427L122.758 31.8551ZM1.20646 9.7472L9.77456 5.8811C23.7613 5.20136 37.7428 4.37484 51.7327 3.61387C65.6258 2.83866 79.5146 2.04112 93.3993 1.22125L95.3538 1.10725L101.638 1.85966L102.22 1.92664C107.815 2.59165 113.418 3.26427 119.029 3.94448C119.196 6.10483 119.332 8.27087 119.506 10.4212C119.745 13.2613 120.007 16.0971 120.281 18.9301C120.813 24.5005 121.33 30.0695 121.892 35.64C120.938 39.9037 119.991 44.1707 119.051 48.441C110.338 48.3954 101.624 48.365 92.9083 48.3498C71.7162 48.3498 50.5266 48.3574 29.3394 48.3726C20.3604 48.3726 11.3849 48.4073 2.41294 48.4766C2.33635 45.591 2.23144 42.6996 2.15591 39.8167C1.97861 32.7571 1.79291 25.7218 1.55476 18.675C1.4572 15.6967 1.32606 12.7198 1.20646 9.7472ZM117.909 53.7578C109.581 53.717 101.253 53.6908 92.9219 53.6794C71.7341 53.6794 50.5448 53.687 29.3541 53.7022C20.4122 53.7022 11.4738 53.7369 2.53883 53.8063C2.53883 52.3812 2.49372 50.9562 2.46015 49.5312C20.7672 49.7321 39.0805 49.6509 57.3875 49.658C77.863 49.658 98.3458 49.7834 118.817 49.5867C118.507 50.9728 118.204 52.3632 117.909 53.7578Z" fill="black"/>
<path d="M71.9607 16.7383C70.4242 15.7353 68.7756 15.0866 67.0823 14.8188C65.1939 14.4397 63.2845 14.2103 61.3877 13.9737C57.3354 13.4721 53.276 13.1235 49.2097 12.9278C44.155 12.6941 39.1011 12.7093 34.0479 12.9734C33.0397 13.0247 32.0262 13.0888 31.018 13.16C24.3037 13.6887 17.6461 14.4426 10.9926 16.325C10.9926 16.325 9.96761 17.0105 10.9926 17.4508H35.0844L58.5121 17.4223H71.7981C71.988 17.3966 72.1264 17.2085 72.1023 17.0048C72.0957 16.9484 72.0794 16.8949 72.0548 16.8486C72.0302 16.8024 71.998 16.7646 71.9607 16.7383Z" fill="#846D69"/>
<path opacity="0.15" d="M18.4329 4.9519C18.4329 4.9519 39.4151 45.7077 92.1214 49.0366H62.5606L2.16218 48.9753L0.848694 8.99044L9.55632 5.60314L18.4329 4.9519Z" fill="black"/>
<path d="M45.7916 21.1943C54.3734 25.7273 64.1815 25.8798 73.5197 25.2257C78.6519 24.8509 83.7706 24.3194 88.8892 23.8406L105.1 22.3343C110.287 21.8384 115.477 21.3853 120.663 20.8281C120.569 19.8804 120.498 18.947 120.453 17.978C117.861 18.0692 115.27 18.179 112.677 18.273L96.4575 18.8273L64.1333 19.9574L45.9564 20.6058C45.6647 20.6243 45.5336 21.0518 45.7916 21.1943Z" fill="#846D69"/>
<path d="M66.0426 19.6067C66.1528 19.3915 66.2631 19.1764 66.409 18.9976C68.2715 16.4922 68.3728 13.721 67.3589 10.8689C67.0087 9.93006 66.3684 9.20497 65.3619 9.053C64.4627 8.97388 63.49 9.03818 62.5525 9.17477C61.687 9.31192 61.4308 9.70591 61.3857 10.5696C61.162 14.7079 60.8663 18.8457 60.7506 22.9849C60.6479 25.9002 60.7607 28.8531 60.8015 31.8055C60.7924 32.6695 60.8549 33.57 60.9538 34.4348C61.0178 35.1914 61.1178 35.9482 61.5786 36.6358C61.7203 36.853 61.8275 36.9258 62.1144 37.0361C62.9037 37.2943 63.6612 37.1563 64.4187 37.0183C64.8155 36.9495 65.2493 36.7729 65.576 36.5235C66.5556 35.8112 67.285 34.9169 67.8004 33.841C68.0581 33.303 68.3158 32.765 68.5379 32.1908C69.7202 29.3201 70.3634 26.3731 69.6401 23.2713C69.2275 21.4319 68.3052 20.1286 66.365 19.7532C66.2574 19.7164 66.1498 19.6795 66.0426 19.6067ZM63.2096 21.9603C63.5707 21.8552 63.9318 21.75 64.257 21.6446C64.6181 21.5395 64.9792 21.4343 65.34 21.3652C66.3135 21.2289 66.9933 21.6303 67.235 22.6042C67.4081 23.2536 67.5445 23.9747 67.4653 24.6581C67.2966 26.9968 66.9123 29.2978 65.8816 31.4497C65.2934 32.5971 64.598 33.6716 63.6526 34.5642C63.5438 34.6353 63.3991 34.7062 63.2899 34.8133C63.0808 34.1636 63.0167 23.1828 63.2096 21.9603ZM63.2074 18.7562C63.093 15.9472 63.3368 13.3211 63.4376 10.5858C63.7984 10.5167 64.1235 10.4112 64.4839 10.3781C65.0602 10.3466 65.4892 10.6381 65.6275 11.1792C65.7665 11.6483 65.8692 12.1531 65.8643 12.6211C65.8752 14.9972 64.8827 16.9334 63.2074 18.7562ZM61.823 10.069C61.591 14.9993 61.3945 19.9659 61.1625 24.8962C61.0345 19.9631 61.3386 15.0333 61.823 10.069ZM65.6871 32.8162C66.1692 31.488 66.7592 30.1606 67.1696 28.7959C67.5441 27.4308 67.7029 26.028 68.0413 24.6626C67.9385 27.5779 67.2973 30.3449 65.6871 32.8162ZM61.3303 26.0496C61.3037 28.5694 61.2771 31.0893 61.2505 33.6091C61.2145 33.6089 61.2145 33.6089 61.1785 33.6086C61.2051 31.0887 61.2317 28.5689 61.2583 26.049C61.2943 26.0493 61.2943 26.0493 61.3303 26.0496ZM64.9524 17.15C65.6137 15.8952 66.0954 14.603 66.1833 13.0916C66.4588 14.2818 65.9362 16.0417 64.9524 17.15ZM63.4563 19.0462C63.5655 18.9391 63.6386 18.8316 63.7118 18.7242C63.7478 18.7245 63.7834 18.7608 63.8194 18.7611C63.7102 18.8682 63.6367 19.0116 63.5636 19.119C63.528 19.0828 63.492 19.0825 63.4563 19.0462ZM64.7758 33.8891C64.8853 33.7459 65.0312 33.5671 65.1407 33.4239C65.1763 33.4602 65.2123 33.4605 65.2479 33.4968C65.102 33.6756 64.9925 33.8188 64.8826 33.9979C64.847 33.9616 64.8114 33.9253 64.7758 33.8891ZM77.1198 23.5825C77.0831 23.6542 77.0107 23.6896 76.9383 23.725C76.4749 23.2893 75.9342 23.3571 75.3934 23.4248C75.177 23.4591 74.9247 23.4931 74.709 23.4554C73.8095 23.4123 73.1565 23.8751 72.717 24.5916C72.3509 25.1648 72.0921 25.8107 71.9052 26.4573C71.4558 28.1098 71.3303 29.7648 71.4204 31.4576C71.5128 32.9343 71.8588 34.2691 72.6374 35.5353C73.2039 36.4398 75.0679 37.2106 76.0793 36.8946C76.296 36.8243 76.5139 36.646 76.7314 36.5037C76.8766 36.3969 77.0225 36.218 77.2044 36.0395C77.2726 36.4 77.3059 36.6523 77.3737 37.0488C77.664 36.8351 77.8815 36.6929 78.099 36.5506C78.2756 36.876 78.3063 37.3802 78.9565 37.1694C79.071 36.5583 79.1502 35.8749 79.2294 35.1915C79.7335 31.7754 79.986 28.3213 79.7705 24.8635C79.6773 23.4587 79.4397 22.0888 78.9134 20.7886C78.4928 19.7052 77.6717 19.0507 76.5569 18.9339C75.2984 18.7799 74.0373 18.8779 72.8092 19.2642C72.5561 19.3702 72.3022 19.5482 72.0846 19.6905C72.2256 19.9796 72.3317 20.1605 72.4378 20.3413C72.473 20.4136 72.5435 20.5582 72.5795 20.5584C73.0115 20.5619 73.3684 20.8527 73.8747 20.6407C74.4534 20.3933 75.1381 20.3267 75.7868 20.2598C76.5076 20.1935 76.7929 20.4478 76.8937 21.1326C77.0289 21.9617 77.0562 22.7899 77.1198 23.5825ZM74.8372 35.1927C74.1574 34.7913 73.9118 34.1774 73.8827 33.5291C73.7259 31.3318 73.8567 29.1728 74.4187 27.0892C74.6434 26.2629 75.011 25.5458 75.9163 25.049C76.0569 25.3741 76.2338 25.6635 76.3024 25.9881C76.8196 28.1522 76.9044 30.3489 76.8448 32.5805C76.8429 32.7605 76.841 32.9405 76.7675 33.0839C76.2188 33.9076 75.6705 34.6953 74.8372 35.1927ZM71.9183 32.0375C71.6925 29.5517 71.7188 27.0678 73.0027 24.8099C72.042 27.1424 71.9802 29.59 71.9183 32.0375ZM77.6962 23.551C77.6928 23.875 77.6894 24.199 77.6859 24.523C77.6499 24.5227 77.6139 24.5224 77.5779 24.5221C77.5814 24.1981 77.5844 23.9101 77.5878 23.5862C77.6238 23.5864 77.6598 23.5867 77.6962 23.551ZM86.0587 34.1655C87.3286 29.8194 87.3665 29.6397 87.0872 28.8095C86.8599 29.8877 86.5965 30.9657 86.3331 32.0436C86.0701 33.0856 85.7347 34.1629 84.898 34.9843C84.222 34.223 84.1227 33.3942 84.0958 32.5299C83.9803 29.8289 84.0452 27.0934 84.5413 24.4332C84.6944 23.5704 84.9908 22.7807 85.2875 21.9551C85.3989 21.6319 85.5827 21.2734 86.0151 21.2408C86.2939 22.107 86.5732 22.9373 86.8165 23.7672C87.1048 23.7335 87.3216 23.6632 87.4652 23.7003C87.9658 24.0283 88.1461 23.9937 88.1522 23.4178C88.1988 22.4101 88.0655 21.401 87.571 20.4971C87.2186 19.7743 86.5748 19.3732 85.7097 19.4743C85.4213 19.508 85.1333 19.5058 84.8454 19.5035C83.9818 19.4607 83.294 19.8152 82.9264 20.5323C82.5228 21.2492 82.1912 21.9666 82.0029 22.7571C81.3283 25.2718 81.2649 27.8634 81.3452 30.4921C81.3963 32.4726 82.0253 34.2776 83.1238 35.9423C83.6198 36.7023 85.3409 37.3639 86.2079 37.0828C86.533 36.9773 86.8233 36.7636 87.0776 36.5496C87.2958 36.3354 87.4789 36.0488 87.6255 35.7979C88.9098 33.504 88.9349 31.1282 88.4207 28.676C88.0247 28.6729 87.7367 28.6706 87.4128 28.6681C87.2486 30.5748 87.0125 32.481 86.0587 34.1655ZM81.7378 30.8192C81.7034 27.2548 81.597 23.6899 83.2879 20.3912C83.3595 20.4278 83.4315 20.4283 83.5035 20.4289C83.4296 20.6083 83.3917 20.788 83.2822 20.9312C82.7297 22.1148 82.4284 23.3725 82.3071 24.6315C82.1441 26.4303 82.0527 28.2656 81.9254 30.1007C81.9227 30.3527 81.92 30.6046 81.9174 30.8566C81.8458 30.8201 81.8098 30.8198 81.7378 30.8192ZM91.2876 13.0383C90.9602 13.3597 90.92 13.7554 90.9158 14.1514C90.826 15.8427 90.7358 17.5701 90.6459 19.2614C90.4119 24.3717 90.142 29.4817 90.1957 34.6303C90.1907 35.0982 90.2574 35.6028 90.3608 36.0356C90.4654 36.3604 90.7144 36.6504 90.9273 36.9401C91.0713 36.9412 91.2877 36.907 91.4669 36.9804C92.0759 37.2732 92.2202 37.2384 92.3711 36.5915C92.4457 36.3401 92.4488 36.0521 92.4518 35.7641C92.5864 33.2451 92.685 30.7258 92.7836 28.2066C92.8215 28.0269 92.8234 27.8469 92.8617 27.6312C93.4013 27.6714 93.3967 28.1034 93.5017 28.3922C94.4103 30.9915 95.6808 33.4136 96.9513 35.8358C97.0922 36.1249 97.378 36.3431 97.5917 36.5608C97.9547 36.2757 98.1991 36.9977 98.6353 36.6051C98.6019 36.3528 98.605 36.0648 98.5 35.776C98.0465 34.4044 97.6285 33.069 97.1386 31.7331C96.4043 29.6753 95.5972 27.6888 94.8265 25.6667C95.631 24.485 96.4355 23.3033 97.2401 22.1217C97.7524 21.3337 98.2644 20.5817 97.7346 19.6055C96.6929 19.3812 95.8608 19.7707 95.2397 20.6298C94.655 21.4532 94.0706 22.2406 93.4503 23.0277C93.3408 23.1708 93.2316 23.278 93.013 23.5282C93.0175 23.0963 93.0202 22.8443 93.0229 22.5923C93.0464 20.3604 93.106 18.1288 93.0935 15.8967C93.0674 14.9604 92.8977 13.9871 92.7999 13.0143C92.5116 13.048 92.3676 13.0468 92.1876 13.0454C92.0076 13.044 91.8272 13.0786 91.5392 13.0763C91.2117 16.8178 91.2082 20.5619 91.0614 24.2328C90.8783 27.9395 90.7312 31.6464 90.5841 35.3533C90.4823 27.9363 90.9926 20.5242 91.2876 13.0383Z" fill="white"/>
<g clip-path="url(#clip0_103_576)">
<path d="M47.7117 17.4454C47.7586 17.5846 47.7655 17.734 47.7317 17.8769C47.6978 18.0198 47.6245 18.1506 47.5199 18.2546L40.8409 24.6964L45.2211 31.2443C45.3203 31.3962 45.3654 31.5765 45.3491 31.7567C45.3329 31.9368 45.2563 32.1064 45.1316 32.2385C45.0068 32.3706 44.841 32.4577 44.6605 32.4858C44.48 32.5139 44.2952 32.4815 44.1355 32.3937L32.3163 25.8027C32.1895 25.729 32.0845 25.6236 32.0118 25.497C31.9391 25.3705 31.9013 25.2272 31.9022 25.0817C31.9064 24.9378 31.9483 24.7975 32.0238 24.6745C32.0993 24.5515 32.2058 24.45 32.3329 24.38L46.5594 16.9754C46.7323 16.8822 46.9339 16.8553 47.1255 16.9C47.3172 16.9447 47.4855 17.0578 47.5981 17.2177C47.6543 17.2831 47.6934 17.3614 47.7117 17.4454Z" fill="white"/>
<path d="M37.1334 18.1407C37.1851 18.2966 37.1866 18.4645 37.1377 18.6213C37.0888 18.7781 36.9918 18.9159 36.8603 19.0158L29.2005 25.0759L38.398 32.4259C38.5451 32.5505 38.644 32.7217 38.6781 32.9103C38.7122 33.099 38.6793 33.2935 38.5851 33.4609C38.4849 33.6302 38.3248 33.7567 38.1358 33.8158C37.9468 33.8749 37.7423 33.8624 37.5621 33.7807L19.8154 25.9854C19.673 25.9192 19.5524 25.8146 19.4672 25.6837C19.382 25.5528 19.3358 25.4008 19.3337 25.2451C19.3343 25.0864 19.382 24.9314 19.4707 24.7993C19.5594 24.6672 19.6854 24.5637 19.8329 24.5018L36.0556 17.6475C36.2347 17.5702 36.4359 17.5589 36.6228 17.6155C36.8097 17.6722 36.97 17.7932 37.0747 17.9566L37.1334 18.1407Z" fill="white"/>
</g>
<defs>
<clipPath id="clip0_103_576">
<rect width="16.7563" height="29.3872" fill="white" transform="matrix(-0.303968 -0.952682 0.954434 -0.298424 23.7523 39.03)"/>
</clipPath>
</defs>
</svg>
