<svg width="404" height="380" viewBox="0 0 404 380" fill="none" xmlns="http://www.w3.org/2000/svg">
<g clip-path="url(#clip0_103_2233)">
<path d="M382.255 374.95L379.614 376.47L368.545 378.872L361.296 379.313L339.832 377.548L307.13 374.851L285.385 373.086L272.405 372.057L225.824 370.488L198.572 370.586L169.579 370.733L158.734 371.174L128.954 372.4C128.954 372.4 116.817 372.841 79.5077 376.273C41.8609 381.177 27.027 377.744 27.027 377.744C27.027 377.744 25.2851 376.911 19.7224 375.489C23.8804 374.41 25.4537 369.703 25.4537 369.703L35.4554 370.095L35.9611 368.379L37.9839 349.747L38.2648 315.375L45.5694 311.061L44.3894 307.873L40.6248 293.85L39.1639 275.61L38.3772 246.877V176.124L38.9953 129.347L44.0523 126.993L38.2086 124.297L38.0963 101.889L38.8829 81.4915L40.5686 56.9754L41.58 45.3057L19.8348 4.41284L30.3422 1.66704L35.3992 1.47091L44.3894 1.66704L70.8545 4.02059L101.309 6.4722L118.278 7.40381L131.988 8.1393L134.685 8.28639L175.703 10.1496L199.471 9.80639L233.859 9.26704L254.649 8.77671L268.753 8.04123L276.844 7.59994L286.34 7.10962L316.401 4.85413L347.586 1.61801C347.586 1.61801 348.092 1.7651 359.33 0.784457C370.567 -0.196188 380.232 3.87349 380.232 3.87349L380.906 7.30575L374.501 12.6012L363.038 44.6683L363.263 62.3199L364.949 77.7651L366.69 92.818L364.218 93.6025L364.162 107.086V146.018L364.33 181.91L363.769 223.93L357.756 226.627L364.33 228.637L364.724 248.348L364.106 271.492L361.914 294.782L365.96 294.635L365.061 306.55L365.229 318.906L365.567 330.085L367.196 345.628L379.614 370.537L382.255 374.95Z" fill="#F0E0C6"/>
<path d="M382.255 374.95L379.614 376.47L368.545 378.872L361.296 379.313L339.832 377.548L307.13 374.852L285.385 373.086L272.405 372.057L225.824 370.488L198.572 370.586L169.579 370.733L158.734 371.174L128.954 372.4C128.954 372.4 116.817 372.841 79.5077 376.273C41.8609 381.177 27.027 377.744 27.027 377.744C27.027 377.744 25.2851 376.911 19.7224 375.489C23.8804 374.41 25.4537 369.703 25.4537 369.703L35.4554 370.095L35.9611 368.379L37.9839 349.747L38.2648 315.375L45.5694 311.061L44.3894 307.874L40.6248 293.85L39.1639 275.61L38.3772 246.877V176.124L38.9953 129.347L44.0523 126.994L38.2086 124.297L38.0963 101.889L38.8829 81.4916L40.5686 56.9755L41.58 45.3058L19.8348 4.41288L30.3422 1.66708L35.3992 1.47095L44.3894 1.66708L70.8545 4.02063L101.309 6.47224L118.278 7.40385C114.513 52.7587 97.7129 316.013 210.99 324.25C299.095 317.729 282.407 69.5277 276.9 7.64901L286.396 7.15869L316.457 4.90321L347.642 1.66708C347.642 1.66708 348.148 1.81417 359.386 0.83353C370.624 -0.147115 380.288 3.92256 380.288 3.92256L380.962 7.35482L374.557 12.6503L363.094 44.7174L363.319 62.369L365.005 77.8142L366.747 92.8671L364.274 93.6516L364.218 107.135V146.067L364.387 181.959L363.825 223.979L357.812 226.676L364.387 228.686L364.78 248.397L364.162 271.541L361.971 294.831L366.016 294.684L365.117 306.599L365.286 318.955L365.623 330.134L367.252 345.677L379.67 370.586L382.255 374.95Z" fill="#ECDAC2"/>
<path d="M155.475 370.831C156.599 370.978 157.667 371.076 158.791 371.223L129.01 372.449C129.01 372.449 116.873 372.89 79.5638 376.323C41.9171 381.226 27.0832 377.794 27.0832 377.794C27.0832 377.794 25.3413 376.96 19.7786 375.538C23.9366 374.459 25.5099 369.752 25.5099 369.752L35.5115 370.145L36.0172 368.428L38.04 349.796L38.321 315.425L45.6256 311.11L44.4456 307.923L40.6809 293.899L39.22 275.659L38.4334 246.926V176.124L39.0514 129.347L44.1085 126.994L38.2086 124.297L38.0962 101.889L38.8829 81.4916L40.5686 56.9755L41.58 45.3058L19.8348 4.41288L30.3421 1.66708L35.3991 1.47095L44.3894 1.66708L70.8545 4.02062L101.309 6.47224L131.988 8.18837L131.707 8.62966C131.707 8.62966 77.7658 11.8168 57.4815 10.1497C49.2779 15.8374 48.0979 25.84 49.2779 30.351C56.5263 34.6658 60.01 39.0297 60.01 39.0297L51.1321 36.6761C51.1321 36.6761 42.9285 104.292 45.9627 119.786C53.9978 125.474 54.953 127.288 54.953 127.288L46.356 134.152C46.356 134.152 44.3894 275.806 48.716 292.33C56.0206 309.246 56.0206 309.246 56.0206 309.246L46.9741 321.652C46.9741 321.652 43.9399 354.307 44.3894 363.329C44.8389 372.351 124.459 362.594 155.475 370.831Z" fill="#D8C1AB"/>
<path d="M382.255 374.95L379.614 376.47L368.545 378.872L361.296 379.313L339.832 377.548L307.13 374.851L285.385 373.086H285.609C285.609 373.086 332.078 369.556 352.755 369.556C363.656 361.319 352.474 306.697 330.111 297.43C351.07 296.204 351.07 296.204 351.07 296.204C351.07 296.204 355.958 248.888 355.958 237.365C349.665 226.088 349.665 226.088 349.665 226.088L356.857 215.055L357.363 97.7212L354.834 101.399L355.958 83.8941C355.958 83.8941 351.632 34.3225 353.654 20.2993C353.879 9.5122 287.351 8.18833 268.865 8.04123L286.452 7.10962L316.513 4.85413L347.698 1.61801C347.698 1.61801 348.204 1.7651 359.442 0.784457C370.68 -0.196188 380.344 3.87349 380.344 3.87349L381.019 7.30575L374.613 12.6012L363.15 44.6683L363.375 62.3199L365.061 77.7651L366.803 92.818L364.33 93.6025L364.274 107.086V146.018L364.443 181.91L363.881 223.93L357.869 226.627L364.443 228.637L364.836 248.348L364.218 271.492L362.027 294.782L366.072 294.635L365.173 306.55L365.342 318.906L365.679 330.085L367.308 345.628L379.726 370.537L382.255 374.95Z" fill="#D8C1AB"/>
<path d="M25.9594 352.64C25.6223 350.532 25.2289 348.374 24.2737 346.56C23.9928 346.021 23.6556 345.481 23.3185 344.991C21.8576 343.03 19.2729 341.902 16.5758 342.098C13.9911 342.441 11.7435 343.961 10.7321 346.07C9.43978 348.521 10.0017 350.973 10.7321 353.474C10.8445 353.866 10.9569 354.209 11.0693 354.552C11.575 355.974 11.9121 357.445 12.0245 358.965C12.0245 359.456 12.0245 359.897 11.9121 360.387C11.9683 359.995 12.0245 359.554 11.9683 359.112C11.9121 357.347 11.2378 355.68 10.6198 354.111C10.1702 353.032 9.77691 351.954 9.49597 350.826C9.43978 350.532 9.38359 350.188 9.38359 349.894C9.38359 349.649 9.15883 349.453 8.93408 349.453C8.87789 349.453 8.87789 349.453 8.8217 349.453C7.47316 349.502 6.18081 349.845 5.00084 350.434C3.20278 351.414 2.02281 353.081 1.74186 354.896C1.68568 355.239 1.62949 355.631 1.5733 355.974C1.46092 357.151 1.46092 358.377 1.5733 359.554V359.75C1.62949 360.828 1.74186 361.858 1.91043 362.937C2.079 364.114 2.5847 365.241 3.42754 366.173C4.21419 367.007 5.33797 367.546 6.51794 367.791C7.7541 368.085 9.04645 368.134 10.3388 367.889C10.5074 367.84 10.6759 367.742 10.7321 367.644C10.9569 367.105 11.3502 366.614 11.7997 366.222H11.8559C11.9121 366.222 11.9121 366.222 11.9121 366.271C10.6198 368.428 10.7883 371.027 12.3054 373.087C13.4292 374.459 15.2273 375.293 17.1939 375.293C17.9805 375.293 18.8234 375.146 19.5538 374.901C25.1727 373.185 26.1841 366.565 26.4651 361.76C26.5775 358.72 26.4089 355.68 25.9594 352.64ZM16.7444 345.628C17.1939 345.678 17.6434 345.776 18.0367 345.874C18.8796 346.168 19.6662 346.658 20.2843 347.247C20.79 347.737 21.2395 348.325 21.5204 348.963C21.1833 348.374 20.6776 347.835 20.1157 347.394C19.4976 346.854 18.711 346.462 17.9243 346.168L16.6882 345.825L16.2949 345.776C16.1263 345.776 15.9577 345.727 15.7892 345.678C16.0701 345.579 16.4072 345.579 16.7444 345.628Z" fill="#A59886"/>
<path d="M37.5342 346.364C37.4218 349.11 37.1971 351.954 36.9723 354.797C36.7475 358.083 36.4104 361.368 36.1295 364.751L36.0733 365.094C36.0171 366.516 35.7923 367.938 35.399 369.311C35.3428 369.507 35.1742 369.654 34.8933 369.654H26.4649C26.184 369.605 25.9592 369.409 25.9592 369.164V369.017C26.2964 368.036 26.5773 367.007 26.7459 365.977C27.3078 362.643 27.4763 359.308 27.2516 355.925C27.0268 353.032 26.6335 349.698 25.3973 346.756C25.3973 346.707 25.3411 346.658 25.2849 346.658C25.1726 346.413 25.2288 346.168 25.4535 346.021C25.5097 345.972 25.6221 345.972 25.7345 345.972L29.4429 346.021C32.0838 346.021 34.5562 346.07 37.0285 346.07C37.1971 346.07 37.3094 346.119 37.4218 346.217C37.5342 346.07 37.5342 346.266 37.5342 346.364Z" fill="#77625C"/>
<path d="M398.831 366.86C397.651 367.595 396.302 368.036 394.841 368.134C394.56 368.134 394.279 367.938 394.279 367.693V367.644C394.335 365.781 393.493 364.359 392.032 363.672H391.975L391.919 363.721C393.717 365.29 394.279 367.644 393.268 369.703C392.2 371.812 390.177 373.479 387.649 374.312C386.862 374.558 386.076 374.705 385.233 374.705C383.603 374.705 382.086 374.018 381.187 372.841C380.513 371.812 380.007 370.733 379.726 369.556C379.389 368.281 379.108 367.007 378.883 365.683C378.041 360.191 378.434 354.552 380.063 349.208C380.457 347.835 381.019 346.462 381.693 345.187C382.086 344.501 382.536 343.863 383.098 343.275C384.727 341.461 387.312 340.872 389.559 341.853C390.908 342.49 391.919 343.52 392.369 344.795C392.874 346.168 392.818 347.688 392.313 349.061C391.526 351.61 391.02 354.209 390.795 356.857C390.739 357.298 390.739 357.789 390.739 358.23C390.796 357.838 390.795 357.445 390.852 357.151C391.02 355.827 391.245 354.503 391.582 353.229C391.863 352.248 392.2 351.267 392.481 350.336L392.762 349.551C392.818 349.355 392.987 349.208 393.212 349.208C394.448 349.061 395.74 349.159 396.92 349.502C399.449 350.139 401.415 351.954 401.921 354.258C402.033 354.503 402.09 354.798 402.146 355.092C403.326 359.161 402.483 364.555 398.831 366.86Z" fill="#A59886"/>
<path d="M380.119 346.511C380.007 346.707 379.951 346.952 379.839 347.148C377.703 352.983 377.029 359.161 377.928 365.241C378.097 366.516 378.321 367.742 378.602 369.017C378.659 369.164 378.602 369.311 378.49 369.458C378.378 369.556 378.265 369.605 378.097 369.605L372.983 369.556H372.534C372.309 369.556 372.084 369.409 372.028 369.213L371.803 368.575V368.526C371.466 367.448 371.129 366.222 370.792 364.947C370.174 362.544 369.612 360.093 369.05 357.543C368.882 356.661 368.713 355.778 368.544 354.846C368.095 352.297 367.702 349.453 367.365 346.364C367.365 346.217 367.421 346.119 367.477 345.972C367.589 345.873 367.702 345.824 367.87 345.824H373.826C375.793 345.824 377.703 345.824 379.614 345.775C379.895 345.824 380.119 346.021 380.119 346.266C380.176 346.315 380.176 346.413 380.119 346.511Z" fill="#77625C"/>
<path d="M402.483 18.5341V18.436C402.427 17.3573 402.314 16.2786 402.146 15.1509C401.977 13.9741 401.415 12.8464 400.573 11.9148C399.786 11.0812 398.662 10.5418 397.482 10.2967C397.145 10.1986 396.752 10.1496 396.414 10.1496C395.515 10.0515 394.56 10.1006 393.661 10.1986C393.493 10.1986 393.324 10.2967 393.268 10.4928C393.043 11.0322 392.65 11.5225 392.2 11.9148C392.144 11.9148 392.144 11.9148 392.144 11.8657C393.436 9.7083 393.268 7.10959 391.751 5.05024C390.009 2.74572 386.862 2.50056 384.502 3.23604C382.592 3.82443 381.075 5.0012 380.12 6.57024C378.265 9.41411 377.76 13.2877 377.591 16.3767C377.423 19.4167 377.535 22.5057 378.041 25.5457C378.49 28.3406 379.052 30.9883 380.682 33.1947C382.03 35.0089 384.278 36.0877 386.75 36.0877H387.368C390.009 35.7444 392.2 34.2244 393.212 32.116C394.504 29.6644 393.942 27.2128 393.212 24.7122C393.099 24.3199 392.987 23.9767 392.875 23.6335C392.425 22.4077 392.144 21.1328 391.976 19.8089C391.919 19.1225 391.919 18.436 392.032 17.7496V17.7986C391.919 18.5831 391.919 19.3186 392.032 20.1031C392.257 21.476 392.706 22.8489 393.324 24.1238C393.774 25.2025 394.167 26.2812 394.448 27.4089C394.504 27.7031 394.56 27.9483 394.616 28.3406C394.673 28.6348 394.897 28.8309 395.178 28.7818C396.527 28.7328 397.819 28.3896 398.999 27.8012C401.022 26.7715 402.202 24.8593 402.483 22.2115C402.651 20.9367 402.651 19.7109 402.483 18.5341ZM387.256 32.5573C386.806 32.5083 386.413 32.4102 386.02 32.2631C385.177 31.9689 384.39 31.5277 383.772 30.8902C383.266 30.3999 382.873 29.8115 382.592 29.1741C382.929 29.7625 383.379 30.3018 383.941 30.7431C384.559 31.2825 385.289 31.6748 386.132 31.8709C386.525 31.9689 386.919 32.067 387.368 32.2141L387.761 32.2631C387.93 32.2631 388.155 32.3122 388.323 32.3612C388.042 32.6064 387.649 32.6554 387.256 32.5573Z" fill="#A59886"/>
<path d="M378.715 32.2142C378.602 32.3613 378.434 32.4594 378.265 32.4103C375.175 32.3613 372.253 32.3613 369.443 32.3613H364.162C363.881 32.3123 363.656 32.1161 363.656 31.871V31.8219C363.712 30.6942 363.768 29.4684 363.825 28.3406L363.881 27.7523C364.049 25.0065 364.162 22.2606 364.611 19.4658C365.061 16.4258 366.185 12.0619 368.994 8.82581C369.106 8.72774 369.219 8.67871 369.387 8.67871H377.535C377.816 8.72774 378.04 8.92387 378.04 9.16903C378.04 9.21807 378.04 9.2671 377.984 9.31613C377.647 10.2968 377.366 11.3265 377.198 12.3561C376.86 14.3174 376.692 16.3277 376.636 18.289C376.579 19.6619 376.636 21.0348 376.748 22.4077C376.973 25.3006 377.366 28.6348 378.602 31.5768L378.659 31.7239C378.827 31.8219 378.827 32.0181 378.715 32.2142Z" fill="#77625C"/>
<path d="M37.7591 341.019C37.7591 340.627 37.8153 340.235 37.8153 339.794V339.205C37.9276 336.312 37.9276 333.468 37.9838 330.674C37.9838 330.526 37.9276 330.379 37.8153 330.281C37.7029 330.183 37.5343 330.134 37.3657 330.183H37.3096C35.961 330.134 34.6687 329.889 33.4325 329.546C32.4211 329.252 31.3535 329.056 30.2859 328.957C29.0497 328.81 27.8136 329.006 26.746 329.546C25.7346 330.134 24.8356 330.919 24.1613 331.85C21.9699 334.596 20.3404 337.587 19.2166 340.774C19.1043 341.019 19.2166 341.314 19.4976 341.412H19.5538C21.689 342 23.487 343.324 24.4984 345.089C24.6108 345.236 24.7794 345.334 24.9479 345.334H36.5229C36.6915 345.334 36.8038 345.285 36.9162 345.187C37.0286 345.089 37.0848 344.942 37.0286 344.795C36.9162 343.373 36.6353 341.951 36.242 340.578C35.7363 338.862 35.0058 337.195 34.0506 335.626C33.2639 334.302 31.803 331.899 29.3869 332.586V332.488C31.2411 331.948 32.7582 333.37 33.7134 334.596C34.8934 336.214 35.7924 337.93 36.4105 339.794C36.5791 340.284 36.7477 340.823 36.86 341.314C36.9162 341.559 37.141 341.706 37.4219 341.706C37.6467 341.461 37.8153 341.265 37.7591 341.019Z" fill="#C9AF9B"/>
<path d="M380.288 345.383C380.513 345.383 380.682 345.285 380.738 345.089C381.243 344.059 381.974 343.079 382.817 342.245C382.929 342.098 382.985 341.951 382.985 341.804C382.873 340.725 382.648 339.646 382.367 338.568C381.805 336.361 379.895 331.213 374.838 329.84C372.759 329.301 370.624 329.399 368.488 329.546L367.814 329.595L366.353 329.644C366.241 329.644 366.072 329.693 366.016 329.791C365.904 329.889 365.904 330.036 365.904 330.183C366.241 334.351 366.578 338.372 366.971 342.539L367.14 344.501C367.14 344.746 367.365 344.942 367.646 344.942C367.927 344.942 368.151 344.795 368.208 344.55C368.545 342.981 369.05 341.412 369.668 339.892C371.129 336.312 372.927 332.978 376.074 332.782C376.074 332.831 376.074 332.831 376.018 332.831C374.501 332.929 373.096 333.91 371.916 335.773C370.961 337.293 370.23 338.911 369.668 340.578C369.219 341.902 368.882 343.275 368.601 344.599C368.545 344.844 368.713 345.138 368.994 345.187H369.107C372.759 345.187 376.411 345.236 380.288 345.383Z" fill="#C9AF9B"/>
<path d="M363.431 37.5587C363.375 40.5496 363.319 43.5406 363.319 46.5806C363.319 46.7277 363.375 46.8748 363.488 46.9729C363.6 47.0709 363.712 47.12 363.881 47.0709C364.274 47.0709 364.668 47.0219 365.061 47.0219C367.028 47.0709 368.994 47.2671 370.961 47.6103L372.028 47.7574C372.59 47.8555 373.096 47.9045 373.658 47.8554C374.332 47.8554 375.063 47.7574 375.681 47.5122C376.636 47.12 377.423 46.5316 378.041 45.7471C379.445 44.08 380.513 42.1677 381.187 40.1574C381.693 38.8825 382.086 37.5096 382.311 36.1858C382.367 35.9896 382.255 35.7935 382.086 35.6955C381.019 35.009 380.176 34.1264 379.558 33.1458C379.445 32.9987 379.277 32.9006 379.108 32.9496H365.791C365.623 32.9496 365.51 32.9987 365.398 33.0967C365.286 33.1948 365.23 33.3419 365.286 33.489C365.398 35.4993 365.96 37.5096 366.915 39.3238C368.376 42.0696 370.848 44.2761 373.939 45.6C373.995 45.6 373.995 45.6 373.995 45.649V45.698C370.792 44.4722 368.208 42.3638 366.578 39.618C365.454 37.7058 364.78 35.5974 364.668 33.489C364.668 33.2438 364.443 33.0477 364.162 32.9987H364.106C363.825 33.0477 363.6 33.2438 363.6 33.489C363.544 34.7638 363.431 36.1858 363.431 37.5587Z" fill="#F0E0C6"/>
<path d="M33.0393 43.8348C34.5564 42.8051 35.7925 41.5302 36.6354 40.0593C37.4782 38.5883 38.0401 37.0193 38.321 35.4012C38.4334 34.7147 38.4334 34.0773 38.4334 33.3909C38.4334 33.1457 38.2087 32.9496 37.9277 32.9006C33.7697 32.9006 29.2184 32.8515 23.7119 32.8025C23.4871 32.8025 23.3185 32.9006 23.2624 33.0967C22.5881 34.4206 21.5767 35.6464 20.3405 36.578C20.1719 36.7251 20.1158 36.9212 20.1719 37.1173C20.5653 38.3431 21.1272 39.5689 21.7452 40.6967C22.7567 42.707 24.3299 44.5212 26.2404 45.9922C28.2632 47.4141 30.7355 48.1496 33.3202 48.1496H34.0507C35.0059 48.1496 35.9049 48.1006 36.8039 48.0515C37.9277 48.0025 39.0515 47.9535 40.1753 48.0025C40.4562 48.0025 40.681 47.8554 40.681 47.6102C40.681 47.6102 40.681 47.6102 40.681 47.5612C40.9619 44.5212 41.2991 41.5793 41.6362 38.6373C41.6362 38.4902 41.58 38.3431 41.4676 38.196C41.2991 38.098 41.1305 38.098 40.9619 38.147C40.4 38.3431 39.8943 38.5393 39.4448 38.7354C39.3324 38.8335 39.1639 38.8335 39.0515 38.6864C39.0515 38.6864 38.9953 38.6373 38.9953 38.5883C38.8829 38.4412 38.7144 38.3431 38.5458 38.2941C38.321 38.2941 38.1525 38.4412 38.0963 38.6373C37.7592 39.3728 37.3096 40.1083 36.8601 40.7947C35.7925 42.3147 34.2754 43.5896 32.4774 44.3741C31.185 44.9625 29.6117 44.9135 28.3194 44.276C29.7803 45.2077 31.7469 44.6193 33.0393 43.8348Z" fill="#C9AF9B"/>
<path d="M39.2201 9.56125C38.4334 10.0025 37.7029 10.4929 36.9163 10.9832L35.7925 11.7187C35.6801 11.7677 35.6239 11.8658 35.6239 11.9638V12.1109C36.9163 13.9742 37.2534 16.1316 37.4782 17.7987C37.7029 19.4658 37.7591 20.9858 37.8153 22.5548C37.8715 23.1922 37.9277 23.8787 37.9277 24.5651V24.6632L38.3772 31.8709C38.3772 32.018 38.321 32.1651 38.2086 32.2632C38.0963 32.3613 37.9839 32.4103 37.8153 32.4103H27.7013C26.5775 32.4103 25.5099 32.4103 24.3861 32.4593C24.2176 32.4593 24.049 32.3613 23.9366 32.2632C23.8242 32.1161 23.8242 31.92 23.8804 31.7729C23.9928 31.5767 24.049 31.3316 24.1614 31.1354C25.9032 26.4283 26.6337 21.4761 26.4089 16.5238C26.3527 15.3961 26.2404 14.2193 26.128 13.0916C26.0156 11.8167 25.7908 10.5419 25.4537 9.31609C25.3975 9.16899 25.4537 9.0219 25.5661 8.8748C25.6785 8.77674 25.7908 8.67867 25.9594 8.62964C29.4993 8.67867 34.163 8.67867 38.9391 8.67867C39.2201 8.7277 39.4448 8.92383 39.4448 9.16899C39.4448 9.31609 39.3886 9.51222 39.2201 9.56125Z" fill="#77625C"/>
<path d="M25.5659 18.2399C25.5659 21.9173 25.004 25.5457 23.9365 29.1251C23.2622 31.2334 22.4755 33.4399 20.846 35.058C19.8346 36.2347 18.2613 36.9212 16.5757 36.9702C15.789 36.9702 15.0586 36.8231 14.3843 36.4799C13.0358 35.8425 12.0244 34.8128 11.5748 33.538C11.0691 32.1651 11.1253 30.6451 11.631 29.2722C12.4177 26.8205 12.9234 24.2709 13.0919 21.7212C13.1481 21.1818 13.1481 20.6425 13.2043 20.1031H13.1481C13.0919 20.8876 12.9796 21.6231 12.8672 22.4076C12.6986 23.2902 12.5301 24.2218 12.3053 25.1534C12.0805 26.0851 11.7434 27.0167 11.4625 27.8993C11.3501 28.1934 11.2377 28.5367 11.1815 28.8309C11.1253 29.027 10.9568 29.1251 10.732 29.1741C9.49584 29.2722 8.25968 29.2231 7.02352 28.978C4.49501 28.3405 2.58457 26.5263 2.02268 24.2709C0.898899 20.5934 1.12366 16.1805 3.14647 13.2876C4.38263 11.3754 6.68638 10.1496 9.21489 10.0515C9.32727 10.0515 9.49584 10.1005 9.55203 10.1986C9.66441 10.2967 9.7206 10.4438 9.7206 10.5909C9.66441 12.4541 10.5072 13.876 11.9682 14.5625H12.0244L12.0805 14.5134C10.2825 12.9444 9.77679 10.5418 10.732 8.53151C11.4063 7.25667 12.3615 6.12893 13.6538 5.24635C14.4967 4.70699 15.3957 4.2657 16.3509 3.92248C19.1604 3.08893 21.5765 3.62828 22.925 5.39345C23.5993 6.42312 24.105 7.50183 24.386 8.67861C24.7231 9.95345 25.004 11.2283 25.2288 12.5522C25.4536 14.4644 25.5659 16.3276 25.5659 18.2399Z" fill="#A59886"/>
<path d="M372.815 45.0115C371.86 43.9818 371.86 42.4618 372.927 41.4812C373.04 41.3341 373.208 41.236 373.377 41.138C375.456 40.0102 377.085 36.4799 377.085 34.2735C377.085 33.8322 377.198 33.3909 377.422 32.9496H365.735C365.566 32.9496 365.454 32.9986 365.342 33.0967C365.229 33.1947 365.173 33.3418 365.229 33.4889C365.342 35.4993 365.904 37.5096 366.859 39.3238C368.151 41.7264 370.174 43.6877 372.815 45.0115Z" fill="#C9AF9B"/>
<path d="M372.984 45.2567C370.23 43.9818 368.039 42.0206 366.578 39.618C365.454 37.7057 364.78 35.5973 364.611 33.4399C364.611 33.1947 364.387 32.9986 364.106 32.9496H364.05C363.769 32.9986 363.544 33.1947 363.544 33.4399C363.488 34.8128 363.431 36.1857 363.431 37.5096C363.375 40.5006 363.319 43.4915 363.319 46.5315C363.319 46.6786 363.375 46.8257 363.488 46.9238C363.6 47.0218 363.712 47.0709 363.881 47.0218C364.274 47.0218 364.668 46.9728 365.061 46.9728C367.028 47.0218 368.994 47.218 370.961 47.5612L372.028 47.7083C372.59 47.8064 373.096 47.8554 373.658 47.8064C374.332 47.8064 375.063 47.7083 375.681 47.4631C376.018 47.3651 376.355 47.1689 376.636 46.9728C375.231 46.7277 373.939 46.1393 372.984 45.2567Z" fill="#D8C1AB"/>
<path d="M382.367 338.617C381.805 336.41 379.895 331.262 374.838 329.889C372.759 329.35 370.624 329.448 368.488 329.595L367.814 329.644L366.353 329.693C366.241 329.693 366.072 329.742 366.016 329.84C365.904 329.938 365.904 330.085 365.904 330.232C366.016 331.605 366.129 332.929 366.241 334.253C368.208 334.4 370.174 334.792 372.028 335.381C372.366 334.89 372.759 334.449 373.208 334.008C373.546 333.664 373.939 333.419 374.388 333.223C374.894 332.978 375.456 332.831 376.074 332.782C376.074 332.831 376.074 332.831 376.018 332.831C375.681 332.831 375.344 332.929 375.063 333.076C376.018 332.978 376.973 333.468 377.31 334.302C379.221 337.734 379.67 341.657 378.546 345.334H380.288C380.513 345.334 380.682 345.236 380.738 345.04C381.243 344.01 381.974 343.03 382.817 342.196C382.929 342.049 382.985 341.902 382.985 341.755C382.817 340.725 382.648 339.695 382.367 338.617Z" fill="#F0E0C6"/>
<path d="M39.22 9.56125C38.4334 10.0025 37.7029 10.4929 36.9163 10.9832L35.7925 11.7187C35.6801 11.7677 35.6239 11.8658 35.6239 11.9638V12.1109C36.9163 13.9742 37.2534 16.1316 37.4782 17.7987C37.7029 19.4658 37.7591 20.9858 37.8153 22.5548C37.8715 23.1922 37.9277 23.8787 37.9277 24.5651V24.6632L38.3772 31.8709C38.3772 32.018 38.321 32.1651 38.2086 32.2632C38.0962 32.3613 37.9839 32.4103 37.8153 32.4103H32.7583C32.3088 18.8283 27.9822 16.6709 26.4089 16.3767C26.3527 15.249 26.2403 14.0722 26.128 12.9445C26.0156 11.6696 25.7908 10.3948 25.4537 9.169C25.3975 9.0219 25.4537 8.8748 25.5661 8.72771C25.6784 8.62964 25.7908 8.53158 25.9594 8.48254C29.4993 8.53158 34.163 8.53158 38.9391 8.53158C39.22 8.58061 39.4448 8.77674 39.4448 9.0219C39.4448 9.31609 39.3886 9.51222 39.22 9.56125Z" fill="#6D5753"/>
<path d="M378.041 9.26702C377.704 10.2477 377.423 11.2773 377.254 12.307C376.917 14.2683 376.748 16.2296 376.692 18.1909C375.793 18.0928 367.14 17.5535 369.5 32.2632H364.218C363.937 32.2141 363.712 32.018 363.712 31.7728V31.7238C363.769 30.5961 363.825 29.3702 363.881 28.2425L363.937 27.6541C364.106 24.9083 364.218 22.1625 364.668 19.3677C365.117 16.3277 366.241 11.9638 369.05 8.72766C369.163 8.6296 369.275 8.58057 369.444 8.58057H377.591C377.872 8.6296 378.097 8.82573 378.097 9.07089C378.041 9.11992 378.041 9.16895 378.041 9.26702Z" fill="#6D5753"/>
<path d="M380.119 346.511C380.007 346.707 379.951 346.952 379.838 347.148C377.703 352.983 377.029 359.161 377.928 365.241C378.097 366.516 378.321 367.742 378.602 369.017C378.658 369.164 378.602 369.311 378.49 369.458C378.378 369.556 378.265 369.605 378.097 369.605L372.983 369.556H372.534C372.309 369.556 372.084 369.409 372.028 369.213L371.803 368.575V368.526C371.466 367.448 371.129 366.222 370.792 364.947C370.174 362.544 369.612 360.093 369.05 357.543C368.882 356.661 368.713 355.778 368.544 354.846C369.163 354.797 374.669 353.866 373.826 345.824C375.737 345.824 377.703 345.824 379.614 345.775C379.895 345.824 380.119 346.021 380.119 346.266C380.176 346.413 380.176 346.462 380.119 346.511Z" fill="#6D5753"/>
<path d="M36.9723 354.748C36.7475 358.034 36.4104 361.319 36.1295 364.702L36.0733 365.045C35.9609 366.467 35.7361 367.84 35.399 369.262C35.3428 369.458 35.1742 369.605 34.8933 369.605H26.4649C26.184 369.556 25.9592 369.36 25.9592 369.115V368.968C26.2964 367.987 26.5773 366.957 26.7459 365.928C27.3078 362.594 27.4763 359.259 27.2516 355.876C27.0268 352.983 26.6335 349.649 25.3973 346.707C25.3973 346.658 25.3411 346.609 25.2849 346.609C25.1726 346.364 25.2288 346.119 25.4535 345.972C25.5097 345.923 25.6221 345.923 25.7345 345.923L29.4429 345.972C29.3306 346.952 29.1058 354.16 36.9723 354.748Z" fill="#6D5753"/>
<path d="M11.5187 27.9483C11.4064 28.2425 11.294 28.5367 11.2378 28.8799C11.1816 29.0761 11.013 29.1741 10.7883 29.2232C9.55213 29.3212 8.31597 29.2232 7.0798 28.929C4.55129 28.2915 2.64086 26.4774 2.07897 24.2219C0.955186 20.6915 1.12375 16.2786 3.14656 13.3857H3.25894C3.25894 13.3857 -0.674299 23.1922 12.9797 22.5057C12.8111 23.3883 12.6425 24.3199 12.4178 25.2515C12.193 26.1832 11.7997 27.0657 11.5187 27.9483Z" fill="#87776C"/>
<path d="M25.5661 18.24C25.5661 21.9174 25.0042 25.5458 23.9366 29.1251C23.2623 31.2335 22.4757 33.44 20.8462 35.058C19.8348 36.2348 18.2615 36.9213 16.5758 36.9703C15.7892 36.9703 15.0587 36.8232 14.3845 36.48C13.0359 35.8426 12.0245 34.8129 11.575 33.538C11.0693 32.1651 11.1255 30.6451 11.6312 29.2722C12.4178 26.8206 12.9235 24.2709 13.0921 21.7213L13.5416 20.1522C13.5416 20.1522 22.3633 19.2206 20.1158 8.92385C18.0929 2.54965 13.7664 5.39353 13.4854 5.54062C13.5416 5.49159 13.5978 5.39353 13.654 5.34449C14.4968 4.80514 15.3959 4.36385 16.3511 4.02062C19.1044 3.18707 21.5205 3.72643 22.869 5.49159C23.5433 6.52127 24.049 7.59998 24.3299 8.77675C24.6671 10.0516 24.948 11.3264 25.1728 12.6503C25.4537 14.4645 25.5661 16.3277 25.5661 18.24Z" fill="#87776C"/>
<path d="M393.324 24.6632C394.055 27.1638 394.616 29.6645 393.324 32.067C392.313 34.1754 390.065 35.6954 387.48 36.0387H386.806C384.334 36.0387 382.086 34.9599 380.738 33.1458C379.108 31.0374 378.546 28.3406 378.097 25.4967C377.591 22.4567 377.479 19.3677 377.647 16.3277C377.816 13.2387 378.322 9.26705 380.176 6.52124C379.67 8.82576 376.917 23.5354 392.032 19.6619V19.7109C392.2 20.9858 392.537 22.2606 392.931 23.5354C393.043 23.9277 393.212 24.32 393.324 24.6632Z" fill="#87776C"/>
<path d="M402.483 22.1625C402.202 24.7612 401.022 26.6734 398.999 27.7522C397.819 28.3405 396.527 28.6838 395.178 28.7328C394.897 28.7818 394.673 28.5857 394.616 28.2915C394.56 27.8993 394.504 27.6541 394.448 27.3599C394.167 26.2322 393.774 25.1534 393.324 24.0747C392.762 22.7999 392.313 21.476 392.088 20.1031C393.268 22.996 393.268 23.5844 393.268 23.5844C393.268 23.5844 402.932 19.0734 396.358 10.1986C396.695 10.2476 397.089 10.2967 397.426 10.3457C398.606 10.5909 399.73 11.1793 400.516 11.9638C401.359 12.8954 401.921 14.0231 402.09 15.1999C402.314 16.2786 402.427 17.3573 402.427 18.4851V18.5341C402.595 19.7599 402.595 20.9367 402.483 22.1625Z" fill="#87776C"/>
<path d="M392.088 363.623L391.975 363.672C393.773 365.241 394.335 367.644 393.324 369.654C392.256 371.762 390.234 373.43 387.705 374.263C386.918 374.508 386.132 374.655 385.289 374.655C383.659 374.704 382.142 373.969 381.243 372.792C380.569 371.762 380.063 370.684 379.782 369.507C379.445 368.232 379.164 366.957 378.94 365.633C378.097 360.142 378.49 354.503 380.12 349.159C380.513 347.786 381.075 346.413 381.749 345.138C381.749 345.138 379.389 361.122 390.627 355.582C390.739 356.072 390.852 356.464 390.908 356.808C390.908 356.857 390.964 356.955 390.964 357.004L391.245 358.033C391.189 357.984 390.346 362.691 392.088 363.623Z" fill="#87776C"/>
<path d="M398.831 366.859C397.651 367.595 396.302 368.036 394.841 368.134C394.56 368.134 394.279 367.938 394.279 367.693V367.644C394.335 365.781 393.493 364.359 392.032 363.672C393.717 364.555 401.191 361.711 402.146 354.896C403.326 359.161 402.483 364.555 398.831 366.859Z" fill="#87776C"/>
<path d="M26.4087 361.809C26.1278 366.663 25.1164 373.283 19.4975 374.999C18.7108 375.195 17.9242 375.342 17.1375 375.342C15.1709 375.391 13.3728 374.557 12.2491 373.136C10.732 371.076 10.6196 368.477 11.8557 366.32C11.8557 366.271 11.8557 366.271 11.7996 366.271H11.7434C11.2377 366.663 10.9005 367.203 10.6758 367.742C10.6196 367.889 10.451 367.987 10.2824 367.987C8.99009 368.183 7.69774 368.134 6.46158 367.889C5.28161 367.644 4.15783 367.056 3.37118 366.222C2.52834 365.29 1.96645 364.163 1.79788 362.986C1.57313 361.956 1.46075 360.877 1.46075 359.799V359.603C1.34837 358.426 1.34837 357.2 1.46075 356.023C1.51694 355.631 1.57313 355.288 1.62932 354.945C1.96645 355.778 5.22542 363.231 11.631 360.24C11.7434 359.799 11.8557 359.505 11.9119 359.21C11.9119 359.161 11.9681 359.112 11.9681 359.063L12.1367 358.475C12.1367 358.475 25.6221 363.525 24.2735 346.56C25.1726 348.374 25.5659 350.483 25.9592 352.64C26.4649 355.68 26.6335 358.72 26.4087 361.809Z" fill="#87776C"/>
<path d="M24.6109 31.2335C24.4985 31.4296 24.4423 31.6747 24.3299 31.9199L23.6556 33.3909C22.9814 34.8128 21.9138 36.0386 20.5652 37.0683C20.4529 37.1173 20.3967 37.1664 20.2843 37.2154C17.9805 38.6864 14.7778 38.5883 12.5864 37.0193C10.6198 35.4012 9.66455 32.9986 10.1141 30.6451C10.1703 30.3509 10.2264 30.0076 10.3388 29.7134L10.676 28.7328C11.0693 27.507 11.5188 26.3793 11.8559 25.1535C12.3054 23.4864 12.5864 21.8193 12.6988 20.1522C12.5864 19.907 12.755 19.6128 13.0359 19.5147C13.3168 19.4167 13.654 19.5638 13.7664 19.8089C13.8225 19.907 13.8225 20.0051 13.7664 20.1031C13.654 23.2412 13.1483 26.3793 12.1931 29.4193C11.6874 30.6941 11.6312 32.067 12.0807 33.3418C12.474 34.5186 13.4292 35.4502 14.6654 35.9896C16.7444 36.9212 19.0481 36.2838 20.5652 34.6657C22.0823 33.0476 22.869 30.9393 23.4871 28.8799C25.1166 23.5844 25.5099 18.0438 24.6671 12.6012C24.4985 11.3264 24.2175 10.0515 23.8242 8.77668C23.5995 7.64893 23.1499 6.61926 22.4757 5.63861C20.9586 3.82442 18.5424 3.72635 16.4634 4.36377C14.1035 5.09926 12.1369 6.66829 11.1255 8.67861C10.2264 10.5418 10.676 12.6502 12.3054 14.0722C12.5302 14.2683 12.5302 14.6115 12.3054 14.8076C12.1369 14.9547 11.8559 15.0038 11.6312 14.9057C9.83312 14.0231 9.04647 12.307 9.10266 10.4928C9.10266 9.95345 9.21503 9.4141 9.32741 8.92377L9.66455 7.94313C11.0131 5.29539 13.5978 3.3341 16.8006 2.54958C18.4862 2.10829 20.2843 2.25539 21.8576 2.94184C22.4195 3.187 22.9252 3.57926 23.3747 3.97152C23.5995 4.16764 23.768 4.41281 23.9928 4.60893C24.6109 5.49152 25.1166 6.42313 25.4537 7.40377C25.6223 7.8941 25.7346 8.38442 25.9032 8.87474C26.1842 10.1496 26.4089 11.3754 26.5775 12.6993C27.5327 18.9754 26.8584 25.3005 24.6109 31.2335Z" fill="black"/>
<path d="M11.7435 28.5858C11.5187 29.2232 11.3502 29.8606 11.2378 30.498C10.9007 30.5471 10.5635 30.5471 10.1702 30.5961C8.42833 30.7432 6.68646 30.498 5.05698 29.8116C2.3599 28.6839 0.842794 26.1342 0.337091 23.3884C-0.168611 20.7406 -0.0562326 17.9948 0.730415 15.3471C1.40469 12.9445 3.20274 10.8851 5.67506 9.65934C6.85503 9.11998 8.14738 8.87482 9.43973 8.92385C9.83306 8.97289 10.2826 9.02192 10.6759 9.16901C10.4511 9.65934 10.3388 10.1497 10.2826 10.689C9.88925 10.5909 9.55211 10.5419 9.15879 10.591C7.81025 10.591 6.46171 10.9832 5.39411 11.7187C1.51706 14.2193 1.29231 20.1522 2.52847 24.0748C3.14655 26.2813 4.88841 27.9484 7.19217 28.4387C8.37214 28.6839 9.55211 28.7819 10.7321 28.6348C11.013 28.6348 11.3502 28.6348 11.7435 28.5858Z" fill="black"/>
<path d="M39.3886 33.4399H37.9277C33.2078 33.4399 28.4317 33.3909 23.7118 33.3419H21.97C22.3633 32.9496 22.6442 32.4593 22.8128 31.9199H39.0515C39.0515 32.1651 39.1077 32.4102 39.1639 32.7044C39.22 32.9006 39.3324 33.1948 39.3886 33.4399Z" fill="black"/>
<path d="M41.1867 8.38445C40.9057 8.58058 40.6248 8.87477 40.3439 9.0709H38.8829C34.5564 9.0709 30.2298 9.02187 25.9032 8.97284H24.7233C24.7233 8.53155 24.6109 8.13929 24.3299 7.79606L24.1614 7.5509H41.0743C41.0743 7.8451 41.1305 8.13929 41.1867 8.38445Z" fill="black"/>
<path d="M395.122 30.1548C394.56 34.7148 390.29 38 385.57 37.5097C385.12 37.4606 384.727 37.4116 384.334 37.2645C383.435 37.0193 382.592 36.6761 381.805 36.1858C380.738 35.4503 379.782 34.5187 379.108 33.44C378.771 32.9497 378.546 32.4593 378.265 31.969C378.209 31.92 378.209 31.871 378.153 31.7729C376.861 28.88 376.467 25.5948 376.243 22.4568C375.962 19.0735 376.13 15.6413 376.748 12.3071C376.917 11.2284 377.198 10.1987 377.535 9.11999C377.703 8.62967 377.872 8.09031 378.097 7.59999C378.49 6.76644 378.94 5.93289 379.558 5.19741C379.782 4.90322 380.007 4.70709 380.232 4.41289C380.401 4.21676 380.625 4.02063 380.85 3.82451C382.592 2.25547 385.064 1.42192 387.593 1.56902C390.177 1.71612 392.481 3.28515 393.605 5.58967C394.111 6.66838 394.335 7.79612 394.223 8.97289C394.167 9.51225 394.055 10.0516 393.83 10.5419C393.605 11.1793 393.155 11.7187 392.65 12.16C392.425 12.3071 392.088 12.3071 391.919 12.111L391.863 12.0619C391.751 11.8658 391.695 11.6697 391.807 11.4735C392.987 9.46321 392.818 7.10967 391.47 5.19741C389.953 3.18709 387.143 2.84386 384.839 3.57934C379.502 5.19741 378.546 11.6697 378.265 16.2787C378.097 19.3187 378.209 22.3587 378.715 25.3497C379.164 27.8993 379.67 30.6452 381.243 32.7535C382.592 34.6168 385.008 35.6464 387.537 35.4503C390.009 35.1561 392.088 33.7342 392.987 31.7239C394.223 29.4193 393.605 26.9677 392.931 24.6142C392.256 22.2606 391.301 19.8581 391.751 17.3574C391.863 16.72 392.875 16.9652 392.762 17.6026C392.256 20.9368 394.504 23.8787 395.122 27.0168L395.291 27.9974C395.291 28.7819 395.234 29.4684 395.122 30.1548Z" fill="black"/>
<path d="M403.719 23.3393C403.382 25.889 401.64 28.1444 398.999 29.3212C397.763 29.8115 396.471 30.1057 395.122 30.1548H394.56C394.785 29.5173 394.785 28.7819 394.616 28.1444H395.122C396.358 28.0954 397.594 27.7522 398.718 27.2619C400.741 26.2322 401.696 24.2709 401.921 22.0644C402.033 20.8877 402.033 19.7109 401.921 18.5832C401.865 17.5044 401.752 16.3277 401.584 15.249C401.415 14.1702 400.91 13.0915 400.123 12.258C399.392 11.5225 398.381 11.0322 397.313 10.787C396.133 10.5419 394.897 10.4928 393.717 10.689L393.268 10.738C393.493 10.2477 393.605 9.70831 393.661 9.16896C393.83 9.11992 393.942 9.11992 394.111 9.11992C395.74 8.87476 397.37 9.02186 398.887 9.56121C401.584 10.5909 402.989 12.8464 403.494 15.4941C404.056 18.0928 404.112 20.7406 403.719 23.3393Z" fill="black"/>
<path d="M388.66 32.9006C388.211 33.0967 387.761 33.1948 387.256 33.0967C386.75 33.0477 386.3 32.9496 385.851 32.7535C384.952 32.4103 384.109 31.92 383.435 31.2825C382.086 29.9096 381.356 28.1935 381.356 26.3793C381.356 26.1832 381.524 25.9871 381.749 25.9871C381.805 25.9871 381.805 25.9871 381.861 25.9871C382.086 25.9871 382.255 26.1342 382.255 26.3303C382.255 27.8993 382.985 29.3703 384.278 30.4C384.839 30.8903 385.57 31.2335 386.3 31.4787C386.694 31.5767 387.087 31.6748 387.48 31.7729C387.874 31.8219 388.267 31.92 388.66 32.0671C388.885 32.2142 388.941 32.4593 388.773 32.6554C388.716 32.8025 388.66 32.8516 388.66 32.9006Z" fill="black"/>
<path d="M379.726 7.698C379.67 7.79606 379.67 7.94316 379.614 8.04123L379.445 8.67865V8.77671C379.389 8.92381 379.333 9.0709 379.22 9.16897H368.039C368.095 9.0709 368.151 8.97284 368.151 8.82574C368.769 8.58058 369.275 8.13929 369.556 7.5509H370.961L378.097 7.59994L379.726 7.698Z" fill="black"/>
<path d="M379.558 33.4399H379.052C378.041 33.4399 377.029 33.489 375.962 33.489H363.15C363.207 32.9496 363.263 32.4102 363.263 31.9199H364.106C368.826 31.9199 373.489 31.969 378.209 32.018H378.996C378.996 32.4593 379.108 32.8515 379.389 33.1948L379.558 33.4399Z" fill="black"/>
<path d="M394.897 367.595C394.897 368.134 394.785 368.673 394.673 369.164L394.335 370.144C392.987 372.743 390.402 374.753 387.256 375.538C385.345 376.077 383.266 375.832 381.58 374.802C381.019 374.459 380.513 374.018 380.12 373.479L380.063 373.43C379.445 372.547 378.94 371.615 378.602 370.635C378.434 370.144 378.265 369.654 378.153 369.164C377.872 367.889 377.647 366.663 377.479 365.339C376.58 359.161 377.254 352.934 379.445 347.001C379.558 346.805 379.614 346.56 379.726 346.266L380.401 344.795C380.962 343.716 381.693 342.735 382.592 341.853C382.929 341.51 383.322 341.215 383.772 340.921C383.884 340.872 383.997 340.774 384.109 340.725C386.413 339.45 389.335 339.646 391.414 341.166C393.436 342.784 394.392 345.187 393.942 347.541C393.886 347.835 393.83 348.178 393.717 348.472L393.38 349.453C392.987 350.679 392.537 351.855 392.2 353.032C391.751 354.65 391.47 356.317 391.357 357.984C391.47 358.23 391.301 358.524 391.02 358.622C390.739 358.72 390.402 358.573 390.29 358.328C390.234 358.23 390.234 358.132 390.29 358.033C390.402 354.895 390.908 351.757 391.863 348.766C392.369 347.491 392.425 346.119 391.975 344.844C391.582 343.716 390.683 342.735 389.447 342.147C387.368 341.215 385.064 341.902 383.547 343.471C382.03 345.04 381.243 347.197 380.625 349.257C378.996 354.552 378.602 360.093 379.445 365.535C379.614 366.81 379.895 368.085 380.232 369.36C380.513 370.439 380.962 371.517 381.58 372.449C382.985 374.312 385.401 374.41 387.537 373.724C389.896 372.988 391.863 371.419 392.874 369.409C393.774 367.546 393.324 365.437 391.695 364.015C391.47 363.819 391.47 363.476 391.695 363.231C391.863 363.084 392.144 363.035 392.369 363.133C394.167 363.966 394.897 365.781 394.897 367.595Z" fill="black"/>
<path d="M403.326 362.79C402.651 365.192 400.91 367.252 398.437 368.477C397.257 369.017 395.965 369.262 394.673 369.213C394.223 369.213 393.83 369.115 393.436 369.017C393.661 368.526 393.774 367.987 393.83 367.497C394.223 367.546 394.56 367.595 394.954 367.595C396.302 367.595 397.594 367.154 398.662 366.467C402.539 363.966 402.764 358.083 401.584 354.111C401.134 352.003 399.336 350.335 396.976 349.747C395.796 349.502 394.616 349.404 393.436 349.551C393.099 349.551 392.762 349.6 392.425 349.649C392.65 349.012 392.818 348.374 392.931 347.737C393.268 347.688 393.605 347.688 393.998 347.639C395.74 347.492 397.538 347.737 399.112 348.423C401.809 349.551 403.326 352.101 403.831 354.846C404.225 357.445 404.056 360.191 403.326 362.79Z" fill="black"/>
<path d="M382.086 344.893C381.693 345.285 381.412 345.775 381.299 346.315H366.803C366.747 345.775 366.634 345.236 366.466 344.746H369.219C372.927 344.746 376.636 344.795 380.4 344.844L382.086 344.893Z" fill="black"/>
<path d="M379.951 370.635H372.478C372.478 370.586 372.478 370.537 372.422 370.488C372.253 369.997 371.972 369.556 371.635 369.115H372.534L378.153 369.164H379.389C379.389 369.605 379.501 369.997 379.782 370.39L379.951 370.635Z" fill="black"/>
<path d="M27.2517 365.928C27.0831 367.006 26.8021 368.036 26.465 369.115C26.2964 369.605 26.1279 370.096 25.9031 370.586C25.3974 371.714 24.667 372.792 23.8241 373.773L23.487 374.116C21.6889 375.832 19.048 376.764 16.4071 376.568C13.8224 376.421 11.5187 374.852 10.3949 372.547C9.88921 371.468 9.66445 370.341 9.77683 369.164C9.83302 367.938 10.3949 366.81 11.3501 365.928C11.5187 365.732 11.8558 365.732 12.0806 365.879L12.1368 365.928C12.3053 366.124 12.3615 366.369 12.2492 366.565C11.0692 368.576 11.2377 370.929 12.5863 372.841C14.1596 374.803 16.9128 375.195 19.2728 374.459C24.6108 372.841 25.566 366.369 25.8469 361.76C26.0155 358.72 25.9031 355.68 25.3974 352.689C25.0041 350.139 24.4422 347.394 22.8689 345.285C21.5204 343.422 19.1042 342.392 16.5757 342.588C14.1034 342.883 12.0244 344.305 11.1254 346.315C9.88921 348.619 10.5073 351.022 11.1816 353.425C11.8558 355.827 12.811 358.181 12.3615 360.73C12.2492 361.368 11.2377 361.123 11.3501 360.485C11.8558 357.151 9.60826 354.209 8.93399 351.071L8.76542 350.09C8.70923 349.404 8.70923 348.717 8.82161 348.08C9.04637 346.07 10.0578 344.206 11.6873 342.785C13.7663 340.97 16.8005 340.284 19.6661 340.97C21.9137 341.608 23.7679 342.981 24.8917 344.795C25.2288 345.285 25.4536 345.776 25.7345 346.266C25.7907 346.315 25.7907 346.364 25.8469 346.511C27.1393 349.404 27.5326 352.689 27.7574 355.827C28.0383 359.161 27.8697 362.594 27.2517 365.928Z" fill="black"/>
<path d="M10.6758 367.497C10.4511 367.987 10.3387 368.526 10.3387 369.066C10.1701 369.066 10.0578 369.115 9.8892 369.115C8.25972 369.36 6.63023 369.213 5.11312 368.673C2.41605 367.644 0.955127 365.388 0.505614 362.74C-8.83564e-05 360.142 -0.0562775 357.445 0.280857 354.846C0.617992 352.297 2.35986 350.041 5.00075 348.864C6.23691 348.374 7.52926 348.08 8.8778 348.031H9.43969C9.21493 348.668 9.21493 349.404 9.3835 350.041H8.82161C7.52926 350.09 6.34929 350.433 5.2255 350.973C3.20269 352.002 2.24748 353.964 2.02272 356.17C1.85415 358.426 1.96653 360.73 2.35986 362.986C2.52842 364.064 3.03413 365.094 3.82077 365.977C4.55123 366.712 5.56264 367.202 6.63023 367.448C7.8102 367.693 9.04636 367.742 10.2263 367.546L10.6758 367.497Z" fill="black"/>
<path d="M22.6441 351.806C22.6441 352.002 22.4755 352.199 22.2508 352.199C22.1946 352.199 22.1946 352.199 22.1384 352.199C21.9136 352.199 21.7451 352.002 21.7451 351.806C21.7451 350.237 21.0146 348.766 19.7223 347.737C19.1604 347.246 18.4299 346.903 17.6994 346.658C17.3061 346.56 16.9128 346.462 16.5195 346.364C16.1262 346.315 15.7328 346.217 15.3395 346.119C15.1147 345.972 15.0586 345.726 15.1709 345.53L15.3395 345.383C15.789 345.187 16.2385 345.089 16.7442 345.138C17.2499 345.187 17.6994 345.285 18.149 345.481C19.048 345.824 19.8908 346.315 20.5651 346.952C21.9698 348.276 22.7003 349.992 22.6441 351.806Z" fill="black"/>
<path d="M36.1296 369.066V369.36L35.961 369.85C35.961 369.948 35.9048 369.997 35.8486 370.046V370.095C35.9048 369.997 35.9048 369.948 35.961 369.85C35.9048 370.046 35.7924 370.242 35.68 370.439C35.68 370.488 35.6239 370.537 35.6239 370.684H34.2753C31.4659 370.684 28.6564 370.635 25.9031 370.635H24.3298C24.386 370.537 24.386 370.39 24.4422 370.291L24.6108 369.654V369.556L24.7793 369.164H26.465C26.465 369.115 36.1296 369.066 36.1296 369.066Z" fill="black"/>
<path d="M37.8715 344.697L37.8153 344.991C37.8153 345.236 37.7591 345.432 37.7029 345.628L37.5905 346.266H36.9162C33.1516 346.266 29.3869 346.217 25.6222 346.168H24.8356C24.8356 345.726 24.7232 345.334 24.4422 344.942L24.2737 344.697H27.8698H37.8715Z" fill="black"/>
<path d="M374.107 5.8348C372.927 6.22706 371.916 6.81545 371.017 7.59996C370.399 8.09028 369.893 8.62964 369.388 9.16899C366.915 12.0129 365.623 15.9845 365.117 19.5148C364.668 22.4567 364.555 25.3987 364.387 28.3406C364.33 29.4683 364.274 30.6942 364.218 31.8219C364.218 32.018 364.218 32.2632 364.162 32.4593C364.106 32.6554 364.162 33.0477 364.106 33.3909C364.05 34.7638 363.993 36.1367 363.993 37.4606C363.937 40.4516 363.881 43.4425 363.881 46.4825V48.1006C363.937 50.6993 363.993 53.298 364.05 55.8477C364.499 68.1548 365.735 80.4619 367.702 92.72C367.814 93.1612 367.533 93.5535 367.084 93.7006H366.915C365.173 93.7987 363.544 94.338 362.083 95.1716C361.802 95.3187 361.577 95.4658 361.352 95.6129C360.622 96.1522 359.948 96.6916 359.33 97.378C358.936 97.7703 358.599 98.1625 358.262 98.5058C357.756 99.0451 356.97 98.3587 357.251 97.7212C358.824 94.5832 362.42 92.6219 365.904 92.1316C364.78 85.3651 363.937 78.5987 363.375 71.7832C362.251 59.1329 361.914 46.4825 362.364 33.7832C362.476 30.6942 362.645 27.5071 362.87 24.369C362.982 21.378 363.431 18.4361 364.218 15.5432C365.623 10.738 368.713 6.22706 373.77 4.60899C374.501 4.55996 374.782 5.58964 374.107 5.8348Z" fill="black"/>
<path d="M373.264 372.106C373.377 372.645 372.59 373.086 372.253 372.498C371.635 371.223 371.185 369.899 370.792 368.526C370.399 367.154 370.005 365.732 369.612 364.359C368.882 361.613 368.264 358.867 367.702 356.072C366.746 351.071 366.072 345.972 365.623 340.823C365.173 335.675 364.667 330.428 364.33 325.231C363.656 315.277 363.487 305.226 365.117 295.37C359.779 295.763 354.497 296.057 349.215 296.498C348.541 296.547 348.541 295.517 349.215 295.468C351.294 295.223 353.43 295.076 355.509 294.88L359.273 294.488L366.016 293.85C366.578 293.801 366.803 294.341 366.746 294.782C365.904 300.47 365.51 306.206 365.566 311.943C365.566 317.582 365.847 323.172 366.241 328.81C366.297 329.301 366.297 329.742 366.353 330.232C366.69 334.302 367.027 338.47 367.421 342.588L367.589 344.55V344.795C367.645 345.187 367.645 345.579 367.702 345.923C367.702 346.07 367.702 346.217 367.758 346.364C368.151 350.09 368.657 353.768 369.444 357.445C369.949 359.897 370.511 362.348 371.129 364.8L372.141 368.379L372.365 369.115C372.534 369.654 372.702 370.144 372.815 370.684C373.04 371.174 373.208 371.615 373.264 372.106Z" fill="black"/>
<path d="M52.4243 37.7058C49.1091 37.1664 45.7378 37.3625 42.535 38.2451C42.0293 38.3432 41.5236 38.4903 41.0741 38.6864C40.6246 38.8335 40.0627 39.0787 39.557 39.2748C39.1636 39.4709 38.7141 39.3728 38.4894 39.0296L38.4332 38.9806C38.377 38.8825 38.3208 38.7354 38.3208 38.5883L37.9837 33.4399C37.9837 33.1458 37.9275 32.9006 37.9275 32.6064C37.9275 32.3122 37.8713 32.1161 37.8713 31.8219C37.7027 29.4193 37.5342 26.9677 37.3656 24.5161C37.197 22.2606 37.1408 20.0541 36.8599 17.7987C36.7475 15.8864 36.1294 14.0232 35.118 12.3561C34.8933 11.9638 35.0056 11.5225 35.399 11.2774C36.5228 10.5419 37.7027 9.85543 38.8265 9.16898C39.3322 8.87478 39.7817 8.58059 40.2874 8.2864C40.0627 8.04124 39.7817 7.79607 39.5008 7.59994C37.478 5.98188 34.9495 4.9522 32.2524 4.70704C31.6343 4.65801 31.6343 3.7264 32.2524 3.77543C34.1066 3.82446 35.9047 4.21672 37.5342 4.9522C39.2198 5.73672 40.7931 6.7664 42.1417 7.94317C42.4788 8.23736 42.4788 8.72769 42.1417 9.02188C42.0855 9.07091 42.0293 9.11995 41.9731 9.11995C40.3436 10.1987 38.7141 11.1793 37.0285 12.1599C37.8713 13.778 38.377 15.4941 38.4894 17.2593C38.7703 19.5148 38.8265 21.7212 38.9951 24.0258L39.8941 37.4606C43.9397 35.9406 48.4349 35.6464 52.7052 36.627C53.4919 36.7741 53.1547 37.8038 52.4243 37.7058Z" fill="black"/>
<path d="M41.1304 48.4929C41.1304 48.7871 41.1866 49.0813 41.2428 49.3755C40.8494 49.3755 40.4561 49.3264 40.0066 49.3264H38.8828C36.1296 49.3755 33.3763 49.7187 30.6792 49.2284C28.2631 48.7381 26.0717 47.6593 24.386 46.0903C21.8575 43.7858 20.3404 40.8929 19.3852 37.8039C19.2728 37.5097 19.2166 37.2155 19.1042 36.9213C19.61 36.7251 20.0033 36.431 20.3404 36.0387C20.4528 36.3819 20.5652 36.7251 20.6775 37.0684C21.0709 38.2942 21.5766 39.471 22.1947 40.5987C23.2061 42.56 24.667 44.3251 26.5212 45.7471C28.4316 47.071 30.8478 47.8064 33.3201 47.8064C35.6239 47.8555 37.8714 47.6103 40.1752 47.6593H41.2428C41.0742 47.9535 41.018 48.2477 41.1304 48.4929Z" fill="black"/>
<path d="M39.5009 35.3032C39.22 37.4116 38.3772 39.4219 37.0848 41.1871C35.961 42.8051 34.3877 44.08 32.4773 44.9625C30.623 45.7961 28.3755 45.4529 26.9708 44.129C26.5212 43.6877 27.1955 43.0503 27.645 43.4916C29.1059 44.8154 31.1849 44.4232 32.7582 43.4916C34.2192 42.56 35.3991 41.2851 36.1858 39.9122C37.0286 38.4903 37.5905 37.0193 37.8153 35.4503C37.9276 34.8129 37.9276 34.1754 37.9276 33.538C37.9276 33.2438 37.9276 32.9987 37.8714 32.7045H37.9276C38.2648 32.7045 38.6019 32.6554 38.8829 32.5574C38.8267 32.8516 38.8829 33.0967 38.939 33.3909C38.939 33.44 38.939 33.489 38.9952 33.538C39.1638 34.1264 39.3324 34.7148 39.5009 35.3032Z" fill="black"/>
<path d="M39.1637 313.61C38.7141 313.806 38.2084 314.003 37.7027 314.15C37.8151 314.101 37.9275 314.101 38.0399 314.052C37.7589 314.15 37.5342 314.297 37.3094 314.395L37.2532 314.444C37.4218 319.347 37.5342 324.201 37.5342 329.154V330.772C37.5342 333.616 37.478 336.459 37.3656 339.303C37.3656 339.892 37.3094 340.529 37.3094 341.068L37.1409 344.844C37.0847 345.089 37.1409 345.285 37.0847 345.579C37.0285 345.874 37.0285 346.168 37.0285 346.462C36.6913 352.591 36.2418 358.671 35.6237 364.751C35.5114 366.222 35.2866 367.693 34.9495 369.164C34.7809 369.703 34.5562 370.243 34.3314 370.733L34.2752 370.831C33.4886 372.449 31.6343 373.577 29.6115 373.675C29.3868 373.675 29.2182 373.822 29.162 374.018C29.1058 374.263 29.2182 374.508 29.4991 374.606C31.241 374.95 33.039 374.41 34.1628 373.234C35.5676 371.91 36.4104 370.194 36.6913 368.428C37.0847 366.369 37.3656 364.261 37.5342 362.201C37.7589 359.946 37.9837 357.788 38.2084 355.533C38.9389 346.56 39.276 337.636 39.276 328.663C39.276 323.809 39.1075 318.955 38.8827 314.101L39.4446 313.954C39.276 313.856 39.1637 313.708 39.1637 313.61Z" fill="black"/>
<path d="M38.5457 330.673C38.2086 330.722 37.8715 330.722 37.5343 330.722H37.422C34.9496 330.722 32.7021 329.742 30.2859 329.448C29.1621 329.3 28.0384 329.497 27.0831 329.987C26.1279 330.575 25.2851 331.311 24.6108 332.193C22.4756 334.89 20.79 337.832 19.7786 340.97C19.6662 341.362 19.4976 341.706 19.3852 342.049C18.9919 341.804 18.4862 341.706 18.0367 341.706H17.9243C18.0367 341.362 18.0929 341.068 18.2053 340.676C18.6548 339.254 19.2167 337.93 19.8909 336.606C20.9023 334.449 22.1947 332.439 23.8242 330.624C25.3975 328.81 27.4765 327.682 30.005 327.829C32.5335 327.977 34.8934 329.153 37.4781 329.153H37.5905C37.9277 329.153 38.2086 329.153 38.5457 329.104V329.251C38.4895 329.693 38.5457 330.183 38.5457 330.673Z" fill="black"/>
<path d="M37.8714 345.775L37.759 345.726C37.3657 345.481 36.9162 345.383 36.4667 345.432C36.4667 345.187 36.4667 344.942 36.4105 344.697C36.2981 343.275 36.0734 341.902 35.68 340.529C35.1743 338.862 34.5001 337.195 33.5448 335.675C32.702 334.302 31.4097 332.291 29.443 332.831C29.1621 332.88 28.8811 332.635 28.825 332.34C28.825 332.095 28.9373 331.899 29.1621 331.801C31.2411 331.213 32.9268 332.635 34.0505 334.106C35.2305 335.724 36.1857 337.538 36.8038 339.401C36.9724 339.891 37.1409 340.431 37.2533 340.921C37.5343 342.147 37.759 343.422 37.8152 344.697V344.991C37.8714 345.236 37.9276 345.481 37.8714 345.775Z" fill="black"/>
<path d="M383.322 36.2348C383.266 36.431 383.266 36.6761 383.21 36.9213C382.929 38.4413 382.479 39.9613 381.861 41.4323C381.075 43.4426 379.951 45.3058 378.49 46.9239C377.029 48.5419 374.782 49.3264 372.534 49.0323C371.298 48.9342 370.118 48.591 368.882 48.4439C367.589 48.2477 366.297 48.1987 365.005 48.1497H363.825C363.544 48.1497 363.207 48.1497 362.926 48.1987C362.926 47.6593 362.869 47.12 362.757 46.6297C363.094 46.5806 363.488 46.5806 363.825 46.5316C364.218 46.4826 364.611 46.4826 365.005 46.4826C367.365 46.5316 369.781 46.8258 372.084 47.3161C373.208 47.5123 374.388 47.4632 375.456 47.169C376.299 46.7768 377.029 46.2374 377.591 45.551C378.94 43.9329 379.951 42.0697 380.625 40.1574C381.131 38.8826 381.468 37.5587 381.749 36.2348C381.805 35.9406 381.861 35.6955 381.918 35.4503C382.311 35.7445 382.817 35.9897 383.322 36.2348Z" fill="black"/>
<path d="M373.826 46.1883C370.511 44.9135 367.758 42.658 366.072 39.8632C364.892 37.9019 364.218 35.6954 364.05 33.489C364.05 33.1948 364.05 32.8516 364.05 32.5574C364.106 32.5574 364.162 32.6064 364.218 32.6064L365.398 32.9496C365.51 32.9496 365.567 32.9987 365.679 32.9987V33.538C365.791 35.4993 366.297 37.4116 367.252 39.1767C368.657 41.8245 371.073 43.9819 374.107 45.2567C374.782 45.4038 374.501 46.3845 373.826 46.1883Z" fill="black"/>
<path d="M384.165 341.755C384.109 341.755 384.109 341.804 384.053 341.804C383.491 342.147 383.042 342.539 382.592 343.03C382.592 342.834 382.536 342.588 382.536 342.441C382.536 342.294 382.48 342.098 382.48 342C382.367 340.921 382.142 339.892 381.862 338.813C380.906 335.234 378.603 331.507 374.669 330.477C372.422 329.889 370.118 330.085 367.814 330.232L366.353 330.281H365.791C365.735 329.84 365.679 329.35 365.567 328.908L366.241 328.859C367.309 328.761 368.432 328.712 369.5 328.663C371.86 328.565 374.276 328.565 376.524 329.497C378.434 330.379 380.007 331.654 381.131 333.272C382.367 335.086 383.266 337.097 383.66 339.156C383.772 339.696 383.884 340.284 383.997 340.872C384.053 341.117 384.109 341.412 384.165 341.755Z" fill="black"/>
<path d="M376.074 333.419C374.388 333.517 373.208 334.841 372.365 336.165C371.466 337.685 370.736 339.254 370.174 340.872C369.724 342.147 369.387 343.471 369.106 344.795C369.05 345.138 368.994 345.383 368.938 345.726C368.544 345.775 368.207 345.824 367.814 345.922C367.645 345.922 367.533 345.971 367.365 345.971C367.421 345.579 367.477 345.187 367.589 344.746C367.589 344.648 367.645 344.599 367.645 344.501C367.983 342.882 368.488 341.264 369.163 339.744C370.343 336.851 372.253 332.537 376.074 332.39C376.748 332.341 376.748 333.419 376.074 333.419Z" fill="black"/>
<path d="M47.0864 309.786C46.6931 309.296 45.176 306.697 41.4113 293.997C38.1524 264.235 39.838 140.772 40.0066 129.69L46.4122 127.729C46.8617 127.533 47.1988 127.141 47.1988 126.699C47.1988 126.258 46.8617 125.866 46.4122 125.67L39.3885 123.708C38.6581 85.8065 42.2542 48.64 43.5465 37.1174C42.8161 37.3626 42.0294 37.5587 41.2428 37.7058C39.8942 50.2581 36.3543 87.1794 37.0848 124.493C37.0848 124.934 37.3657 125.375 37.8714 125.523L42.1418 126.748L38.4895 127.876C37.9838 128.072 37.7029 128.465 37.7029 128.906C37.7029 130.279 35.7362 263.401 39.1638 294.341C39.1638 294.39 39.1638 294.439 39.22 294.488C42.198 304.539 43.8837 308.658 44.8951 310.374L37.9276 314.101L38.9952 316.013L47.0864 311.649C47.1426 311.649 47.1426 311.6 47.1988 311.6C47.7045 311.257 47.8731 310.619 47.536 310.129C47.3674 309.982 47.255 309.884 47.0864 309.786Z" fill="black"/>
<path d="M46.1894 309.737C46.1326 309.737 46.0757 309.787 46.0188 309.837C46.1326 309.787 46.1894 309.787 46.1894 309.737Z" fill="black"/>
<path d="M361.015 295.272H363.263C364.668 277.866 366.016 253.399 365.51 228.686C365.51 228.245 365.229 227.804 364.724 227.657L360.453 226.431L364.106 225.303C364.611 225.156 364.892 224.715 364.892 224.273C364.892 223.244 366.072 143.959 365.061 93.5535C364.443 93.8477 363.769 94.0928 363.094 94.1909C362.982 94.1909 362.926 94.2399 362.813 94.2399C363.769 141.997 362.757 215.055 362.645 223.44L356.239 225.401C355.565 225.646 355.284 226.333 355.565 226.872C355.677 227.117 355.958 227.362 356.239 227.461L363.263 229.422C363.712 253.987 362.308 278.111 361.015 295.272Z" fill="black"/>
<path d="M382.817 4.11896L382.423 4.26605C381.805 4.56025 381.243 4.9525 380.738 5.39379L380.457 5.2467C373.602 1.66734 362.757 1.27508 353.542 1.96154C347.249 2.45186 341.012 3.23637 334.775 3.87379C328.538 4.51121 322.132 5.14863 315.839 5.68799C290.386 7.84541 264.707 9.41444 238.972 10.1499C213.238 10.8854 187.391 10.9835 161.712 10.248C136.034 9.5125 110.243 8.18863 84.7895 6.03121C78.4401 5.49186 72.1469 4.9525 65.8537 4.36412C59.5605 3.77573 53.2112 2.94218 46.8056 2.45186C39.8943 1.9125 31.185 2.01057 25.0042 4.06992C24.4985 4.21702 24.049 4.41315 23.5995 4.60928C23.4309 4.51121 23.2623 4.36412 23.0376 4.26605C22.4757 4.02089 21.8576 3.82476 21.1833 3.7267C21.6891 3.4325 22.1948 3.23638 22.7566 3.08928C30.4546 0.0492782 41.1867 0.245407 50.4017 1.07896C63.6623 2.30476 76.8668 3.7267 90.1274 4.80541C116.649 6.91379 143.395 8.23767 170.197 8.77702C196.999 9.31637 223.914 9.02218 250.66 8.04154C277.406 7.06089 304.04 5.19767 330.448 2.59896C337.135 1.96154 343.709 1.17702 350.339 0.588633C356.576 0.0492782 362.926 -0.293948 369.219 0.392504C373.826 0.784762 378.322 2.01057 382.423 3.97186C382.536 3.97186 382.648 4.06992 382.817 4.11896Z" fill="black"/>
<path d="M383.94 375.489C383.603 375.636 383.21 375.881 382.817 376.028C376.692 378.823 368.264 379.951 360.228 379.951C353.542 379.951 346.968 379.215 340.45 378.529C333.82 377.794 327.133 377.156 320.503 376.568C293.869 374.116 266.898 372.547 239.928 371.763C212.957 370.978 185.761 371.125 158.79 372.008C131.82 372.89 104.905 374.704 78.3275 377.303C59.6166 379.166 35.6238 382.304 18.7109 376.47L18.0928 376.274L18.9356 376.126C19.6099 375.93 20.2841 375.636 20.846 375.244L21.1832 375.342C30.342 378.137 41.2427 378.627 51.6377 378.088C58.3242 377.744 64.8983 377.009 71.5287 376.323C77.9342 375.685 84.3398 375.048 90.8015 374.459C116.592 372.204 142.608 370.684 168.68 370.046C194.751 369.409 221.16 369.458 247.288 370.341C273.416 371.223 299.319 372.841 325.054 375.293C331.46 375.881 337.865 376.617 344.271 377.254C350.676 377.892 357.307 378.529 363.881 378.235C369.837 378.039 376.074 376.862 380.681 374.852L381.693 374.361C382.367 374.901 383.154 375.293 383.94 375.489Z" fill="black"/>
</g>
<defs>
<clipPath id="clip0_103_2233">
<rect width="404" height="380" fill="white"/>
</clipPath>
</defs>
</svg>
