<svg width="80" height="45" viewBox="0 0 80 45" fill="none" xmlns="http://www.w3.org/2000/svg">
<rect x="0.5" y="0.5" width="79" height="44" rx="9.5" fill="#E9DECA"/>
<path d="M28.284 28.098C27.696 28.098 27.1873 28.0327 26.758 27.902C26.3287 27.762 25.974 27.5707 25.694 27.328C25.414 27.0853 25.1993 26.8007 25.05 26.474C24.9007 26.1473 24.812 25.7927 24.784 25.41H26.114C26.142 25.634 26.198 25.8393 26.282 26.026C26.3753 26.2127 26.506 26.376 26.674 26.516C26.842 26.6467 27.0567 26.7493 27.318 26.824C27.5793 26.8987 27.9013 26.936 28.284 26.936C29.0587 26.936 29.614 26.796 29.95 26.516C30.2953 26.2267 30.468 25.8673 30.468 25.438C30.468 25.1767 30.4307 24.9527 30.356 24.766C30.2813 24.57 30.1507 24.3973 29.964 24.248C29.7773 24.0987 29.5253 23.968 29.208 23.856C28.9 23.7347 28.5033 23.6227 28.018 23.52C27.5793 23.4267 27.178 23.3053 26.814 23.156C26.45 22.9973 26.1373 22.806 25.876 22.582C25.6147 22.358 25.4093 22.0873 25.26 21.77C25.12 21.4527 25.05 21.0747 25.05 20.636C25.05 20.2813 25.1153 19.95 25.246 19.642C25.386 19.334 25.5913 19.068 25.862 18.844C26.1327 18.6107 26.4687 18.4287 26.87 18.298C27.2807 18.1673 27.752 18.102 28.284 18.102C28.8253 18.102 29.2967 18.1673 29.698 18.298C30.0993 18.4287 30.4307 18.6107 30.692 18.844C30.9627 19.068 31.168 19.3387 31.308 19.656C31.4573 19.9733 31.546 20.314 31.574 20.678H30.258C30.23 20.4727 30.174 20.286 30.09 20.118C30.0153 19.9407 29.8987 19.7913 29.74 19.67C29.5907 19.5393 29.3947 19.4413 29.152 19.376C28.9187 19.3013 28.6293 19.264 28.284 19.264C27.612 19.264 27.122 19.3947 26.814 19.656C26.5153 19.9173 26.366 20.244 26.366 20.636C26.366 20.888 26.4033 21.1073 26.478 21.294C26.5527 21.4713 26.6787 21.63 26.856 21.77C27.0333 21.91 27.262 22.0313 27.542 22.134C27.822 22.2367 28.1673 22.33 28.578 22.414C29.0913 22.526 29.5487 22.666 29.95 22.834C30.3513 22.9927 30.6873 23.1887 30.958 23.422C31.2287 23.6553 31.434 23.94 31.574 24.276C31.714 24.6027 31.784 24.99 31.784 25.438C31.784 25.8113 31.7093 26.1613 31.56 26.488C31.42 26.8147 31.2007 27.0993 30.902 27.342C30.6127 27.5753 30.2487 27.762 29.81 27.902C29.3807 28.0327 28.872 28.098 28.284 28.098ZM36.3916 28.098C35.9436 28.098 35.533 28.028 35.1596 27.888C34.7956 27.7387 34.483 27.524 34.2216 27.244C33.9696 26.9547 33.769 26.6047 33.6196 26.194C33.4796 25.774 33.4096 25.2933 33.4096 24.752V23.688C33.4096 22.6427 33.6663 21.8493 34.1796 21.308C34.7023 20.7573 35.4163 20.482 36.3216 20.482C37.227 20.482 37.9363 20.7573 38.4496 21.308C38.9723 21.8493 39.2336 22.652 39.2336 23.716V24.654H34.6416C34.651 25.5033 34.8096 26.1147 35.1176 26.488C35.435 26.852 35.8596 27.034 36.3916 27.034C36.625 27.034 36.8256 27.006 36.9936 26.95C37.171 26.8847 37.3156 26.8007 37.4276 26.698C37.549 26.5953 37.6423 26.4787 37.7076 26.348C37.773 26.2173 37.8196 26.082 37.8476 25.942H39.0936C38.9443 26.67 38.641 27.2113 38.1836 27.566C37.7263 27.9207 37.129 28.098 36.3916 28.098ZM36.3356 21.546C35.8036 21.546 35.3883 21.7093 35.0896 22.036C34.8003 22.3533 34.651 22.89 34.6416 23.646H38.0716C38.053 22.89 37.8943 22.3533 37.5956 22.036C37.3063 21.7093 36.8863 21.546 36.3356 21.546ZM41.0051 20.58H42.1111V21.812C42.2697 21.448 42.5404 21.1353 42.9231 20.874C43.3057 20.6127 43.7677 20.482 44.3091 20.482C45.0557 20.482 45.6484 20.72 46.0871 21.196C46.5257 21.672 46.7451 22.3907 46.7451 23.352V28H45.4991V23.422C45.4991 22.7873 45.3637 22.3207 45.0931 22.022C44.8224 21.7233 44.4397 21.574 43.9451 21.574C43.7117 21.574 43.4924 21.6207 43.2871 21.714C43.0817 21.8073 42.8997 21.938 42.7411 22.106C42.5917 22.2647 42.4704 22.456 42.3771 22.68C42.2931 22.904 42.2511 23.1513 42.2511 23.422V28H41.0051V20.58ZM51.1367 28.084C50.7447 28.084 50.3807 28.014 50.0447 27.874C49.718 27.734 49.4334 27.524 49.1907 27.244C48.9574 26.964 48.7754 26.6187 48.6447 26.208C48.514 25.788 48.4487 25.3027 48.4487 24.752V23.688C48.4487 23.1747 48.514 22.7173 48.6447 22.316C48.7754 21.9147 48.9574 21.5787 49.1907 21.308C49.4334 21.0373 49.718 20.832 50.0447 20.692C50.3807 20.552 50.7447 20.482 51.1367 20.482C51.65 20.482 52.0747 20.5987 52.4107 20.832C52.756 21.0653 53.0174 21.364 53.1947 21.728V18.2H54.4407V28H53.3347V26.768C53.12 27.1787 52.8307 27.5007 52.4667 27.734C52.112 27.9673 51.6687 28.084 51.1367 28.084ZM51.3887 26.992C51.9487 26.992 52.3874 26.8147 52.7047 26.46C53.0314 26.096 53.1947 25.5267 53.1947 24.752V23.688C53.1947 22.9787 53.0314 22.4513 52.7047 22.106C52.3874 21.7513 51.9487 21.574 51.3887 21.574C50.8847 21.574 50.474 21.7513 50.1567 22.106C49.8394 22.4513 49.6807 22.9787 49.6807 23.688V24.752C49.6807 25.5267 49.8394 26.096 50.1567 26.46C50.474 26.8147 50.8847 26.992 51.3887 26.992Z" fill="#1D1F1D"/>
<rect x="0.5" y="0.5" width="79" height="44" rx="9.5" stroke="#1D1F1D"/>
</svg>
