<svg width="120" height="108" viewBox="0 0 120 108" fill="none" xmlns="http://www.w3.org/2000/svg">
<path d="M8.24477 101.259H0.440582V105.207H13.7982H117.319L117.756 101.214L8.24477 101.259Z" fill="#3F3332"/>
<path d="M7.72904 61.2638L1.08951 61.473V63.8339L7.96812 61.9857L7.72904 61.2638Z" fill="#3F3332"/>
<path d="M8.8288 36.5112C8.8288 36.4763 8.58972 35.465 8.58972 35.465L2.46591 35.3883C2.46591 35.3883 2.66059 37.6794 2.73573 37.6794C2.81087 37.6794 8.84246 36.5426 8.8288 36.5112Z" fill="#3F3332"/>
<path d="M115.809 58.7739L115.546 55.8341L89.0975 56.6048L90.5217 56.9919L115.809 58.7739Z" fill="#3F3332"/>
<path d="M5.49878 24.9091L1.9536 25.0277L2.44542 35.3569L8.63753 35.5034L8.52141 36.1869L0.788948 38.206L1.08267 61.3614L7.91005 61.5916L7.3875 62.0065L0.150269 64.2035L0.382516 87.5019L0.440577 101.301L117.551 101.123L119.703 87.7704L116.622 58.9517L107.903 58.2368L88.428 56.814L89.7942 56.4862L109.938 55.9841L116.653 55.5377L114.529 25.7112L111.188 23.0399L99.5588 22.3878L43.1399 23.9885L5.49878 24.9091Z" fill="#77625C"/>
<path d="M11.749 71.5197C11.6848 71.5273 11.6256 71.5586 11.5826 71.6078C11.5397 71.657 11.5159 71.7206 11.5159 71.7865C11.5159 71.8524 11.5397 71.9161 11.5826 71.9653C11.6256 72.0145 11.6848 72.0458 11.749 72.0533C19.4199 72.1335 27.0909 72.0986 34.7619 72.0882L57.6075 72.0603C61.9337 72.0603 66.2519 72.0545 70.5621 72.0428C70.6296 72.0343 70.693 72.0054 70.7443 71.9598C70.7955 71.9143 70.8323 71.8541 70.8499 71.7871C70.8675 71.7201 70.8651 71.6492 70.8431 71.5835C70.821 71.5179 70.7803 71.4605 70.726 71.4186C69.2721 70.5079 67.6545 69.9032 65.9684 69.6401C64.1309 69.2914 62.2661 69.0787 60.415 68.859C56.4713 68.394 52.5129 68.0709 48.5396 67.8895C40.6545 67.544 32.7552 67.7888 24.9051 68.6218C22.7397 68.852 20.5812 69.138 18.4158 69.4658C16.2505 69.7936 14.2046 70.1248 12.1315 70.627H12.1008C12.0265 70.6165 11.9509 70.6312 11.8856 70.6689C11.8856 70.6689 11.8617 70.6933 11.848 70.7037L11.7524 70.7247C11.7184 70.7388 11.6894 70.7629 11.669 70.794C11.6485 70.825 11.6376 70.8616 11.6376 70.899C11.6376 70.9364 11.6485 70.973 11.669 71.0041C11.6894 71.0351 11.7184 71.0592 11.7524 71.0734C11.7572 71.0972 11.764 71.1205 11.7729 71.1431C11.8187 71.2206 11.8921 71.2769 11.9778 71.3001H12.0222C12.0222 71.3698 12.0222 71.4361 12.0461 71.5058L11.749 71.5197Z" fill="#846D69"/>
<path d="M119.081 82.8883C119.082 82.7972 119.095 82.7066 119.122 82.6197C119.097 81.7513 119.014 80.8855 118.873 80.0287C111.262 81.2466 103.594 82.0613 95.901 82.4698C87.5183 82.8988 79.1179 82.8045 70.7466 82.1873C62.3076 81.5193 53.9134 80.3549 45.6058 78.7001C37.3269 77.0959 29.0855 75.4046 20.6734 74.5991C13.9394 73.9405 7.1696 73.7448 0.409851 74.0132V77.6748C8.0945 78.2397 15.7791 79.1464 23.4057 80.1787C32.1423 81.3608 40.8482 82.7453 49.5711 83.9972C58.0071 85.2038 66.4637 86.2988 74.9543 86.9858C83.399 87.7139 91.88 87.9038 100.348 87.5542C106.673 87.2865 112.972 86.5722 119.201 85.4165C119.132 84.5761 119.085 83.7322 119.081 82.8883Z" fill="#846D69"/>
<path d="M119.399 87.5507V89.1305C118.668 89.2142 117.937 89.2944 117.206 89.3641C112.944 89.7756 108.671 90.0441 104.388 90.1697C95.8053 90.4347 87.2122 90.1697 78.6429 89.5873C69.9917 88.9945 61.361 88.0669 52.7542 86.9928C44.1474 85.9187 35.4689 84.6982 26.8348 83.5055C18.2006 82.3129 9.61434 81.1098 1.0007 79.9346L0.409839 79.8544V80.7053C0.414871 80.899 0.35188 81.0883 0.232239 81.2388V84.9458C4.35462 85.2492 8.48042 85.5491 12.5994 85.9222C19.9721 86.5894 27.3311 87.4206 34.6765 88.4156C42.0265 89.4164 49.3627 90.5812 56.6717 91.8401C58.4932 92.1493 60.3034 92.4678 62.1022 92.7956C62.9104 92.896 63.7097 93.0604 64.4929 93.2873C65.0018 93.4617 65.6508 93.7999 65.6508 94.4346C65.6508 95.0693 64.9677 95.4494 64.4827 95.6656C63.744 95.9424 62.9844 96.157 62.2115 96.3072C60.4605 96.7466 58.7038 97.1651 56.9415 97.5627C49.9434 99.1389 42.8837 100.38 35.7865 101.399H76.6757C76.7459 101.272 76.8491 101.167 76.9739 101.097C77.0986 101.026 77.2401 100.992 77.3827 100.998H98.0663C96.6728 100.67 95.2725 100.366 93.8756 100.049L86.3822 98.3473L78.7215 96.6037L76.8874 96.1887C76.3186 96.0964 75.7587 95.954 75.2139 95.7632C74.7767 95.5749 74.4078 95.1983 74.6982 94.6996C74.9885 94.2009 75.651 94.0963 76.1975 94.0963C77.4305 94.0963 78.6703 94.2219 79.9032 94.3056C81.1942 94.3939 82.4841 94.4881 83.7729 94.588C86.3276 94.7868 88.896 95.0065 91.4302 95.2053C96.4713 95.5959 101.526 95.9027 106.588 95.84C110.666 95.8193 114.735 95.4531 118.753 94.745C118.774 94.3962 118.791 94.0475 118.801 93.6988C118.846 92.3039 118.733 90.8044 119.331 89.4966C119.382 89.3878 119.461 89.295 119.559 89.2281C119.512 88.6562 119.457 88.1052 119.399 87.5507Z" fill="#846D69"/>
<path d="M6.03841 97.3151C5.81641 96.8164 5.23238 96.6699 4.75081 96.6002C3.9838 96.4871 3.21012 96.4277 2.43517 96.4224C1.69873 96.4141 0.962635 96.4584 0.232239 96.5549V100.415C1.332 100.049 2.43175 99.6864 3.52468 99.3133C4.18385 99.0901 4.96939 98.9367 5.57392 98.5566C5.78777 98.4447 5.95352 98.2559 6.03928 98.0267C6.12503 97.7976 6.12472 97.5441 6.03841 97.3151Z" fill="#846D69"/>
<path d="M45.3838 95.7562C46.2991 95.4458 47.0915 94.71 46.7158 93.6325C46.3333 92.5061 45.1686 92.2097 44.1372 92.0597C42.771 91.8609 41.4049 91.6796 40.0387 91.5052C37.3064 91.1635 34.5741 90.8647 31.8418 90.609C26.2633 90.0929 20.6745 89.7639 15.0756 89.6221C11.9402 89.5407 8.8049 89.521 5.66957 89.5628C4.1019 89.5837 2.53082 89.6012 0.966567 89.6709C0.717243 89.6709 0.467919 89.7023 0.215179 89.7163V93.8626C2.69817 93.9812 5.19483 93.9812 7.67782 94.0335L17.3229 94.2462C18.1187 94.2637 18.9145 94.2846 19.7137 94.2985C20.2499 94.2985 21.2506 94.1625 21.6605 94.6228C22.1625 95.1913 21.4658 95.9096 20.9979 96.1712C20.3575 96.4871 19.6941 96.7518 19.0135 96.9628C16.0899 98.0369 13.1299 99.004 10.1335 99.8642C8.48386 100.342 6.81714 100.781 5.14701 101.196H23.5902C26.7733 100.415 29.953 99.6166 33.1533 98.8215L41.4322 96.7535C42.7505 96.4536 44.1099 96.1921 45.3838 95.7562Z" fill="#846D69"/>
<path d="M45.2062 75.5476C53.5773 79.7498 63.1405 79.8893 72.2596 79.2755C77.2631 78.9268 82.253 78.4351 87.2463 77.9922C92.5163 77.5249 97.7863 77.0681 103.053 76.5973C108.111 76.137 113.173 75.7185 118.227 75.2024C118.139 74.3236 118.067 73.4588 118.026 72.566C115.499 72.6497 112.971 72.7509 110.444 72.838L94.6065 73.3681L63.079 74.4143L45.3565 75.0036C45.0832 75.0211 44.9432 75.4151 45.2062 75.5476Z" fill="#846D69"/>
<path d="M92.5368 33.3065C84.0422 32.7785 75.5202 32.9243 67.0477 33.7424C62.2957 34.2074 57.5722 34.8758 52.8772 35.7476C52.5527 35.8069 52.6313 36.3404 52.9557 36.3299C61.2848 36.051 69.6195 35.915 77.9599 35.9219C86.3003 35.9289 94.6111 36.0824 102.892 36.3823C106.799 36.5217 110.71 36.6822 114.617 36.8391L115.427 36.9995C115.427 36.7903 115.403 36.5845 115.389 36.3753C112.032 35.643 108.637 35.0745 105.239 34.5968C101.017 34.0039 96.7833 33.5738 92.5368 33.3065Z" fill="#846D69"/>
<path d="M117.374 65.4171C117.368 65.3685 117.368 65.3193 117.374 65.2707C117.341 63.8752 117.212 62.4839 116.988 61.1069C115.399 60.9674 113.811 60.8384 112.206 60.6989L101.331 59.7538L79.671 57.8707L74.3191 57.3964L71.5867 57.1593C70.8388 57.0931 69.9849 56.9047 69.2506 57.1349C68.9798 57.2093 68.7363 57.3634 68.5505 57.5779C68.3647 57.7924 68.2447 58.0579 68.2055 58.3415C68.144 58.9657 68.5914 59.3877 69.1481 59.5376C69.9835 59.7257 70.8284 59.8665 71.6789 59.9596C72.5704 60.1026 73.4584 60.242 74.3498 60.378C81.4288 61.4707 88.5226 62.453 95.6311 63.3248C102.74 64.1966 109.88 64.9266 117.053 65.5148L117.367 65.5357C117.365 65.496 117.368 65.4564 117.374 65.4171Z" fill="#846D69"/>
<path d="M1.28076 43.1683C9.21473 42.6034 17.1965 43.0149 25.1305 43.5171C30.076 43.8205 35.0351 44.1378 39.9738 44.2145C44.9116 44.2874 49.8494 44.0685 54.7625 43.5589C60.253 42.9801 65.7022 42.0483 71.0778 40.7691C71.1426 40.7461 71.1976 40.7009 71.2335 40.6413C71.2694 40.5816 71.284 40.511 71.2747 40.4416C71.2654 40.3722 71.233 40.3082 71.1828 40.2605C71.1326 40.2128 71.0677 40.1843 70.9993 40.1798C61.7777 39.8589 52.5254 39.5695 43.2902 39.2626C34.0549 38.9557 24.8948 38.6279 15.7108 38.328C10.9019 38.1746 6.09533 38.0409 1.29101 37.927L1.28076 43.1683Z" fill="#846D69"/>
<path d="M115.307 38.499C113.354 38.4362 111.39 38.4815 109.457 38.5757C105.53 38.7882 101.618 39.2108 97.735 39.8416C89.8352 41.076 82.0242 42.8755 74.1278 44.11C66.0367 45.3723 57.8602 45.8954 49.6838 46.0803C41.5073 46.2651 33.3343 46.1291 25.1578 46.0489C17.1965 45.9756 9.24205 45.8954 1.28076 45.885V52.6224C4.72007 52.584 8.16279 52.3713 11.5987 52.2074C15.5742 52.0144 19.5463 51.7947 23.515 51.5483C31.3772 51.0647 39.2327 50.4928 47.0812 49.8326C62.7921 48.5097 78.4574 46.837 94.0771 44.8144C101.22 43.8845 108.343 42.8638 115.447 41.7526C115.376 40.6576 115.3 39.5835 115.307 38.499Z" fill="#846D69"/>
<path d="M114.713 70.1249C112.049 69.7111 109.386 69.3008 106.724 68.8939C106.665 68.8842 106.605 68.8934 106.551 68.9203C106.497 68.9471 106.453 68.9903 106.424 69.0439H106.082L105.457 69.0683V69.0334C99.4894 68.0616 93.5204 67.0992 87.5503 66.146C78.7386 64.7232 69.9337 63.2097 61.2518 61.1557C59.0932 60.6466 56.9438 60.1002 54.8035 59.5167C53.8847 59.2621 52.8738 59.0808 52.0233 58.6274C51.4393 58.3136 50.7323 57.6545 51.2241 56.9361C51.6203 56.3572 52.4947 56.1864 53.1334 56.1096C54.1853 55.9876 55.2577 55.9632 56.3165 55.8899C58.5934 55.7342 60.8704 55.5656 63.1473 55.3843C72.2118 54.6682 81.2603 53.7836 90.2929 52.7305C98.8496 51.7331 107.388 50.5812 115.908 49.2746C115.902 47.8234 115.813 46.3737 115.642 44.933C100.355 46.6766 85.0707 48.4202 69.7561 49.9721C53.3007 51.625 36.8305 53.1362 20.3455 54.5055C14.0066 55.0251 7.65391 55.4715 1.31493 56.005V59.7608C5.66956 59.6039 10.0208 59.3284 14.3754 59.0634L23.2042 58.5507C25.9365 58.3938 28.6689 58.2404 31.4012 58.3275C34.0321 58.3739 36.6461 58.7678 39.178 59.4993C33.9069 60.5338 28.637 61.5614 23.3682 62.582C17.6918 63.6909 12.07 64.8069 6.48926 66.1146C4.45368 66.5796 2.42721 67.0887 0.409851 67.642V70.3446C3.06703 69.8006 5.71396 69.2078 8.38139 68.7231C12.1975 68.0256 16.0296 67.4304 19.8776 66.9376C27.4107 65.983 34.987 65.4266 42.5764 65.2707C50.2219 65.1078 57.8705 65.3569 65.4903 66.0169C73.2193 66.6865 80.9108 67.6943 88.5988 68.7056C94.0976 69.431 99.5964 70.1493 105.095 70.8607L105.184 71.1118C105.202 71.1716 105.241 71.2225 105.293 71.2548C105.32 71.2715 105.35 71.2824 105.381 71.2866C105.412 71.2908 105.444 71.2883 105.474 71.2792C105.504 71.2711 105.533 71.257 105.557 71.2377C105.582 71.2184 105.603 71.1942 105.619 71.1667C105.634 71.1391 105.644 71.1087 105.648 71.0771C105.652 71.0455 105.65 71.0135 105.642 70.9828L105.502 70.5678C108.541 70.5957 111.595 70.6062 114.631 70.7491C114.969 70.7526 115.058 70.1772 114.713 70.1249Z" fill="#846D69"/>
<path d="M15.3693 35.4651C15.3484 35.4936 15.3356 35.5275 15.3325 35.5629C15.3294 35.5984 15.336 35.6341 15.3516 35.6659C15.3672 35.6978 15.3911 35.7246 15.4208 35.7433C15.4505 35.762 15.4847 35.772 15.5196 35.772C16.6535 35.772 17.784 35.7719 18.9145 35.7406L20.6222 35.7057C21.1631 35.718 21.7042 35.69 22.2411 35.622C22.2635 35.6196 22.2852 35.612 22.3043 35.5999C22.3235 35.5878 22.3398 35.5714 22.352 35.5519C22.3641 35.5325 22.3718 35.5105 22.3745 35.4876C22.3772 35.4648 22.3748 35.4415 22.3675 35.4197C23.6892 35.1233 25.0144 34.8234 26.343 34.5584C29.64 33.8958 32.9495 33.3076 36.2715 32.7938C42.9475 31.7546 49.6644 31.0084 56.4224 30.555C63.1257 30.1017 69.8426 29.9366 76.5732 30.0598C83.3038 30.183 89.998 30.5945 96.6558 31.2943C102.855 31.9429 109.009 32.8636 115.147 33.9516C115.102 33.5785 115.061 33.2018 115.02 32.8287C114.928 31.9953 114.856 31.1653 114.836 30.3283C111.897 29.4468 108.904 28.7618 105.877 28.2778C100.98 27.4653 95.8395 27.4583 91.1638 25.6066C89.6001 25.0056 88.1351 24.1648 86.8194 23.1132H89.5756C89.4066 23.0197 89.2425 22.9172 89.0838 22.8063C88.9559 22.7315 88.8498 22.6231 88.7764 22.4925L88.756 22.4471C87.9397 22.5413 87.1063 22.5274 86.2934 22.5797C85.0707 22.6599 83.8412 22.6843 82.6185 22.7645C81.0371 22.8691 79.4592 22.9598 77.8813 23.0156C76.6994 23.5381 75.4909 23.9956 74.261 24.3861C69.599 25.8577 64.7389 26.4191 59.8958 26.855C54.9469 27.2979 50.0117 27.7547 45.0901 28.4661C40.1685 29.1775 35.2811 30.0842 30.4278 31.1757C25.1704 32.3591 19.979 33.7761 14.8536 35.4267C15.0253 35.385 15.2054 35.3984 15.3693 35.4651Z" fill="#846D69"/>
<path d="M50.0458 23.4619C49.2091 23.4619 48.3723 23.5421 47.5389 23.6084C45.6229 23.7548 43.7239 23.8281 41.8011 23.8176C39.8782 23.8072 37.9963 23.8839 36.0871 24.0408C32.2858 24.3512 28.4742 24.2989 24.666 24.2989H24.567C19.1023 25.1474 13.6764 26.2215 8.28918 27.5211C6.30825 28.0023 4.33187 28.5138 2.36005 29.0555C2.64011 30.7084 2.82796 32.3614 2.51374 34.0318C8.03985 32.6369 13.5887 31.3338 19.1604 30.1226C25.5438 28.7556 31.9511 27.5071 38.3857 26.4226C41.8899 25.8263 45.4009 25.2892 48.8948 24.6371C49.0308 24.6323 49.1654 24.6077 49.2944 24.5639C49.3101 24.559 49.3251 24.552 49.3388 24.543C49.5356 24.4658 49.7031 24.3265 49.817 24.1454C49.8973 24.0131 49.9421 23.8616 49.9468 23.706C49.9883 23.6832 50.0208 23.6464 50.0388 23.602C50.0569 23.5575 50.0593 23.508 50.0458 23.4619Z" fill="#846D69"/>
<path d="M15.8816 19.734C15.8816 19.734 16.9745 18.2415 16.9745 18.0636C16.9745 17.8858 16.7969 16.32 16.7969 16.32L15.8167 14.9251L14.9014 14.5032C14.8502 14.5032 13.7641 14.4822 12.8521 14.4822V-12H8.95176V14.3218L7.81785 14.2625C7.81785 14.2625 4.52541 14.1719 4.98307 17.7114C5.61492 19.4551 5.7447 19.5388 5.7447 19.5388L4.98307 21.7636C4.98307 21.7636 4.4366 24.3895 7.81785 25.1463C8.19354 25.1881 8.57265 25.2195 8.95176 25.2404V105.688C8.94905 105.94 8.99528 106.19 9.08779 106.423C9.18029 106.656 9.31722 106.869 9.49065 107.048C9.66409 107.227 9.87058 107.369 10.0982 107.466C10.3258 107.563 10.5699 107.613 10.8166 107.613H10.9839C11.2293 107.613 11.4722 107.564 11.6989 107.468C11.9255 107.372 12.1315 107.231 12.305 107.054C12.4784 106.877 12.616 106.667 12.7099 106.435C12.8038 106.204 12.8521 105.956 12.8521 105.705V25.1602C13.5769 25.1265 14.2949 25.0023 14.9902 24.7906C15.2737 24.5918 17.1897 22.8307 17.1897 22.8307L16.2744 20.5605L15.8816 19.734Z" fill="#BBACA7"/>
<path d="M11.1069 -12H8.86978V16.2433H11.1069V-12Z" fill="#968583"/>
<path d="M8.88004 106.169C9.06529 106.361 9.23544 106.567 9.38893 106.786C9.51204 106.949 9.64921 107.099 9.79878 107.236C10.0822 107.437 10.3842 107.608 10.7004 107.749L10.7688 107.773H11.1103V25.3136H8.88004V106.169Z" fill="#968583"/>
<path d="M13.7231 16.0724C13.6001 16.1666 13.4737 16.2607 13.344 16.3514C13.3077 16.2947 13.2562 16.2501 13.1955 16.2228C13.1349 16.1956 13.0678 16.1869 13.0024 16.1979C11.7571 16.3667 10.4981 16.4029 9.24548 16.3061H9.03714C8.86637 15.898 9.08154 15.3296 8.86979 14.9112C8.742 14.6783 8.54646 14.4918 8.31026 14.3775C8.07405 14.2631 7.80887 14.2266 7.55145 14.273C6.40046 14.3776 5.1231 15.0402 4.81913 16.2747C4.51516 17.5092 5.38267 18.4193 6.50975 18.6913C7.75248 18.9554 9.03814 18.9232 10.2667 18.5972C10.9644 18.4271 11.6372 18.1645 12.2681 17.816C12.9098 17.4411 13.4944 16.9724 14.0031 16.4246C14.1602 16.2468 13.928 15.9155 13.7231 16.0724Z" fill="#968583"/>
<path d="M12.7873 20.2118C12.7224 20.2746 12.6506 20.3339 12.5823 20.3932C12.5164 20.2866 12.4204 20.2029 12.3071 20.1531C12.1937 20.1033 12.0682 20.0898 11.9471 20.1142C10.6293 20.428 9.25855 20.428 7.94081 20.1142C7.29872 19.9642 6.70102 19.7654 6.03502 19.8805C5.7753 19.919 5.53113 20.0303 5.32972 20.2021C5.12831 20.3739 4.97757 20.5994 4.89428 20.8535C4.55274 22.0078 5.57736 22.9458 6.57124 23.1446C7.73103 23.3481 8.92214 23.2546 10.0379 22.8726C11.2944 22.4671 12.4155 21.7124 13.2757 20.6931C13.3268 20.6251 13.3516 20.5403 13.3454 20.4548C13.3391 20.3694 13.3023 20.2893 13.2419 20.2298C13.1815 20.1703 13.1018 20.1355 13.0179 20.1322C12.9341 20.1289 12.852 20.1573 12.7873 20.2118Z" fill="#968583"/>
<path d="M11.7968 25.5962C11.7854 25.5505 11.765 25.5076 11.737 25.4702C11.7089 25.4328 11.6737 25.4016 11.6335 25.3784C11.5932 25.3553 11.5488 25.3407 11.5029 25.3356C11.4571 25.3304 11.4106 25.3349 11.3664 25.3486C11.1236 25.3987 10.8919 25.4945 10.6834 25.631C10.5673 25.7031 10.4606 25.7898 10.3657 25.8891C10.328 25.9253 10.2937 25.965 10.2633 26.0077C10.205 26.0739 10.1619 26.1525 10.1369 26.2378C10.1067 26.3464 10.119 26.4626 10.1711 26.5621C10.1975 26.6206 10.2392 26.6704 10.2917 26.7061C10.3441 26.7418 10.4052 26.762 10.4682 26.7644C10.5102 26.768 10.5525 26.768 10.5946 26.7644H10.4955C10.5673 26.767 10.6383 26.7488 10.7004 26.7121C10.7114 26.7064 10.7218 26.6993 10.7312 26.6912C10.7796 26.6607 10.8233 26.6231 10.861 26.5796C10.8985 26.5342 10.9361 26.4889 10.9771 26.4471C11.0458 26.3729 11.1188 26.303 11.1957 26.2378C11.302 26.1599 11.4166 26.0944 11.5372 26.0425C11.6237 26.0153 11.6977 25.9571 11.7455 25.8786C11.7732 25.838 11.7921 25.7917 11.801 25.743C11.8098 25.6943 11.8084 25.6443 11.7968 25.5962Z" fill="#968583"/>
<path d="M10.161 26.5098C10.1681 26.5283 10.1775 26.5459 10.1889 26.5621L10.154 26.4819C10.1547 26.4916 10.157 26.501 10.161 26.5098Z" fill="#968583"/>
<path d="M9.4743 12.6863C9.46064 10.6846 9.44925 8.68292 9.44015 6.68124C9.41624 2.67787 9.35818 -1.33946 9.31378 -5.32888L9.24205 -12H8.50774C8.46676 -4.03162 8.41553 3.93328 8.41553 11.9017C8.41553 13.0036 8.41553 14.1068 8.41553 15.2111C8.41553 15.4935 8.41553 15.7795 8.41553 16.0654C8.63299 16.0722 8.84011 16.1617 8.99615 16.3165C9.01034 16.3345 9.02637 16.3509 9.04396 16.3653H9.06445C9.19208 16.2894 9.33683 16.2485 9.48455 16.2468V15.6435L9.4743 12.6863Z" fill="black"/>
<path d="M13.6206 12.6863C13.6206 10.6846 13.6092 8.68292 13.5864 6.68124C13.566 2.67787 13.5045 -1.33946 13.4601 -5.32888L13.3884 -12H12.654C12.6131 -4.03162 12.5652 3.93328 12.5652 11.9017C12.5652 13.0036 12.5652 14.1068 12.5652 15.2111C12.5652 15.6261 12.5652 16.0445 12.5652 16.4595H12.5892C12.9102 16.4595 13.2347 16.4595 13.5557 16.4386H13.5762H13.6343C13.6343 16.1805 13.6343 15.9225 13.6343 15.6609C13.6308 14.6566 13.6274 13.6732 13.6206 12.6863Z" fill="black"/>
<path d="M14.1739 15.7447C13.0977 15.9918 11.9924 16.0799 10.8917 16.0062C10.341 15.9769 9.79311 15.907 9.2523 15.797C8.9859 15.7412 8.7195 15.6784 8.45651 15.6017C8.22384 15.5084 7.96876 15.4901 7.72562 15.5494C7.6872 15.5609 7.65184 15.5811 7.62214 15.6086C7.59244 15.636 7.56918 15.6699 7.55408 15.7078C7.53899 15.7456 7.53245 15.7865 7.53494 15.8273C7.53744 15.8681 7.54891 15.9078 7.56851 15.9434C7.87248 16.3863 8.56922 16.4561 9.05079 16.5537C9.63674 16.6796 10.2319 16.7554 10.8302 16.7804C12.0115 16.8079 13.1896 16.6443 14.3207 16.2956C14.3923 16.2758 14.4532 16.2277 14.49 16.1619C14.5269 16.0962 14.5366 16.0182 14.5171 15.9452C14.4977 15.8721 14.4506 15.8099 14.3862 15.7723C14.3218 15.7347 14.2454 15.7248 14.1739 15.7447Z" fill="black"/>
<path d="M17.5244 17.0279C17.2034 14.8239 14.8331 13.8092 12.8282 14.0742C12.8242 14.3774 12.8425 14.6805 12.8829 14.9809C13.528 14.9218 14.1782 14.982 14.8023 15.1587C15.1729 15.2726 15.5138 15.4699 15.7999 15.736C16.086 16.0022 16.31 16.3304 16.4554 16.6966C16.5901 17.0678 16.6012 17.4739 16.487 17.8522C16.3728 18.2305 16.1396 18.5597 15.8235 18.789C15.1405 19.3295 14.2456 19.4864 13.4089 19.598C12.3718 19.7253 11.3282 19.7882 10.2838 19.7863C9.38002 19.8179 8.47554 19.7513 7.5856 19.5875C7.20103 19.5322 6.83245 19.3938 6.50441 19.1815C6.17637 18.9692 5.89642 18.688 5.68322 18.3565C5.33988 17.7407 5.24786 17.0116 5.42707 16.327C5.86765 14.6705 7.91689 14.1125 9.25231 15.0088C9.24548 14.9171 9.24548 14.825 9.25231 14.7333C9.26492 14.5566 9.2935 14.3815 9.3377 14.2102V14.1788C8.60101 13.7857 7.74917 13.6803 6.94186 13.8825C6.13455 14.0848 5.42717 14.5807 4.95233 15.2773C4.49274 16.069 4.35127 17.0117 4.55757 17.9076C4.76388 18.8035 5.30195 19.5831 6.05892 20.0827C7.02547 20.693 8.19012 20.7802 9.29671 20.8499C10.5595 20.9081 11.8248 20.865 13.081 20.7209C14.2149 20.5919 15.4069 20.421 16.3461 19.7026C16.7621 19.4083 17.0916 19.0037 17.2993 18.5324C17.5069 18.0611 17.5847 17.541 17.5244 17.0279Z" fill="black"/>
<path d="M17.5244 21.8717C17.4384 21.3393 17.226 20.8365 16.9057 20.4073C16.5853 19.9781 16.1669 19.6356 15.6869 19.4097C15.3135 19.6237 14.9184 19.7955 14.5086 19.9223C14.6079 19.9449 14.7059 19.9728 14.8023 20.006C15.1729 20.1199 15.5138 20.3172 15.7999 20.5833C16.086 20.8495 16.3099 21.1777 16.4554 21.5439C16.5907 21.915 16.6021 22.3214 16.4879 22.6998C16.3736 23.0782 16.14 23.4074 15.8235 23.6363C15.1405 24.1803 14.2456 24.3337 13.4088 24.4453C12.3719 24.5738 11.3283 24.6378 10.2838 24.6371C9.38004 24.667 8.47574 24.6004 7.58559 24.4383C7.20216 24.3846 6.83429 24.2483 6.50633 24.0385C6.17837 23.8287 5.8978 23.5501 5.68321 23.2213C5.33972 22.6067 5.24766 21.8786 5.42706 21.1952C5.51552 20.8684 5.67381 20.5657 5.89054 20.3088C6.10728 20.0519 6.37707 19.8473 6.68051 19.7096C6.42899 19.5522 6.21445 19.3403 6.05208 19.0889C5.60635 19.3393 5.22846 19.6988 4.95232 20.135C4.49046 20.9279 4.3477 21.8728 4.55407 22.7709C4.76045 23.6691 5.29987 24.4505 6.05891 24.9509C7.02546 25.5577 8.19012 25.6484 9.2967 25.7147C10.5594 25.774 11.8247 25.732 13.081 25.5891C14.2149 25.4566 15.4069 25.2892 16.3461 24.5708C16.7654 24.274 17.097 23.8653 17.3048 23.3894C17.5125 22.9136 17.5885 22.3886 17.5244 21.8717Z" fill="black"/>
<path d="M12.4491 24.965C12.3364 35.2977 12.3945 45.634 12.374 55.9702L12.2954 89.9151C12.2954 92.7561 12.2954 95.5982 12.2954 98.4415V102.626C12.2954 103.324 12.2954 104.021 12.2954 104.719C12.3171 105.25 12.2537 105.781 12.1076 106.291C11.7661 107.337 10.6629 107.421 9.89783 106.731C9.01324 105.929 9.05081 104.53 9.05081 103.425C9.05081 100.635 9.05081 97.8452 9.05081 95.0554C9.06903 83.6776 9.08497 72.2998 9.09863 60.9221C9.1157 49.6025 9.1601 38.2828 9.12937 26.9632C9.12937 26.3913 9.12937 25.8228 9.10887 25.2509L8.97909 25.2788C8.7892 25.3145 8.59375 25.3037 8.40872 25.2474C8.33358 30.2307 8.33358 35.214 8.32675 40.1973L8.29601 57.6127L8.26527 75.028L8.23453 92.4434V101.162C8.23453 102.469 8.1389 103.819 8.31992 105.116C8.46336 106.162 8.92103 107.208 9.87734 107.714C10.7278 108.178 11.7831 108.126 12.4321 107.341C13.081 106.556 13.081 105.433 13.0844 104.457C13.0844 101.556 13.0844 98.6554 13.0844 95.7563L13.1185 78.3514L13.1527 60.95C13.1527 55.1379 13.1641 49.3363 13.1869 43.5451L13.221 26.1437C13.221 25.7496 13.221 25.3556 13.221 24.958C12.958 24.965 12.7019 24.965 12.4491 24.965Z" fill="black"/>
<path d="M13.2586 5.12598C13.1015 5.2829 12.9478 5.43983 12.7872 5.59327C12.2954 6.07451 11.7899 6.55226 11.2708 7.01607C10.4443 7.76234 9.58702 8.48072 8.70926 9.16422V9.71869C9.69829 9.0239 10.6492 8.27418 11.5577 7.4729C12.0768 7.01258 12.5823 6.53832 13.0673 6.04313L13.2517 5.84784L13.2586 5.12598Z" fill="black"/>
<path d="M13.2586 -0.227051C12.596 0.470401 11.9573 1.21319 11.2708 1.89669C10.4614 2.70225 9.6041 3.49037 8.71609 4.21572V4.85388C9.78335 4.13651 10.7909 3.33055 11.7285 2.44419C12.2666 1.94305 12.7774 1.41219 13.2586 0.854V-0.227051Z" fill="black"/>
<path d="M13.2586 10.2975C12.596 11.0159 11.9539 11.7377 11.2708 12.4108C10.4921 13.1849 9.66559 13.9452 8.81516 14.6496C8.86501 14.8096 8.90493 14.9727 8.93469 15.1378V15.2075C9.91889 14.5335 10.8496 13.7814 11.7182 12.9583C12.2591 12.4554 12.7733 11.9234 13.2586 11.3646V10.2975Z" fill="black"/>
<path d="M12.9 29.4984L12.7872 29.61C12.2954 30.0912 11.7899 30.569 11.2708 31.0328C10.4443 31.7791 9.58702 32.4975 8.70926 33.181V33.7354C9.69829 33.0406 10.6492 32.2909 11.5577 31.4896C12.0131 31.0828 12.4582 30.6632 12.8931 30.2307L12.9 29.4984Z" fill="black"/>
<path d="M12.1008 25.0452C11.8275 25.3381 11.5543 25.631 11.2708 25.917C10.4614 26.719 9.6041 27.5072 8.71609 28.2325V28.8707C9.78335 28.1533 10.7909 27.3474 11.7285 26.461C12.1565 26.0565 12.5687 25.6345 12.9648 25.1951C12.6745 25.1498 12.3876 25.0975 12.1008 25.0452Z" fill="black"/>
<path d="M12.9 40.5077L12.7872 40.6193C12.2954 41.1005 11.7899 41.5818 11.2708 42.0525C10.4443 42.7953 9.58702 43.5137 8.70926 44.1972V44.7552C9.69754 44.0581 10.6484 43.3072 11.5577 42.5059C12.0154 42.1014 12.4594 41.6794 12.8931 41.247L12.9 40.5077Z" fill="black"/>
<path d="M12.9 35.1896C12.3637 35.7754 11.8344 36.3648 11.2708 36.9332C10.4614 37.7388 9.6041 38.5234 8.71609 39.2487V39.8869C9.78414 39.1707 10.7918 38.3646 11.7285 37.4772C12.1315 37.0936 12.5243 36.6926 12.9 36.2811V35.1896Z" fill="black"/>
<path d="M12.6097 46.028C12.1725 46.5092 11.7319 46.9904 11.2708 47.4473C10.4921 48.2249 9.66559 48.9817 8.81516 49.6896C8.8654 49.8483 8.90534 50.0102 8.93469 50.1743V50.2475C9.92217 49.5672 10.8563 48.8093 11.7285 47.9808C12.029 47.6949 12.3228 47.4019 12.6097 47.102V46.028Z" fill="black"/>
<path d="M12.9136 56.3816L12.7872 56.5071C12.292 56.9884 11.79 57.4696 11.2776 57.9334C10.4511 58.6762 9.59385 59.3946 8.71609 60.0781V60.636C9.70438 59.939 10.6552 59.1881 11.5645 58.3868C12.0256 57.9753 12.4764 57.5533 12.9307 57.1139L12.9136 56.3816Z" fill="black"/>
<path d="M12.9136 51.0636C12.374 51.6529 11.8378 52.2493 11.2708 52.8072C10.4614 53.6128 9.6041 54.3974 8.71609 55.1263V55.7609C9.78414 55.0447 10.7918 54.2387 11.7285 53.3512C12.1383 52.9653 12.5334 52.562 12.9136 52.1412V51.0636Z" fill="black"/>
<path d="M12.9136 67.3909L12.7872 67.5164C12.292 68.0011 11.79 68.4789 11.2776 68.9427C10.4511 69.689 9.59385 70.4039 8.71609 71.0874V71.6453C9.70518 70.9494 10.6561 70.1985 11.5645 69.396C12.0256 68.9845 12.4764 68.5626 12.9307 68.1232L12.9136 67.3909Z" fill="black"/>
<path d="M12.9136 62.0729C12.374 62.6622 11.8378 63.2585 11.2708 63.8165C10.4614 64.6221 9.6041 65.4067 8.71609 66.1355V66.7702C9.78331 66.0541 10.7908 65.2493 11.7285 64.364C12.1383 63.9734 12.5334 63.5689 12.9136 63.1504V62.0729Z" fill="black"/>
<path d="M12.9136 72.5939C12.374 73.1832 11.8378 73.7795 11.2708 74.3375C10.4921 75.1152 9.66559 75.8754 8.81516 76.5798C8.86581 76.7396 8.90575 76.9027 8.93469 77.068V77.1378C9.91815 76.4614 10.8488 75.7082 11.7182 74.885C12.1281 74.4944 12.5231 74.0899 12.9034 73.6714L12.9136 72.5939Z" fill="black"/>
<path d="M12.9 77.8352L12.7872 77.9468C12.2954 78.428 11.7899 78.9058 11.2708 79.3661C10.4443 80.1124 9.58702 80.8308 8.70926 81.5143V82.0687C9.69829 81.374 10.6492 80.6242 11.5577 79.8229C12.0131 79.4138 12.4582 78.9941 12.8931 78.5641L12.9 77.8352Z" fill="black"/>
<path d="M12.9 88.8445L12.7872 88.9561C12.292 89.4373 11.79 89.9151 11.2776 90.3789C10.4511 91.1251 9.59385 91.8435 8.71609 92.527V93.0815C9.70513 92.3867 10.656 91.637 11.5645 90.8357C12.0199 90.4289 12.4651 90.0092 12.9 89.5768V88.8445Z" fill="black"/>
<path d="M12.9 83.5264C12.3637 84.1087 11.8344 84.7016 11.2708 85.27C10.4614 86.0756 9.6041 86.8637 8.71609 87.589V88.2272C9.78335 87.5098 10.7909 86.7039 11.7285 85.8175C12.1315 85.4339 12.5243 85.0329 12.9 84.6214V83.5264Z" fill="black"/>
<path d="M12.6097 94.3613C12.1725 94.8426 11.7319 95.3203 11.2708 95.7806C10.4921 96.5548 9.66559 97.315 8.81516 98.0195C8.86501 98.1795 8.90493 98.3425 8.93469 98.5077V98.5774C9.91895 97.9022 10.8497 97.1489 11.7182 96.3247C12.0188 96.0422 12.3125 95.7493 12.5994 95.4494L12.6097 94.3613Z" fill="black"/>
<path d="M12.9136 99.397C12.374 99.9863 11.8378 100.586 11.2708 101.141C10.4614 101.946 9.6041 102.734 8.71609 103.46V104.098C9.78348 103.379 10.791 102.572 11.7285 101.685C12.1383 101.298 12.5345 100.89 12.9136 100.471V99.397Z" fill="black"/>
<path d="M9.96954 16.3793C9.9388 16.2154 9.71339 16.2433 9.66899 16.3793C9.54262 16.7803 9.49139 17.1953 9.32745 17.5894C9.17091 17.9756 8.94763 18.33 8.66827 18.6356C8.10707 19.2241 7.37325 19.6097 6.57805 19.734C6.37654 19.7654 6.42094 20.1176 6.62587 20.0828C7.52901 19.9908 8.36996 19.5714 8.99615 18.9006C9.30343 18.5626 9.55179 18.1734 9.73046 17.7498C9.93507 17.3251 10.018 16.85 9.96954 16.3793Z" fill="black"/>
<path d="M13.788 16.2014C13.7128 16.1038 13.5796 16.177 13.5421 16.2677C13.4971 16.4453 13.4878 16.6303 13.5147 16.8117C13.5154 16.9901 13.504 17.1684 13.4806 17.3452C13.4264 17.7073 13.3218 18.0596 13.1698 18.3914C12.8709 19.0687 12.3794 19.6385 11.7592 20.0269C11.7171 20.0524 11.6866 20.0938 11.6744 20.1422C11.6623 20.1906 11.6694 20.242 11.6943 20.285C11.7192 20.328 11.7599 20.3591 11.8073 20.3716C11.8547 20.384 11.905 20.3767 11.9471 20.3512C12.6508 19.9354 13.2132 19.31 13.5591 18.5588C13.7302 18.1819 13.8453 17.7811 13.9007 17.3696C13.9451 17.0174 14.0236 16.5013 13.788 16.2014Z" fill="black"/>
<path d="M9.51871 20.6687C9.51202 20.6455 9.49892 20.6248 9.481 20.609C9.46307 20.5933 9.44106 20.5831 9.41763 20.5798C9.39419 20.5765 9.37032 20.5801 9.34887 20.5903C9.32742 20.6005 9.30931 20.6168 9.2967 20.6373C9.21136 20.819 9.14937 21.0112 9.11227 21.2092C9.06313 21.4026 9.00152 21.5925 8.92784 21.7776C8.77703 22.1515 8.57834 22.5033 8.33698 22.8238C7.84733 23.477 7.18832 23.9771 6.4346 24.2675C6.19552 24.3582 6.29115 24.7418 6.54048 24.6616C7.3895 24.3843 8.13464 23.8475 8.6751 23.1237C8.9444 22.7689 9.16502 22.3782 9.33086 21.9624C9.52727 21.5628 9.5931 21.1093 9.51871 20.6687Z" fill="black"/>
<path d="M14.0031 19.9887C13.9882 19.9665 13.967 19.9496 13.9424 19.94C13.9177 19.9305 13.8908 19.9288 13.8653 19.9352C13.8397 19.9417 13.8166 19.9559 13.7992 19.976C13.7817 19.9962 13.7707 20.0212 13.7675 20.0479C13.7436 20.5571 13.8358 21.0592 13.7948 21.5719C13.7529 22.1 13.609 22.6144 13.3713 23.0853C12.9308 23.9436 12.2397 24.6408 11.3938 25.08C11.1581 25.2021 11.3665 25.5334 11.5987 25.4288C12.5502 24.9692 13.3276 24.2035 13.8119 23.2492C14.0509 22.7536 14.2024 22.2189 14.2593 21.6695C14.3566 21.0957 14.2666 20.5051 14.0031 19.9887Z" fill="black"/>
<path d="M111 19.734C111 19.734 112.09 18.2415 112.09 18.0636C112.09 17.8858 111.916 16.32 111.916 16.32L110.932 14.9251L110.017 14.5032C109.969 14.5032 108.879 14.4822 107.968 14.4822V-12H104.067V14.3218L102.933 14.2625C102.933 14.2625 99.6408 14.1719 100.098 17.7114C100.73 19.4551 100.86 19.5388 100.86 19.5388L100.098 21.7636C100.098 21.7636 99.552 24.3895 102.933 25.1463C103.309 25.1881 103.688 25.2195 104.067 25.2404V105.688C104.067 105.938 104.116 106.187 104.209 106.418C104.303 106.649 104.441 106.86 104.614 107.037C104.788 107.214 104.994 107.354 105.22 107.45C105.447 107.546 105.69 107.595 105.935 107.595H106.099C106.345 107.595 106.588 107.546 106.814 107.45C107.041 107.354 107.247 107.214 107.42 107.037C107.594 106.86 107.731 106.649 107.825 106.418C107.919 106.187 107.968 105.938 107.968 105.688V25.1602C108.692 25.1269 109.41 25.0027 110.106 24.7906C110.389 24.5918 112.309 22.8307 112.309 22.8307L111.39 20.5605L111 19.734Z" fill="#BBACA7"/>
<path d="M106.222 -12H103.985V16.2433H106.222V-12Z" fill="#968583"/>
<path d="M103.985 106.169C104.171 106.362 104.342 106.568 104.498 106.786C104.618 106.949 104.755 107.1 104.904 107.236C105.188 107.435 105.49 107.607 105.806 107.749L105.874 107.773H106.215V25.3136H103.975L103.985 106.169Z" fill="#968583"/>
<path d="M108.838 16.0724C108.716 16.1666 108.589 16.2607 108.459 16.3514C108.423 16.2947 108.372 16.2501 108.311 16.2228C108.25 16.1956 108.183 16.1869 108.118 16.1979C106.873 16.3664 105.614 16.4026 104.361 16.3061H104.153C103.982 15.898 104.197 15.3296 103.985 14.9112C103.857 14.6783 103.662 14.4918 103.426 14.3775C103.189 14.2631 102.924 14.2266 102.667 14.273C101.516 14.3776 100.239 15.0402 99.9345 16.2747C99.6306 17.5092 100.498 18.4193 101.625 18.6913C103.583 19.0796 105.612 18.7706 107.373 17.816C108.004 17.4446 108.579 16.9831 109.081 16.4455C109.293 16.2468 109.043 15.9155 108.838 16.0724Z" fill="#968583"/>
<path d="M107.906 20.2118L107.698 20.3932C107.632 20.2866 107.536 20.2029 107.422 20.1531C107.309 20.1033 107.184 20.0898 107.062 20.1142C105.745 20.428 104.374 20.428 103.056 20.1142C102.414 19.9642 101.82 19.7654 101.15 19.8805C100.891 19.9194 100.647 20.0308 100.446 20.2025C100.244 20.3743 100.093 20.5996 100.01 20.8535C99.6681 22.0078 100.676 22.9458 101.687 23.1446C102.915 23.3515 104.175 23.236 105.348 22.809C106.521 22.3819 107.568 21.6574 108.391 20.7035C108.455 20.6379 108.491 20.549 108.49 20.4564C108.49 20.3639 108.454 20.2753 108.389 20.2101C108.325 20.1449 108.238 20.1084 108.147 20.1088C108.057 20.1091 107.97 20.1462 107.906 20.2118Z" fill="#968583"/>
<path d="M106.902 25.5962C106.891 25.5505 106.87 25.5076 106.842 25.4702C106.814 25.4328 106.779 25.4016 106.739 25.3784C106.698 25.3553 106.654 25.3407 106.608 25.3356C106.562 25.3304 106.516 25.3349 106.472 25.3486C106.235 25.4007 106.009 25.4964 105.806 25.631C105.69 25.7031 105.583 25.7898 105.488 25.8891C105.45 25.9253 105.416 25.965 105.386 26.0077C105.327 26.0739 105.284 26.1525 105.259 26.2378C105.229 26.3464 105.241 26.4626 105.293 26.5621C105.32 26.6211 105.362 26.6712 105.415 26.707C105.468 26.7427 105.53 26.7626 105.594 26.7644C105.635 26.7678 105.676 26.7678 105.717 26.7644H105.618C105.69 26.767 105.761 26.7488 105.823 26.7121C105.834 26.7064 105.844 26.6993 105.853 26.6912C105.902 26.6607 105.946 26.6231 105.983 26.5796C106.021 26.5342 106.058 26.4889 106.099 26.4471C106.168 26.3729 106.241 26.303 106.318 26.2378C106.424 26.1593 106.539 26.0938 106.659 26.0425C106.746 26.0153 106.82 25.9571 106.868 25.8786C106.893 25.8367 106.909 25.7898 106.914 25.7411C106.92 25.6925 106.916 25.6431 106.902 25.5962Z" fill="#968583"/>
<path d="M105.276 26.5098C105.284 26.5283 105.293 26.5459 105.304 26.5621L105.269 26.4819C105.27 26.4916 105.272 26.501 105.276 26.5098Z" fill="#968583"/>
<path d="M104.59 12.6863C104.59 10.6846 104.578 8.68292 104.556 6.68124C104.532 2.67787 104.474 -1.33946 104.429 -5.32888L104.357 -12H103.623C103.582 -4.03162 103.531 3.93328 103.531 11.9017C103.531 13.0036 103.531 14.1068 103.531 15.2111C103.531 15.4935 103.531 15.7795 103.531 16.0654C103.749 16.0715 103.956 16.1611 104.112 16.3165C104.126 16.3345 104.142 16.3509 104.159 16.3653H104.18C104.308 16.292 104.453 16.2535 104.6 16.2538C104.6 16.055 104.6 15.8562 104.6 15.6574C104.597 14.6566 104.597 13.6732 104.59 12.6863Z" fill="black"/>
<path d="M108.736 12.6863C108.736 10.6846 108.725 8.68292 108.702 6.68124C108.681 2.67787 108.62 -1.33946 108.579 -5.32888C108.554 -7.55375 108.529 -9.77745 108.504 -12H107.773C107.728 -4.03162 107.681 3.93328 107.681 11.9017C107.681 13.0036 107.681 14.1068 107.681 15.2111C107.681 15.6261 107.681 16.0445 107.681 16.4595H107.701C108.022 16.4595 108.35 16.4595 108.671 16.4386H108.688H108.75C108.75 16.1805 108.75 15.9225 108.75 15.6609C108.746 14.6566 108.743 13.6732 108.736 12.6863Z" fill="black"/>
<path d="M109.293 15.7447C107.673 16.1019 105.998 16.1197 104.371 15.797C104.105 15.7412 103.838 15.6784 103.575 15.6017C103.345 15.5049 103.091 15.483 102.848 15.5389C102.809 15.5501 102.773 15.57 102.743 15.5972C102.713 15.6245 102.69 15.6583 102.674 15.6963C102.659 15.7342 102.652 15.7752 102.654 15.8162C102.656 15.8572 102.668 15.8971 102.687 15.933C102.991 16.3759 103.688 16.4456 104.17 16.5432C104.757 16.6693 105.353 16.7451 105.952 16.7699C107.133 16.7975 108.31 16.6339 109.44 16.2852C109.474 16.2753 109.507 16.2586 109.535 16.2359C109.564 16.2132 109.587 16.1851 109.605 16.153C109.623 16.121 109.634 16.0856 109.639 16.0491C109.643 16.0125 109.64 15.9754 109.631 15.9399C109.621 15.9045 109.605 15.8713 109.583 15.8422C109.56 15.8132 109.533 15.7889 109.501 15.7708C109.47 15.7527 109.435 15.741 109.4 15.7365C109.364 15.7321 109.327 15.7348 109.293 15.7447Z" fill="black"/>
<path d="M112.64 17.0279C112.319 14.824 109.948 13.8092 107.947 14.0742C107.94 14.3773 107.957 14.6806 107.998 14.9809C108.644 14.9217 109.296 14.982 109.921 15.1587C110.291 15.2733 110.631 15.4709 110.917 15.7369C111.202 16.003 111.425 16.3309 111.571 16.6966C111.706 17.0678 111.717 17.4739 111.602 17.8522C111.488 18.2305 111.255 18.5597 110.939 18.789C110.256 19.3295 109.361 19.4864 108.524 19.598C107.488 19.7252 106.446 19.7881 105.403 19.7863C104.499 19.8181 103.594 19.7515 102.704 19.5876C102.319 19.5327 101.95 19.3945 101.621 19.1822C101.293 18.9699 101.012 18.6884 100.799 18.3566C100.458 17.7396 100.368 17.0112 100.546 16.327C100.983 14.6705 103.032 14.1126 104.368 15.0088C104.361 14.9171 104.361 14.825 104.368 14.7333C104.38 14.5566 104.409 14.3815 104.453 14.2102V14.1788C103.717 13.7866 102.866 13.6818 102.059 13.884C101.253 14.0862 100.546 14.5815 100.071 15.2773C99.6107 16.0688 99.4687 17.0118 99.6751 17.9079C99.8815 18.8041 100.42 19.5837 101.178 20.0827C102.141 20.693 103.306 20.7802 104.412 20.8499C105.676 20.9081 106.942 20.8649 108.2 20.7209C109.33 20.5919 110.522 20.421 111.461 19.7026C111.877 19.4083 112.207 19.0037 112.415 18.5324C112.622 18.0612 112.7 17.541 112.64 17.0279Z" fill="black"/>
<path d="M112.64 21.8717C112.554 21.339 112.342 20.836 112.022 20.4067C111.701 19.9774 111.283 19.635 110.802 19.4097C110.432 19.6235 110.041 19.7954 109.634 19.9223C109.733 19.9467 109.832 19.9711 109.931 20.006C110.301 20.1206 110.641 20.3181 110.927 20.5842C111.212 20.8503 111.436 21.1782 111.581 21.5439C111.716 21.915 111.728 22.3213 111.614 22.6997C111.499 23.0781 111.266 23.4074 110.949 23.6362C110.266 24.1802 109.371 24.3337 108.535 24.4453C107.499 24.5736 106.456 24.6377 105.413 24.6371C104.509 24.6671 103.605 24.6005 102.715 24.4383C102.329 24.383 101.96 24.2443 101.631 24.0314C101.302 23.8185 101.022 23.5363 100.809 23.2038C100.468 22.5882 100.378 21.8608 100.556 21.1777C100.643 20.8508 100.801 20.5479 101.017 20.2909C101.233 20.034 101.503 19.8294 101.806 19.6921C101.555 19.5338 101.341 19.3221 101.178 19.0714C100.732 19.3218 100.354 19.6813 100.078 20.1176C99.6156 20.9107 99.4729 21.8561 99.6799 22.7545C99.887 23.653 100.428 24.4342 101.188 24.9335C102.151 25.5403 103.316 25.6309 104.422 25.6972C105.686 25.7565 106.953 25.7145 108.21 25.5717C109.341 25.4391 110.533 25.2718 111.472 24.5534C111.886 24.2567 112.214 23.8503 112.42 23.3779C112.626 22.9055 112.702 22.3848 112.64 21.8717Z" fill="black"/>
<path d="M107.565 24.9649C107.452 35.2977 107.513 45.6339 107.489 55.9701L107.414 89.9046C107.414 92.7456 107.409 95.5877 107.397 98.431V102.616C107.397 103.313 107.397 104.011 107.397 104.708C107.419 105.239 107.355 105.77 107.209 106.281C106.851 107.327 105.765 107.411 105 106.72C104.115 105.918 104.153 104.52 104.153 103.414C104.153 100.624 104.153 97.8347 104.153 95.0449C104.169 83.6671 104.184 72.2894 104.2 60.9116C104.2 49.592 104.262 38.2723 104.231 26.9527C104.231 26.3808 104.231 25.8124 104.211 25.2404L104.081 25.2683C103.891 25.304 103.695 25.2932 103.51 25.237C103.435 30.2202 103.435 35.2035 103.428 40.1868L103.398 57.6022L103.367 75.0175L103.336 92.4329V101.151C103.336 102.459 103.241 103.808 103.422 105.106C103.569 106.152 104.023 107.198 104.979 107.704C105.83 108.167 106.885 108.115 107.534 107.33C108.183 106.546 108.183 105.423 108.186 104.447C108.186 101.545 108.192 98.6449 108.203 95.7458L108.237 78.3409L108.272 60.9395C108.285 55.1274 108.297 49.3258 108.306 43.5346L108.34 26.1332C108.34 25.7391 108.34 25.3451 108.34 24.9475C108.073 24.9649 107.821 24.9649 107.565 24.9649Z" fill="black"/>
<path d="M108.374 5.12598L107.906 5.59327C107.407 6.07451 106.905 6.55226 106.393 7.01607C105.567 7.76234 104.709 8.48072 103.832 9.16422V9.71869C104.821 9.0239 105.771 8.27418 106.68 7.4729C107.199 7.01258 107.705 6.53832 108.19 6.04313L108.374 5.84784V5.12598Z" fill="black"/>
<path d="M108.374 -0.227051C107.711 0.470401 107.076 1.21319 106.386 1.89669C105.577 2.70225 104.72 3.49037 103.832 4.21572V4.85388C104.899 4.13568 105.908 3.32978 106.847 2.44419C107.383 1.94212 107.893 1.41131 108.374 0.854V-0.227051Z" fill="black"/>
<path d="M108.374 10.2975C107.711 10.9949 107.076 11.7377 106.386 12.4212C105.608 13.1954 104.784 13.9556 103.931 14.66C103.98 14.8201 104.02 14.9831 104.05 15.1483V15.218C105.035 14.544 105.967 13.7919 106.837 12.9687C107.376 12.4615 107.889 11.9261 108.374 11.3646V10.2975Z" fill="black"/>
<path d="M108.015 29.4984L107.906 29.61C107.407 30.0912 106.905 30.569 106.393 31.0328C105.567 31.7791 104.709 32.4975 103.832 33.181V33.7354C104.821 33.0406 105.771 32.2909 106.68 31.4896C107.138 31.0816 107.585 30.6632 108.015 30.2307V29.4984Z" fill="black"/>
<path d="M107.216 25.0452C106.943 25.3381 106.67 25.631 106.386 25.917C105.577 26.719 104.72 27.5072 103.832 28.2325V28.8707C104.899 28.1525 105.908 27.3466 106.847 26.461C107.271 26.0565 107.684 25.6345 108.08 25.1951C107.79 25.1498 107.503 25.0975 107.216 25.0452Z" fill="black"/>
<path d="M108.015 40.5077C107.978 40.5461 107.944 40.5844 107.906 40.6193C107.407 41.1005 106.905 41.5818 106.393 42.0456C105.567 42.7884 104.709 43.5067 103.832 44.1902V44.7482C104.82 44.0511 105.771 43.3003 106.68 42.4989C107.138 42.0944 107.585 41.6724 108.015 41.24V40.5077Z" fill="black"/>
<path d="M108.015 35.1896C107.479 35.7754 106.95 36.3648 106.386 36.9332C105.577 37.7388 104.72 38.5234 103.832 39.2487V39.8869C104.9 39.1698 105.909 38.3638 106.847 37.4772C107.247 37.0936 107.64 36.6926 108.015 36.2811V35.1896Z" fill="black"/>
<path d="M107.725 46.028C107.288 46.5092 106.847 46.9904 106.386 47.4473C105.608 48.2249 104.784 48.9817 103.931 49.6896C103.981 49.8483 104.021 50.0102 104.05 50.1743V50.2475C105.035 49.5712 105.966 48.818 106.837 47.9948C107.134 47.7088 107.428 47.4159 107.715 47.116L107.725 46.028Z" fill="black"/>
<path d="M108.029 56.3816L107.906 56.5071C107.407 56.9884 106.905 57.4696 106.393 57.9334C105.567 58.6762 104.709 59.3946 103.832 60.0781V60.636C104.82 59.939 105.771 59.1881 106.68 58.3868C107.144 57.9753 107.595 57.5533 108.029 57.1139V56.3816Z" fill="black"/>
<path d="M108.029 51.0636C107.489 51.6529 106.953 52.2493 106.386 52.8072C105.577 53.6128 104.72 54.3974 103.832 55.1263V55.7609C104.9 55.0438 105.909 54.2379 106.847 53.3512C107.254 52.9642 107.65 52.5596 108.029 52.1412V51.0636Z" fill="black"/>
<path d="M108.029 67.3909L107.906 67.5164C107.407 68.0011 106.905 68.4789 106.393 68.9427C105.567 69.689 104.709 70.4039 103.832 71.0874V71.6453C104.821 70.9494 105.772 70.1985 106.68 69.396C107.144 68.9845 107.595 68.5626 108.029 68.1232V67.3909Z" fill="black"/>
<path d="M108.029 62.0729C107.489 62.6622 106.953 63.2585 106.386 63.8165C105.577 64.6221 104.72 65.4067 103.832 66.1355V66.7702C104.899 66.0532 105.908 65.2485 106.847 64.364C107.254 63.9734 107.65 63.5689 108.029 63.1504V62.0729Z" fill="black"/>
<path d="M108.029 72.5939C107.489 73.1832 106.953 73.7795 106.386 74.3375C105.608 75.1152 104.784 75.8754 103.931 76.5798C103.981 76.7396 104.021 76.9027 104.05 77.068V77.1378C105.035 76.4614 105.966 75.7083 106.837 74.885C107.243 74.4944 107.64 74.0899 108.019 73.6714L108.029 72.5939Z" fill="black"/>
<path d="M108.015 77.8352C107.978 77.8701 107.944 77.9084 107.906 77.9468C107.407 78.428 106.905 78.9058 106.393 79.3696C105.567 80.1159 104.709 80.8343 103.832 81.5178V82.0722C104.821 81.3774 105.771 80.6277 106.68 79.8264C107.138 79.4184 107.585 79 108.015 78.5675V77.8352Z" fill="black"/>
<path d="M108.015 88.8445L107.906 88.9561C107.407 89.4373 106.905 89.9151 106.393 90.3789C105.567 91.1251 104.709 91.8435 103.832 92.527V93.0815C104.821 92.3867 105.771 91.637 106.68 90.8357C107.138 90.4277 107.585 90.0092 108.015 89.5768V88.8445Z" fill="black"/>
<path d="M108.015 83.5264C107.479 84.1087 106.95 84.7016 106.386 85.27C105.577 86.0756 104.72 86.8637 103.832 87.589V88.2272C104.899 87.509 105.908 86.7031 106.847 85.8175C107.247 85.4339 107.64 85.0329 108.015 84.6214V83.5264Z" fill="black"/>
<path d="M107.725 94.3613C107.288 94.8426 106.847 95.3203 106.386 95.7806C105.608 96.5548 104.784 97.315 103.931 98.0195C103.98 98.1795 104.02 98.3425 104.05 98.5077V98.5774C105.035 97.9022 105.967 97.149 106.837 96.3247C107.134 96.0422 107.428 95.7493 107.715 95.4494L107.725 94.3613Z" fill="black"/>
<path d="M108.029 99.397C107.489 99.9863 106.953 100.586 106.386 101.141C105.577 101.946 104.72 102.734 103.832 103.46V104.098C104.899 103.38 105.908 102.574 106.847 101.688C107.254 101.301 107.65 100.893 108.029 100.475V99.397Z" fill="black"/>
<path d="M105.085 16.3793C105.054 16.2154 104.829 16.2433 104.784 16.3793C104.658 16.7803 104.607 17.1953 104.443 17.5894C104.286 17.9756 104.063 18.33 103.784 18.6356C103.225 19.2311 102.491 19.6231 101.693 19.7515C101.495 19.7829 101.54 20.1351 101.741 20.1002C102.644 20.0083 103.485 19.5889 104.112 18.918C104.419 18.58 104.667 18.1908 104.846 17.7672C105.054 17.3374 105.137 16.8558 105.085 16.3793Z" fill="black"/>
<path d="M108.903 16.2014C108.828 16.1038 108.695 16.177 108.661 16.2677C108.616 16.4453 108.606 16.63 108.63 16.8117C108.631 16.9901 108.619 17.1684 108.596 17.3452C108.542 17.7073 108.437 18.0596 108.285 18.3914C107.987 19.0694 107.496 19.6395 106.875 20.0269C106.832 20.0524 106.802 20.0938 106.79 20.1422C106.778 20.1906 106.785 20.242 106.81 20.285C106.835 20.328 106.875 20.3591 106.923 20.3716C106.97 20.384 107.02 20.3767 107.062 20.3512C107.766 19.9346 108.33 19.3095 108.678 18.5588C108.847 18.1813 108.962 17.7808 109.019 17.3696C109.064 17.0174 109.139 16.5013 108.903 16.2014Z" fill="black"/>
<path d="M104.634 20.6686C104.627 20.6463 104.614 20.6265 104.596 20.6114C104.579 20.5964 104.557 20.5866 104.534 20.5834C104.512 20.5801 104.488 20.5834 104.467 20.5929C104.446 20.6024 104.428 20.6178 104.416 20.6372C104.328 20.8182 104.264 21.0106 104.228 21.2091C104.179 21.4025 104.117 21.5924 104.043 21.7775C103.895 22.1527 103.696 22.5048 103.452 22.8237C102.962 23.4756 102.303 23.9745 101.55 24.264C101.311 24.3546 101.407 24.7382 101.656 24.658C102.505 24.3807 103.25 23.8439 103.791 23.1201C104.06 22.7653 104.28 22.3746 104.446 21.9589C104.644 21.5608 104.71 21.1081 104.634 20.6686Z" fill="black"/>
<path d="M109.105 19.9887C109.09 19.9665 109.069 19.9496 109.044 19.94C109.019 19.9305 108.993 19.9288 108.967 19.9352C108.941 19.9417 108.918 19.9559 108.901 19.976C108.883 19.9962 108.872 20.0212 108.869 20.0479C108.845 20.5571 108.941 21.0592 108.897 21.5719C108.855 22.1 108.711 22.6144 108.473 23.0853C108.034 23.9445 107.342 24.6419 106.496 25.08C106.263 25.2021 106.468 25.5334 106.7 25.4288C107.652 24.9692 108.429 24.2035 108.914 23.2492C109.154 22.7538 109.306 22.2191 109.364 21.6695C109.459 21.0953 109.368 20.5054 109.105 19.9887Z" fill="black"/>
<path d="M7.37043 24.8638C7.24819 24.778 7.14564 24.6662 7.06987 24.536C5.96328 24.5755 4.85442 24.6185 3.74327 24.665L2.37712 24.7243L1.65988 24.7557C1.65988 25.0312 1.65988 25.3032 1.65988 25.5752L2.4181 25.5438L3.75694 25.488C5.2119 25.4253 6.66458 25.3555 8.11498 25.2788C7.85392 25.1661 7.6045 25.027 7.37043 24.8638Z" fill="black"/>
<path d="M3.0192 37.8224C2.71694 37.8876 2.42577 37.9981 2.1551 38.1502C2.1551 38.0072 2.1551 37.8642 2.1551 37.7282C2.12778 37.1215 2.10387 36.5182 2.07655 35.9114V35.6464C2.07655 35.4476 2.07655 35.2488 2.04923 35.05C1.99458 33.8295 1.93652 32.6089 1.89212 31.3919C1.8204 29.453 1.73159 27.5106 1.68719 25.5682C1.68719 25.2962 1.68719 25.0242 1.68719 24.7487L2.40443 24.7173C2.42492 24.9893 2.44541 25.2613 2.46249 25.5368C2.58886 27.4862 2.67083 29.439 2.76988 31.3919C2.83135 32.6089 2.87917 33.833 2.93382 35.0535C2.93382 35.2523 2.93382 35.4476 2.96114 35.6464V35.9114C2.96114 36.553 2.99188 37.1877 3.0192 37.8224Z" fill="black"/>
<path d="M8.6068 35.078H2.89626H2.02875C2.02875 35.2768 2.02875 35.4756 2.05607 35.6743V35.9394H8.67853C8.63152 35.6547 8.60753 35.3666 8.6068 35.078Z" fill="black"/>
<path d="M43.3072 35.3255C42.2164 35.1883 41.1167 35.1381 40.0182 35.1756H36.6028C34.3259 35.1756 32.049 35.1651 29.772 35.1442C25.2261 35.1233 20.6768 35.1233 16.1309 35.1128H12.8043C12.8043 35.3848 12.7804 35.6603 12.7702 35.9358C17.8682 35.9358 22.9674 35.9288 28.0677 35.9149C30.627 35.9149 33.184 35.9032 35.7387 35.88H39.4957C40.7647 35.9302 42.0357 35.8789 43.297 35.7265C43.3491 35.7279 43.3996 35.7081 43.4374 35.6715C43.4751 35.6349 43.4971 35.5844 43.4985 35.5313C43.4999 35.4781 43.4805 35.4265 43.4446 35.3879C43.4087 35.3494 43.3593 35.3269 43.3072 35.3255Z" fill="black"/>
<path d="M8.75024 36.4729C8.75704 36.5704 8.75704 36.6683 8.75024 36.7658C7.22697 37.1145 5.7037 37.4389 4.18044 37.7701L1.61889 38.3176L0.635254 38.5234C0.635254 38.22 0.672823 37.9166 0.703562 37.6167L1.53692 37.4389L3.95502 36.9297C5.53635 36.6054 7.11426 36.2741 8.69901 35.9637L8.73999 36.2532C8.73999 36.2532 8.73999 36.2532 8.73999 36.2776C8.72975 36.3508 8.75024 36.4206 8.75024 36.4729Z" fill="black"/>
<path d="M0.771887 61.2499C0.792379 62.1845 0.833364 63.1574 0.928995 64.0955C1.0406 63.9979 1.17659 63.9339 1.32177 63.9106C1.38324 63.1713 1.40715 62.4216 1.44814 61.6823C1.49595 60.7895 1.48912 59.8898 1.5062 58.9936C1.54377 57.2291 1.56084 55.4645 1.58475 53.7C1.63598 50.143 1.62232 46.5825 1.62232 43.0255C1.62232 41.4736 1.70771 39.8869 1.62232 38.3281C1.60183 38.0317 1.57451 37.7423 1.54035 37.4493L0.683087 37.6272C0.652348 37.9271 0.62844 38.2305 0.614779 38.5339C0.549886 39.7963 0.614779 41.0726 0.614779 42.3315C0.614779 44.0961 0.614779 45.8606 0.614779 47.6252C0.614779 51.1822 0.66601 54.7392 0.717241 58.2996C0.727487 59.2831 0.751395 60.2665 0.771887 61.2499Z" fill="black"/>
<path d="M1.07585 61.8357H8.64096C8.62047 61.5741 8.61022 61.3091 8.60681 61.0441C6.076 61.0441 3.5486 61.0441 1.01779 61.0441C1.06648 61.1396 1.08891 61.2469 1.08268 61.3544V61.7799C1.0823 61.7987 1.08001 61.8174 1.07585 61.8357Z" fill="black"/>
<path d="M27.2002 61.2324C24.3142 61.065 21.394 61.1103 18.5149 61.0929C16.6091 61.0929 14.7021 61.0929 12.7941 61.0929C12.818 61.2499 12.8317 61.4083 12.8351 61.5672C12.8351 61.6695 12.8351 61.7706 12.8351 61.8706C14.3617 61.8706 15.8884 61.8706 17.4185 61.8706C20.6768 61.8706 23.959 61.9124 27.2105 61.7241C27.2743 61.7227 27.335 61.6955 27.3792 61.6484C27.4234 61.6013 27.4475 61.5382 27.4461 61.473C27.4448 61.4078 27.4181 61.3458 27.372 61.3007C27.3259 61.2556 27.2641 61.231 27.2002 61.2324Z" fill="black"/>
<path d="M8.62388 61.5568C6.86153 61.9648 5.11285 62.4216 3.35733 62.8505C2.46933 63.0633 1.58816 63.2864 0.70357 63.5061L0.0785522 63.6735C0.0785522 63.963 0.0785522 64.2524 0.0785522 64.5419L0.710401 64.371C1.66671 64.1373 2.61961 63.8967 3.5725 63.6561C5.2802 63.2202 6.9879 62.8087 8.6956 62.3588C8.66145 62.0903 8.63754 61.8218 8.62388 61.5568Z" fill="black"/>
<path d="M0.775295 88.4854C0.775295 92.3806 0.775295 96.2759 0.754803 100.171V100.761C0.754803 101.026 0.754803 101.291 0.754803 101.552C0.754803 102.672 0.754803 103.791 0.754803 104.914C0.754803 105.175 0.754803 105.44 0.754803 105.705H0.0478156C0.0478156 105.447 0.0478156 105.189 0.0478156 104.935C0.0478156 103.805 0.0478156 102.677 0.0478156 101.552V100.781C0.0478156 100.084 0.0478156 99.3865 0.0478156 98.6891C0 90.8532 0 83.0208 0 75.1815C0 71.6245 0.0193539 68.0698 0.0580618 64.5174C0.0580618 64.228 0.0580618 63.9386 0.0580618 63.6491L0.683079 63.4922C0.683079 63.7816 0.683079 64.0711 0.683079 64.357C0.683079 64.5663 0.683079 64.7755 0.683079 64.9847C0.802618 72.8241 0.782126 80.6565 0.775295 88.4854Z" fill="black"/>
<path d="M8.6546 100.684C6.02133 100.684 3.38806 100.719 0.75479 100.76C0.512297 100.76 0.266388 100.76 0.0238953 100.76V101.531H0.751375C3.38578 101.566 6.0202 101.589 8.6546 101.601V100.684Z" fill="black"/>
<path d="M103.691 100.551H78.783C60.999 100.551 43.215 100.523 25.431 100.614C21.1959 100.63 16.9586 100.644 12.7189 100.656V101.629C15.8657 101.629 19.009 101.639 22.1488 101.66C31.0835 101.704 40.0205 101.725 48.9597 101.723L102.315 101.747H103.681L103.691 100.551Z" fill="black"/>
<path d="M118.241 100.541C118.183 100.956 118.128 101.371 118.074 101.786H117.227C114.067 101.786 110.908 101.786 107.752 101.768V100.544C110.966 100.544 114.184 100.523 117.397 100.544L118.241 100.541Z" fill="black"/>
<path d="M100.18 22.0322C100.181 21.9664 100.189 21.9009 100.204 21.8369L78.8957 22.3914C61.1356 22.8726 43.338 23.2737 25.5608 23.8177C22.2228 23.9223 18.8849 24.0188 15.5469 24.1071C15.1643 24.5391 14.6995 24.8868 14.1807 25.1289C16.8857 25.0661 19.5884 25.0068 22.2889 24.951C31.2236 24.7674 40.1582 24.5593 49.0929 24.3268L100.279 23.04C100.223 22.7069 100.19 22.3701 100.18 22.0322Z" fill="black"/>
<path d="M103.828 104.705H78.7898C61.0059 104.705 43.2219 104.673 25.4379 104.764C21.2028 104.785 16.9654 104.799 12.7258 104.806V105.59C12.7261 105.654 12.7192 105.717 12.7053 105.779C15.8577 105.779 19.0067 105.779 22.1557 105.81C31.0904 105.854 40.0273 105.875 48.9666 105.873L102.322 105.897H104.135C103.971 105.519 103.868 105.116 103.828 104.705Z" fill="black"/>
<path d="M117.684 104.691L117.52 105.942H116.653C113.664 105.942 110.676 105.942 107.691 105.942C107.732 105.806 107.769 105.667 107.81 105.531C107.869 105.303 107.837 105.061 107.722 104.858C107.693 104.808 107.66 104.762 107.623 104.718C110.696 104.718 113.77 104.718 116.827 104.718L117.684 104.691Z" fill="black"/>
<path d="M8.97567 105.088L8.95517 104.837C6.22286 104.851 3.49054 104.877 0.758219 104.914H0.0409851C0.0409851 105.168 0.0409851 105.426 0.0409851 105.684H0.747973C3.53494 105.724 6.3219 105.747 9.10887 105.754C9.04525 105.537 9.00067 105.314 8.97567 105.088Z" fill="black"/>
<path d="M114.914 25.5787C114.679 25.3555 114.44 25.1358 114.194 24.9231C113.466 24.2864 112.702 23.6937 111.906 23.1481C111.903 23.2703 111.875 23.3906 111.824 23.5012C111.773 23.6117 111.699 23.71 111.608 23.7897C112.521 24.4633 113.388 25.1984 114.204 25.9902C114.429 26.2029 114.651 26.4226 114.87 26.6458C114.918 26.6946 114.969 26.7469 115.014 26.7992C114.986 26.3912 114.952 25.9867 114.914 25.5787Z" fill="black"/>
<path d="M116.253 58.6553L115.171 58.5925C115.109 57.7137 115.049 56.8338 114.99 55.9526L116.065 55.9213C116.127 56.8349 116.19 57.7463 116.253 58.6553Z" fill="black"/>
<path d="M117.111 56.1236L116.035 56.1515C116.014 55.9144 115.997 55.6772 115.98 55.4541C115.891 54.3521 115.806 53.2501 115.724 52.1481C115.358 47.2904 115.017 42.4292 114.747 37.5679C114.614 35.1513 114.481 32.7346 114.371 30.3144C114.317 29.0765 114.269 27.8385 114.221 26.6005C114.221 26.4017 114.221 26.1995 114.204 26.0007C114.204 25.645 114.204 25.2893 114.204 24.9336C114.45 25.1463 114.689 25.366 114.925 25.5892C114.962 25.9972 114.996 26.4017 115.024 26.8097C115.024 26.9144 115.041 27.0155 115.048 27.1201C115.14 28.4732 115.236 29.8262 115.321 31.1793C115.495 33.9133 115.686 36.6473 115.874 39.3813C116.241 44.7284 116.637 50.0756 117.063 55.4227C117.07 55.6528 117.09 55.8865 117.111 56.1236Z" fill="black"/>
<path d="M120 87.0381C119.921 87.7146 119.843 88.3911 119.754 89.0677L119.467 91.2786C119.375 90.5811 119.29 89.8837 119.204 89.1862C119.167 88.8828 119.132 88.5794 119.098 88.2726C118.818 85.8908 118.572 83.502 118.323 81.1132C117.56 73.797 116.877 66.4737 116.274 59.1435C116.253 58.9064 116.236 58.6692 116.216 58.446L117.298 58.4984C117.315 58.7355 117.336 58.9726 117.356 59.1958C117.609 62.2553 117.873 65.3136 118.149 68.3708C118.586 73.1948 119.055 78.0142 119.556 82.8289C119.607 83.3276 119.662 83.8298 119.713 84.3285L120 87.0381Z" fill="black"/>
<path d="M120 87.0381C119.921 87.7146 119.843 88.3911 119.754 89.0677L119.467 91.2786C119.064 94.3683 118.655 97.458 118.241 100.548C118.183 100.963 118.128 101.378 118.074 101.793C118.074 101.793 118.074 101.824 118.074 101.841C117.946 102.795 117.819 103.747 117.691 104.698L117.527 105.949H116.66L116.834 104.698C116.964 103.732 117.097 102.762 117.234 101.796C117.288 101.378 117.343 100.963 117.404 100.544C117.678 98.5472 117.952 96.549 118.227 94.5496C118.518 92.4573 118.798 90.3649 119.105 88.2516C119.104 88.2319 119.104 88.2121 119.105 88.1924C119.296 86.8951 119.505 85.6048 119.713 84.311L120 87.0381Z" fill="black"/>
<path d="M103.705 55.848L85.9621 56.4374C81.4789 56.5838 76.9956 56.7442 72.5123 56.9186C72.4706 56.9186 72.4307 56.9355 72.4012 56.9656C72.3717 56.9957 72.3552 57.0365 72.3552 57.079C72.3552 57.1216 72.3717 57.1624 72.4012 57.1925C72.4307 57.2225 72.4706 57.2394 72.5123 57.2394C77.1254 57.1441 81.7384 57.0395 86.3515 56.9256L91.1979 56.8L96.4337 56.6606C98.8587 56.5908 101.28 56.5315 103.705 56.4688V55.848Z" fill="black"/>
<path d="M117.053 55.4087L115.98 55.4436L109.884 55.6423L107.797 55.7121V56.3502L116.035 56.141L117.111 56.1131C117.09 55.8864 117.07 55.6528 117.053 55.4087Z" fill="black"/>
<path d="M103.705 57.6893C99.5361 57.4243 95.367 57.1278 91.198 56.8L88.9404 56.6187L87.4444 56.4932C86.3139 56.5908 85.1869 56.6745 84.0529 56.7129L86.3515 56.9256C90.2883 57.2836 94.2297 57.6149 98.1756 57.9195C100.02 58.0636 101.863 58.1996 103.705 58.3275V57.6893Z" fill="black"/>
<path d="M117.298 58.4426L116.216 58.3903C114.167 58.288 112.117 58.1787 110.068 58.0624L107.814 57.9299V58.5925C110.638 58.7773 113.463 58.9412 116.291 59.0982L117.374 59.154C117.336 58.9273 117.316 58.6902 117.298 58.4426Z" fill="black"/>
<path d="M94.6851 73.3646C94.6851 72.9287 94.6543 72.4858 94.6134 72.0464C94.5963 71.8546 94.5792 71.6698 94.5553 71.4884L94.1454 71.063H94.1284C93.6024 70.519 93.1311 70.0168 92.6734 69.4833C92.6017 69.3996 92.5334 69.3124 92.4685 69.2287C91.8308 68.4582 91.2798 67.6172 90.8257 66.7214C90.73 66.5365 90.6447 66.3482 90.5661 66.1634C90.1174 65.016 89.8199 63.8129 89.6815 62.5855L89.5893 61.888C89.4699 60.8022 89.2643 59.7281 88.9745 58.6763C88.9233 58.5019 88.8652 58.3275 88.8038 58.1636C88.5146 57.3461 88.074 56.5931 87.5059 55.9457C87.4705 55.9072 87.4454 55.86 87.4328 55.8088C87.4203 55.7575 87.4207 55.7038 87.4342 55.6528C87.4991 55.3808 87.5776 55.1158 87.663 54.8612C87.424 54.7008 87.1849 54.5404 86.939 54.3834L86.5667 54.1359C86.3993 54.1568 86.2251 54.1742 86.0407 54.1882C85.8563 54.2021 85.6001 54.2126 85.3815 54.2126C84.478 54.2144 83.5795 54.0744 82.7175 53.7976C82.5741 53.7523 82.4272 53.6999 82.2804 53.6372C81.9922 53.5416 81.7297 53.3791 81.5134 53.1625C81.2971 52.9459 81.1329 52.681 81.0337 52.3887C80.949 52.0274 80.9463 51.6511 81.0256 51.2885C81.1049 50.9259 81.2642 50.5866 81.4914 50.2964C81.6393 50.0941 81.8076 49.9083 81.9935 49.7419C82.1265 49.6186 82.2656 49.5022 82.4101 49.3932L82.4545 49.3618C82.5092 49.1735 82.557 48.9852 82.6014 48.8004C82.6014 48.755 82.6253 48.7097 82.6356 48.6609C82.8193 47.9146 82.9652 47.1592 83.0727 46.3976C83.0727 46.3279 83.0932 46.2616 83.1001 46.1919C83.141 45.892 83.1752 45.5921 83.2025 45.2957C83.2298 44.9992 83.2503 44.7586 83.264 44.504C83.264 44.4657 83.264 44.4238 83.264 44.3855C83.1547 44.1449 83.0386 43.9042 82.9225 43.6671C82.921 43.6602 82.921 43.6531 82.9225 43.6462C82.7449 43.2975 82.557 42.9871 82.3555 42.6802C81.8218 41.8414 81.1665 41.0901 80.4121 40.4519C79.3329 39.5487 78.0214 38.9802 76.7508 38.4746C75.3527 37.9142 73.9224 37.4414 72.4679 37.0588C71.0949 36.7013 69.7009 36.4346 68.2943 36.2602C68.2274 36.2524 68.165 36.2221 68.1168 36.1741C68.0686 36.1262 68.0373 36.0632 68.0279 35.9951C68.0121 35.8265 67.9602 35.6635 67.8758 35.5176C67.7914 35.3718 67.6766 35.2467 67.5395 35.1512C67.2722 35.0037 66.9823 34.9035 66.6822 34.8548C66.2621 34.7607 65.8625 34.6804 65.4664 34.6142C64.4719 34.4391 63.4684 34.3227 62.4608 34.2655C62.0339 34.2411 61.6104 34.2306 61.1903 34.2306C60.9478 34.2306 60.7087 34.2306 60.4696 34.2306C60.0598 34.2306 59.6465 34.2724 59.2059 34.3178H59.1752C59.1199 34.3181 59.0655 34.303 59.018 34.2741C58.9704 34.2453 58.9315 34.2037 58.9054 34.1539C58.8764 34.0991 58.8639 34.0368 58.8694 33.9748C58.8748 33.9128 58.8981 33.8538 58.9361 33.8051C59.0194 33.7062 59.0738 33.5854 59.0932 33.4564C59.1274 33.0414 58.7004 32.7032 58.3213 32.4556H58.294C57.6747 32.0464 57.0542 31.6419 56.4326 31.242L55.5002 30.6422L52.6484 28.8009C52.5322 28.7277 52.4161 28.644 52.3068 28.5638C51.9212 28.2462 51.4707 28.021 50.9885 27.9047H50.8382C50.3327 27.9047 49.8512 28.2325 49.4208 28.5219L45.8107 30.963C45.76 30.9971 45.7007 31.0153 45.64 31.0153C45.5877 31.0145 45.5362 31.0013 45.4897 30.977C44.8066 30.5899 44.1235 30.2202 43.4405 29.868L42.8837 29.5751C42.5012 29.3728 42.1289 29.181 41.7669 28.9997C40.8482 28.5324 39.9977 28.1209 39.1883 27.7513C38.5052 27.4409 37.8904 27.1759 37.3098 26.9422C37.1322 26.869 36.9444 26.7958 36.7497 26.733C36.3979 26.602 36.0277 26.5302 35.6533 26.5203H35.5099C34.9272 26.5692 34.3769 26.8146 33.9456 27.2177C33.5822 27.5419 33.2557 27.9069 32.9723 28.3057C32.394 29.1323 31.9018 30.0182 31.5036 30.9491L31.1279 31.8035C30.8342 32.473 30.5371 33.16 30.1921 33.8226C30.0384 34.119 29.8745 34.4119 29.7003 34.6944C29.4715 35.071 29.2222 35.4442 28.9831 35.7999C28.5539 36.4137 28.1627 37.0543 27.8116 37.7178C27.6488 38.0369 27.5095 38.368 27.3949 38.7082C27.329 38.9048 27.2742 39.105 27.231 39.308C27.0982 39.7542 27.1311 40.2346 27.3232 40.6576C27.5145 41.0063 27.8867 41.1842 28.4605 41.2295C28.6074 41.2295 28.7645 41.2295 28.9284 41.2295C29.3662 41.2258 29.8032 41.192 30.2365 41.1284C31.4576 40.9722 32.6431 40.6017 33.7407 40.0334L33.8432 39.9776C33.8901 39.9504 33.943 39.936 33.9969 39.9357C34.077 39.9366 34.1536 39.969 34.2109 40.0262C34.2682 40.0833 34.3016 40.1609 34.3043 40.2426L34.3384 41.6759C34.3399 41.7301 34.3274 41.7837 34.3022 41.8314C34.277 41.8791 34.2401 41.9193 34.195 41.9479C33.3679 42.5217 32.597 43.1757 31.893 43.9008C31.2243 44.5727 30.6215 45.3096 30.0931 46.1012C29.039 47.6034 28.4447 49.391 28.3854 51.2379C28.3814 51.7895 28.434 52.3401 28.5425 52.8804C28.5594 52.9337 28.5594 52.9911 28.5425 53.0443C28.4503 53.3163 28.3649 53.5814 28.2897 53.8394C27.8164 55.293 27.6013 56.8211 27.6545 58.3519C27.664 59.0904 27.8668 59.8128 28.2419 60.4443C28.3174 60.574 28.4216 60.6838 28.5462 60.7649C28.6707 60.8461 28.8122 60.8963 28.9592 60.9116H29.0685H29.1163C29.1973 60.9134 29.2744 60.947 29.3317 61.0055C29.389 61.064 29.4219 61.1428 29.4237 61.2254C29.4272 61.2882 29.4272 61.351 29.4237 61.4138C29.3661 62.0821 29.1841 62.7331 28.8874 63.3318C28.4994 64.2005 28.215 65.1138 28.0404 66.0518C27.9721 66.4249 27.9106 66.8399 27.8594 67.3037C27.8218 67.6525 27.8048 68.0012 27.8013 68.3499C27.7929 68.8003 27.8088 69.2509 27.8492 69.6995C27.8837 69.4058 27.9608 69.1191 28.078 68.8486C28.1627 68.6523 28.2705 68.4673 28.399 68.2976C28.8016 67.7873 29.3613 67.4309 29.9872 67.2863L30.8718 67.0666C32.3951 66.6865 33.7441 66.3691 34.6287 65.5741C34.7828 65.4393 34.9214 65.2873 35.042 65.1207C35.667 64.2628 37.122 63.9595 38.273 63.9595C39.5025 63.9595 40.9814 64.3082 41.5347 65.2881C41.56 65.3284 41.5828 65.3704 41.603 65.4136C41.8872 66.1614 42.0711 66.945 42.1494 67.7431C42.3578 69.2357 42.4534 70.9828 42.491 72.0778C42.5149 72.6811 42.5217 73.0891 42.5251 73.1484C42.5248 73.2035 42.5108 73.2576 42.4846 73.3058C42.4583 73.3539 42.4206 73.3946 42.3748 73.4239C42.3202 73.4587 41.0087 74.3061 41.0087 76.7542C41.0086 76.8132 40.9922 76.8711 40.9614 76.921C40.9306 76.971 40.8866 77.0111 40.8345 77.0367C40.4504 77.2256 40.0572 77.3944 39.6562 77.5423C36.6985 78.6478 32.3472 79.3487 31.5719 79.3487C31.3287 79.3531 31.0859 79.3706 30.8445 79.401H30.8137C30.7753 79.4006 30.7372 79.3935 30.701 79.3801C30.2792 79.211 29.9057 78.9364 29.6149 78.5815C29.137 77.9624 28.8707 77.2006 28.8567 76.4125V76.395C28.8568 76.3546 28.8637 76.3145 28.8772 76.2764C28.8772 76.1893 28.9079 75.9626 28.9182 75.6418C28.9489 74.7979 28.9182 73.3227 28.3581 72.2591L28.2795 72.0987C28.2226 71.9755 28.1713 71.8593 28.1258 71.75L28.1565 71.9313L28.1873 72.1161C28.3854 73.4169 28.5493 74.5572 28.2727 75.5616C28.2253 75.7356 28.1624 75.9049 28.0848 76.0672C27.2583 77.8108 27.009 78.4804 27.2856 80.6007C27.2908 80.6353 27.2908 80.6706 27.2856 80.7053C27.2856 80.7053 27.2856 80.7053 27.2856 80.7227C27.1088 81.6496 27.072 82.5986 27.1763 83.5369C27.2465 84.202 27.385 84.8578 27.5896 85.4933C27.8628 86.3337 28.2488 86.8324 28.7406 86.9684C28.8319 86.9938 28.926 87.0067 29.0206 87.0067C29.2977 86.9952 29.5696 86.9264 29.8198 86.8045L30.0214 86.7173C30.4047 86.5417 30.7982 86.3903 31.1997 86.264C31.727 86.1113 32.2684 86.0143 32.8152 85.9745C32.9996 85.9745 33.1908 85.9536 33.3787 85.9536H33.6007H33.7954H34.0208C34.066 85.9534 34.1107 85.9637 34.1515 85.9836C34.1923 86.0035 34.2282 86.0326 34.2565 86.0687C34.8159 86.7735 35.2117 87.5985 35.4143 88.4819C35.6042 89.2932 35.6171 90.1373 35.4518 90.9543C35.4518 91.0066 35.4313 91.0555 35.4211 91.1078C35.3665 91.3414 35.2947 91.5646 35.223 91.7808C35.1071 92.1024 35.0247 92.4355 34.9771 92.7747C34.9366 93.2498 35.0732 93.7231 35.3596 94.0998C35.6751 94.5081 36.048 94.8666 36.4662 95.1634C36.9009 95.4904 37.3652 95.7742 37.8529 96.0108C38.3997 96.2779 38.972 96.487 39.5606 96.6351C39.8441 96.7109 40.1314 96.7714 40.4212 96.8164C40.4679 96.8233 40.5123 96.8412 40.551 96.8687L40.674 96.9489C41.0772 97.2139 41.5202 97.4095 41.9855 97.5278C42.3609 97.6227 42.7463 97.6707 43.1331 97.6708C43.3111 97.6707 43.489 97.6603 43.6659 97.6394C44.1099 97.6082 44.5448 97.496 44.9501 97.3081C44.9944 97.2848 45.0436 97.2728 45.0935 97.2732C45.1309 97.2731 45.168 97.2802 45.2028 97.2942C45.8148 97.5261 46.4626 97.6442 47.1154 97.6429H47.1496C47.6404 97.6434 48.1293 97.5802 48.6045 97.4546L48.748 97.4162C48.7776 97.4054 48.8087 97.3995 48.8402 97.3988C48.8651 97.3954 48.8904 97.3954 48.9153 97.3988C49.4568 97.5504 50.014 97.6358 50.5752 97.6533C50.8327 97.6554 51.0896 97.6261 51.3403 97.5662C51.7188 97.4848 52.0748 97.318 52.382 97.0779C52.4368 97.035 52.5041 97.0117 52.5732 97.0117C52.7747 97.0117 52.9899 97.0117 53.2563 97.0117H53.3827C53.9841 97.0227 54.5852 96.9795 55.1792 96.8827C55.7176 96.7953 56.2381 96.6173 56.7195 96.3561C56.9478 96.2307 57.161 96.0785 57.3548 95.9027L57.4163 95.8504C57.4711 95.8014 57.5415 95.7742 57.6144 95.7737H57.669C57.9008 95.7646 58.1304 95.7248 58.3521 95.6551C59.0411 95.4771 59.7089 95.2222 60.3433 94.8949C60.8317 94.6334 61.9075 93.9359 62.2695 92.7503C62.3227 92.5788 62.3593 92.4024 62.3788 92.2237C62.4098 91.9226 62.3902 91.6183 62.3208 91.324C62.3079 91.2751 62.3071 91.2237 62.3185 91.1744C62.3298 91.1251 62.3529 91.0795 62.3857 91.0415C62.4144 91.0074 62.45 90.98 62.4901 90.9614C62.5302 90.9427 62.5738 90.9331 62.6179 90.9334H62.6486C63.7591 91.0765 64.8507 91.3443 65.9035 91.732C66.5251 91.9447 67.1433 92.1783 67.741 92.4085C68.5231 92.7084 69.3326 93.0153 70.1318 93.2664C71.2425 93.6407 72.4017 93.844 73.5711 93.8697C73.8404 93.8705 74.1095 93.8554 74.3771 93.8243C75.8869 93.6766 77.32 93.0759 78.4961 92.0981C79.0989 91.5899 79.6148 90.983 80.0228 90.3022C80.157 90.0833 80.2801 89.8575 80.3916 89.6257C80.4326 89.5385 80.4702 89.4513 80.5078 89.3676C80.5327 89.3123 80.5726 89.2654 80.6229 89.2327C80.6732 89.1999 80.7316 89.1826 80.7912 89.1828H80.8288L81.5973 89.2839C82.2804 89.3711 82.9634 89.4583 83.6465 89.5664C84.2101 89.6536 84.7838 89.7547 85.3542 89.8628L85.5899 89.9081H85.6138H85.6616C85.7265 89.814 85.7982 89.7163 85.8734 89.6187C86.0507 89.3889 86.24 89.1689 86.4403 88.9596C86.9145 88.4869 87.4127 88.0399 87.9328 87.6205L88.0831 87.495C89.2271 86.5546 90.2588 85.4801 91.157 84.2937C91.5721 83.737 91.9531 83.1547 92.2977 82.55C93.2406 80.9273 93.9243 79.1615 94.3231 77.3191C94.4426 76.7786 94.5348 76.2311 94.6031 75.6801C94.6846 74.9113 94.712 74.1374 94.6851 73.3646ZM52.9558 68.9393C52.9854 68.6812 53.0229 68.4197 53.0685 68.1546C53.1635 67.5027 53.3308 66.8639 53.5671 66.2506C53.6986 65.9236 53.8671 65.6135 54.0692 65.3265C54.3866 64.8722 54.8043 64.5007 55.2885 64.2419C55.9878 63.9 56.7574 63.735 57.5324 63.7607C57.7407 63.7607 57.9593 63.7607 58.2155 63.7851C58.5809 63.813 58.9395 63.8583 59.3084 63.9106C59.3545 63.9169 59.3986 63.9341 59.4371 63.9607C59.4756 63.9873 59.5075 64.0227 59.5304 64.0641C60.0188 64.9184 60.958 65.4136 61.9417 65.731C62.3627 65.8638 62.7902 65.9744 63.2224 66.0623C64.2299 66.2745 65.2481 66.4293 66.2724 66.5261C66.7813 66.5749 67.297 66.6098 67.8127 66.6272H68.3865C68.6837 66.6272 68.9945 66.6272 69.2984 66.6586C69.807 66.6758 70.3029 66.8246 70.7397 67.091C71.1251 67.3599 71.4424 67.7185 71.6653 68.1372C72.1272 69.0092 72.3368 69.9973 72.2698 70.9863C72.2023 72.0714 71.9419 73.1349 71.5014 74.1248C71.1598 74.9722 70.7124 75.7882 70.2821 76.5938L70.2547 76.6461C69.9918 77.1343 69.7732 77.5458 69.5717 77.9782C69.517 78.0828 69.4658 78.1944 69.4146 78.3026C69.2767 78.6108 69.1205 78.9101 68.9466 79.1988C68.8907 79.2868 68.8303 79.3718 68.7656 79.4533C68.5351 79.7676 68.2227 80.0093 67.864 80.1508C67.5103 80.2744 67.1378 80.3322 66.7642 80.3217H66.4637C64.7961 80.2214 63.1444 79.9337 61.5386 79.4638C61.1971 79.3731 60.8556 79.272 60.514 79.1639C59.6363 78.8954 58.7175 78.5815 57.6144 78.177L57.1669 78.0131C56.4225 77.7667 55.6993 77.4576 55.005 77.089C54.1855 76.6459 53.558 75.9057 53.2461 75.0141C53.2187 74.9304 53.1914 74.8467 53.1675 74.763C52.9478 73.9273 52.8398 73.0651 52.8465 72.1998C52.8465 72.158 52.8465 72.1196 52.8465 72.0778C52.8055 71.0303 52.842 69.9811 52.9558 68.9393Z" fill="white"/>
<path d="M36.2032 31.406C36.3418 31.6353 36.5518 31.8104 36.7995 31.9034C37.0472 31.9963 37.3183 32.0017 37.5694 31.9186C38.8365 31.4269 37.8904 29.4984 36.9614 29.1846C36.8086 29.1244 36.6414 29.1131 36.4822 29.1524C36.3229 29.1916 36.1791 29.2795 36.07 29.4043C36.0595 29.4211 36.0481 29.4374 36.0359 29.4531C36.0127 29.4679 35.9929 29.4877 35.9782 29.5113C35.9634 29.5348 35.9539 29.5614 35.9505 29.5891V29.6275C35.917 29.7147 35.8952 29.8062 35.8856 29.8995C35.8736 30.0161 35.8805 30.1339 35.9061 30.2482C35.8812 30.6566 35.9853 31.0625 36.2032 31.406Z" fill="#1B1219"/>
<path d="M94.9173 72.015C94.9002 71.7848 94.8729 71.5581 94.8422 71.3175C94.6851 71.1501 94.5211 70.9688 94.3606 70.8188C93.862 70.3062 93.3667 69.7727 92.9056 69.2391C92.0692 68.2675 91.3786 67.1746 90.8564 65.996C89.7771 63.4677 90.047 60.5977 89.0975 58.0311C88.7957 57.1739 88.3315 56.3859 87.7313 55.712C87.7993 55.4252 87.8826 55.1423 87.9806 54.8646C87.9929 54.8185 87.9898 54.7695 87.9719 54.7253C87.954 54.6812 87.9222 54.6443 87.8816 54.6205C87.6254 54.4462 87.3659 54.2718 87.1063 54.1044C86.9492 53.9998 86.7921 53.8952 86.6316 53.7941C86.43 53.8254 86.2217 53.8464 86.0168 53.8603C84.9341 53.9433 83.8457 53.8155 82.8097 53.4837C82.1915 53.2849 81.5221 52.978 81.3274 52.2876C81.2538 51.971 81.2521 51.6413 81.3225 51.324C81.393 51.0066 81.5337 50.71 81.7339 50.4568C81.8712 50.2712 82.0256 50.0995 82.195 49.9441C82.3205 49.8304 82.4516 49.7234 82.5877 49.6233L82.7141 49.5291C82.779 49.306 82.837 49.0793 82.8917 48.8561C83.0949 48.0518 83.2557 47.2369 83.3733 46.415C83.4245 46.0419 83.4655 45.6722 83.4996 45.2991C83.527 45.0341 83.5475 44.7655 83.5645 44.497V44.2948C83.4461 44.0228 83.3163 43.7542 83.1752 43.4892C82.5277 42.2261 81.6461 41.1033 80.5795 40.1833C79.4729 39.2592 78.158 38.6873 76.8225 38.1572C75.4135 37.592 73.9717 37.1156 72.5055 36.7309C71.1244 36.3736 69.7224 36.1069 68.3079 35.9323C68.2847 35.7216 68.2163 35.5186 68.1077 35.3378C67.9991 35.1571 67.8529 35.0029 67.6795 34.8861C67.3834 34.716 67.0612 34.5981 66.7266 34.5374C66.3168 34.4467 65.9069 34.3665 65.4937 34.2968C63.8296 34.0011 62.1411 33.8738 60.4525 33.9167C60.0222 33.9167 59.5953 33.962 59.1683 34.0039C59.2926 33.8565 59.37 33.6741 59.3903 33.4808C59.445 32.8879 58.9156 32.473 58.4818 32.187C57.8534 31.7755 57.225 31.3605 56.5897 30.956L52.8328 28.5149C52.2863 28.1662 51.6955 27.6571 51.0363 27.5699C50.3771 27.4827 49.7897 27.8733 49.2637 28.229L45.6502 30.6701C44.7895 30.1749 43.9015 29.725 43.0272 29.2751C41.8045 28.6335 40.5715 28.0128 39.3181 27.4443C38.6919 27.1584 38.0623 26.8864 37.4293 26.6283C36.8244 26.3389 36.1642 26.19 35.4962 26.1924C34.3008 26.2656 33.406 27.1758 32.7297 28.1034C31.3021 30.0458 30.701 32.466 29.4441 34.5165C28.8191 35.5348 28.078 36.4868 27.5418 37.5609C27.2691 38.0869 27.0659 38.6474 26.9372 39.2278C26.7927 39.7461 26.8388 40.3006 27.067 40.7866C27.2181 41.0136 27.422 41.1987 27.6604 41.3253C27.8989 41.4519 28.1644 41.516 28.4332 41.5119C29.048 41.5486 29.6649 41.5206 30.2741 41.4282C31.5242 41.266 32.7381 40.8874 33.8637 40.3088L33.9832 40.2426L34.0174 41.6758C34.0174 41.6758 26.8962 46.2895 28.2317 52.9327C26.3874 58.3379 27.6408 61.459 29.0923 61.2184C29.0923 62.9411 27.9175 63.5409 27.5247 67.2618C27.1319 70.9827 28.6996 73.9051 27.7603 75.9067C26.8928 77.755 26.6572 78.4769 26.9372 80.625C26.624 82.2756 26.731 83.9807 27.248 85.5769C27.47 86.2744 27.8696 87.0485 28.6142 87.2543C29.0471 87.344 29.4969 87.2826 29.8916 87.0799C30.3295 86.8773 30.7788 86.7015 31.2372 86.5533C31.744 86.4036 32.2649 86.3089 32.7912 86.2709C33.0405 86.2534 33.2933 86.25 33.5426 86.2709C33.6895 86.2709 33.8295 86.2883 33.9695 86.2883C34.4938 86.9471 34.8654 87.7184 35.0565 88.5445C35.2475 89.3707 35.2531 90.2302 35.0727 91.0589C34.885 91.6163 34.7344 92.186 34.6219 92.7642C34.5707 93.3176 34.7283 93.8701 35.0625 94.309C35.3952 94.7436 35.7901 95.1245 36.2339 95.4389C36.6846 95.7781 37.1661 96.0724 37.6718 96.3177C38.2347 96.5944 38.8241 96.8106 39.4308 96.9628C39.7142 97.0325 40.0182 97.1058 40.3222 97.1511C40.7892 97.4761 41.3099 97.7123 41.8591 97.8486C42.4427 97.997 43.0476 98.0383 43.6454 97.9706C44.1277 97.9331 44.5996 97.8079 45.0388 97.601C45.6843 97.8539 46.3694 97.9851 47.0608 97.9881C47.5906 97.9899 48.1185 97.9231 48.6318 97.7893L48.789 97.744C49.6201 98.0056 50.4999 98.0641 51.3573 97.9148C51.7789 97.8191 52.1751 97.6311 52.5186 97.3638C52.7474 97.3638 52.9762 97.3638 53.2016 97.3638C53.8634 97.3808 54.5253 97.3364 55.1792 97.2313C55.7492 97.1342 56.3003 96.9446 56.8117 96.6699C57.0562 96.533 57.2852 96.3693 57.4948 96.1817C57.5153 96.1642 57.5324 96.1433 57.5563 96.1259C57.8352 96.125 58.1124 96.0827 58.3794 96.0003C59.0887 95.8152 59.7759 95.5509 60.4286 95.2122C61.5284 94.6229 62.4779 93.6081 62.6247 92.2969C62.6595 91.9584 62.6376 91.6164 62.5598 91.2856C63.648 91.4274 64.7177 91.6905 65.7498 92.0702C67.174 92.5549 68.5573 93.1582 69.9917 93.6081C71.3947 94.0945 72.8789 94.289 74.3566 94.18C75.9263 94.0225 77.4159 93.3967 78.6395 92.3806C79.2764 91.8573 79.8245 91.2305 80.2618 90.5253C80.4519 90.2132 80.6208 89.8881 80.7673 89.5524C81.6997 89.6779 82.639 89.786 83.5679 89.9325C84.1349 90.0232 84.7019 90.1208 85.2756 90.2289L85.5728 90.2882L85.7743 90.33C85.8768 90.1731 85.986 90.0232 86.0988 89.8767C86.2677 89.6558 86.449 89.445 86.6418 89.2455C87.1554 88.7336 87.6959 88.2505 88.2607 87.7983C89.4225 86.8435 90.4692 85.7513 91.379 84.5447C93.284 81.9872 94.4951 78.962 94.89 75.7742C95.0358 74.5261 95.045 73.2652 94.9173 72.015ZM78.8342 42.2547C79.3075 42.327 79.7607 42.4999 80.1643 42.7625C80.5679 43.025 80.913 43.3712 81.1772 43.7786C81.2645 43.9146 81.3421 44.0568 81.4094 44.2041L81.3172 44.2215C80.8869 44.3087 80.4599 44.4168 80.0364 44.5389C79.5579 44.6766 79.087 44.8407 78.6259 45.0306L78.4004 44.8109C78.1296 44.5389 77.8741 44.2513 77.6354 43.9495C77.2935 43.5185 76.9808 43.0641 76.6996 42.5895C77.366 42.2746 78.106 42.1586 78.8342 42.2547ZM77.287 59.3074C78.4602 58.6373 79.5229 57.783 80.436 56.7757C80.6819 56.5002 80.9108 56.2142 81.1191 55.9213C81.1214 56.3514 81.0779 56.7806 80.9893 57.2011C80.8008 58.0119 80.4699 58.7811 80.0125 59.4713C79.5651 60.1688 79.0665 60.8662 78.6873 61.5985C78.3082 62.3309 78.0316 63.0457 77.714 63.7711C77.5398 64.1756 77.3553 64.5767 77.1538 64.9672C77.0684 64.8068 76.9831 64.6464 76.9079 64.4825C76.6962 64.0431 76.5049 63.5967 76.3273 63.1399C75.9244 62.2123 75.6486 61.2325 75.5076 60.228C75.5059 60.213 75.5059 60.1978 75.5076 60.1827C76.1205 59.9349 76.7152 59.6424 77.287 59.3074ZM75.634 58.7076C75.9676 57.5307 76.7078 56.5172 77.7174 55.855C78.2406 55.5001 78.8051 55.2131 79.3977 55.0006C79.127 55.4752 78.8174 55.9255 78.4722 56.3467C77.7546 57.213 76.9004 57.9508 75.9448 58.5297C75.8423 58.589 75.7399 58.6518 75.634 58.7076ZM67.0306 37.3098C67.9562 37.3377 68.8749 37.4005 69.7937 37.5086C71.5238 37.7022 73.2238 38.1134 74.8553 38.7326C75.5416 39.0019 76.2112 39.3141 76.8601 39.6672C76.8385 39.7655 76.8304 39.8665 76.8362 39.9671C76.8416 40.0921 76.8779 40.2136 76.9418 40.3203C77.0057 40.4271 77.0951 40.5155 77.2016 40.5773C77.4004 40.6572 77.6178 40.6753 77.8267 40.6297C77.912 40.6297 77.9906 40.6087 78.0726 40.6052C77.9088 40.7865 77.7017 40.9212 77.4715 40.9958C77.0491 41.1449 76.6164 41.2615 76.177 41.3445C75.9482 41.3899 75.7194 41.4213 75.4939 41.4457L75.1251 41.4805C74.5826 41.5154 74.0384 41.5154 73.4959 41.4805C73.3149 41.4805 73.2671 41.7805 73.4515 41.8084C73.9942 41.8896 74.5437 41.9118 75.0909 41.8746C75.0598 42.6403 75.2024 43.4029 75.5076 44.103C75.7199 44.5809 76.0071 45.0203 76.358 45.4037C76.5336 45.5948 76.7232 45.772 76.925 45.9338L76.9831 45.9791C76.44 46.0663 75.897 46.157 75.3573 46.2755C74.743 46.3987 74.1423 46.5844 73.5642 46.83C73.2919 46.9498 73.0331 47.0995 72.7924 47.2764C72.5761 47.4501 72.3729 47.6401 72.1844 47.8448L72.0273 47.9947C71.7848 48.2249 71.5253 48.4341 71.2862 48.6678C71.5731 48.5457 71.8668 48.4307 72.1605 48.3191C74.4038 47.4743 76.7554 46.9668 79.1416 46.8126C79.5036 46.7882 79.8691 46.7847 80.2311 46.7812C80.2365 47.3555 80.12 47.9242 79.8896 48.4481C79.7087 48.8252 79.4253 49.1412 79.0733 49.3583C78.6793 49.5823 78.2734 49.7837 77.8574 49.9616C76.2644 50.7358 74.8377 51.8251 73.6599 53.1663C72.4474 54.5612 71.3955 56.2247 71.03 58.0659C70.8286 59.0249 70.8591 60.0196 71.1188 60.9639C71.4241 61.8808 71.9165 62.7212 72.5635 63.4293C73.2466 64.2593 74.039 65.0335 74.5274 66.0169C74.7976 66.5561 74.9337 67.1549 74.9236 67.7605C74.8944 67.8095 74.86 67.8551 74.8211 67.8965C74.3532 68.4196 73.5506 68.1929 73.0417 67.8686C72.7249 67.65 72.4236 67.4087 72.14 67.1468C71.86 66.9096 71.5696 66.683 71.2725 66.4702C70.6551 66.0328 70 65.6535 69.3155 65.3369C67.9538 64.7067 66.4931 64.3289 65.0018 64.221C64.189 64.1652 63.3761 64.221 62.5598 64.221C61.8223 64.2313 61.0983 64.0177 60.4799 63.6072C60.1663 63.3927 59.9267 63.0831 59.7949 62.722C59.6632 62.3609 59.6459 61.9667 59.7455 61.595C59.8883 61.0768 60.1467 60.5994 60.5004 60.2001C60.6267 60.0432 60.7633 59.8968 60.9034 59.7503C60.7736 59.7503 60.6472 59.7503 60.5174 59.7503H60.4116C60.0514 59.7136 59.6963 59.6364 59.3528 59.5201C58.9853 59.395 58.6334 59.2264 58.3043 59.018C58.2243 58.9697 58.1468 58.9173 58.072 58.861C57.9402 58.7647 57.8248 58.6469 57.7305 58.5123L57.5426 58.5786L57.3684 58.6309C56.9621 58.7453 56.5432 58.8062 56.1218 58.8122C55.418 58.8233 54.7198 58.6831 54.0726 58.4007C53.8919 58.3265 53.7171 58.2379 53.55 58.1357C53.5383 58.157 53.5322 58.181 53.5322 58.2054C53.5322 58.2299 53.5383 58.2539 53.55 58.2752C53.6382 58.435 53.7461 58.5827 53.8711 58.7146C54.3014 59.1819 54.8957 59.5132 55.2167 60.0711C55.4482 60.4765 55.5839 60.9314 55.6129 61.3998C55.6351 61.6653 55.6419 61.932 55.6334 62.1983C54.7174 62.0937 53.7902 62.2133 52.9284 62.5471C52.3764 62.7563 51.8583 63.049 51.3915 63.4154C50.9646 63.7641 50.5206 64.3465 49.9297 64.336C49.8052 64.332 49.6826 64.3048 49.5677 64.2558C49.1536 63.9352 48.8566 63.4821 48.7241 62.969C48.6237 62.239 48.578 61.5022 48.5874 60.7651C48.5874 60.7651 47.2759 63.5898 46.1557 63.4468C45.2574 63.248 44.9227 62.568 44.629 61.3265C44.5709 62.3274 44.5129 64.7266 43.4507 64.7092C43.1399 64.1268 42.7471 63.3666 38.3276 63.3143C34.82 63.3526 34.6629 65.1346 33.1533 65.7553C31.6437 66.3761 30.4209 66.5958 30.3526 65.3752C30.2843 64.1547 31.9784 64.6778 32.3131 58.6309C33.4004 59.541 34.7188 60.1167 36.1144 60.2908C36.1144 60.2908 33.0405 58.1113 33.0166 55.9875C32.9927 53.8638 34.4477 50.2266 34.4477 50.2266C34.4477 50.2266 36.6233 50.1847 37.8972 48.4062C39.1712 46.6277 42.5012 42.6418 44.045 41.8014C45.514 41.7443 46.9333 41.243 48.1229 40.3611C48.7138 39.8694 52.8533 39.0569 53.3109 38.9662C52.8432 39.7846 52.5239 40.6824 52.3683 41.6165C52.3597 41.6518 52.3627 41.689 52.3766 41.7224C52.3906 41.7559 52.4148 41.7838 52.4457 41.8019C52.4766 41.82 52.5124 41.8274 52.5477 41.8229C52.583 41.8184 52.616 41.8023 52.6415 41.777C53.3244 41.1808 54.0812 40.679 54.8923 40.2844C55.2972 40.0898 55.7136 39.921 56.1389 39.7788C56.3438 39.7125 56.5487 39.6497 56.7571 39.5939C56.8834 39.5626 57.0132 39.5416 57.143 39.5102C58.1633 39.8061 59.2346 39.8704 60.2818 39.6986C61.4596 39.4828 62.5711 38.9871 63.5264 38.2513C63.8065 38.0456 64.0831 37.8294 64.3666 37.6236C64.5237 37.5086 64.6842 37.4074 64.8447 37.3063C65.5756 37.3028 66.2997 37.2889 67.0306 37.3098ZM58.4921 62.1321C58.318 62.0759 58.1399 62.0339 57.9593 62.0065C57.5951 61.9543 57.2269 61.9368 56.8595 61.9542V61.738C56.8749 61.4942 56.8749 61.2496 56.8595 61.0057C56.8263 60.6526 56.7658 60.3028 56.6785 59.9595L56.9688 59.9212C57.1518 59.8947 57.3323 59.8527 57.5085 59.7956C57.8821 60.1944 58.3289 60.5143 58.8234 60.7372C58.6014 61.0847 58.4828 61.4905 58.4818 61.9054C58.4762 61.9808 58.4751 62.0565 58.4784 62.1321H58.4921ZM58.1881 64.0989C58.5297 64.1233 58.9054 64.1721 59.264 64.221C60.0222 65.5566 61.7265 66.0657 63.1575 66.3656C64.1727 66.5812 65.1989 66.7383 66.2314 66.8364C66.7505 66.8887 67.256 66.9236 67.7922 66.941C68.3284 66.9584 68.7793 66.941 69.2677 66.9829C69.7256 66.9964 70.1725 67.1297 70.5655 67.3699C70.9084 67.6063 71.1906 67.9232 71.3886 68.2941C71.8209 69.1156 72.0163 70.0455 71.9522 70.9758C71.8668 72.9844 70.8968 74.7804 69.9747 76.5066C69.739 76.9529 69.4999 77.3958 69.2916 77.8492C69.0935 78.2467 68.9193 78.6617 68.6836 79.0418C68.4708 79.4104 68.144 79.6962 67.7547 79.8543C67.3404 79.9897 66.9038 80.0395 66.4705 80.0008C64.4681 79.8652 62.4896 79.4799 60.5789 78.8535C59.6089 78.5571 58.6492 78.2223 57.6963 77.8701C56.8149 77.5845 55.9572 77.2276 55.1313 76.803C54.378 76.3967 53.8006 75.7176 53.5124 74.8989C53.2489 74.0189 53.1199 73.1026 53.1299 72.1824C53.0996 71.1117 53.1498 70.0403 53.2802 68.9776C53.365 68.0855 53.5636 67.2086 53.8711 66.3691C54.1653 65.5792 54.726 64.9225 55.4524 64.5174C56.306 64.129 57.2467 63.9843 58.1745 64.0989H58.1881ZM56.0842 37.8677C56.0644 37.6697 56.0564 37.4705 56.0603 37.2714C56.0603 37.247 56.0603 37.2191 56.0603 37.1947C56.4386 36.8177 56.8353 36.4603 57.2489 36.1241C57.5255 35.8974 57.809 35.6847 58.0993 35.4825L58.1232 35.465C60.4184 35.0466 62.7887 35.2209 65.0872 35.5243C65.4288 35.5696 65.7976 35.6185 66.1562 35.6708L66.5251 35.7301C66.5251 35.8417 66.5046 35.9567 66.5012 36.0788C66.4978 36.2008 66.5012 36.295 66.5012 36.4031C66.1938 36.4031 65.8796 36.4031 65.5825 36.3717C65.0428 36.3438 64.493 36.2706 63.9533 36.2915C63.5043 36.3325 63.0893 36.5531 62.7989 36.9053C62.4705 37.2385 62.0994 37.5247 61.6957 37.7562C61.2899 37.987 60.8557 38.1618 60.4047 38.2758C59.9148 38.385 59.4131 38.4283 58.9122 38.4048C58.3756 38.3847 57.8385 38.4245 57.3104 38.5234C56.794 38.635 56.2878 38.7914 55.7973 38.9906C55.0037 39.3002 54.24 39.6843 53.5159 40.138C53.9557 39.2911 54.5504 38.5382 55.268 37.9201C55.4508 37.9063 55.634 37.9399 55.8008 38.0177C55.8285 38.0333 55.8596 38.0414 55.8913 38.0414C55.9229 38.0414 55.9541 38.0333 55.9818 38.0177C56.0108 38.0048 56.0357 37.984 56.0538 37.9575C56.0719 37.9311 56.0824 37.9 56.0842 37.8677ZM55.6607 37.6027H55.6812L55.7051 37.5748V37.6271L55.6607 37.6027ZM48.3074 30.3318C48.819 29.8858 49.3836 29.5074 49.9878 29.2054C50.2769 29.0611 50.6039 29.0159 50.9202 29.0764C51.2204 29.1649 51.5059 29.2989 51.7672 29.4739C52.9304 30.14 54.0445 30.8917 55.1006 31.7232C55.3681 31.9163 55.6123 32.1411 55.8281 32.3928C55.8827 32.466 55.9647 32.609 55.8964 32.7031C55.8281 32.7973 55.6163 32.7624 55.5173 32.7624L54.701 32.7345L52.8601 31.2908L53.813 32.7066H53.3075L50.8894 32.6369C50.3395 32.6369 49.7931 32.5915 49.2466 32.5776L48.4064 31.7267L48.0649 31.378C47.9693 31.2838 47.8053 31.1583 47.7746 31.0292C47.7029 30.7433 48.1571 30.4713 48.3074 30.3422V30.3318ZM32.7161 36.8216C32.6349 35.6434 32.7037 34.4595 32.921 33.2994C31.5549 34.5932 31.0664 36.4554 30.8923 37.4458L29.9974 37.7352L29.4612 37.9096L29.1743 38.0038L29.106 38.0247C29.1024 38.0133 29.1024 38.0011 29.106 37.9898C29.1436 37.8259 29.1436 37.6411 29.1811 37.4876C29.222 37.3183 29.2734 37.1517 29.3348 36.989C29.9189 35.4546 31.2748 34.4119 31.9101 32.9089C32.1081 32.5601 32.3097 32.187 32.5112 31.8243C32.9757 31.0048 33.4402 30.1888 33.9354 29.3833C34.3282 28.7486 34.8268 28.0581 35.6431 28.0337C36.086 28.0464 36.5217 28.1508 36.9239 28.3406C37.3644 28.5184 37.7948 28.7242 38.2285 28.9194L40.4144 29.8994C40.2093 30.1244 40.0544 30.3921 39.9601 30.684C39.8691 30.9658 39.8464 31.266 39.894 31.5588C39.9416 31.8515 40.0581 32.1282 40.2334 32.3649C40.4009 32.5869 40.626 32.7565 40.8832 32.8545C41.1404 32.9525 41.4193 32.975 41.6883 32.9193C41.9362 32.8523 42.1639 32.7235 42.351 32.5446C42.5382 32.3657 42.679 32.1422 42.7608 31.8941C42.8565 31.6032 42.8754 31.2916 42.8154 30.9909L43.4438 31.2699L46.0464 32.4381L47.3613 33.0309C47.5594 33.1181 47.7575 33.2018 47.9522 33.296C48.1037 33.3545 48.2395 33.4489 48.3484 33.5714C48.5738 33.8679 48.0854 34.0074 47.8839 34.0457C47.3938 34.1219 46.9002 34.172 46.405 34.1957C45.862 34.2375 45.3223 34.2794 44.7793 34.3142L43.9971 34.37C43.519 34.37 43.0442 34.3352 42.5661 34.2863C41.8181 34.2131 41.0701 34.1155 40.3222 34.0771C39.5747 34.0286 38.8242 34.0766 38.0885 34.2201C37.3942 34.3796 36.7267 34.6429 36.1076 35.0012C35.4826 35.3499 34.8883 35.7405 34.2701 36.0927C33.7711 36.3758 33.2516 36.6195 32.7161 36.8216ZM42.1802 38.2688C39.8107 38.9211 37.5197 39.8404 35.3494 41.0098C35.4222 40.2356 35.4962 39.4591 35.5714 38.6803C35.593 38.2909 35.6918 37.9101 35.8617 37.5609C36.069 37.2395 36.36 36.9835 36.7019 36.8216C37.098 36.6054 37.5045 36.4136 37.9177 36.2357C38.333 36.0346 38.7681 35.8791 39.2156 35.7719C39.4058 35.7471 39.5992 35.7711 39.778 35.8417C39.9569 35.9124 40.1158 36.0274 40.2402 36.1764C40.531 36.4445 40.8562 36.6709 41.2068 36.8495C41.5756 37.0378 42.0162 37.2261 42.2314 37.6167C42.2827 37.7202 42.305 37.8362 42.296 37.9518C42.287 38.0675 42.2469 38.1784 42.1802 38.2723V38.2688ZM29.2016 55.9422L28.3478 57.1418C28.1155 54.1079 29.8642 51.6529 29.9155 51.5831L29.0923 52.1411C28.662 45.3375 33.7578 43.5345 33.7578 43.5345L33.6382 46.0175C33.6382 46.0175 32.1901 47.2171 32.8151 48.6573C33.1293 46.8195 34.4648 46.7777 34.4648 46.7777C34.4342 45.8956 34.5898 45.0171 34.9209 44.2018C35.2521 43.3865 35.7512 42.6535 36.3842 42.0525C38.5393 40.0089 44.185 40.0508 44.185 40.0508C44.185 40.0508 43.8435 39.2906 41.8694 39.2103C44.1064 37.4876 50.7699 37.7283 50.7699 37.7283C50.7699 37.7283 50.7289 37.2889 48.6148 36.7693C53.3553 35.5662 55.3568 36.6891 55.3568 36.6891C55.3568 36.6891 55.2133 37.1668 53.5398 38.1816C51.8662 38.1816 48.3654 39.2766 47.0505 40.1554C45.7356 41.0342 43.6351 40.9575 43.6351 40.9575C43.6351 40.9575 39.6903 44.6121 37.9621 47.1996C37.4941 47.9338 36.8294 48.5152 36.0472 48.875C35.265 49.2348 34.3981 49.3577 33.5494 49.2292C33.5494 49.2292 31.2236 59.3946 29.7925 59.3667C28.3615 59.3388 29.1811 56.0573 29.2085 55.9457L29.2016 55.9422ZM28.5835 72.1126C27.7194 70.4318 27.8765 68.1476 30.035 67.5792C32.1935 67.0108 34.2257 66.6969 35.2469 65.2985C36.2681 63.9001 40.4998 63.8548 41.2819 65.5356C42.064 67.2165 42.1836 73.1414 42.1836 73.1414C42.1836 73.1414 40.6432 74.0725 40.6432 76.7542C37.9109 78.1142 32.3336 79.0348 31.5105 79.0348C31.3055 79.0348 31.0391 79.0557 30.7522 79.0871C30.3791 78.9405 30.048 78.7007 29.7891 78.3897C29.357 77.8212 29.1173 77.1249 29.106 76.4054V76.3671C29.106 76.3671 29.4476 73.7865 28.5835 72.1126ZM79.8315 83.4497C79.683 84.7852 79.2303 86.0667 78.5097 87.1915C78.1002 87.835 77.6435 88.4458 77.1436 89.0188C76.9079 89.2978 76.662 89.5698 76.4093 89.8383C76.2829 89.9743 76.1531 90.1069 76.0302 90.2429C75.2151 90.723 74.3442 91.0967 73.4379 91.3553C71.8743 91.7982 70.2335 91.8781 68.6358 91.5889C66.8393 91.2577 65.2512 90.3719 63.6357 89.5559C61.9621 88.705 60.1417 87.9273 58.2325 88.0738C57.4069 88.1349 56.6081 88.3993 55.9044 88.8445C55.2008 89.2896 54.6132 89.9023 54.1921 90.6299C54.4369 90.4644 54.69 90.3119 54.9503 90.1731C55.6164 89.8258 56.3252 89.5713 57.0576 89.4164C57.6196 89.2849 58.2034 89.2849 58.7653 89.4164C58.8289 89.4301 58.8916 89.4476 58.9532 89.4687C58.3115 89.7601 57.7506 90.2094 57.3206 90.7764C59.083 90.1766 60.4935 89.9743 61.0229 91.2577C61.5523 92.541 59.7899 94.0475 57.949 94.438C58.1027 92.6177 57.3411 91.6761 57.3411 91.6761C57.1351 92.6794 56.6022 93.5817 55.8293 94.236C55.0565 94.8902 54.0893 95.2577 53.0855 95.2785C54.0077 94.1172 53.0684 92.3178 53.0684 92.3178C53.0684 92.3178 53.2836 95.3796 49.8341 95.418C50.2644 94.159 49.1681 92.1957 49.1681 92.1957C49.1681 92.1957 49.3252 96.4188 46.1488 96.22C44.0996 96.0178 43.9732 93.636 43.7956 91.997C43.1501 93.2768 43.5429 95.7981 43.8366 96.2793C42.9145 96.3595 40.329 97.601 39.5845 91.6761C39.2214 92.175 38.9879 92.7595 38.9055 93.3753C38.8231 93.9911 38.8945 94.6182 39.1131 95.1983C39.1131 95.1983 36.152 94.9193 36.3808 92.1957C36.6096 89.4722 36.6779 87.0939 34.9907 85.3921C33.4606 83.774 31.285 84.1332 31.285 84.1332C31.8253 84.3051 32.3285 84.5809 32.7673 84.9457C32.5031 84.9109 32.2357 84.9109 31.9715 84.9457C31.691 84.989 31.4137 85.052 31.1416 85.134C30.8671 85.2428 30.5643 85.2514 30.2843 85.1584C30.0538 85.0156 29.8798 84.7947 29.7925 84.5342C29.6691 84.2498 29.5641 83.9574 29.4783 83.6589C29.355 83.2508 29.2636 82.8334 29.2051 82.4105C29.7967 82.5395 30.3974 82.6199 31.0016 82.6511C32.2988 82.7226 33.5981 82.5548 34.837 82.1559C35.0942 82.0722 35.3434 81.9648 35.5816 81.8351C35.8642 81.6807 36.1213 81.4818 36.3432 81.2457C36.0563 81.312 35.7797 81.3887 35.4928 81.448C35.3425 81.4794 35.1957 81.5073 35.042 81.5247C34.475 81.5924 33.9028 81.6005 33.3343 81.5491C32.1803 81.4567 31.0618 81.099 30.0623 80.503C29.6583 80.2786 29.3423 79.919 29.1675 79.4847C30.7489 79.9526 32.4121 80.0574 34.0378 79.7916C36.5721 79.3382 40.1002 77.8038 40.7081 77.5318C40.3091 79.4014 40.0296 81.2955 39.8713 83.2021C39.7142 85.9222 39.663 86.6894 40.5544 86.7242C41.4458 86.7591 42.1767 85.0713 44.0313 85.8419C45.8859 86.6126 46.7226 87.338 48.0034 86.243C49.2842 85.148 48.5499 83.1219 47.4535 80.1612C46.3572 77.2005 45.2574 74.4247 43.9254 74.3166C43.386 74.2642 42.8419 74.2995 42.3134 74.4212V74.3968C42.3134 74.3968 43.84 71.607 44.1133 70.3132C44.3865 69.0194 44.8407 68.3115 46.6031 68.1337C46.8566 68.1245 47.1092 68.1697 47.3445 68.2664C47.5798 68.3631 47.7927 68.5092 47.9693 68.6951C47.9693 68.6951 48.2049 67.213 45.4794 67.6106C45.3395 67.1411 45.3395 66.6398 45.4794 66.1703C45.4794 66.1703 47.5765 65.0509 48.8948 66.4912C48.9529 67.9942 49.011 68.9113 49.011 68.9113C49.011 68.9113 50.3771 70.8956 50.7187 72.6357C51.0602 74.3758 51.2446 76.4961 50.3054 77.4202C51.0568 77.0506 51.7194 75.9591 51.9584 75.5301C52.1629 76.2648 52.5624 76.9274 53.1128 77.4446C53.9811 78.2729 54.9681 78.9608 56.0398 79.4847L56.4975 79.7183C55.3783 80.3865 54.5238 81.4341 54.0828 82.679C54.0113 82.8788 53.9553 83.084 53.9155 83.2928C53.8796 83.4828 53.8556 83.675 53.8437 83.8682C54.0043 83.7287 54.1853 83.5996 54.3356 83.4741C56.6683 81.7549 59.8002 81.5945 62.5974 81.8386C64.3051 81.985 66.0504 82.3094 67.6898 81.6049C69.114 80.9947 70.2957 79.8613 71.2657 78.6582C71.6695 78.1618 72.0426 77.64 72.3825 77.0959C72.2604 77.7446 72.068 78.3773 71.8087 78.9825C71.2502 80.2114 70.5347 81.3594 69.6809 82.3965L69.1686 83.0591C69.0013 83.2753 68.8271 83.495 68.6632 83.7112C68.9398 83.5927 69.2096 83.4706 69.4794 83.3416C69.9234 83.1289 70.3606 82.8952 70.7841 82.6441C71.0454 83.646 71.6081 84.5388 72.3928 85.1968C72.8338 85.5737 73.3631 85.8271 73.9289 85.9322C74.4947 86.0374 75.0775 85.9906 75.6203 85.7966C76.1258 85.5969 76.5628 85.2501 76.8772 84.7993C77.1959 84.2665 77.3671 83.6555 77.3724 83.0312C77.4496 82.4642 77.4253 81.8876 77.3007 81.3294C77.2314 81.0609 77.0918 80.8168 76.8969 80.6232C76.7019 80.4297 76.4589 80.2941 76.1941 80.231C75.6854 80.1293 75.1587 80.1801 74.6777 80.3774C75.0017 80.0306 75.3893 79.7521 75.8184 79.5579C76.3032 79.3403 76.8367 79.2607 77.3623 79.3276C77.8878 79.3945 78.3858 79.6055 78.8035 79.938C79.7632 80.761 79.9203 82.2361 79.8315 83.4497ZM86.3208 62.6203C86.1509 63.3271 85.9283 64.0196 85.6548 64.6917C85.4293 65.4066 85.2415 66.132 85.0878 66.8608C84.7814 68.341 84.6088 69.8469 84.5721 71.3594C84.5406 72.8624 84.6274 74.3656 84.8316 75.8544C85.0434 77.4167 85.4703 78.9511 85.5625 80.5239C85.6513 81.9188 85.4328 83.3555 84.5652 84.4715C83.7968 85.4618 82.7039 86.1244 81.6143 86.6928L81.6963 86.3615C81.8227 85.828 81.9388 85.2875 82.0174 84.7435C82.1796 83.7378 82.1796 82.7118 82.0174 81.7061C81.727 79.9903 80.781 78.313 79.1655 77.5876C78.5268 77.3057 77.8307 77.1861 77.1368 77.2389C78.0623 74.2887 78.8684 71.0908 78.0555 68.036C77.9651 67.6798 77.8509 67.3302 77.714 66.9898C78.2983 65.2058 79.4225 63.6575 80.9244 62.568C81.8658 61.8767 82.9423 61.4009 84.0803 61.1731C84.5954 61.0511 85.1338 61.0789 85.6343 61.2533C85.8897 61.3622 86.0991 61.5599 86.2254 61.8114C86.3517 62.0629 86.3867 62.3519 86.3242 62.6273L86.3208 62.6203Z" fill="black"/>
<path d="M70.265 52.3817C68.4616 57.1837 61.7265 58.8645 61.7265 58.8645C70.0532 58.0938 70.446 54.9553 70.265 52.3817Z" fill="#1B1219"/>
<path d="M50.664 84.2134C50.664 84.2134 50.4283 87.9482 47.3442 88.5062C50.0629 88.7817 51.231 87.5751 50.664 84.2134Z" fill="#1B1219"/>
<path d="M38.4096 85.1724C37.5728 88.6596 39.3488 88.9351 41.1419 88.426C38.0954 88.1888 38.4096 85.1724 38.4096 85.1724Z" fill="#1B1219"/>
</svg>
