<?xml version="1.0" encoding="utf-8"?>
<!-- Generator: Adobe Illustrator 26.1.0, SVG Export Plug-In . SVG Version: 6.00 Build 0)  -->
<svg version="1.1" id="Layer_1" xmlns="http://www.w3.org/2000/svg" xmlns:xlink="http://www.w3.org/1999/xlink" x="0px" y="0px"
	 viewBox="0 0 172 87" style="enable-background:new 0 0 172 87;" xml:space="preserve">
<style type="text/css">
	.st0{clip-path:url(#SVGID_00000059280929657746075400000003261789735203078590_);}
	.st1{fill:#77625C;}
	.st2{fill:#3F3332;}
	.st3{fill:#846D69;}
	.st4{opacity:0.15;enable-background:new    ;}
	.st5{clip-path:url(#SVGID_00000168806351409975953120000012764654825448965760_);}
	.st6{fill:#BBACA7;}
	.st7{fill:#968583;}
	.st8{display:none;fill:#FFFFFF;}
</style>
<g>
	<defs>
		<rect id="SVGID_1_" y="23" width="172" height="56.4"/>
	</defs>
	<clipPath id="SVGID_00000042701038324616639570000006720578238531102643_">
		<use xlink:href="#SVGID_1_"  style="overflow:visible;"/>
	</clipPath>
	<g style="clip-path:url(#SVGID_00000042701038324616639570000006720578238531102643_);">
		<path class="st1" d="M130.8,23.6l34.8,2.7l1.1,0.3l4.5,32.4l-4.6,16.5L3.1,75.2L1,32.5l12.1-3.9l46.3-2.1l43.1-1.4L130.8,23.6z"/>
		<path class="st2" d="M167,74c0,0,0.1-0.1,0.1-0.1c0.1-0.1,0.2-0.3,0.3-0.4l0.3-0.3L11,73.2H2.6v5.4h163.2c0-0.6,0-1.3,0.1-1.9
			c0-0.5,0.2-0.9,0.3-1.3c0.2-0.4,0.4-0.7,0.6-1.1C166.8,74.2,166.9,74.1,167,74z"/>
		<path class="st3" d="M170,52.9c0-0.1,0-0.2,0-0.3c0-1-0.1-1.9-0.3-2.9c-10.9,1.3-21.9,2.2-32.9,2.7c-12,0.5-24.1,0.4-36.1-0.3
			c-12.1-0.7-24.1-2-36-3.8c-11.9-1.8-23.7-3.7-35.8-4.6C19.6,43,10.2,42.8,0.9,43c0.2,1.4,0.3,2.8,0.2,4.2
			c10.6,0.6,21.1,1.6,31.6,2.7c12.5,1.3,25,2.8,37.5,4.2c12.1,1.3,24.2,2.5,36.4,3.3c12.1,0.8,24.3,1,36.4,0.6
			c9-0.3,18.1-1.1,27-2.4C170,54.7,170,53.8,170,52.9z"/>
		<path class="st3" d="M170.4,58v1.7c-1,0.1-2.1,0.2-3.1,0.3c-6.1,0.5-12.2,0.8-18.4,0.9c-12.3,0.3-24.6,0-36.9-0.7
			c-12.4-0.7-24.8-1.7-37.1-2.9c-12.3-1.2-24.8-2.5-37.2-3.8c-12.2-1.3-24.2-2.6-36.4-3.9c0.5,1.8,0.3,3.7,0.2,5.6
			c5.3,0.3,10.5,0.6,15.8,0.9c10.6,0.7,21.1,1.7,31.7,2.8c10.5,1.1,21.1,2.4,31.5,3.8c2.6,0.3,5.2,0.7,7.8,1.1
			c1.1,0.1,2.3,0.3,3.4,0.5c0.7,0.2,1.7,0.6,1.7,1.3c0,0.7-1,1.1-1.7,1.4c-1.1,0.3-2.2,0.5-3.3,0.7c-2.5,0.5-5,0.9-7.6,1.4
			c-10,1.7-20.2,3.1-30.3,4.2h58.6c0.1-0.1,0.3-0.3,0.4-0.3c0.2-0.1,0.4-0.1,0.6-0.1h29.6c-2-0.4-4-0.7-6-1L123.1,70l-11-1.9
			l-2.6-0.5c-0.8-0.1-1.6-0.3-2.4-0.5c-0.6-0.2-1.2-0.6-0.7-1.2c0.4-0.6,1.4-0.7,2.2-0.7c1.8,0,3.5,0.1,5.3,0.2
			c1.8,0.1,3.7,0.2,5.5,0.3c3.7,0.2,7.3,0.5,11,0.7c7.2,0.4,14.5,0.8,21.7,0.7c5.8,0,11.7-0.4,17.4-1.2c0-0.4,0.1-0.8,0.1-1.2
			c0.1-1.5-0.1-3.2,0.8-4.6c0.1-0.1,0.2-0.2,0.3-0.3C170.6,59.2,170.5,58.6,170.4,58z"/>
		<path class="st3" d="M10.9,68.4c-0.3-0.5-1.2-0.7-1.8-0.8c-1.1-0.1-2.2-0.2-3.3-0.2c-1.1,0-2.1,0-3.2,0.1v4.3
			c1.6-0.4,3.2-0.8,4.7-1.2c0.9-0.2,2.1-0.4,2.9-0.8C10.8,69.5,11.1,68.9,10.9,68.4z"/>
		<path class="st3" d="M66.2,64.7c-0.6-1.2-2.2-1.6-3.7-1.7c-2-0.2-3.9-0.4-5.9-0.6c-3.9-0.4-7.8-0.7-11.8-1c-8-0.6-16-0.9-24-1.1
			c-4.5-0.1-9-0.1-13.5-0.1c-1.7,0-3.5,0-5.2,0.1c0,1.6,0,3.2,0,4.7c2.7,0.1,5.4,0.1,8.2,0.1L24,65.4c1.1,0,2.3,0,3.4,0.1
			c0.8,0,2.2-0.1,2.8,0.4c0.7,0.6-0.3,1.4-1,1.7c-0.9,0.4-1.9,0.6-2.8,0.9c-4.2,1.2-8.4,2.3-12.7,3.2c-2.4,0.5-4.7,1-7.2,1.5H33
			c4.6-0.9,9.1-1.7,13.7-2.6l11.9-2.3c1.9-0.3,3.8-0.7,5.7-1.1C65.6,66.8,66.7,65.9,66.2,64.7z"/>
		<path class="st3" d="M64,44.7c12,4.6,25.7,4.8,38.8,4.1c7.2-0.4,14.3-0.9,21.5-1.4l22.7-1.5c7.3-0.5,14.5-1,21.8-1.5
			c-0.1-1-0.2-1.9-0.3-2.9c-3.6,0.1-7.2,0.2-10.9,0.3l-22.7,0.6l-45.2,1.2l-25.4,0.7C63.9,44.1,63.7,44.6,64,44.7z"/>
		<path class="st3" d="M167,28.7c-2.3-0.2-4.6-0.3-6.9-0.5l-15.6-1l-31.1-2.1l-7.7-0.5l-1.1-0.1c-2.2,0.3-4.4,0.5-6.6,0.5
			c-0.2,0-0.4,0-0.6-0.1c-0.2,0.2-0.4,0.5-0.4,0.8c0,0.7,0.5,1.2,1.4,1.3c1.2,0.2,2.4,0.4,3.6,0.5c1.3,0.2,2.6,0.3,3.8,0.5
			c10.2,1.2,20.3,2.3,30.5,3.3c10.2,1,20.4,1.8,30.7,2.4l0.5,0c0,0,0-0.1,0-0.1c0-0.1,0-0.1,0-0.2C167.5,31.8,167.3,30.3,167,28.7z"
			/>
		<path class="st3" d="M163.8,38.8c-13.2-1.4-26-2.6-39-4.5l-4.7-0.6c-11.1-1.4-22.1-2.9-33-4.9c-3.1-0.6-6.2-1.2-9.2-1.8
			c-1.3-0.3-2.8-0.5-4-1c-0.2-0.1-0.4-0.2-0.5-0.3c-0.4,0-0.7,0.1-1.1,0.1c-2,0.2-4,0.4-5.9,0.6c-3.9,0.4-7.8,0.6-11.8,0.6
			c-7.3,1.1-14.5,2.2-21.8,3.3c-8.1,1.2-16.2,2.5-24.2,3.9c-2.3,0.4-4.6,0.9-7,1.3c-3.5,0.7,0,0,0,0c0,1-0.1,2-0.2,3.1
			c3.3-0.5,6.5-1.1,9.8-1.5c5.5-0.8,11-1.4,16.5-2c10.8-1.1,21.7-1.7,32.5-1.8c11-0.2,21.9,0.1,32.9,0.8c9.7,0.7,19.4,1.6,29,2.6
			l4.1,0.4c12.5,1.5,24.8,3,37.4,2.4C164.2,39.5,164.3,38.9,163.8,38.8z"/>
		<path d="M171.7,55.7l-0.5-3.7c-0.8-5.8-1.5-11.5-2.3-17.3c-0.3-2.5-0.8-5.1-1.2-7.6c-0.1-0.4-0.1-0.7-0.2-1.1l-1.2-0.1l-8.2-0.7
			l-17.6-1.5l-4.3-0.4l-4.8-0.4l-0.9-0.1l-6.8,0.3l-12.5,0.5c-23.2,1-46.4,2-69.6,3.1c-8.3,0.4-16.7,0.8-25,1.2
			c-1.5,0.1-2.9,0.1-4.4,0.2l-2.7,0.9l-0.2,0.1l-5.5,1.8l-0.3,0.1l-1.9,0.7l-1.2,0.4l0,1.1C0.6,39.5,0.7,45.6,1,51.7
			c0.2,7,0.5,14,0.8,21v1c0.1,1.5,0.1,2.9,0.2,4.4c0,0.3,0,0.7,0.1,1h1.5c25.6,0.2,51.1,0.1,76.7,0.1c28.1,0,56.2,0.1,84.3-0.1h1.5
			l0.4-1.2c0.4-1.4,0.9-2.9,1.3-4.3l0.2-0.7c0-0.1,0.1-0.3,0.1-0.4c1-3.4,2-6.9,2.9-10.3c0.2-0.9,0.5-1.8,0.8-2.7l0.4-1.3
			L171.7,55.7z M1.7,33l12-4c19.6-0.7,39.1-1.5,58.7-2.3c19.4-0.8,38.9-1.6,58.3-2.5l2.7-0.1l8.8,0.8l0.8,0.1
			c7.8,0.7,15.7,1.4,23.5,2.1c0.2,2.2,0.4,4.4,0.7,6.6c0.3,2.9,0.7,5.8,1.1,8.7c0.7,5.7,1.5,11.4,2.3,17.1c-1.3,4.4-2.7,8.8-4,13.1
			c-12.2,0-24.4-0.1-36.6-0.1c-29.6,0-59.3,0-88.9,0c-12.6,0-25.1,0-37.7,0.1c-0.1-3-0.3-5.9-0.4-8.9c-0.2-7.2-0.5-14.5-0.8-21.7
			C2,39.1,1.9,36,1.7,33z M164.9,78.1c-11.6,0-23.3-0.1-34.9-0.1c-29.6,0-59.3,0-88.9,0c-12.5,0-25,0-37.5,0.1
			c0-1.5-0.1-2.9-0.1-4.4C29,74,54.6,73.9,80.2,73.9c28.6,0,57.3,0.1,85.9-0.1C165.7,75.3,165.3,76.7,164.9,78.1z"/>
		<path class="st3" d="M100.6,40.2c-2.1-1-4.5-1.7-6.8-2c-2.6-0.4-5.3-0.6-8-0.9c-5.7-0.5-11.3-0.9-17-1.1c-7.1-0.2-14.1-0.2-21.2,0
			c-1.4,0.1-2.8,0.1-4.2,0.2c-9.4,0.5-18.7,1.3-28,3.2c0,0-1.4,0.7,0,1.2h33.7l32.8,0h18.6c0.3,0,0.5-0.2,0.4-0.4
			c0-0.1,0-0.1-0.1-0.2C100.7,40.2,100.7,40.2,100.6,40.2z"/>
		<path class="st4" d="M25.8,28.1c0,0,29.3,41.8,103,45.2H87.5L3,73.2l-1.8-41l12.2-3.5L25.8,28.1z"/>
	</g>
</g>
<g>
	<defs>
		<rect id="SVGID_00000070812750659444556970000013426864056747232640_" x="3.8" y="-73" width="167.4" height="160"/>
	</defs>
	<clipPath id="SVGID_00000011007635920007166940000013752632626454846110_">
		<use xlink:href="#SVGID_00000070812750659444556970000013426864056747232640_"  style="overflow:visible;"/>
	</clipPath>
	<g style="clip-path:url(#SVGID_00000011007635920007166940000013752632626454846110_);">
		<path class="st6" d="M158.6,83.1c1.9,0,3.7,0,5.6-0.1V69.6h0.2V54.2l-0.2,0V5.5h-5.6V54h-0.1v15.7h0.1V83.1z"/>
		<path class="st6" d="M163.8-55.8L163.8-55.8L163.7-73h-5.6v17.4h-0.2v15.1l0.2,0V7.2h5.6v-47.6h0.1V-55.8z"/>
		<path class="st7" d="M163.8-40.3h-3.2V7.2h3.2V-40.3z"/>
		<path d="M158.8,7.2h-1.1c0-7.2,0-14.5,0-21.7l0-24.6c0-0.6,0-1.1,0-1.7c0.4,0,0.7,0,1.1,0c0.2,14.6,0.1,29.2,0.1,43.9
			C158.8,4.5,158.8,5.9,158.8,7.2z"/>
		<path d="M163.5,7.2c0-15.1-0.1-30.1,0-45.2c0-0.8,0-1.6,0-2.4l0.2,0c0.3,0.1,0.6,0,0.8,0c0.1,7,0.1,14.1,0.1,21.1l0,24.6
			c0,0.6,0,1.2,0,1.8H163.5z"/>
		<path d="M158-3.8c0.8,0.8,1.5,1.7,2.4,2.5c1.2,1.1,2.4,2.3,3.7,3.3v0.9c-1.5-1-3-2.2-4.3-3.4c-0.6-0.6-1.2-1.1-1.7-1.7V-3.8z"/>
		<path class="st7" d="M161.8,83.1v-30h-3.2v30C159.6,83.1,160.7,83.1,161.8,83.1z"/>
		<path class="st7" d="M163.8,7.1h-3.2v47.5h3.2V7.1z"/>
		<path class="st7" d="M160.4,52.9C160.4,52.9,160.4,52.8,160.4,52.9L160.4,52.9L160.4,52.9z"/>
		<path d="M157.9,83.1h1.4l0-2.2l0-8.5c0-1.4,0-2.8,0-4.2v-0.9c-0.2,0-0.4-0.1-0.6-0.2l0,0c0,0,0,0-0.1,0.1
			c-0.2,0.2-0.5,0.4-0.8,0.4c0,0.4,0,0.8,0,1.2c0,1.6,0,3.1,0,4.7C157.9,76.7,157.9,79.9,157.9,83.1z"/>
		<path d="M163.9,83l1.4,0c0-0.7,0-1.4,0-2.1l0-8.5c0-1.4,0-2.8,0-4.2c0-0.4,0-0.7,0-1.1c0,0-0.1,0-0.1,0h0c-0.5,0-0.9,0-1.4,0h0
			c0,0.6,0,1.2,0,1.8c0,1.6,0,3.1,0,4.7C163.8,76.7,163.8,79.9,163.9,83z"/>
		<path d="M163.6,7.1h1.1c0,7.2,0,14.5,0,21.7l0,24.6c0,0.6,0,1.1,0,1.7c-0.4,0-0.7,0-1.1,0c-0.2-14.6-0.1-29.2-0.1-43.9
			C163.6,9.8,163.6,8.5,163.6,7.1z"/>
		<path d="M158.9,7.1c0,15.1,0.1,30.1,0,45.2c0,0.8,0,1.6,0,2.4l-0.2,0c-0.3-0.1-0.6,0-0.8,0c-0.1-7-0.1-14.1-0.1-21.1l0-24.6
			c0-0.6,0-1.2,0-1.8H158.9z"/>
		<path d="M164.2,82.5c0.2,0.2,0.4,0.4,0.6,0.6h0.1v-0.9l-0.3-0.3c-0.7-0.7-1.4-1.4-2.2-2c-1.3-1.1-2.7-2.2-4.1-3.2v0.8
			c1.3,1,2.5,2,3.7,3C162.7,81.1,163.4,81.8,164.2,82.5z"/>
		<path d="M164.8,75.8c-1-1-1.9-2-2.9-3c-1.1-1.1-2.3-2.2-3.5-3.2c0.1-0.2,0.1-0.5,0.2-0.7c0,0,0-0.1,0-0.1c1.4,1,2.8,2,4,3.2
			c0.8,0.7,1.5,1.5,2.2,2.2V75.8z"/>
		<path d="M164.3,48.7c-0.1-0.1-0.1-0.1-0.2-0.2c-0.7-0.7-1.4-1.4-2.2-2c-1.2-1.1-2.4-2.1-3.7-3v-0.8c1.4,1,2.8,2,4.1,3.2
			c0.7,0.6,1.3,1.2,1.9,1.8V48.7z"/>
		<path d="M162.4,53.7c0.5,0.4,0.9,0.8,1.3,1.2l0.5-0.1c0-0.3,0.1-0.6,0.1-0.8c-0.4-0.4-0.8-0.7-1.2-1.1c-1.5-1.3-3.2-2.4-4.9-3.4
			v0.9C159.7,51.5,161.1,52.6,162.4,53.7z"/>
		<path d="M164.3,33.1l-0.2-0.2c-0.7-0.7-1.4-1.4-2.2-2c-1.2-1.1-2.4-2.1-3.7-3v-0.8c1.4,1,2.8,2,4.1,3.2c0.7,0.6,1.3,1.2,1.9,1.8
			V33.1z"/>
		<path d="M164.3,40.6c-0.8-0.8-1.5-1.7-2.3-2.5c-1.2-1.1-2.4-2.2-3.7-3.3V34c1.5,1,3,2.2,4.3,3.4c0.6,0.5,1.1,1.1,1.7,1.7V40.6z"/>
		<path d="M163.9,25.3c-0.6-0.7-1.3-1.4-1.9-2c-1.1-1.1-2.3-2.2-3.5-3.2c0.1-0.2,0.1-0.5,0.2-0.7c0,0,0-0.1,0-0.1c1.4,1,2.8,2,4,3.2
			c0.4,0.4,0.9,0.8,1.3,1.2V25.3z"/>
		<path d="M164.3,18.2c-0.8-0.8-1.5-1.7-2.4-2.5c-1.2-1.1-2.4-2.2-3.7-3.3v-0.9c1.5,1,3,2.2,4.3,3.4c0.6,0.6,1.2,1.1,1.7,1.7V18.2z"
			/>
		<path d="M163.7,55.1l0.2,12l0.5,1l1.1-0.9c-0.2-4-0.4-8-0.6-12.1l-0.6-1.3L163.7,55.1z"/>
		<path d="M159.4,67.4l-0.6-12.7l-0.6-1.2l-0.4,1.2l0,13c0,0,0.5,0.9,0.5,0.9S159.4,67.4,159.4,67.4z"/>
		<path d="M164.5,69.3c-0.2-0.2-0.4-0.4-0.7-0.7c-0.7-0.7-1.4-1.4-2.2-2c-1.2-1.1-2.4-2.1-3.7-3v-0.8c1.4,1,2.8,2,4.1,3.2
			c0.7,0.7,1.5,1.3,2.2,2c0.1,0.1,0.2,0.2,0.3,0.3V69.3z"/>
		<path d="M164.5,62c-1-1-1.9-2-2.9-3c-1.1-1.1-2.3-2.2-3.5-3.2c0.1-0.2,0.1-0.5,0.2-0.7c0,0,0-0.1,0-0.1c1.4,1,2.8,2,4,3.2
			c0.8,0.7,1.5,1.5,2.2,2.2V62z"/>
		<path d="M164.3,10.4c-0.8-0.8-1.5-1.7-2.4-2.5c-1.2-1.1-2.4-2.2-3.7-3.3V3.7c1.5,1,3,2.2,4.3,3.4c0.6,0.6,1.2,1.1,1.7,1.7V10.4z"
			/>
		<path class="st6" d="M10.6,84.2c1.9,0.3,3.7,0.5,5.6,0.5V69.6h0.2V54.2l-0.2,0V5.5h-5.6V54h-0.1v15.7h0.1V84.2z"/>
		<path class="st6" d="M15.8-55.8L15.8-55.8L15.7-73h-5.6v17.4H9.9v15.1l0.2,0V7.2h5.6v-47.6h0.1V-55.8z"/>
		<path class="st7" d="M15.8-40.3h-3.2V7.2h3.2V-40.3z"/>
		<path d="M10.8,7.2H9.7c0-7.2,0-14.5,0-21.7l0-24.6c0-0.6,0-1.1,0-1.7c0.4,0,0.7,0,1.1,0c0.2,14.6,0.1,29.2,0.1,43.9L10.8,7.2z"/>
		<path d="M15.5,7.2c0-15.1-0.1-30.1,0-45.2c0-0.8,0-1.6,0-2.4l0.2,0c0.3,0.1,0.6,0,0.8,0c0.1,7,0.1,14.1,0.1,21.1l0,24.6
			c0,0.6,0,1.2,0,1.8H15.5z"/>
		<path d="M10-3.8c0.8,0.8,1.5,1.7,2.4,2.5c1.2,1.1,2.4,2.3,3.7,3.3v0.9c-1.5-1-3-2.2-4.3-3.4c-0.6-0.6-1.2-1.1-1.7-1.7V-3.8z"/>
		<path class="st7" d="M13.7,84.6V53.1h-3.2v31.1C11.6,84.4,12.7,84.5,13.7,84.6z"/>
		<path class="st7" d="M15.8,7.1h-3.2v47.5h3.2V7.1z"/>
		<path class="st7" d="M12.4,52.9C12.4,52.9,12.4,52.8,12.4,52.9L12.4,52.9C12.4,52.9,12.4,52.9,12.4,52.9z"/>
		<path d="M9.9,84.1c0.5,0.1,0.9,0.2,1.4,0.3c0-1.1,0-2.2,0-3.4l0-8.5c0-1.4,0-2.8,0-4.2v-0.8c-0.2,0-0.4-0.1-0.6-0.2l0,0
			c0,0,0,0-0.1,0.1c-0.2,0.2-0.5,0.4-0.8,0.4c0,0.4,0,0.8,0,1.2c0,1.6,0,3.1,0,4.7C9.9,77,9.9,80.5,9.9,84.1z"/>
		<path d="M15.9,84.7c0.5,0,0.9,0,1.4,0c0-1.3,0-2.5,0-3.8l0-8.5c0-1.4,0-2.8,0-4.2c0-0.4,0-0.7,0-1.1c0,0-0.1,0-0.1,0h0
			c-0.5,0-0.9,0-1.4,0h0c0,0.6,0,1.2,0,1.8c0,1.6,0,3.1,0,4.7C15.8,77.3,15.8,81,15.9,84.7z"/>
		<path d="M15.6,7.1h1.1c0,7.2,0,14.5,0,21.7c0,8.2,0,16.4,0.1,24.6c0,0.6,0,1.1,0,1.7c-0.4,0-0.7,0-1.1,0
			c-0.2-14.6-0.1-29.2-0.1-43.9L15.6,7.1z"/>
		<path d="M10.8,7.1c0,15.1,0.1,30.1,0,45.2c0,0.8,0,1.6,0,2.4l-0.2,0c-0.3-0.1-0.6,0-0.8,0c-0.1-7-0.1-14.1-0.1-21.1l0-24.6V7.1
			H10.8z"/>
		<path d="M16.8,83.1c-0.2-0.2-0.4-0.4-0.7-0.7c-0.7-0.7-1.4-1.4-2.2-2c-1.2-1.1-2.4-2.1-3.7-3v-0.8c1.4,1,2.8,2,4.1,3.2
			c0.7,0.7,1.5,1.3,2.2,2l0.3,0.3V83.1z"/>
		<path d="M11.4,84.3c-0.4-0.3-0.8-0.6-1.2-0.8v0.6C10.7,84.2,11.1,84.3,11.4,84.3z"/>
		<path d="M16.8,75.8c-0.9-1-1.9-2-2.9-3c-1.1-1.1-2.3-2.2-3.5-3.2c0.1-0.2,0.1-0.5,0.2-0.7c0,0,0-0.1,0-0.1c1.4,1,2.8,2,4,3.2
			c0.8,0.7,1.5,1.5,2.2,2.2V75.8z"/>
		<path d="M16.3,48.7l-0.2-0.2c-0.7-0.7-1.4-1.4-2.2-2c-1.2-1.1-2.4-2.1-3.7-3v-0.8c1.4,1,2.8,2,4.1,3.2c0.7,0.6,1.3,1.2,1.9,1.8
			V48.7z"/>
		<path d="M14.4,53.7c0.5,0.4,0.9,0.8,1.3,1.2l0.5-0.1c0-0.3,0.1-0.6,0.1-0.8c-0.4-0.4-0.8-0.7-1.2-1.1c-1.5-1.3-3.2-2.4-4.9-3.4
			v0.9C11.7,51.5,13.1,52.6,14.4,53.7z"/>
		<path d="M16.3,33.1l-0.2-0.2c-0.7-0.7-1.4-1.3-2.2-2c-1.2-1.1-2.4-2.1-3.7-3v-0.8c1.4,1,2.8,2,4.1,3.2c0.7,0.6,1.3,1.2,1.9,1.8
			V33.1z"/>
		<path d="M16.3,40.6c-0.8-0.8-1.5-1.7-2.3-2.5c-1.2-1.1-2.4-2.2-3.7-3.3V34c1.5,1,3,2.2,4.3,3.4c0.6,0.5,1.1,1.1,1.7,1.7V40.6z"/>
		<path d="M15.9,25.3c-0.6-0.7-1.3-1.4-1.9-2c-1.1-1.1-2.3-2.2-3.5-3.2c0.1-0.2,0.1-0.5,0.2-0.7c0,0,0-0.1,0-0.1c1.4,1,2.8,2,4,3.2
			c0.4,0.4,0.9,0.8,1.3,1.2L15.9,25.3z"/>
		<path d="M16.3,18.2c-0.8-0.8-1.5-1.7-2.4-2.5c-1.2-1.1-2.4-2.2-3.7-3.3v-0.9c1.5,1,3,2.2,4.3,3.4c0.6,0.6,1.2,1.1,1.7,1.7V18.2z"
			/>
		<path d="M15.7,55.1l0.2,12l0.5,1l1.1-0.9l-0.6-12.1l-0.6-1.3L15.7,55.1z"/>
		<path d="M11.4,67.4l-0.6-12.7l-0.6-1.2l-0.4,1.2l0,13c0,0,0.5,0.9,0.5,0.9C10.5,68.5,11.4,67.4,11.4,67.4z"/>
		<path d="M16.5,69.3c-0.2-0.2-0.4-0.4-0.7-0.7c-0.7-0.7-1.4-1.4-2.2-2c-1.2-1.1-2.4-2.1-3.7-3v-0.8c1.4,1,2.8,2,4.1,3.2
			c0.7,0.7,1.5,1.3,2.2,2l0.3,0.3V69.3z"/>
		<path d="M16.5,62c-0.9-1-1.9-2-2.9-3c-1.1-1.1-2.3-2.2-3.5-3.2c0.1-0.2,0.1-0.5,0.2-0.7c0,0,0-0.1,0-0.1c1.4,1,2.8,2,4,3.2
			c0.8,0.7,1.5,1.5,2.2,2.2V62z"/>
		<path d="M16.3,10.4c-0.8-0.8-1.5-1.7-2.4-2.5c-1.2-1.1-2.4-2.2-3.7-3.3V3.7c1.5,1,3,2.2,4.3,3.4c0.6,0.6,1.2,1.1,1.7,1.7V10.4z"/>
		<path class="st6" d="M21.7,78.2c0,0,0.2-0.1,1.1-2.6c0.1-0.6,0.1-1.2,0-1.8c-0.3-0.2-0.6-0.5-0.8-0.7c-0.5-0.4-1.5-0.7-2.4-1.2
			c-1.1-0.1-2.3-0.1-3.4-0.2c-1-0.1-1.9-0.2-2.9-0.4c-1-0.1-1.9-0.2-2.9-0.3c0,0-0.1,0-0.1,0c-0.9,0-1.7,0-1.8,0l-1.3,0.6l-1.4,2
			c0,0-0.2,2.2-0.2,2.5c0,0.3,1.6,2.4,1.6,2.4l-0.6,1.2l-1.3,3.2c0,0,2.8,2.5,3.2,2.8c0.2,0.1,1,0.3,2.3,0.4c0-0.1,0-0.1,0.1-0.1
			c0,0,0.1-0.1,0.2-0.1c1.5,0,3.1,0.1,4.6,0.1c0.8,0,1.5,0,2.2,0.1c0.2,0,0.4,0,0.7,0l0.3,0c4.8-1,4-4.7,4-4.7L21.7,78.2z"/>
		<path class="st7" d="M22.6,73.6c-0.6-1-2.4-1.3-3.4-2c-0.2-0.1-0.4-0.3-0.6-0.5c-0.1,0.2-0.2,0.3-0.3,0.5c-0.8,0.1-1.6,0-2.4-0.1
			c-0.2,0-0.3,0-0.5,0c-0.5-0.1-1-0.1-1.5-0.3c-0.1,0-0.2,0-0.3,0c-0.1,0-0.2,0.1-0.2,0.2c-0.3-0.1-0.7-0.3-1-0.4
			c-0.1,0-0.2,0-0.3,0c-0.1,0-0.2,0.1-0.2,0.1c-0.1-0.2-0.3-0.4-0.4-0.5c-0.2-0.3-0.7,0.1-0.5,0.4c0.5,0.9,1.1,1.8,1.8,2.6
			c0.7,0.7,1.6,1.4,2.4,1.9c1.6,0.9,3.3,1.5,5.1,1.6c0.8,0.1,1.6-0.2,2.3-0.6C22.9,75.5,23,74.3,22.6,73.6z"/>
		<path class="st7" d="M11.6,79.2c0.1,0.1,0.2,0.2,0.3,0.3c0.1-0.2,0.2-0.3,0.4-0.3c0.2-0.1,0.3-0.1,0.5-0.1c1.9,0.5,3.9,0.5,5.8,0
			c0.9-0.2,1.8-0.5,2.7-0.3c0.4,0.1,0.7,0.2,1,0.5c0.3,0.2,0.5,0.6,0.6,0.9c0.5,1.6-1,3-2.4,3.2c-1.7,0.3-3.4,0.2-5-0.4
			c-1.8-0.6-3.4-1.6-4.7-3.1c-0.1-0.1-0.1-0.2-0.1-0.4c0-0.1,0.1-0.3,0.1-0.4c0.1-0.1,0.2-0.1,0.4-0.1
			C11.4,79.1,11.5,79.1,11.6,79.2z"/>
		<path d="M22.2,74.3c0.1,0.8,0,1.7-0.5,2.4c-0.6,1-1.6,1.5-2.7,1.7c-1.3,0.2-2.6,0.3-3.9,0.3c-1.5,0-3-0.1-4.5-0.3
			c-1.2-0.1-2.5-0.4-3.5-1.1c-1-0.8-1.3-1.8-0.9-2.9C6.5,74,6.7,73.6,7,73.3c0.2-0.2,0.3-0.5,0.5-0.7c1-1.1,2.5-1.2,4-1.2
			c0-0.2,0-0.4,0-0.7c-2.9-0.4-6.3,1-6.8,4.1c-0.2,1.5,0.5,2.8,1.7,3.7c1.3,1,3.1,1.2,4.7,1.4c1.8,0.2,3.6,0.3,5.4,0.2
			c1.6-0.1,3.3-0.2,4.7-1.1c0.7-0.4,1.3-1,1.7-1.8c0.4-0.7,0.6-1.5,0.6-2.4C23.1,74.9,22.6,74.6,22.2,74.3z"/>
		<path d="M4.8,81.5c0.2-1.6,1.3-2.8,2.6-3.5c0.5,0.3,1.1,0.5,1.7,0.7c-0.1,0-0.3,0.1-0.4,0.1c-0.5,0.2-1,0.4-1.4,0.8
			c-0.4,0.4-0.7,0.8-0.9,1.4c-0.2,0.5-0.2,1.1-0.1,1.6c0.2,0.5,0.5,1,1,1.3c1,0.8,2.3,1,3.5,1.1c1.5,0.2,3,0.3,4.5,0.3
			c1.3,0,2.6,0,3.9-0.3c1.1-0.2,2.2-0.7,2.7-1.7c0.5-0.9,0.6-1.9,0.4-2.9c-0.1-0.5-0.4-0.9-0.7-1.3c-0.3-0.4-0.7-0.7-1.1-0.8
			c0.4-0.2,0.7-0.5,0.9-0.9c0.6,0.4,1.2,0.9,1.6,1.5c1.4,2.2,0.6,5.4-1.6,6.8c-1.4,0.9-3.1,1-4.7,1.1c-1.8,0.1-3.6,0-5.4-0.2
			c-1.6-0.2-3.3-0.4-4.7-1.4c-0.6-0.4-1.1-1-1.4-1.7C4.8,83,4.7,82.3,4.8,81.5z"/>
		<path d="M15.6,71.7c0-0.3,0.4-0.3,0.4,0c0.2,0.8,0.3,1.6,0.5,2.3c0.2,0.7,0.5,1.4,0.9,2c0.7,1.1,1.8,1.8,3,2.2
			c0.3,0.1,0.2,0.7-0.1,0.7c-0.7-0.1-1.4-0.4-1.9-0.8c-0.6-0.4-1.1-0.9-1.5-1.5c-0.5-0.7-0.8-1.4-1.1-2.2
			C15.7,73.5,15.6,72.6,15.6,71.7z"/>
		<path d="M10.1,71.3c0.1-0.2,0.3,0,0.4,0.1c0.1,0.3,0.1,0.7,0,1.1c0,0.3,0,0.7,0.1,1c0.1,0.7,0.2,1.4,0.4,2c0.4,1.2,1.1,2.3,2,3.2
			c0.3,0.2,0,0.9-0.3,0.6c-1.1-0.9-1.9-2.1-2.3-3.5c-0.2-0.7-0.4-1.5-0.5-2.3C9.9,72.9,9.8,71.9,10.1,71.3z"/>
		<path d="M16.3,79.8C16.3,79.8,16.3,79.8,16.3,79.8c0.1-0.1,0.1-0.1,0.1-0.1c0,0,0.1,0,0.1,0c0,0,0.1,0,0.1,0.1
			c0.1,0.3,0.2,0.5,0.3,0.8c0.1,0.3,0.2,0.5,0.3,0.8c0.3,0.8,0.8,1.5,1.4,2.2c0.6,0.6,1.4,1.1,2.2,1.4c0.3,0.1,0.2,0.7-0.2,0.6
			c-1.2-0.4-2.3-1.2-3.1-2.2c-0.4-0.5-0.7-1.1-0.9-1.6C16.3,81.2,16.1,80.4,16.3,79.8z"/>
		<path d="M9.8,78.9C9.9,78.9,9.9,78.8,9.8,78.9c0.1-0.1,0.2-0.1,0.2-0.1c0,0,0.1,0,0.1,0.1c0,0,0,0.1,0,0.1c0,0.7-0.1,1.4,0,2.2
			c0.1,0.7,0.3,1.5,0.6,2.1c0.6,1.2,1.6,2.2,2.8,2.8c0.3,0.2,0,0.7-0.3,0.5c-1.4-0.7-2.5-1.7-3.2-3.1c-0.3-0.7-0.6-1.5-0.7-2.2
			C9.4,80.5,9.4,79.6,9.8,78.9z"/>
		<path d="M21.8,72c-1.3-1-3.1-1.2-4.7-1.4c-1.8-0.2-3.6-0.3-5.4-0.2c-1.6,0.1-3.3,0.2-4.7,1.1c-0.6,0.4-1.2,0.9-1.6,1.5
			c-0.4,0.6-0.6,1.3-0.7,2.1c0.3,0.2,0.5,0.4,0.7,0.7c0.2,0.3,0.3,0.6,0.3,0.9c0.2,0.5,0.5,1,0.9,1.5c0.1-0.1,0.2-0.1,0.2-0.2
			c-0.4-0.4-0.6-0.8-0.8-1.3C6,76.1,6,75.7,6,75.2c0.1-0.5,0.2-0.9,0.5-1.4c0.6-1,1.6-1.5,2.7-1.7c1.3-0.2,2.6-0.3,3.9-0.3
			c1.5,0,3,0.1,4.5,0.3c1.2,0.1,2.5,0.4,3.5,1.1c1,0.8,1.3,1.8,0.9,2.9c-0.1,0.3-0.2,0.5-0.4,0.8c-0.1,0.2-0.2,0.3-0.3,0.5
			c-0.1,0.2-0.2,0.3-0.4,0.5c-0.3,0.7-0.8,1.3-1.4,1.6c-0.1,0-0.2,0.1-0.3,0.1c2.1-0.4,4-1.8,4.3-4C23.7,74.2,23,72.8,21.8,72z"/>
		<path class="st6" d="M155.3,27.2c0.7,0.5,1.8,0.5,2.6,0.6c1.5,0.2,2.9,0.2,4.4,0.4c2.6,0.2,4.6-0.1,6.7-1.6c0.2-0.3,0.4-1,0.9-2.3
			c0.1-0.6,0.1-1.2,0-1.8c-0.3-0.3-0.6-0.5-0.9-0.7c-0.5-0.4-1.5-0.7-2.4-1.2c-1.1-0.1-2.3-0.1-3.4-0.2c-1-0.1-1.9-0.2-2.9-0.4
			c-1-0.1-1.9-0.2-2.9-0.3c0,0-0.1,0-0.1,0c-0.9,0-1.7,0-1.8,0l-1.3,0.6l-1.4,2c0,0-0.3,2.2-0.3,2.5c0,0.2,0.8,1.4,1.3,2
			C154.6,26.8,155,26.9,155.3,27.2z"/>
		<path class="st7" d="M169.9,22.2c-0.6-1-2.4-1.3-3.4-2c-0.2-0.1-0.4-0.3-0.6-0.5c-0.1,0.2-0.2,0.3-0.3,0.5c-0.8,0.1-1.6,0-2.4-0.1
			c-0.2,0-0.3,0-0.5,0c-0.5-0.1-1-0.1-1.5-0.3c-0.1,0-0.2,0-0.3,0c-0.1,0-0.2,0.1-0.2,0.2c-0.3-0.1-0.7-0.3-1-0.4
			c-0.1,0-0.2-0.1-0.3,0c-0.1,0-0.2,0.1-0.3,0.1c-0.1-0.2-0.3-0.4-0.4-0.5c-0.2-0.3-0.7,0.1-0.5,0.4c0.5,0.9,1.1,1.8,1.8,2.6
			c2.1,2,4.7,3.3,7.6,3.5c0.8,0.1,1.6-0.2,2.3-0.6C170.2,24.1,170.3,22.9,169.9,22.2z"/>
		<path d="M169.5,22.9c0.1,0.8,0,1.7-0.5,2.4c-0.6,1-1.6,1.5-2.7,1.7c-1.3,0.2-2.6,0.3-3.9,0.3c-1.5,0-3-0.1-4.5-0.3
			c-1.2-0.1-2.5-0.4-3.5-1.1c-0.5-0.3-0.8-0.8-1-1.3c-0.2-0.5-0.1-1.1,0.1-1.6c0.2-0.4,0.4-0.8,0.7-1.1c0.2-0.2,0.3-0.5,0.5-0.7
			c1-1.2,2.5-1.2,4-1.2c0-0.2,0-0.4,0-0.7c-2.9-0.4-6.3,1-6.7,4.1c-0.2,1.5,0.5,2.8,1.7,3.7c1.3,1,3.1,1.2,4.7,1.4
			c1.8,0.2,3.6,0.3,5.4,0.2c1.6-0.1,3.3-0.2,4.7-1.1c0.7-0.4,1.3-1,1.7-1.8c0.4-0.7,0.6-1.5,0.6-2.4
			C170.3,23.5,169.9,23.3,169.5,22.9z"/>
		<path d="M162.9,20.3c0-0.3,0.4-0.3,0.4,0c0.2,0.8,0.3,1.6,0.5,2.3c0.2,0.7,0.5,1.4,0.9,2c0.7,1.1,1.8,1.8,3,2.2
			c0.3,0.1,0.2,0.7-0.1,0.7c-0.7-0.1-1.4-0.4-1.9-0.8c-0.6-0.4-1.1-0.9-1.5-1.5c-0.5-0.7-0.8-1.4-1.1-2.2
			C162.9,22.2,162.8,21.2,162.9,20.3z"/>
		<path d="M157.4,20c0.1-0.2,0.3,0,0.4,0.1c0.1,0.3,0.1,0.7,0,1.1c0,0.3,0,0.7,0,1c0.1,0.7,0.2,1.4,0.4,2c0.4,1.2,1.1,2.3,2,3.2
			c0.3,0.2,0,0.9-0.3,0.6c-1.1-0.9-1.9-2.1-2.3-3.5c-0.2-0.7-0.4-1.5-0.5-2.3C157.2,21.6,157,20.6,157.4,20z"/>
		<path d="M169.1,20.6c-1.3-1-3.1-1.2-4.7-1.4c-1.8-0.2-3.6-0.3-5.4-0.2c-1.6,0.1-3.3,0.2-4.7,1.1c-0.6,0.4-1.2,0.9-1.5,1.5
			c-0.4,0.6-0.6,1.3-0.7,2.1c0.3,0.2,0.5,0.4,0.7,0.7c0.2,0.3,0.3,0.6,0.3,0.9c0.2,0.6,0.5,1.1,0.9,1.5c0.1-0.1,0.2-0.1,0.2-0.2
			c-0.4-0.4-0.6-0.8-0.8-1.3c-0.1-0.5-0.2-1-0.1-1.4c0.1-0.5,0.2-0.9,0.5-1.4c0.6-1,1.6-1.5,2.7-1.7c1.3-0.2,2.6-0.3,3.9-0.3
			c1.5,0,3,0.1,4.5,0.3c1.2,0.1,2.5,0.4,3.5,1.1c1,0.8,1.3,1.8,0.9,2.9c-0.1,0.3-0.3,0.5-0.4,0.8c-0.1,0.2-0.2,0.3-0.3,0.5
			c-0.1,0.2-0.3,0.3-0.4,0.5c-0.3,0.7-0.8,1.3-1.4,1.6c-0.1,0-0.2,0.1-0.3,0.1c2.1-0.4,4-1.8,4.3-4C171,22.8,170.3,21.5,169.1,20.6z
			"/>
		<path class="st6" d="M169.4,78.2c0,0,0.2-0.1,1.1-2.6c0.1-0.6,0.1-1.2,0-1.8c-0.3-0.3-0.6-0.5-0.8-0.7c-0.5-0.4-1.5-0.7-2.4-1.2
			c-1.1-0.1-2.3-0.1-3.4-0.2c-1-0.1-1.9-0.2-2.9-0.4s-1.9-0.2-2.9-0.3c0,0-0.1,0-0.1,0c-0.9,0-1.7,0-1.8,0l-1.3,0.6l-1.4,2
			c0,0-0.3,2.2-0.3,2.5c0,0.3,1.6,2.4,1.6,2.4l-0.6,1.2l-1.3,3.2c0,0,2.8,2.5,3.2,2.8c0.2,0.1,1,0.3,2.3,0.4c0-0.1,0-0.1,0.1-0.1
			c0,0,0.1-0.1,0.2-0.1c1.5,0,3.1,0.1,4.6,0.1c0.8,0,1.5,0,2.2,0.1c0.2,0,0.4,0,0.7,0l0.3,0c4.8-1,4-4.7,4-4.7L169.4,78.2z"/>
		<path class="st7" d="M170.3,73.6c-0.6-1-2.4-1.3-3.4-2c-0.2-0.1-0.4-0.3-0.6-0.5c-0.1,0.2-0.2,0.3-0.3,0.5c-0.8,0.1-1.6,0-2.4-0.1
			c-0.2,0-0.3,0-0.5,0c-0.5-0.1-1-0.1-1.5-0.3c-0.1,0-0.2,0-0.3,0c-0.1,0-0.2,0.1-0.2,0.2c-0.3-0.1-0.7-0.3-1-0.4
			c-0.1,0-0.2-0.1-0.3,0c-0.1,0-0.2,0.1-0.3,0.1c-0.1-0.2-0.3-0.4-0.4-0.5c-0.2-0.3-0.7,0.1-0.5,0.4c0.5,0.9,1.1,1.8,1.8,2.6
			c2.1,2,4.7,3.2,7.6,3.5c0.8,0.1,1.6-0.2,2.3-0.6C170.6,75.5,170.7,74.3,170.3,73.6z"/>
		<path class="st7" d="M159.3,79.2c0.1,0.1,0.2,0.2,0.3,0.3c0.1-0.2,0.2-0.3,0.4-0.3c0.2-0.1,0.3-0.1,0.5-0.1c1.9,0.5,3.9,0.5,5.8,0
			c0.9-0.2,1.8-0.5,2.7-0.3c0.4,0.1,0.7,0.2,1,0.5c0.3,0.2,0.5,0.6,0.6,0.9c0.5,1.6-1,3-2.4,3.2c-1.8,0.3-3.6,0.1-5.3-0.5
			c-1.7-0.6-3.2-1.6-4.4-3c0,0-0.1-0.1-0.1-0.2c0-0.1,0-0.1,0-0.2c0-0.1,0-0.1,0-0.2c0-0.1,0.1-0.1,0.1-0.2c0,0,0.1-0.1,0.2-0.1
			c0.1,0,0.1,0,0.2,0c0.1,0,0.1,0,0.2,0C159.2,79.1,159.2,79.2,159.3,79.2z"/>
		<path d="M169.9,74.3c0.1,0.8,0,1.7-0.4,2.4c-0.6,1-1.6,1.5-2.7,1.7c-1.3,0.2-2.6,0.3-3.9,0.3c-1.5,0-3-0.1-4.5-0.3
			c-1.2-0.1-2.5-0.4-3.5-1.1c-0.5-0.3-0.8-0.8-1-1.3c-0.2-0.5-0.1-1.1,0.1-1.6c0.2-0.4,0.4-0.8,0.7-1.1c0.2-0.2,0.3-0.5,0.5-0.7
			c1-1.1,2.5-1.2,4-1.2c0-0.2,0-0.4,0-0.7c-2.9-0.4-6.3,1-6.7,4.1c-0.2,1.5,0.5,2.8,1.7,3.7c1.3,1,3.1,1.2,4.7,1.4
			c1.8,0.2,3.6,0.3,5.4,0.2c1.6-0.1,3.3-0.2,4.7-1.1c0.7-0.4,1.3-1,1.7-1.8c0.4-0.7,0.6-1.5,0.6-2.4
			C170.7,74.9,170.3,74.6,169.9,74.3z"/>
		<path d="M152.4,81.5c0.2-1.6,1.3-2.8,2.6-3.5c0.5,0.3,1.1,0.5,1.7,0.7c-0.1,0-0.3,0.1-0.4,0.1c-0.5,0.2-1,0.4-1.4,0.8
			c-0.4,0.4-0.7,0.8-0.9,1.4c-0.2,0.5-0.2,1.1-0.1,1.6c0.2,0.5,0.5,1,1,1.3c1,0.8,2.3,1,3.5,1.1c1.5,0.2,3,0.3,4.5,0.3
			c1.3,0,2.6,0,3.9-0.3c1.1-0.2,2.2-0.7,2.7-1.7c0.5-0.9,0.6-1.9,0.4-2.9c-0.1-0.5-0.4-0.9-0.7-1.3c-0.3-0.4-0.7-0.7-1.1-0.8
			c0.4-0.2,0.7-0.5,0.9-0.9c0.6,0.4,1.2,0.9,1.6,1.5c1.4,2.2,0.6,5.4-1.6,6.8c-1.4,0.9-3.1,1-4.7,1.1c-1.8,0.1-3.6,0-5.4-0.2
			c-1.6-0.2-3.3-0.4-4.7-1.4C152.9,84.4,152.2,83,152.4,81.5z"/>
		<path d="M163.3,71.7c0-0.3,0.4-0.3,0.4,0c0.2,0.8,0.3,1.6,0.5,2.3c0.2,0.7,0.5,1.4,0.9,2c0.7,1.1,1.8,1.8,3,2.2
			c0.3,0.1,0.2,0.7-0.1,0.7c-0.7-0.1-1.4-0.4-1.9-0.8c-0.6-0.4-1.1-0.9-1.5-1.5c-0.5-0.7-0.8-1.4-1.1-2.2
			C163.4,73.5,163.2,72.6,163.3,71.7z"/>
		<path d="M157.8,71.3c0.1-0.2,0.3,0,0.4,0.1c0.1,0.3,0.1,0.7,0,1.1c0,0.3,0,0.7,0,1c0.1,0.7,0.2,1.4,0.4,2c0.4,1.2,1.1,2.3,2,3.2
			c0.3,0.2,0,0.9-0.3,0.6c-1.1-0.9-1.9-2.1-2.3-3.5c-0.2-0.7-0.4-1.5-0.5-2.3C157.6,72.9,157.5,71.9,157.8,71.3z"/>
		<path d="M164,79.8C164,79.8,164,79.8,164,79.8c0.1-0.1,0.1-0.1,0.1-0.1c0,0,0.1,0,0.1,0c0,0,0.1,0,0.1,0.1
			c0.1,0.3,0.2,0.5,0.3,0.8c0.1,0.3,0.2,0.5,0.3,0.8c0.3,0.8,0.8,1.5,1.4,2.2c0.6,0.6,1.4,1.1,2.2,1.4c0.3,0.1,0.2,0.7-0.2,0.6
			c-1.2-0.4-2.3-1.2-3.1-2.2c-0.4-0.5-0.7-1.1-0.9-1.6C164,81.2,163.8,80.4,164,79.8z"/>
		<path d="M157.5,78.9C157.6,78.9,157.6,78.8,157.5,78.9c0.1-0.1,0.2-0.1,0.2-0.1c0,0,0.1,0,0.1,0.1c0,0,0,0.1,0,0.1
			c0,0.7-0.1,1.4,0,2.2c0.1,0.7,0.3,1.5,0.6,2.1c0.6,1.2,1.6,2.2,2.8,2.8c0.3,0.2,0,0.7-0.3,0.5c-1.4-0.7-2.5-1.7-3.2-3.1
			c-0.3-0.7-0.6-1.5-0.7-2.2C157.1,80.5,157.1,79.6,157.5,78.9z"/>
		<path d="M169.5,72c-1.3-1-3.1-1.2-4.7-1.4c-1.8-0.2-3.6-0.3-5.4-0.2c-1.6,0.1-3.3,0.2-4.7,1.1c-0.6,0.4-1.2,0.9-1.5,1.5
			c-0.4,0.6-0.6,1.3-0.7,2.1c0.3,0.2,0.5,0.4,0.7,0.7c0.2,0.3,0.3,0.6,0.3,0.9c0.2,0.6,0.5,1.1,0.9,1.5c0.1-0.1,0.2-0.1,0.2-0.2
			c-0.4-0.4-0.6-0.8-0.8-1.3c-0.1-0.5-0.2-1-0.1-1.4c0.1-0.5,0.2-0.9,0.5-1.4c0.6-1,1.6-1.5,2.7-1.7c1.3-0.2,2.6-0.3,3.9-0.3
			c1.5,0,3,0.1,4.5,0.3c1.2,0.1,2.5,0.4,3.5,1.1c1,0.8,1.3,1.8,0.9,2.9c-0.1,0.3-0.3,0.5-0.4,0.8c-0.1,0.2-0.2,0.3-0.3,0.5
			c-0.1,0.2-0.3,0.3-0.4,0.5c-0.3,0.7-0.8,1.3-1.4,1.6c-0.1,0-0.2,0.1-0.3,0.1c2.1-0.4,4-1.8,4.3-4C171.4,74.2,170.7,72.8,169.5,72z
			"/>
		<path class="st6" d="M8.3,29.9c0.7,0.5,1.8,0.5,2.6,0.6c1.5,0.2,2.9,0.2,4.4,0.4c2.6,0.2,4.6-0.1,6.7-1.6c0.2-0.3,0.4-1,0.9-2.3
			c0.1-0.6,0.1-1.2,0-1.8c-0.3-0.3-0.5-0.5-0.8-0.7c-0.5-0.4-1.5-0.7-2.4-1.2c-1.1-0.1-2.3-0.1-3.4-0.2c-1-0.1-1.9-0.2-2.9-0.4
			c-1-0.1-1.9-0.2-2.9-0.3c0,0-0.1,0-0.1,0c-0.9,0-1.7,0-1.8,0L7.5,23l-1.4,2c0,0-0.3,2.2-0.3,2.5c0,0.2,0.8,1.4,1.3,2
			C7.5,29.4,8,29.6,8.3,29.9z"/>
		<path class="st7" d="M22.8,24.9c-0.6-1-2.4-1.3-3.4-2c-0.2-0.1-0.4-0.3-0.6-0.5c-0.1,0.2-0.2,0.3-0.3,0.5c-0.8,0.1-1.6,0-2.4-0.1
			c-0.2,0-0.3,0-0.5,0c-0.5-0.1-1-0.1-1.5-0.3c-0.1,0-0.2,0-0.3,0c-0.1,0-0.2,0.1-0.2,0.2c-0.3-0.1-0.7-0.3-1-0.4
			c-0.1,0-0.2-0.1-0.3,0c-0.1,0-0.2,0.1-0.3,0.1c-0.1-0.2-0.3-0.4-0.4-0.5c-0.2-0.3-0.7,0.1-0.5,0.4c0.5,0.9,1.1,1.8,1.8,2.6
			c0.7,0.7,1.6,1.4,2.4,1.9c1.6,0.9,3.3,1.5,5.1,1.6c0.8,0.1,1.6-0.2,2.3-0.6C23.2,26.8,23.3,25.6,22.8,24.9z"/>
		<path d="M22.5,25.6c0.1,0.8,0,1.7-0.5,2.4c-0.6,1-1.6,1.5-2.7,1.7C18,29.9,16.7,30,15.4,30c-1.5,0-3-0.1-4.5-0.3
			c-1.2-0.1-2.5-0.4-3.5-1.1c-1-0.8-1.3-1.8-0.9-2.9c0.2-0.4,0.4-0.8,0.7-1.1c0.2-0.2,0.3-0.5,0.5-0.7c1-1.2,2.5-1.2,4-1.2
			c0-0.2,0-0.4,0-0.7c-2.9-0.4-6.3,1-6.8,4.1c-0.2,1.5,0.5,2.8,1.7,3.7c1.3,1,3.1,1.2,4.7,1.4c1.8,0.2,3.6,0.3,5.4,0.2
			c1.6-0.1,3.3-0.2,4.7-1.1c0.7-0.4,1.3-1,1.7-1.8c0.4-0.7,0.6-1.5,0.6-2.4C23.3,26.2,22.8,26,22.5,25.6z"/>
		<path d="M15.9,23c0-0.3,0.4-0.3,0.4,0c0.2,0.8,0.3,1.6,0.5,2.3c0.2,0.7,0.5,1.4,0.9,2c0.7,1.1,1.8,1.8,3,2.2
			c0.3,0.1,0.2,0.7-0.1,0.7c-0.7-0.1-1.4-0.4-1.9-0.8c-0.6-0.4-1.1-0.9-1.5-1.5c-0.5-0.7-0.8-1.4-1.1-2.2
			C15.9,24.8,15.8,23.9,15.9,23z"/>
		<path d="M10.4,22.7c0.1-0.2,0.3,0,0.4,0.1c0.1,0.3,0.1,0.7,0,1.1c0,0.3,0,0.7,0,1c0.1,0.7,0.2,1.4,0.4,2c0.4,1.2,1.1,2.3,2,3.2
			c0.3,0.2,0,0.9-0.3,0.6c-1.1-0.9-1.9-2.1-2.3-3.5c-0.2-0.7-0.4-1.5-0.5-2.3C10.1,24.3,10,23.3,10.4,22.7z"/>
		<path d="M22.1,23.3c-1.3-1-3.1-1.2-4.7-1.4c-1.8-0.2-3.6-0.3-5.4-0.2c-1.6,0.1-3.3,0.2-4.7,1.1c-0.6,0.4-1.2,0.9-1.6,1.5
			c-0.4,0.6-0.6,1.3-0.7,2.1c0.3,0.2,0.5,0.4,0.7,0.7C5.8,27.3,6,27.6,6,28c0.2,0.6,0.5,1.1,0.8,1.5c0.1-0.1,0.2-0.1,0.2-0.2
			c-0.4-0.4-0.6-0.8-0.8-1.3c-0.1-0.5-0.2-1-0.1-1.4c0.1-0.5,0.2-0.9,0.5-1.4c0.6-1,1.6-1.5,2.7-1.7c1.3-0.2,2.6-0.3,3.9-0.3
			c1.5,0,3,0.1,4.5,0.3c1.2,0.1,2.5,0.4,3.5,1.1c1,0.8,1.3,1.8,0.9,2.9c-0.1,0.3-0.2,0.5-0.4,0.8c-0.1,0.2-0.2,0.3-0.3,0.5
			c-0.1,0.2-0.3,0.3-0.4,0.5c-0.3,0.7-0.8,1.3-1.4,1.6c-0.1,0-0.2,0.1-0.3,0.1c2.1-0.4,4-1.8,4.3-4C24,25.5,23.3,24.2,22.1,23.3z"/>
		<path class="st8" d="M40.4,62.5c-0.8-0.5-1.4-1.1-1.5-2c-0.1-1.3-0.2-2.5-0.2-3.8c0-1.6,0.1-3.2,0.2-4.7c0.1-1.5,0.2-2.9,0.4-4.4
			c0.1-1.2,0.6-2.4,1.3-3.5c0.2-0.3,0.4-0.7,0.9-0.8c0.1,0.9,0.2,1.8,0.8,2.5c0.1,0,0.3,0,0.4,0c0.4,0.2,0.4,0.2,0.6-0.2
			c0.3-1-0.1-2-0.4-3c-0.2-0.6-0.6-0.9-1.3-0.8c-0.3,0-0.5,0-0.8,0.1c-0.6,0-1.1,0.3-1.5,0.8c-0.5,0.6-0.8,1.3-1.1,2
			c-0.4,1.3-0.7,2.5-0.8,3.8c-0.3,3.4-0.4,6.7-0.3,10.1c0.1,1.3,0.2,2.6,1,3.8c0.4,0.5,0.8,1,1.4,1.2c0.3,0.1,0.7,0.2,1,0.3
			c0.8,0.2,1.4-0.2,1.6-1c0.1-0.5,0.2-1,0-1.4c-0.6-0.1-1.1,0-1.4,0.7C40.7,62.2,40.6,62.3,40.4,62.5z M37.4,56.7c0-0.8,0-1.5,0-2.3
			c0.1-2.2,0.2-4.5,0.4-6.7c0.1-1.1,0.4-2.1,0.7-3.1c0.1-0.4,0.4-0.8,0.6-1.2c0,0.1,0,0.1,0,0.2c-0.8,1.4-1.1,3-1.3,4.6
			c-0.3,2.5-0.4,5.1-0.4,7.6C37.5,56,37.4,56.3,37.4,56.7C37.4,56.7,37.4,56.7,37.4,56.7z M37.5,57.7c0,0.5,0,0.9,0,1.4
			c0,0,0,0-0.1,0C37.4,58.6,37.4,58.2,37.5,57.7C37.5,57.7,37.5,57.7,37.5,57.7z M50.5,50.8c0-0.2,0-0.4,0-0.7c0-2,0-3.9-0.5-5.8
			c-0.1-0.4-0.3-0.9-0.5-1.3c-0.3-0.6-0.9-0.9-1.5-0.8c-0.3,0-0.7,0.1-1,0.1c-0.8-0.1-1.2,0.4-1.6,1c-0.8,1.1-1.1,2.5-1.3,3.8
			c-0.3,1.7-0.4,3.5-0.5,5.2c-0.1,1.8-0.1,3.6-0.1,5.4c0,1.6,0.3,3.1,1.2,4.6c0.7,1.2,1.8,1.7,3,1.8c0.5,0.1,1-0.2,1.2-0.6
			c0.3-0.4,0.6-0.9,0.7-1.4c0.3-1.8,0.6-3.6,0.8-5.5C50.4,54.7,50.5,52.8,50.5,50.8z M47,62.5c-0.7-0.5-1.2-1.2-1.4-2.1
			c-0.3-1.1-0.3-2.2-0.2-3.4c0.2-2.4,0.3-4.7,0.5-7.1c0.1-1.9,0.6-3.7,1.2-5.5c0.1-0.3,0.1-0.6,0.5-0.6c0.4,0,0.4,0.3,0.5,0.6
			c0.4,1.4,0.6,2.8,0.6,4.2c0,2.6,0,5.2-0.2,7.7c-0.1,1.7-0.5,3.3-0.8,5C47.7,61.8,47.5,62.2,47,62.5z M43.8,59
			c-0.4-2.2-0.1-4.3,0-6.4c0.1-1.7,0.3-3.5,0.5-5.2c0.1-1.1,0.4-2.2,0.9-3.2c0.1-0.2,0.2-0.4,0.4-0.7c0,0.2,0.1,0.3,0,0.3
			c-0.8,1.7-1.1,3.4-1.3,5.2C44,52.2,43.8,55.6,43.8,59z M47.9,61.9c0.5-2.1,0.8-4.3,1-6.4c0.2-2.2,0.2-4.3,0.3-6.5
			C49.5,52.3,48.8,60.5,47.9,61.9z M49,47.6c0,0.2,0,0.4,0,0.6c0,0,0,0,0,0C49,47.9,49,47.8,49,47.6C49,47.6,49,47.6,49,47.6z
			 M53.5,63.7c0.1-0.4,0.1-0.7,0.1-1c0.1-2.4,0.3-4.9,0.4-7.3c0.1-2,0.1-3.9,0.1-5.9c0-0.2-0.1-0.4,0.1-0.7c0,0.2,0.1,0.3,0.1,0.4
			c0.6,2.4,1.1,4.8,1.7,7.1c0.4,1.9,1,3.8,1.5,5.6c0.2,0.6,0.3,1.5,1.4,1.5c0,0,0.1,0.1,0.1,0.1c0.1,0,0.3,0.1,0.4,0.1
			c0-0.2,0.1-0.3,0.1-0.4c0.1-2.2,0.2-4.3,0.3-6.5c0.1-3,0.3-6,0.4-9c0.1-1.7,0.4-3.3,0-5C60.2,42,60.2,42,59.7,42
			c-0.2,0-0.3,0-0.5,0c-0.6,0.1-0.6,0.1-0.6,0.6c-0.1,1.3-0.1,2.5-0.2,3.8c-0.1,3.1-0.2,6.1-0.3,9.1c0,0.2,0,0.3,0,0.5
			c-0.4-1.2-0.6-2.4-0.9-3.6c-0.7-2.8-1.3-5.6-2.2-8.3c-0.3-0.8-0.6-1.5-1-2.2c-0.4,0.1-0.9,0.1-1.4,0.1c-0.1,0.8-0.2,1.6-0.2,2.4
			c-0.1,3.7-0.2,7.4-0.3,11.1c-0.1,2-0.1,4.1-0.3,6.1c0,0.7,0.4,1.2,0.7,1.8c0,0.1,0.1,0.1,0.2,0.1C52.9,63.6,53.2,63.7,53.5,63.7z
			 M52.7,43.2c0.1,1.8-0.4,16.9-0.7,19c0-0.7,0-1.5,0-2.2c0.3-5.3,0.5-10.6,0.5-15.8c0-0.3,0-0.6,0-0.9
			C52.6,43.2,52.7,43.2,52.7,43.2z M59.1,42.2c0,2.5-0.3,5-0.3,7.6c-0.1,2.5-0.1,5-0.2,7.6C58.3,56.4,58.7,43.4,59.1,42.2z
			 M63.4,63.7c0.1-0.4,0.1-0.7,0.1-1c0.1-2.4,0.3-4.9,0.4-7.3c0.1-2,0.1-3.9,0.1-5.9c0-0.2-0.1-0.4,0.1-0.7c0,0.2,0.1,0.3,0.1,0.4
			c0.6,2.4,1.1,4.8,1.7,7.1c0.4,1.9,1,3.8,1.5,5.6c0.2,0.6,0.3,1.5,1.4,1.5c0,0,0.1,0.1,0.1,0.1c0.1,0,0.3,0.1,0.4,0.1
			c0-0.2,0.1-0.3,0.1-0.4c0.1-2.2,0.2-4.3,0.3-6.5c0.1-3,0.3-6,0.4-9c0.1-1.7,0.4-3.3,0-5C70.1,42,70.2,42,69.7,42
			c-0.2,0-0.3,0-0.5,0c-0.6,0.1-0.6,0.1-0.6,0.6c-0.1,1.3-0.1,2.5-0.2,3.8c-0.1,3.1-0.2,6.1-0.3,9.1c0,0.2,0,0.3,0,0.5
			c-0.4-1.2-0.6-2.4-0.9-3.6c-0.7-2.8-1.3-5.6-2.2-8.3c-0.3-0.8-0.6-1.5-1-2.2c-0.4,0.1-0.9,0.1-1.4,0.1c-0.1,0.8-0.2,1.6-0.2,2.4
			c-0.1,3.7-0.2,7.4-0.3,11.1c-0.1,2-0.1,4.1-0.3,6.1c0,0.7,0.4,1.2,0.7,1.8c0,0.1,0.1,0.1,0.2,0.1C62.8,63.6,63.1,63.7,63.4,63.7z
			 M62.7,43.2c0.1,1.8-0.4,16.9-0.7,19c0-0.7,0-1.5,0-2.2c0.3-5.3,0.5-10.6,0.5-15.8c0-0.3,0-0.6,0-0.9
			C62.6,43.2,62.6,43.2,62.7,43.2z M69,42.2c0,2.5-0.3,5-0.3,7.6c-0.1,2.5-0.1,5-0.2,7.6C68.2,56.4,68.7,43.4,69,42.2z M75.9,62.5
			c-0.6,0.1-1.1,0.1-1.7,0.2c-0.5,0.1-0.7-0.1-0.8-0.6c0-0.2,0-0.4,0-0.6c0-0.9,0-1.7,0.1-2.6c0-2.5,0.1-5,0.1-7.5
			c0-0.4,0.1-0.7,0.1-1.1c1-0.2,1.9-0.1,2.8-0.4c-0.1-0.3-0.1-0.6-0.2-0.9c-0.8,0-1.6,0-2.4,0c0.1-1.5,0.1-2.9,0.4-4.3
			c0.2-1.3,0.3-1.4,1.7-1.5c0.3,0,0.6-0.1,0.9-0.1c-0.1-0.4-0.1-0.6-0.2-1c-0.1,0-0.1-0.1-0.2-0.1c-1,0-2,0.1-3,0.1
			c-0.4,0-0.6,0.3-0.8,0.6c-0.1,0.3-0.3,0.6-0.3,0.9c-0.1,0.8-0.3,1.7-0.3,2.5c-0.1,1.5-0.1,3-0.2,4.5c-0.1,3.3-0.1,6.7-0.1,10
			c0,0.4,0.1,0.8,0.1,1.3c0,0.6,0.4,1,0.7,1.5c0.1,0.1,0.3,0.2,0.4,0.3c1.3,0.4,2.6,0.5,3.8-0.4c-0.1-0.3-0.1-0.5-0.2-0.8
			C76.2,62.5,76.1,62.5,75.9,62.5z M72,61.8c-0.2-1.3-0.1-10.8,0.1-12.3C72.1,53.6,72.1,57.7,72,61.8z M72.2,49
			c-0.3-1.5,0.2-5.4,0.7-6.2C72.4,44.8,72.4,46.9,72.2,49z M80.7,62.5c-0.8-0.5-1.4-1.1-1.5-2c-0.1-1.3-0.2-2.5-0.2-3.8
			c0-1.6,0.1-3.2,0.2-4.7c0.1-1.5,0.2-2.9,0.4-4.4c0.1-1.2,0.6-2.4,1.3-3.5c0.2-0.3,0.4-0.7,0.9-0.8c0.1,0.9,0.2,1.8,0.8,2.5
			c0.1,0,0.3,0,0.4,0c0.4,0.2,0.4,0.2,0.6-0.2c0.3-1-0.1-2-0.4-3c-0.2-0.6-0.6-0.9-1.3-0.8c-0.3,0-0.5,0-0.8,0.1
			c-0.6,0-1.1,0.3-1.5,0.8c-0.5,0.6-0.8,1.3-1.1,2c-0.4,1.3-0.7,2.5-0.8,3.8c-0.3,3.4-0.4,6.7-0.3,10.1c0.1,1.3,0.2,2.6,1,3.8
			c0.4,0.5,0.8,1,1.4,1.2c0.3,0.1,0.7,0.2,1,0.3c0.8,0.2,1.4-0.2,1.6-1c0.1-0.5,0.2-1,0-1.4c-0.6-0.1-1.1,0-1.4,0.7
			C81,62.2,80.9,62.3,80.7,62.5z M77.7,56.7c0-0.8,0-1.5,0-2.3c0.1-2.2,0.2-4.5,0.4-6.7c0.1-1.1,0.4-2.1,0.7-3.1
			c0.1-0.4,0.4-0.8,0.6-1.2c0,0.1,0,0.1,0,0.2c-0.8,1.4-1.1,3-1.3,4.6c-0.3,2.5-0.4,5.1-0.4,7.6C77.8,56,77.7,56.3,77.7,56.7
			C77.7,56.7,77.7,56.7,77.7,56.7z M77.8,57.7c0,0.5,0,0.9,0,1.4c0,0,0,0-0.1,0C77.7,58.6,77.7,58.2,77.8,57.7
			C77.8,57.7,77.8,57.7,77.8,57.7z M86.7,62.5c0.1,0,0.1,0,0.2,0c0-0.1,0.1-0.3,0.1-0.5c0.1-3.7,0.2-7.4,0.3-11.1
			c0.1-2.1,0.2-4.2,0.3-6.3c0-0.3,0.1-0.5,0.1-0.7c0.1,0,0.1,0,0.1,0c0,0.2,0,0.4,0,0.6c-0.1,2-0.2,4-0.2,6
			c-0.1,1.3-0.1,2.5-0.1,3.8c-0.1,2.8-0.2,5.5-0.3,8.3c0,0.1,0,0.3,0,0.4c0,0.1,0.1,0.3,0.2,0.4c0.1-0.1,0.3-0.2,0.4-0.3
			c0.1-0.1,0.2-0.1,0.3-0.3c0,0.2,0.1,0.3,0.1,0.3c0,0.3,0.2,0.5,0.5,0.5c0.3,0,0.3-0.3,0.3-0.5c0.1-0.6,0.1-1.1,0.1-1.7
			c0.1-3.2,0.1-6.4,0.2-9.7c0.1-2.7,0.2-5.3-0.1-8c0-0.1,0-0.1,0.1-0.1c1-0.1,2.1,0.4,3.2-0.3c-0.1-0.1-0.3-0.2-0.4-0.3
			c0-0.1,0.1-0.2,0.1-0.3c0-0.1,0-0.2,0-0.4c-1.3-0.4-2.7-0.4-4-0.4c-2.6,0-3.5,0.1-3.9,0.4c0.1,0.1,0.3,0.2,0.4,0.3
			c0.1,0.1,0,0.3,0,0.5c0.9,0.1,1.8,0.2,2.7,0.3c-0.1,0.5-0.1,1-0.2,1.5c-0.1,2.4-0.1,4.8-0.2,7.1c-0.1,1.8-0.1,3.6-0.2,5.4
			c0,1.2-0.1,2.5-0.1,3.7C86.6,62,86.7,62.3,86.7,62.5z M103,58.3C103,58.3,103,58.3,103,58.3c0.1,0.2,0.2,0.4,0.3,0.7
			c0.2,1.3,0.5,2.5,1.3,3.6c0.3,0.4,0.5,0.7,1,0.6c0.1,0,0.2,0.1,0.3,0.1c0.6,0.3,0.9,0.2,1.1-0.4c0.2-0.6,0.3-1.1,0.5-1.7
			c0.8-3.2,1-6.5,1.1-9.8c0.1-2.5,0-5.1-0.1-7.7c0-0.5-0.2-1.1-0.3-1.6c-0.6,0-1,0.1-1.5,0.1c0,0.7-0.1,1.4,0,2.1
			c0.2,2.7,0.3,5.3,0.1,7.9c-0.2,2.2-0.4,4.3-0.7,6.5c-0.1,0.7-0.3,1.3-0.5,2c-0.2-0.1-0.3-0.3-0.3-0.4c-0.2-1-0.4-2.1-0.5-3.1
			c-0.2-3.2-0.4-6.4-0.6-9.7c-0.1-1.3-0.2-2.7-0.4-4c-0.1-0.4-0.2-0.8-0.3-1.3c-0.5,0.1-0.9,0.1-1.3,0.1c0,0.2-0.1,0.4-0.1,0.7
			c-0.1,2.7-0.3,5.5-0.4,8.2c-0.1,2.8-0.5,5.6-1.1,8.3c-0.1,0.2,0,0.5-0.3,0.7c-0.1-0.4-0.1-0.7-0.2-1c-0.1-2-0.2-4-0.2-6
			c-0.1-2.9-0.1-5.8-0.1-8.7c0-0.8-0.1-1.6-0.3-2.4c-0.3,0-0.5,0-0.9,0c-0.4,5.1-0.3,10.2-0.3,15.3c-0.1-1.7-0.2-3.4-0.2-5.1
			c0-1.7,0-3.4,0-5.2c0.1-1.7,0.1-3.4,0.3-5c-0.2,0.2-0.3,0.4-0.3,0.7c-0.1,0.4-0.1,0.9-0.1,1.4c-0.1,2.8-0.2,5.5-0.2,8.3
			c0,1.7,0.1,3.3,0.2,4.9c0.1,1.7,0.5,3.4,1.5,4.8c0.1,0.2,0.3,0.4,0.5,0.4c0.3,0,0.6,0.1,0.9,0.2c0.3,0.1,0.5,0,0.7-0.2
			c0.2-0.2,0.3-0.4,0.4-0.7c0.2-0.6,0.4-1.2,0.6-1.8C102.7,59.7,102.8,59,103,58.3z M107,44.7c0.1,0.1,0.2,0.3,0.2,0.4
			c0,0.8,0,1.5-0.1,2.3c0-0.6,0-1.3,0-1.9C107.1,45.2,107,44.9,107,44.7c0-0.7,0-1.5,0-2.2C107.1,42.8,107.1,44.1,107,44.7z
			 M102.3,44.9c0,1.2,0,2.4,0,3.6c0,1.2-0.2,2.3-0.2,3.5c0,2.1-0.3,4.2-0.7,6.2c-0.2,0.8-0.4,1.6-0.6,2.4c0,0.2-0.1,0.3-0.3,0.5
			c0-0.1,0-0.3,0.1-0.4c0.8-2.9,1.3-5.9,1.4-9C102.1,49.4,102.2,47.1,102.3,44.9C102.3,44.9,102.3,44.9,102.3,44.9z M107.3,48.5
			c0.2,4.2-0.6,11.1-1.5,12.8c0.7-2.1,0.9-4.3,1.1-6.5C107,52.5,107.2,50.3,107.3,48.5z M103.3,57c0,0.1,0,0.3,0,0.4c0,0,0,0,0,0
			C103.3,57.3,103.3,57.1,103.3,57C103.3,57,103.3,57,103.3,57z M116.1,64.1c0.1-0.5,0.1-1,0.1-1.4c0-3.3-0.1-6.7-0.5-10
			c-0.3-2.5-0.6-5-1.1-7.5c-0.2-0.9-0.4-1.7-0.6-2.6c-0.1-0.5-0.2-0.5-0.7-0.5c-0.7-0.1-1.2,0.2-1.5,0.8c-0.2,0.4-0.4,0.7-0.6,1.1
			c-0.3,1-0.5,1.9-0.6,2.9c-0.3,2.7-0.6,5.4-0.9,8.1c-0.2,2.1-0.2,4.2-0.3,6.3c0,0.7,0.1,1.4,0.5,2c0.2,0.1,0.4,0.1,0.8,0.2
			c0.1-1.5,0.1-2.9,0.3-4.3c1.1-0.1,2.1-0.2,3.2-0.3c0.1,1.5,0,2.9,0.4,4.3c0,0,0.1,0,0.1,0c0-0.2,0.1-0.3,0.1-0.4
			c0,0.3,0.1,0.7,0.1,1.1c0.2-0.1,0.3-0.1,0.4-0.1C115.6,63.9,115.8,63.9,116.1,64.1z M113.1,44.3c0.8,4.4,1.3,8.7,1.1,13
			c-1,0.1-2,0.1-3.1,0.2c0.1-0.7,0.1-1.3,0.2-1.9c0.2-2.1,0.4-4.2,0.6-6.4c0.1-1.6,0.5-3.1,0.9-4.6C112.9,44.5,113,44.5,113.1,44.3z
			 M111.9,43.6c-0.7,2-1,4-1.2,6c-0.2,1.5-0.3,3.1-0.4,4.6c-0.1,1.1-0.2,2.3-0.4,3.4c0-0.3,0-0.6,0-1c0.2-2.4,0.4-4.8,0.7-7.1
			c0.2-1.7,0.4-3.4,0.9-5.1c0.1-0.3,0.2-0.6,0.3-0.9C111.8,43.6,111.8,43.6,111.9,43.6z M109.9,58.5c0,1.1,0,2.3,0,3.4
			C109.8,60.8,109.7,59.7,109.9,58.5z M114.5,57.2c0-1,0-1.9,0-2.8c0,0,0.1,0,0.1,0C114.6,55.3,114.6,56.2,114.5,57.2
			C114.6,57.1,114.6,57.2,114.5,57.2z M114.7,59.1c0,0.8,0,1.7,0,2.5c0,0,0,0-0.1,0C114.7,60.8,114.7,59.9,114.7,59.1
			C114.7,59.1,114.7,59.1,114.7,59.1z M114.4,53.2c0-0.3,0-0.6,0-0.8c0,0,0,0,0.1,0C114.5,52.6,114.5,52.9,114.4,53.2
			C114.5,53.2,114.5,53.2,114.4,53.2z M119.5,62c0-0.2-0.1-0.4-0.1-0.6c0-3.2,0.1-6.4,0.1-9.5c0-2.7,0-5.3,0-8
			c0-0.7-0.1-1.3-0.4-1.9c-0.4,0-0.8,0.1-1.2,0.1c-0.1,1-0.1,1.9-0.2,2.8c-0.1,3.5-0.2,7-0.3,10.5c-0.1,2-0.1,4.1-0.1,6.1
			c0,0.2,0,0.6,0.1,0.7c0.3,0.2,0.3,0.6,0.4,0.9c0.4,0.1,0.9,0.2,1.3,0.3c1.2,0,2.4,0,3.6-0.1c0.2,0,0.4,0,0.5-0.1
			c0.1-0.1,0.2-0.3,0.1-0.4c0-0.3-0.1-0.5-0.3-0.8C122,62,120.7,62,119.5,62z M118.2,42.4c-0.1,6.5-0.3,13-0.4,19.5c0,0-0.1,0-0.1,0
			c0-0.1-0.1-0.3-0.1-0.5c0.1-2.7,0.1-5.5,0.1-8.3c0.1-2.8,0.1-5.5,0.2-8.3C118,44.1,118.1,43.2,118.2,42.4
			C118.2,42.4,118.2,42.4,118.2,42.4z M126.6,62c0-0.2-0.1-0.4-0.1-0.6c0-3.2,0.1-6.4,0.1-9.5c0-2.7,0-5.3,0-8
			c0-0.7-0.1-1.3-0.4-1.9c-0.4,0-0.8,0.1-1.2,0.1c-0.1,1-0.1,1.9-0.2,2.8c-0.1,3.5-0.2,7-0.3,10.5c-0.1,2-0.1,4.1-0.1,6.1
			c0,0.2,0,0.6,0.1,0.7c0.3,0.2,0.3,0.6,0.4,0.9c0.4,0.1,0.9,0.2,1.3,0.3c1.2,0,2.4,0,3.6-0.1c0.2,0,0.4,0,0.5-0.1
			c0.1-0.1,0.2-0.3,0.1-0.4c0-0.3-0.1-0.5-0.3-0.8C129.2,62,127.9,62,126.6,62z M125.4,42.4c-0.1,6.5-0.3,13-0.4,19.5
			c0,0-0.1,0-0.1,0c0-0.1-0.1-0.3-0.1-0.5c0.1-2.7,0.1-5.5,0.1-8.3c0.1-2.8,0.1-5.5,0.2-8.3C125.2,44.1,125.3,43.2,125.4,42.4
			C125.4,42.4,125.4,42.4,125.4,42.4z M136.1,62.5c-0.6,0.1-1.1,0.1-1.7,0.2c-0.5,0.1-0.7-0.1-0.8-0.6c0-0.2,0-0.4,0-0.6
			c0-0.9,0-1.7,0.1-2.6c0-2.5,0.1-5,0.1-7.5c0-0.4,0.1-0.7,0.1-1.1c1-0.2,1.9-0.1,2.8-0.4c-0.1-0.3-0.1-0.6-0.2-0.9
			c-0.8,0-1.6,0-2.4,0c0.1-1.5,0.1-2.9,0.4-4.3c0.2-1.3,0.3-1.4,1.7-1.5c0.3,0,0.6-0.1,0.9-0.1c-0.1-0.4-0.1-0.6-0.2-1
			c-0.1,0-0.1-0.1-0.2-0.1c-1,0-2,0.1-3,0.1c-0.4,0-0.6,0.3-0.8,0.6c-0.1,0.3-0.3,0.6-0.3,0.9c-0.1,0.8-0.3,1.7-0.3,2.5
			c-0.1,1.5-0.1,3-0.2,4.5c-0.1,3.3-0.1,6.7-0.1,10c0,0.4,0.1,0.8,0.1,1.3c0,0.6,0.4,1,0.7,1.5c0.1,0.1,0.3,0.2,0.4,0.3
			c1.3,0.4,2.6,0.5,3.8-0.4c-0.1-0.3-0.1-0.5-0.2-0.8C136.4,62.5,136.2,62.5,136.1,62.5z M132.2,61.8c-0.2-1.3-0.1-10.8,0.1-12.3
			C132.3,53.6,132.2,57.7,132.2,61.8z M132.4,49c-0.3-1.5,0.2-5.4,0.7-6.2C132.5,44.8,132.5,46.9,132.4,49z M140,62.5
			c0.1,0,0.1,0,0.2,0c0-0.1,0.1-0.3,0.1-0.5c0.1-3.7,0.2-7.4,0.3-11.1c0.1-2.1,0.2-4.2,0.3-6.3c0-0.3,0.1-0.5,0.1-0.7
			c0.1,0,0.1,0,0.1,0c0,0.2,0,0.4,0,0.6c-0.1,2-0.2,4-0.2,6c-0.1,1.3-0.1,2.5-0.1,3.8c-0.1,2.8-0.2,5.5-0.3,8.3c0,0.1,0,0.3,0,0.4
			c0,0.1,0.1,0.3,0.2,0.4c0.1-0.1,0.3-0.2,0.4-0.3c0.1-0.1,0.2-0.1,0.3-0.3c0,0.2,0.1,0.3,0.1,0.3c0,0.3,0.2,0.5,0.5,0.5
			c0.3,0,0.3-0.3,0.3-0.5c0.1-0.6,0.1-1.1,0.1-1.7c0.1-3.2,0.1-6.4,0.2-9.7c0.1-2.7,0.2-5.3-0.1-8c0-0.1,0-0.1,0.1-0.1
			c1-0.1,2.1,0.4,3.2-0.3c-0.1-0.1-0.3-0.2-0.4-0.3c0-0.1,0.1-0.2,0.1-0.3c0-0.1,0-0.2,0-0.4c-1.3-0.4-2.7-0.4-4-0.4
			c-2.6,0-3.5,0.1-3.9,0.4c0.1,0.1,0.3,0.2,0.4,0.3c0.1,0.1,0,0.3,0,0.5c0.9,0.1,1.8,0.2,2.7,0.3c-0.1,0.5-0.1,1-0.2,1.5
			c-0.1,2.4-0.1,4.8-0.2,7.1c-0.1,1.8-0.1,3.6-0.2,5.4c0,1.2-0.1,2.5-0.1,3.7C139.9,62,140,62.3,140,62.5z"/>
	</g>
</g>
</svg>
