<svg width="172" height="87" viewBox="0 0 172 87" fill="none" xmlns="http://www.w3.org/2000/svg">
<g clip-path="url(#clip0_103_1319)">
<path d="M130.846 23.6344L165.603 26.3693L166.666 26.6625L171.173 59.0888L166.573 75.6171L3.11759 75.1759L1.03052 32.5391L13.1622 28.5903L59.4301 26.4597L102.485 25.0457L130.846 23.6344Z" fill="#77625C"/>
<path d="M166.97 73.9771C167 73.9305 167.024 73.8798 167.05 73.8304C167.128 73.6958 167.215 73.5663 167.31 73.4427L167.573 73.1097L11.0257 73.1728H2.61133V78.611H165.78C165.756 77.9672 165.784 77.3225 165.863 76.6831C165.912 76.2269 166.025 75.7797 166.197 75.3541C166.363 74.9691 166.579 74.6279 166.76 74.2579C166.818 74.1558 166.888 74.0614 166.97 73.9771Z" fill="#3F3332"/>
<path d="M169.974 52.8504C169.97 52.748 169.986 52.6458 170.02 52.549C169.993 51.5871 169.881 50.6294 169.687 49.6867C158.772 51.035 147.791 51.9343 136.744 52.3846C124.709 52.8769 112.679 52.7733 100.656 52.0736C88.5543 51.3328 76.539 50.0512 64.61 48.2289C52.7369 46.4394 40.9189 44.5746 28.8546 43.6772C19.566 42.9849 10.2481 42.7636 0.937012 43.014C1.17671 44.3884 1.24509 45.7869 1.14063 47.178C11.7122 47.8055 22.2797 48.7715 32.7714 49.8676C45.2994 51.1761 57.7737 52.7093 70.2948 54.1151C82.3907 55.4428 94.5183 56.6622 106.693 57.435C118.8 58.242 130.966 58.4517 143.107 58.0667C152.156 57.7699 161.182 56.9795 170.144 55.699C170.047 54.7207 169.976 53.7876 169.974 52.8504Z" fill="#846D69"/>
<path d="M170.427 58.0132V59.7601C169.38 59.8533 168.334 59.9424 167.284 60.0191C161.172 60.4758 155.044 60.7736 148.9 60.9124C136.597 61.2043 124.274 60.9124 111.984 60.2479C99.5784 59.5834 87.2004 58.5681 74.8595 57.3788C62.5187 56.1895 50.0691 54.8728 37.687 53.5451C25.536 52.2366 13.4538 50.9322 1.33313 49.673C1.82291 51.509 1.59591 53.3957 1.50923 55.2605C6.76384 55.5345 12.0189 55.8479 17.2744 56.2004C27.8487 56.9486 38.4057 57.8739 48.9451 58.9764C59.4823 60.0821 70.0044 61.3728 80.4851 62.7649C83.0936 63.1102 85.6893 63.4632 88.2721 63.824C89.4166 63.9336 90.5533 64.113 91.6758 64.3611C92.4064 64.5543 93.3433 64.9298 93.3433 65.6299C93.3433 66.3301 92.3637 66.7548 91.6758 67.0001C90.6068 67.3063 89.519 67.5433 88.4193 67.7098C85.909 68.1949 83.3899 68.6575 80.8621 69.0978C70.8271 70.8448 60.7026 72.219 50.5245 73.3453H109.174C109.294 73.198 109.447 73.081 109.621 73.0039C109.795 72.9267 109.985 72.8916 110.175 72.9014H139.822C137.821 72.5397 135.821 72.204 133.822 71.8519L123.077 69.9692L112.093 68.04L109.462 67.5783C108.651 67.4795 107.849 67.322 107.061 67.107C106.435 66.9014 105.904 66.4835 106.321 65.9327C106.738 65.3819 107.689 65.2682 108.471 65.2682C110.238 65.2682 112.018 65.4052 113.786 65.497C115.635 65.5975 117.485 65.7025 119.336 65.8122C123.004 66.0314 126.67 66.2739 130.318 66.4972C137.545 66.933 144.792 67.2714 152.055 67.2015C157.891 67.1793 163.718 66.7742 169.5 65.9889C169.53 65.6039 169.554 65.2161 169.566 64.8311C169.63 63.2869 169.47 61.6263 170.327 60.1821C170.408 60.055 170.524 59.953 170.66 59.8876C170.588 59.2354 170.51 58.6243 170.427 58.0132Z" fill="#846D69"/>
<path d="M10.8688 68.3758C10.5345 67.8277 9.7145 67.6619 9.0211 67.6016C7.91415 67.4781 6.80142 67.4127 5.68756 67.4057C4.63362 67.3963 3.57998 67.4452 2.53149 67.5523V71.8245C4.10815 71.4394 5.68481 71.0188 7.25183 70.6064C8.19425 70.3611 9.31552 70.1953 10.1878 69.7706C10.8482 69.5116 11.1343 68.9074 10.8688 68.3758Z" fill="#846D69"/>
<path d="M66.1976 64.7434C65.6473 63.4979 63.9812 63.1691 62.5008 63.0033C60.5403 62.7813 58.584 62.5813 56.6235 62.3895C52.708 62.0113 48.7897 61.6793 44.8687 61.3934C36.868 60.8225 28.854 60.4571 20.8268 60.2972C16.3325 60.2187 11.835 60.1977 7.33438 60.2342C5.59125 60.2342 3.84812 60.2767 2.10637 60.3205C2.10637 61.9044 2.08298 63.4842 2.06372 65.0681C4.78091 65.1271 7.5036 65.1408 10.218 65.1846L24.0489 65.4203C25.1894 65.4203 26.3299 65.46 27.476 65.4764C28.2464 65.4764 29.6772 65.3271 30.2702 65.8354C30.9897 66.4657 29.995 67.259 29.3195 67.5481C28.3911 67.9024 27.4402 68.1954 26.473 68.425C22.2796 69.6125 18.0348 70.6835 13.7387 71.6381C11.3778 72.1656 9.00458 72.6506 6.58457 73.1288H33.0383C37.6018 72.2629 42.1625 71.3791 46.7494 70.4995L58.6239 68.2127C60.5353 67.9195 62.4243 67.5509 64.2907 67.1069C65.5881 66.7521 66.7383 65.9355 66.1976 64.7434Z" fill="#846D69"/>
<path d="M64.0349 44.7267C76.0359 49.3743 89.7512 49.5305 102.809 48.8605C109.986 48.4755 117.145 47.9302 124.301 47.4397L146.97 45.8955C154.225 45.3872 161.482 44.9227 168.734 44.3513C168.596 43.3785 168.503 42.4221 168.444 41.4329C164.82 41.526 161.196 41.6384 157.575 41.7357L134.885 42.3002L89.6783 43.458L64.2646 44.1225C63.8574 44.1417 63.6744 44.5746 64.0349 44.7267Z" fill="#846D69"/>
<path d="M166.97 28.7438C164.693 28.5876 162.416 28.4451 160.112 28.2916L144.52 27.2462L113.457 25.1608L105.789 24.6374L104.727 24.5675C102.525 24.8822 100.303 25.0406 98.0788 25.0416C97.8619 25.0444 97.6472 24.9975 97.4514 24.9046C97.2322 25.1073 97.0789 25.3707 97.0112 25.6609C96.9644 26.3254 97.5491 26.894 98.3649 26.99C99.5619 27.1982 100.775 27.3544 101.993 27.4572C103.272 27.6175 104.546 27.7696 105.823 27.9189C115.977 29.132 126.15 30.2199 136.342 31.1827C146.534 32.1454 156.775 32.9611 167.064 33.6298L167.514 33.6531C167.509 33.6075 167.509 33.5616 167.514 33.5161C167.503 33.4623 167.503 33.4068 167.514 33.353C167.469 31.8037 167.287 30.2613 166.97 28.7438Z" fill="#846D69"/>
<path d="M163.796 38.8199C150.571 37.4087 137.839 36.2495 124.758 34.3135L120.014 33.7202C108.96 32.3089 97.9289 30.7784 87.0367 28.7876C83.9476 28.2231 80.8672 27.6202 77.7955 26.979C76.4624 26.6967 75.0288 26.4939 73.7961 25.9829C73.6122 25.9067 73.4338 25.8179 73.2623 25.717C72.906 25.7499 72.5483 25.7897 72.1892 25.8198C70.1888 25.9993 68.2379 26.2446 66.2554 26.4542C62.351 26.8694 58.4272 27.0775 54.5006 27.0776C47.2356 28.1884 39.9691 29.2836 32.7012 30.3633C24.5731 31.5964 16.5123 32.8296 8.50795 34.2888C6.18103 34.7026 3.85961 35.1452 1.5437 35.6165C-1.93017 36.3303 1.5437 35.6398 1.5437 35.6494C1.5437 36.6688 1.44739 37.6882 1.39098 38.7035C4.66399 38.176 7.9315 37.6279 11.2224 37.1607C16.6953 36.3879 22.1902 35.7238 27.7071 35.1684C38.5117 34.1116 49.3616 33.4973 60.257 33.3256C71.2266 33.1529 82.1816 33.4352 93.1218 34.1723C102.818 34.8355 112.476 35.7562 122.125 36.7291L126.252 37.1497C138.786 38.6048 151.032 40.1353 163.674 39.5406C164.159 39.5201 164.286 38.883 163.796 38.8199Z" fill="#846D69"/>
<path d="M171.664 55.6565L171.173 52.0037C170.422 46.249 169.657 40.4943 168.88 34.7396C168.547 32.2034 168.093 29.6796 167.69 27.1461C167.633 26.7885 167.577 26.4295 167.523 26.0705L166.352 25.9678L158.169 25.3046L140.567 23.8303L136.234 23.4713L131.418 23.0863L130.568 23L123.803 23.2891L111.273 23.8262C88.0676 24.8255 64.869 25.8426 41.6768 26.8776C33.3304 27.2612 24.9963 27.6476 16.6746 28.0367C15.2039 28.1025 13.7345 28.1737 12.2638 28.2464L9.55073 29.1753L9.31684 29.2548L3.84257 31.1045L3.56741 31.1977L1.62342 31.8609L0.442993 32.2623L0.473261 33.3817C0.62047 39.4845 0.733285 45.5762 0.963042 51.6817C1.20656 58.6915 1.45282 65.7026 1.74999 72.7151V73.7468C1.81328 75.2184 1.87657 76.6927 1.95636 78.1629C1.95636 78.4958 1.98938 78.8644 2.01277 79.2124H3.52614C29.0856 79.4152 54.6588 79.3316 80.2017 79.3412C108.302 79.3412 136.406 79.4645 164.498 79.2755H165.966L166.341 78.1136C166.771 76.6822 167.192 75.249 167.606 73.814L167.812 73.0974C167.852 72.9508 167.896 72.8083 167.936 72.6617C168.912 69.2189 169.891 65.7784 170.873 62.3402C171.122 61.4564 171.363 60.5672 171.626 59.6834L171.989 58.4092L171.664 55.6565ZM1.68671 32.9871L13.6685 29.0233C33.2281 28.3258 52.7795 27.4791 72.3418 26.694C91.7707 25.8993 111.193 25.0817 130.609 24.2414L133.343 24.1249L142.13 24.8949L142.943 24.9648C150.772 25.6444 158.607 26.3336 166.45 27.0324C166.683 29.248 166.872 31.469 167.116 33.6736C167.451 36.5857 167.812 39.4941 168.2 42.3988C168.943 48.1097 169.669 53.8191 170.454 59.5259C169.121 63.8995 167.796 68.2785 166.48 72.663C154.296 72.6165 142.11 72.5854 129.923 72.5699C100.292 72.5699 70.6606 72.5776 41.0288 72.5932C28.4724 72.5932 15.9211 72.6283 3.3748 72.6987C3.26749 69.7405 3.12028 66.7754 3.01435 63.8214C2.76808 56.5828 2.50805 49.3688 2.17374 42.144C2.03753 39.094 1.85455 36.0385 1.68671 32.9871ZM164.883 78.1136C153.24 78.0715 141.592 78.0451 129.938 78.0341C100.308 78.0341 70.6767 78.0419 41.044 78.0574C28.5408 78.0574 16.0417 78.0926 3.54678 78.1629C3.54678 76.6995 3.48349 75.2376 3.43671 73.7784C29.0361 73.9839 54.6464 73.9017 80.2458 73.9072C108.879 73.9072 137.523 74.0442 166.149 73.8345C165.715 75.2568 165.293 76.6831 164.883 78.1136Z" fill="black"/>
<path d="M100.63 40.1585C98.4814 39.1295 96.1761 38.4641 93.8084 38.1896C91.1751 37.8005 88.4978 37.5648 85.8439 37.3223C80.1775 36.8099 74.5014 36.4527 68.8157 36.2508C61.7451 36.0115 54.6777 36.027 47.6134 36.2974C46.2032 36.3495 44.7862 36.4166 43.376 36.4892C33.9807 37.0305 24.6762 37.8005 15.3718 39.7338C15.3718 39.7338 13.9382 40.4367 15.3718 40.8888H49.0566L81.817 40.8587H100.39C100.657 40.8327 100.85 40.6395 100.817 40.4298C100.808 40.3734 100.787 40.3195 100.755 40.2725C100.722 40.2255 100.68 40.1865 100.63 40.1585Z" fill="#846D69"/>
<path opacity="0.15" d="M25.7769 28.0737C25.7769 28.0737 55.1143 69.8638 128.824 73.2728H87.4907L3.02406 73.2111L1.18738 32.213L13.359 28.741L25.7769 28.0737Z" fill="black"/>
</g>
<g clip-path="url(#clip1_103_1319)">
<path d="M158.645 83.125C160.516 83.125 162.386 83.0922 164.257 83.0562V69.5756H164.433V54.1673L164.257 54.1509V5.46411H158.645V54.0264H158.58V69.7625H158.645V83.125Z" fill="#BBACA7"/>
<path d="M163.796 -55.8182H163.731V-73H158.12V-55.6247H157.944V-40.505L158.12 -40.4853V7.23441H163.731V-40.3706H163.796V-55.8182Z" fill="#BBACA7"/>
<path d="M163.845 -40.2526H160.627V7.23438H163.845V-40.2526Z" fill="#968583"/>
<path d="M158.815 7.23447H157.686C157.673 -0.00632095 157.659 -7.2482 157.643 -14.4912L157.594 -39.1083C157.594 -39.6657 157.594 -40.2262 157.594 -40.7836C157.96 -40.7541 158.326 -40.7475 158.694 -40.7475C158.854 -26.1326 158.769 -11.5079 158.802 3.10702C158.811 4.48393 158.815 5.85975 158.815 7.23447Z" fill="black"/>
<path d="M163.525 7.23441C163.499 -7.82307 163.447 -22.8805 163.486 -37.9347C163.486 -38.7412 163.503 -39.5477 163.516 -40.3542L163.702 -40.3181C163.976 -40.2657 164.26 -40.2803 164.528 -40.3607C164.632 -33.3123 164.632 -26.2638 164.645 -19.2153L164.687 5.41819C164.687 6.02469 164.687 6.62791 164.687 7.23441H163.525Z" fill="black"/>
<path d="M158.032 -3.84644C158.809 -3.01373 159.576 -2.16792 160.392 -1.37128C161.557 -0.230411 162.791 0.88095 164.067 1.90707V2.80534C162.531 1.79212 161.081 0.652824 159.732 -0.600868C159.148 -1.15163 158.577 -1.72534 158.032 -2.31545V-3.84644Z" fill="black"/>
<path d="M161.75 83.0954V53.0985H158.531V83.1249C159.605 83.1184 160.676 83.1086 161.75 83.0954Z" fill="#968583"/>
<path d="M163.845 7.07703H160.627V54.564H163.845V7.07703Z" fill="#968583"/>
<path d="M160.385 52.8888C160.397 52.863 160.41 52.8378 160.425 52.8134L160.375 52.9281L160.385 52.8888Z" fill="#968583"/>
<path d="M157.895 83.1316H159.331L159.35 80.9449L159.399 72.4507C159.399 71.0585 159.399 69.6641 159.399 68.2675V67.4119C159.189 67.413 158.982 67.3588 158.799 67.2545L158.769 67.2316C158.747 67.2578 158.72 67.2742 158.698 67.3004C158.477 67.5234 158.178 67.6515 157.865 67.6577C157.865 68.061 157.865 68.4675 157.865 68.8675C157.865 70.428 157.865 71.9874 157.865 73.5457C157.874 76.7432 157.884 79.9385 157.895 83.1316Z" fill="black"/>
<path d="M163.862 83.0495L165.295 83.0168C165.295 82.3185 165.295 81.6202 165.314 80.9186L165.363 72.4244C165.363 71.0322 165.369 69.6378 165.38 68.2412C165.38 67.874 165.38 67.5069 165.38 67.143C165.354 67.143 165.324 67.143 165.295 67.143H165.269C164.805 67.1004 164.335 67.1135 163.875 67.1135H163.842C163.842 67.7036 163.842 68.2937 163.842 68.8805C163.842 70.441 163.842 72.0004 163.842 73.5587C163.842 76.7234 163.849 79.887 163.862 83.0495Z" fill="black"/>
<path d="M163.561 7.07703H164.691C164.704 14.32 164.718 21.5619 164.733 28.8027L164.782 53.4165C164.782 53.9771 164.782 54.5345 164.782 55.0918C164.417 55.0656 164.051 55.0557 163.682 55.0557C163.522 40.4408 163.607 25.8194 163.574 11.2012C163.568 9.82866 163.564 8.45393 163.561 7.07703Z" fill="black"/>
<path d="M158.858 7.07703C158.884 22.1312 158.936 37.1887 158.897 52.2462C158.897 53.0526 158.88 53.8591 158.867 54.6656L158.681 54.6263C158.407 54.5738 158.123 54.5885 157.856 54.6689C157.754 47.6204 157.751 40.572 157.738 33.5235L157.696 8.88995C157.696 8.28674 157.696 7.68024 157.696 7.07703H158.858Z" fill="black"/>
<path d="M164.165 82.4727C164.364 82.6595 164.557 82.853 164.75 83.0431H164.841V82.112L164.577 81.8334C163.878 81.1318 163.15 80.463 162.406 79.8139C161.1 78.6787 159.732 77.6171 158.309 76.6339V77.4207C159.574 78.3889 160.801 79.4008 161.991 80.4565C162.729 81.1121 163.45 81.7908 164.165 82.4727Z" fill="black"/>
<path d="M164.841 75.8372C163.888 74.8341 162.974 73.7981 161.985 72.831C160.862 71.7327 159.677 70.6574 158.45 69.6608C158.523 69.4357 158.581 69.2056 158.623 68.9724C158.623 68.9363 158.623 68.9035 158.639 68.8707C160.053 69.8282 161.392 70.8935 162.644 72.0573C163.415 72.7683 164.148 73.5189 164.841 74.3062V75.8372Z" fill="black"/>
<path d="M164.325 48.6564C164.273 48.6039 164.221 48.5515 164.165 48.5023C163.45 47.8171 162.729 47.1418 161.991 46.4861C160.803 45.4305 159.576 44.4186 158.309 43.4504V42.6636C159.732 43.6468 161.1 44.7084 162.406 45.8436C163.059 46.4173 163.712 47.0074 164.325 47.6237V48.6564Z" fill="black"/>
<path d="M162.448 53.7247C162.909 54.1247 163.349 54.541 163.79 54.9574L164.296 54.882C164.338 54.6 164.384 54.3181 164.426 54.0329C164.022 53.6657 163.61 53.3062 163.193 52.9543C161.654 51.6893 160.016 50.5503 158.296 49.5481V50.4464C159.749 51.4758 161.143 52.5871 162.448 53.7247Z" fill="black"/>
<path d="M164.325 33.0843L164.165 32.9269C163.45 32.245 162.729 31.5697 161.991 30.914C160.803 29.8584 159.572 28.8421 158.309 27.8782V27.0914C159.731 28.0746 161.099 29.135 162.406 30.2682C163.059 30.8451 163.712 31.4352 164.325 32.0483V33.0843Z" fill="black"/>
<path d="M164.325 40.608C163.555 39.7819 162.791 38.9459 161.985 38.1526C160.819 37.015 159.586 35.9036 158.309 34.8742V33.9727C159.844 34.988 161.294 36.1271 162.644 37.3789C163.222 37.9231 163.783 38.4902 164.325 39.0738V40.608Z" fill="black"/>
<path d="M163.907 25.2752C163.277 24.5966 162.647 23.918 161.985 23.2689C160.862 22.1706 159.677 21.0986 158.45 20.102C158.523 19.8757 158.581 19.6446 158.623 19.4102C158.623 19.3775 158.623 19.3447 158.639 19.3119C160.054 20.2672 161.393 21.3315 162.644 22.4952C163.072 22.8984 163.496 23.3148 163.907 23.7377V25.2752Z" fill="black"/>
<path d="M164.348 18.1546C163.568 17.3219 162.801 16.4793 161.985 15.6794C160.819 14.5418 159.586 13.4305 158.309 12.4011V11.4995C159.844 12.5148 161.294 13.654 162.644 14.9057C163.228 15.4565 163.8 16.0302 164.348 16.6236V18.1546Z" fill="black"/>
<path d="M163.676 55.0558L163.845 67.1005L164.319 68.0545L165.386 67.1595C165.184 63.138 164.98 59.1155 164.776 55.0919L164.152 53.7805L163.676 55.0558Z" fill="black"/>
<path d="M159.416 67.4119L158.858 54.6656L158.231 53.433L157.846 54.6689L157.878 67.6577C157.878 67.6577 158.358 68.6052 158.42 68.5626C158.482 68.52 159.416 67.4119 159.416 67.4119Z" fill="black"/>
<path d="M164.508 69.2805C164.283 69.0609 164.061 68.838 163.832 68.6249C163.117 67.9397 162.396 67.2644 161.658 66.6087C160.47 65.5531 159.243 64.5411 157.976 63.5729V62.7861C159.399 63.7693 160.767 64.831 162.073 65.9661C162.817 66.6218 163.545 67.2775 164.24 67.9856C164.332 68.0774 164.42 68.1725 164.508 68.2643V69.2805Z" fill="black"/>
<path d="M164.508 61.9796C163.555 60.9797 162.641 59.9437 161.648 58.9733C160.529 57.8784 159.344 56.8031 158.117 55.8064C158.191 55.5803 158.248 55.3492 158.29 55.1147C158.29 55.0819 158.29 55.0491 158.306 55.0164C159.721 55.9728 161.06 57.0382 162.311 58.2029C163.082 58.9139 163.815 59.6646 164.508 60.4519V61.9796Z" fill="black"/>
<path d="M164.348 10.4013C163.568 9.56527 162.801 8.72274 161.985 7.92282C160.819 6.78523 159.586 5.67387 158.309 4.64447V3.74292C159.844 4.75824 161.294 5.89741 162.644 7.14913C163.228 7.69989 163.8 8.2736 164.348 8.86699V10.4013Z" fill="black"/>
<path d="M10.6309 84.2003C12.4852 84.5211 14.361 84.6997 16.2422 84.7347V69.5756H16.4152V54.1673L16.2422 54.1509V5.46411H10.6309V54.0264H10.5624V69.7624H10.6309V84.2003Z" fill="#BBACA7"/>
<path d="M15.7786 -55.8182H15.7133V-73H10.1021V-55.6247H9.92908V-40.505L10.1021 -40.4853V7.23441H15.7133V-40.3706H15.7786V-55.8182Z" fill="#BBACA7"/>
<path d="M15.8276 -40.2526H12.609V7.23438H15.8276V-40.2526Z" fill="#968583"/>
<path d="M10.8006 7.23447H9.68097C9.66573 -0.00632095 9.6505 -7.2482 9.63527 -14.4912L9.5863 -39.1083C9.5863 -39.6657 9.5863 -40.2262 9.5863 -40.7836C9.9519 -40.7541 10.3208 -40.7475 10.6864 -40.7475C10.8496 -26.1326 10.7614 -11.5079 10.7941 3.10702L10.8006 7.23447Z" fill="black"/>
<path d="M15.5077 7.23441C15.4816 -7.82307 15.4326 -22.8805 15.4718 -37.9347C15.4718 -38.7412 15.4718 -39.5477 15.5012 -40.3542L15.6872 -40.3181C15.9609 -40.2657 16.243 -40.2803 16.5098 -40.3607C16.6143 -33.3123 16.6143 -26.2638 16.6273 -19.2153L16.6698 5.41819C16.6698 6.02469 16.6698 6.62791 16.6698 7.23441H15.5077Z" fill="black"/>
<path d="M10.0074 -3.84644C10.7843 -3.01373 11.5547 -2.16792 12.3708 -1.37128C13.5328 -0.230411 14.7667 0.88095 16.0463 1.90707V2.80534C14.5096 1.79294 13.0596 0.653585 11.7114 -0.600868C11.1238 -1.15163 10.5558 -1.72534 10.0074 -2.31545V-3.84644Z" fill="black"/>
<path d="M13.7319 84.6002V53.0985H10.5133V84.1773C11.5807 84.3609 12.6547 84.5084 13.7319 84.6002Z" fill="#968583"/>
<path d="M15.8276 7.07703H12.609V54.564H15.8276V7.07703Z" fill="#968583"/>
<path d="M12.3707 52.8888C12.3814 52.863 12.3934 52.8378 12.4067 52.8134L12.3577 52.9281C12.3605 52.9145 12.3649 52.9013 12.3707 52.8888Z" fill="#968583"/>
<path d="M9.8834 84.0528C10.3535 84.1511 10.83 84.2364 11.3033 84.3085C11.3033 83.184 11.3262 82.0596 11.3327 80.9318L11.3817 72.4376C11.3817 71.0454 11.3871 69.651 11.398 68.2544V67.4119C11.1876 67.4126 10.9806 67.3583 10.7974 67.2545L10.768 67.2316C10.7452 67.2578 10.719 67.2742 10.6995 67.3004C10.477 67.523 10.1778 67.651 9.86381 67.6577C9.86381 68.061 9.86381 68.4675 9.86381 68.8675C9.86381 70.428 9.86381 71.9874 9.86381 73.5457C9.86164 77.0404 9.86816 80.5428 9.8834 84.0528Z" fill="black"/>
<path d="M15.8505 84.7249C16.3205 84.7249 16.7906 84.7478 17.2639 84.7478C17.2639 83.4758 17.29 82.2038 17.2965 80.9318L17.3455 72.4376C17.3455 71.0454 17.3509 69.651 17.3618 68.2544C17.3618 67.8872 17.3618 67.5201 17.3618 67.1562C17.3324 67.1577 17.303 67.1577 17.2737 67.1562H17.2476C16.7873 67.1135 16.3172 67.1267 15.8537 67.1267H15.8243C15.8243 67.7168 15.8243 68.3069 15.8243 68.8937C15.8243 70.4542 15.8243 72.0136 15.8243 73.5719C15.8265 77.283 15.8352 81.0006 15.8505 84.7249Z" fill="black"/>
<path d="M15.5566 7.07703H16.6861C16.7013 14.32 16.7155 21.5619 16.7285 28.8027C16.7481 37.0095 16.7655 45.2141 16.7807 53.4165C16.7807 53.9771 16.7807 54.5345 16.7807 55.0918C16.4119 55.0656 16.0463 55.0557 15.6774 55.0557C15.5175 40.4408 15.6056 25.8194 15.573 11.2012L15.5566 7.07703Z" fill="black"/>
<path d="M10.8332 7.07703C10.8593 22.1312 10.9115 37.1887 10.8724 52.2462C10.8724 53.0526 10.8724 53.8591 10.843 54.6656L10.6602 54.6263C10.3866 54.5737 10.1044 54.5884 9.83759 54.6689C9.73314 47.6204 9.73314 40.572 9.72008 33.5235L9.68091 8.88995V7.07703H10.8332Z" fill="black"/>
<path d="M16.8232 83.1315C16.6012 82.9119 16.376 82.6889 16.1507 82.4758C15.4359 81.7939 14.7145 81.1153 13.9735 80.4596C12.7853 79.404 11.5579 78.3921 10.2914 77.4239V76.6371C11.7144 77.6203 13.082 78.6819 14.388 79.8171C15.1355 80.4728 15.8635 81.1284 16.5588 81.8365L16.8232 82.1152V83.1315Z" fill="black"/>
<path d="M11.4469 84.3315C11.0683 84.0561 10.6864 83.7807 10.2914 83.5184V84.1348C10.6766 84.2069 11.0617 84.2725 11.4469 84.3315Z" fill="black"/>
<path d="M16.8232 75.8372C15.8733 74.8341 14.956 73.7981 13.967 72.831C12.8441 71.7327 11.6591 70.6574 10.4318 69.6608C10.5055 69.4357 10.5633 69.2056 10.6048 68.9724C10.6048 68.9363 10.6048 68.9035 10.6211 68.8707C12.0362 69.8273 13.3753 70.8927 14.6263 72.0573C15.3985 72.7666 16.1318 73.5174 16.8232 74.3062V75.8372Z" fill="black"/>
<path d="M16.3074 48.6564L16.1507 48.5023C15.4359 47.8171 14.7145 47.1418 13.9735 46.4861C12.7853 45.4305 11.5579 44.4186 10.2914 43.4504V42.6636C11.7144 43.6468 13.082 44.7084 14.388 45.8436C15.0409 46.4173 15.6937 47.0074 16.3074 47.6237V48.6564Z" fill="black"/>
<path d="M14.4338 53.7247C14.894 54.1247 15.3347 54.541 15.7754 54.9574L16.2813 54.882C16.3238 54.6 16.3695 54.3181 16.4119 54.0329C16.0071 53.6657 15.5991 53.3051 15.178 52.9543C13.6391 51.6893 12.0017 50.5503 10.2816 49.5481V50.4464C11.7309 51.4758 13.1215 52.5871 14.4338 53.7247Z" fill="black"/>
<path d="M16.3074 33.0842L16.1507 32.9268C15.4359 32.2351 14.7145 31.5794 13.9735 30.9238C12.7853 29.8681 11.5546 28.8518 10.2914 27.888V27.1012C11.7133 28.0811 13.0809 29.1383 14.388 30.2681C15.0409 30.8451 15.6937 31.4352 16.3074 32.0482V33.0842Z" fill="black"/>
<path d="M16.3074 40.608C15.537 39.7819 14.7765 38.9459 13.9669 38.1526C12.8016 37.015 11.571 35.9036 10.2914 34.8742V33.9727C11.826 34.988 13.2758 36.1271 14.6263 37.3789C15.2041 37.9231 15.7688 38.4902 16.3074 39.0738V40.608Z" fill="black"/>
<path d="M15.8831 25.2752C15.2531 24.5966 14.6231 23.918 13.9604 23.2689C12.8441 22.1706 11.6591 21.0888 10.4318 20.1053C10.5055 19.879 10.5633 19.6479 10.6048 19.4135C10.6048 19.3808 10.6048 19.348 10.6211 19.3152C12.0369 20.2696 13.3761 21.3339 14.6263 22.4985C15.0572 22.9017 15.4783 23.3181 15.8896 23.741L15.8831 25.2752Z" fill="black"/>
<path d="M16.3303 18.1546C15.5501 17.3219 14.783 16.4793 13.9669 15.6794C12.8016 14.5418 11.571 13.4305 10.2914 12.4011V11.4995C11.826 12.5148 13.2758 13.654 14.6263 14.9057C15.2139 15.4565 15.7819 16.0291 16.3303 16.6236V18.1546Z" fill="black"/>
<path d="M15.6578 55.0558L15.8308 67.1005L16.3009 68.0545L17.3683 67.1595L16.7612 55.0919L16.1344 53.7805L15.6578 55.0558Z" fill="black"/>
<path d="M11.3979 67.4119L10.843 54.6656L10.2195 53.433L9.83435 54.6689L9.86373 67.6577C9.86373 67.6577 10.3436 68.6052 10.4056 68.5626C10.4676 68.52 11.3979 67.4119 11.3979 67.4119Z" fill="black"/>
<path d="M16.4902 69.2805C16.2682 69.0609 16.043 68.838 15.8145 68.6249C15.1028 67.9397 14.3814 67.2644 13.6405 66.6087C12.4523 65.5531 11.2249 64.5411 9.95837 63.5729V62.7861C11.3814 63.7693 12.749 64.831 14.055 65.9661C14.7993 66.6218 15.5272 67.2775 16.2258 67.9856L16.4902 68.2643V69.2805Z" fill="black"/>
<path d="M16.4902 61.9796C15.5403 60.9797 14.623 59.9437 13.6339 58.9733C12.511 57.8784 11.3261 56.8031 10.0988 55.8064C10.1729 55.5803 10.2307 55.3492 10.2718 55.1147C10.2718 55.0819 10.2718 55.0491 10.2881 55.0164C11.7039 55.9719 13.0431 57.0374 14.2933 58.2029C15.0646 58.9131 15.7979 59.6638 16.4902 60.4519V61.9796Z" fill="black"/>
<path d="M16.3303 10.4013C15.5501 9.56527 14.783 8.72274 13.9669 7.92282C12.8016 6.78523 11.571 5.67387 10.2914 4.64447V3.74292C11.826 4.75824 13.2758 5.89741 14.6263 7.14913C15.2139 7.69989 15.7819 8.27251 16.3303 8.86699V10.4013Z" fill="black"/>
<path d="M21.7 78.2469C21.7 78.2469 21.886 78.119 22.7968 75.6635C22.8824 75.082 22.8824 74.4911 22.7968 73.9096C22.529 73.6599 22.2455 73.4278 21.9481 73.2146C21.416 72.8572 20.4204 72.4868 19.5945 71.9852C18.4618 71.9229 17.3291 71.8901 16.1997 71.8082C15.2204 71.736 14.2738 71.5787 13.3076 71.4443C12.3413 71.3099 11.3947 71.2574 10.4448 71.1164C10.4012 71.1102 10.3597 71.0933 10.324 71.0673C9.39372 71.0673 8.59072 71.0673 8.53849 71.0902L7.23278 71.7229L5.81936 73.6899C5.81936 73.6899 5.57128 75.893 5.57128 76.1454C5.57128 76.3979 7.13812 78.5058 7.13812 78.5058L6.5734 79.6697L5.2677 82.8824C5.2677 82.8824 8.026 85.3707 8.43403 85.6526C8.59072 85.7641 9.45901 85.9444 10.7386 86.0919C10.7502 86.0341 10.7818 85.9823 10.8278 85.9457C10.8738 85.9091 10.9313 85.89 10.9899 85.892C12.5307 85.892 14.0681 86.0002 15.6056 86.0198C16.3564 86.0198 17.0974 86.0624 17.8449 86.1346C18.0603 86.1542 18.2758 86.1673 18.4977 86.1805L18.7524 86.1575C23.5802 85.1084 22.7968 81.4105 22.7968 81.4105L21.7 78.2469Z" fill="#BBACA7"/>
<path d="M22.6009 73.585C21.9873 72.6015 20.1527 72.2409 19.2192 71.618C19.0088 71.4802 18.8149 71.3185 18.6414 71.1361C18.5296 71.294 18.4436 71.4689 18.3868 71.654C17.6013 71.7142 16.8118 71.6956 16.03 71.5983C15.8672 71.5735 15.701 71.5859 15.5436 71.6344C15.0244 71.5762 14.5089 71.4887 13.9996 71.3721C13.8996 71.3443 13.7936 71.3472 13.6952 71.3805C13.5969 71.4139 13.5108 71.476 13.448 71.559C13.1215 71.4311 12.7951 71.2967 12.4915 71.1525C12.4039 71.1167 12.3081 71.1067 12.215 71.1235C12.122 71.1404 12.0356 71.1834 11.966 71.2475C11.8224 71.0738 11.682 70.8968 11.5514 70.7197C11.3327 70.4247 10.879 70.7853 11.0455 71.0869C11.5322 72.0247 12.1512 72.8871 12.8832 73.6473C13.613 74.372 14.4338 74.998 15.3249 75.5094C16.8864 76.4438 18.6411 77.0047 20.4531 77.1486C21.2652 77.2098 22.0732 76.9849 22.738 76.5126C22.9274 75.4668 23.0416 74.2931 22.6009 73.585Z" fill="#968583"/>
<path d="M11.571 79.2008C11.6689 79.2893 11.7701 79.3713 11.868 79.4565C11.9626 79.3055 12.1007 79.187 12.264 79.1167C12.4272 79.0464 12.6079 79.0277 12.782 79.0631C14.6744 79.5138 16.6448 79.5205 18.5402 79.0828C19.464 78.8762 20.3225 78.5845 21.2822 78.7549C21.6538 78.8121 22.0026 78.9707 22.2904 79.2136C22.5783 79.4564 22.7941 79.7741 22.9143 80.1318C23.4203 81.771 21.9579 83.0824 20.5053 83.3741C18.8365 83.6634 17.1222 83.5304 15.5175 82.9873C13.711 82.4123 12.0986 81.3456 10.8594 79.9056C10.7663 79.8109 10.7145 79.6828 10.7155 79.5497C10.7164 79.4166 10.7699 79.2893 10.8643 79.1959C10.9586 79.1024 11.0861 79.0504 11.2186 79.0513C11.3512 79.0523 11.4779 79.106 11.571 79.2008Z" fill="#968583"/>
<path d="M22.2386 74.2931C22.3662 75.1149 22.2071 75.9557 21.7881 76.6732C21.2038 77.6567 20.156 78.1484 19.0494 78.3779C17.7695 78.6024 16.4701 78.6947 15.1715 78.6533C13.6694 78.6545 12.1685 78.567 10.6766 78.391C9.47536 78.2468 8.18597 78.0206 7.20996 77.2698C6.23395 76.5191 5.87488 75.4667 6.29923 74.3619C6.45797 73.957 6.69418 73.5872 6.99452 73.2735C7.15504 73.0326 7.33402 72.8046 7.52986 72.5916C8.56136 71.4442 10.0564 71.359 11.4959 71.3819C11.5131 71.1638 11.5186 70.9449 11.5123 70.7262C8.62991 70.3623 5.22529 71.7622 4.76177 74.8078C4.5398 76.2863 5.26773 77.6436 6.45592 78.5189C7.80406 79.5024 9.52106 79.745 11.1499 79.9253C12.9566 80.1236 14.7758 80.1828 16.5914 80.1023C18.1844 80.0302 19.8557 79.886 21.2463 79.0434C21.9427 78.6071 22.5188 78.0019 22.9215 77.2836C23.3242 76.5652 23.5406 75.7567 23.5508 74.9324C23.0602 74.8538 22.6037 74.6314 22.2386 74.2931Z" fill="black"/>
<path d="M4.76167 81.5481C5.00323 79.9089 6.06738 78.7582 7.40246 78.0665C7.93948 78.3678 8.50753 78.6097 9.09661 78.7877C8.95624 78.8205 8.81262 78.8566 8.67225 78.9025C8.13985 79.0651 7.65041 79.3453 7.23979 79.7225C6.82918 80.0997 6.50778 80.5644 6.29914 81.0826C6.10001 81.6098 6.08143 82.1887 6.24635 82.7278C6.41127 83.2668 6.75029 83.7353 7.20987 84.0593C8.18914 84.8264 9.47526 85.0428 10.6765 85.2035C12.168 85.3848 13.669 85.4746 15.1714 85.4723C16.4702 85.5158 17.7699 85.4224 19.0493 85.1936C20.1559 84.9576 21.2037 84.4593 21.788 83.4463C22.2791 82.5762 22.4103 81.5473 22.1536 80.581C22.0269 80.1182 21.7996 79.6894 21.488 79.3254C21.1765 78.9615 20.7884 78.6714 20.3518 78.4763C20.7146 78.255 21.0245 77.9561 21.2592 77.601C21.899 77.9528 22.4418 78.4586 22.8391 79.0729C24.2689 81.312 23.4691 84.5052 21.2462 85.8821C19.8589 86.7443 18.1843 86.8918 16.5913 86.9639C14.7756 87.0482 12.9561 86.9879 11.1498 86.7836C9.5177 86.6 7.80396 86.3607 6.45582 85.3444C5.85601 84.9265 5.3812 84.3521 5.08264 83.6831C4.78408 83.014 4.6731 82.2758 4.76167 81.5481Z" fill="black"/>
<path d="M15.6251 71.6934C15.6676 71.3656 15.994 71.4311 16.056 71.6934C16.2388 72.4704 16.3139 73.2736 16.5489 74.0342C16.7658 74.7415 17.0847 75.413 17.4956 76.0274C18.1903 77.1015 19.2646 77.8712 20.502 78.1813C20.7892 78.2436 20.7239 78.9287 20.4334 78.8861C19.7377 78.7627 19.0753 78.4948 18.4885 78.0997C17.9017 77.7045 17.4034 77.1908 17.0255 76.5913C16.5667 75.9051 16.2104 75.1551 15.9679 74.3653C15.6696 73.5083 15.5529 72.5983 15.6251 71.6934Z" fill="black"/>
<path d="M10.1314 71.3491C10.2424 71.159 10.4317 71.3 10.4839 71.477C10.5505 71.8248 10.5648 72.1806 10.5264 72.5326C10.5241 72.8765 10.5415 73.2202 10.5786 73.562C10.6511 74.2551 10.8 74.9379 11.0225 75.5979C11.3934 76.8216 12.0951 77.9179 13.0496 78.7648C13.3434 79.0041 13.079 79.627 12.782 79.3942C11.6944 78.483 10.8891 77.2784 10.4611 75.9224C10.215 75.1779 10.0518 74.4083 9.9747 73.6276C9.90615 72.9293 9.79516 71.9327 10.1314 71.3491Z" fill="black"/>
<path d="M16.2747 79.8434C16.2814 79.8073 16.2993 79.7742 16.3259 79.749C16.3524 79.7238 16.3862 79.7076 16.4225 79.7029C16.4588 79.6981 16.4956 79.7051 16.5277 79.7226C16.5598 79.7402 16.5855 79.7676 16.6011 79.8008C16.729 80.0562 16.8191 80.329 16.8688 80.6105C16.9372 80.8822 17.0222 81.1493 17.1234 81.4104C17.442 82.2204 17.9262 82.9543 18.5446 83.5647C19.1631 84.1752 19.9022 84.6485 20.7141 84.9543C21.0405 85.0789 20.9198 85.61 20.564 85.5117C19.3425 85.1186 18.2704 84.3589 17.4923 83.3348C17.104 82.8353 16.7876 82.2836 16.5522 81.6956C16.3302 81.1547 16.0789 80.4269 16.2747 79.8434Z" fill="black"/>
<path d="M9.84412 78.8828C9.86669 78.8554 9.89657 78.835 9.93028 78.824C9.96398 78.8131 10.0001 78.812 10.0344 78.821C10.0687 78.8299 10.0997 78.8485 10.1238 78.8746C10.1479 78.9006 10.1641 78.933 10.1705 78.968C10.2097 79.686 10.0726 80.3974 10.1314 81.1219C10.1941 81.8686 10.4015 82.5958 10.7418 83.2627C11.376 84.4766 12.3709 85.462 13.5882 86.082C13.9147 86.2558 13.6274 86.7377 13.2912 86.564C11.9235 85.9132 10.8065 84.8294 10.1118 83.479C9.76436 82.7795 9.54331 82.0236 9.45894 81.2465C9.39039 80.4859 9.4165 79.5548 9.84412 78.8828Z" fill="black"/>
<path d="M21.8207 71.9557C20.4726 70.9722 18.7556 70.7296 17.13 70.5493C15.3223 70.3493 13.502 70.2901 11.6852 70.3722C10.0955 70.4444 8.42095 70.5886 7.03364 71.4279C6.40615 71.8164 5.87454 72.3428 5.47878 72.9674C5.08301 73.592 4.83338 74.2986 4.74866 75.034C5.01953 75.2247 5.24953 75.468 5.42503 75.7496C5.60054 76.0311 5.71797 76.3452 5.77037 76.6732C5.93804 77.2214 6.23347 77.7215 6.63213 78.1321C6.71048 78.0633 6.79535 77.9944 6.88022 77.9288C6.52244 77.5623 6.26204 77.1114 6.12291 76.6175C5.99605 76.1492 5.96304 75.6603 6.0258 75.1792C6.08856 74.698 6.24584 74.2341 6.48851 73.8145C7.07607 72.831 8.12064 72.3392 9.22722 72.1098C10.5083 71.8864 11.8088 71.7952 13.1084 71.8377C14.6095 71.8349 16.1094 71.9224 17.6 72.0999C18.8013 72.2442 20.0907 72.4671 21.07 73.2178C22.0492 73.9686 22.4018 75.0209 21.9774 76.129C21.8714 76.4036 21.7275 76.6619 21.5498 76.8962C21.4769 77.0677 21.3907 77.2332 21.2919 77.3912C21.1753 77.5687 21.042 77.7344 20.8937 77.8862C20.6413 78.597 20.1273 79.1836 19.4574 79.5254C19.3588 79.5675 19.2629 79.6157 19.1702 79.6696C21.2854 79.2402 23.1787 77.8993 23.5149 75.6864C23.7401 74.1981 23.0122 72.831 21.8207 71.9557Z" fill="black"/>
<path d="M155.345 27.1766C156.06 27.6683 157.131 27.6716 157.973 27.7995C159.435 28.0257 160.911 28.0355 162.39 28.1732C165.001 28.4158 167.028 28.0945 169.124 26.5996C169.277 26.2881 169.555 25.6456 170.051 24.3047C170.136 23.7233 170.136 23.1323 170.051 22.5508C169.783 22.2993 169.499 22.0671 169.199 21.8558C168.667 21.4985 167.671 21.128 166.845 20.6231C165.716 20.5641 164.583 20.5314 163.45 20.4461C162.471 20.374 161.525 20.2166 160.562 20.0855C159.599 19.9544 158.649 19.8954 157.696 19.7577C157.652 19.7514 157.61 19.7345 157.575 19.7085C156.644 19.7085 155.841 19.7085 155.789 19.7314L154.484 20.3609L153.073 22.3443C153.073 22.3443 152.822 24.5506 152.822 24.7998C152.822 24.9866 153.658 26.1603 154.108 26.7668C154.554 26.761 154.99 26.9052 155.345 27.1766Z" fill="#BBACA7"/>
<path d="M169.855 22.2262C169.244 21.2427 167.407 20.8821 166.476 20.2592C166.266 20.1212 166.072 19.9596 165.899 19.7773C165.783 19.933 165.697 20.1085 165.644 20.2953C164.857 20.356 164.067 20.3362 163.284 20.2363C163.121 20.2132 162.955 20.2255 162.798 20.2724C162.279 20.2142 161.765 20.1267 161.257 20.0101C161.156 19.9835 161.051 19.9874 160.952 20.0212C160.854 20.0551 160.768 20.1174 160.705 20.2002C160.379 20.0724 160.052 19.938 159.749 19.7937C159.662 19.7507 159.564 19.7339 159.468 19.7456C159.372 19.7572 159.281 19.7967 159.207 19.8593C159.063 19.6822 158.926 19.5085 158.792 19.3282C158.574 19.0331 158.12 19.3938 158.29 19.6986C158.774 20.6358 159.392 21.4972 160.124 22.2558C162.175 24.2695 164.854 25.5128 167.71 25.7767C168.523 25.8396 169.331 25.6146 169.995 25.1407C170.185 24.1113 170.299 22.9344 169.855 22.2262Z" fill="#968583"/>
<path d="M169.496 22.9344C169.62 23.7572 169.461 24.5978 169.045 25.3177C168.458 26.3012 167.413 26.793 166.307 27.0225C165.025 27.2453 163.725 27.3376 162.425 27.2979C160.924 27.2974 159.425 27.2098 157.934 27.0356C156.732 26.8914 155.443 26.6651 154.464 25.9144C154.008 25.604 153.67 25.1475 153.505 24.6195C153.34 24.0914 153.358 23.5229 153.556 23.0065C153.713 22.6012 153.948 22.2312 154.248 21.9181C154.41 21.6771 154.59 21.4491 154.787 21.2362C155.819 20.0855 157.314 20.0035 158.753 20.0232C158.767 19.8049 158.767 19.5859 158.753 19.3675C155.874 19.0004 152.466 20.4002 152.006 23.4491C151.781 24.9243 152.509 26.2816 153.7 27.1602C155.048 28.1437 156.765 28.3863 158.391 28.5666C160.198 28.7655 162.019 28.8236 163.836 28.7403C165.425 28.6715 167.1 28.524 168.487 27.6847C169.184 27.2484 169.76 26.6432 170.162 25.9249C170.565 25.2065 170.781 24.398 170.792 23.5737C170.306 23.4932 169.856 23.2708 169.496 22.9344Z" fill="black"/>
<path d="M162.882 20.338C162.925 20.0102 163.248 20.0724 163.31 20.338C163.493 21.1117 163.571 21.9182 163.806 22.6755C164.02 23.3851 164.339 24.0583 164.753 24.672C165.448 25.7461 166.522 26.5158 167.759 26.8259C168.047 26.8881 167.981 27.5733 167.687 27.5274C166.992 27.4047 166.33 27.1371 165.743 26.7419C165.157 26.3467 164.659 25.8325 164.283 25.2326C163.822 24.5475 163.466 23.7972 163.225 23.0066C162.924 22.1515 162.807 21.2419 162.882 20.338Z" fill="black"/>
<path d="M157.389 19.9905C157.496 19.8003 157.689 19.9446 157.741 20.1183C157.806 20.4674 157.82 20.8241 157.784 21.1772C157.78 21.521 157.797 21.8647 157.833 22.2067C157.905 22.9 158.055 23.5829 158.28 24.2425C158.65 25.4664 159.352 26.5629 160.307 27.4094C160.597 27.6487 160.336 28.2716 160.039 28.0356C158.952 27.1258 158.146 25.9221 157.718 24.5671C157.47 23.823 157.306 23.0532 157.229 22.2722C157.16 21.5739 157.049 20.574 157.389 19.9905Z" fill="black"/>
<path d="M169.078 20.597C167.73 19.6135 166.013 19.3709 164.384 19.1906C162.577 18.9918 160.758 18.9337 158.943 19.0168C157.35 19.0857 155.678 19.2332 154.288 20.0725C153.663 20.4628 153.135 20.99 152.742 21.6145C152.349 22.239 152.102 22.9447 152.019 23.6787C152.288 23.8676 152.516 24.1084 152.691 24.3871C152.866 24.6657 152.984 24.9766 153.038 25.3014C153.201 25.8542 153.493 26.3599 153.889 26.7767C153.969 26.7046 154.051 26.6368 154.138 26.5734C153.779 26.2072 153.519 25.7562 153.38 25.2621C153.253 24.7939 153.22 24.3049 153.283 23.8237C153.346 23.3425 153.503 22.8787 153.746 22.4591C154.33 21.4756 155.378 20.9839 156.485 20.7544C157.765 20.5314 159.064 20.4392 160.362 20.479C161.865 20.4794 163.365 20.5669 164.857 20.7413C166.059 20.8855 167.348 21.1117 168.324 21.8624C169.3 22.6132 169.659 23.6655 169.235 24.7703C169.128 25.0457 168.984 25.3049 168.807 25.5408C168.733 25.7117 168.647 25.8771 168.549 26.0358C168.431 26.2113 168.298 26.3759 168.151 26.5275C167.898 27.2389 167.383 27.8256 166.711 28.1667C166.614 28.2093 166.519 28.2618 166.427 28.311C168.543 27.8848 170.436 26.5439 170.772 24.3278C170.994 22.8296 170.283 21.4756 169.078 20.597Z" fill="black"/>
<path d="M169.381 78.2469C169.381 78.2469 169.571 78.119 170.478 75.6635C170.564 75.082 170.564 74.4911 170.478 73.9096C170.211 73.6592 169.928 73.427 169.63 73.2146C169.098 72.8572 168.102 72.4868 167.276 71.9852C166.147 71.9229 165.014 71.8901 163.881 71.8082C162.902 71.736 161.955 71.5787 160.992 71.4443C160.029 71.3099 159.08 71.2574 158.126 71.1164C158.083 71.1102 158.041 71.0933 158.006 71.0673C157.075 71.0673 156.272 71.0673 156.22 71.0902L154.914 71.7229L153.504 73.6899C153.504 73.6899 153.253 75.893 153.253 76.1454C153.253 76.3979 154.82 78.5058 154.82 78.5058L154.255 79.6697L152.949 82.8824C152.949 82.8824 155.708 85.3707 156.116 85.6526C156.276 85.7641 157.141 85.9444 158.42 86.0919C158.432 86.0339 158.465 85.982 158.511 85.9454C158.558 85.9088 158.616 85.8899 158.675 85.892C160.212 85.892 161.75 86.0002 163.29 86.0198C164.041 86.0198 164.782 86.0624 165.53 86.1346C165.745 86.1542 165.961 86.1673 166.183 86.1805L166.437 86.1575C171.262 85.1084 170.478 81.4105 170.478 81.4105L169.381 78.2469Z" fill="#BBACA7"/>
<path d="M170.282 73.5851C169.672 72.6016 167.834 72.2409 166.904 71.618C166.693 71.4811 166.499 71.3193 166.326 71.1361C166.212 71.2925 166.126 71.4678 166.072 71.6541C165.285 71.7143 164.494 71.6956 163.712 71.5984C163.549 71.5736 163.383 71.5859 163.225 71.6344C162.707 71.5763 162.193 71.4887 161.684 71.3722C161.584 71.3482 161.479 71.3548 161.383 71.391C161.286 71.4272 161.203 71.4914 161.143 71.5754C160.816 71.4476 160.49 71.3132 160.186 71.1689C160.099 71.1267 160.002 71.1104 159.906 71.122C159.81 71.1336 159.719 71.1727 159.644 71.2345C159.501 71.0607 159.364 70.8837 159.23 70.7067C159.011 70.4116 158.557 70.7722 158.727 71.0738C159.213 72.0116 159.83 72.8739 160.562 73.6342C162.613 75.6402 165.287 76.8804 168.138 77.1486C168.95 77.2099 169.758 76.985 170.423 76.5126C170.609 75.4668 170.726 74.2932 170.282 73.5851Z" fill="#968583"/>
<path d="M159.253 79.2008C159.35 79.2893 159.452 79.3713 159.553 79.4565C159.647 79.3058 159.784 79.1874 159.947 79.1171C160.11 79.0468 160.29 79.028 160.464 79.0631C162.357 79.5137 164.328 79.5205 166.225 79.0828C167.149 78.8762 168.007 78.5845 168.964 78.7549C169.336 78.8114 169.685 78.9698 169.973 79.2127C170.261 79.4557 170.476 79.7737 170.596 80.1318C171.102 81.771 169.639 83.0824 168.187 83.3741C166.419 83.6642 164.606 83.498 162.919 82.8913C161.232 82.2846 159.727 81.2572 158.544 79.9056C158.498 79.8589 158.462 79.8036 158.437 79.7427C158.412 79.6818 158.399 79.6166 158.4 79.5509C158.4 79.4851 158.413 79.4201 158.439 79.3595C158.464 79.2988 158.501 79.2438 158.547 79.1975C158.594 79.1512 158.649 79.1146 158.71 79.0897C158.77 79.0648 158.835 79.0522 158.901 79.0525C158.966 79.0528 159.031 79.066 159.091 79.0915C159.152 79.1169 159.206 79.1541 159.253 79.2008Z" fill="#968583"/>
<path d="M169.923 74.2931C170.047 75.1148 169.888 75.9542 169.473 76.6732C168.885 77.6567 167.841 78.1484 166.734 78.3779C165.453 78.6024 164.153 78.6947 162.853 78.6533C161.352 78.6544 159.852 78.5669 158.361 78.391C157.16 78.2468 155.871 78.0206 154.892 77.2698C154.435 76.9594 154.097 76.503 153.933 75.9749C153.768 75.4468 153.786 74.8783 153.984 74.3619C154.142 73.9571 154.377 73.5873 154.676 73.2735C154.838 73.0325 155.018 72.8045 155.215 72.5916C156.246 71.4442 157.741 71.359 159.181 71.3819C159.194 71.1636 159.194 70.9446 159.181 70.7262C156.302 70.3623 152.894 71.7622 152.434 74.8078C152.208 76.2863 152.936 77.6436 154.128 78.5189C155.476 79.5024 157.193 79.745 158.818 79.9253C160.626 80.1236 162.446 80.1828 164.263 80.1023C165.853 80.0302 167.528 79.886 168.915 79.0434C169.611 78.6071 170.187 78.0019 170.59 77.2836C170.993 76.5652 171.209 75.7567 171.219 74.9324C170.734 74.8521 170.283 74.6297 169.923 74.2931Z" fill="black"/>
<path d="M152.447 81.5481C152.688 79.9089 153.733 78.7582 155.084 78.0665C155.622 78.369 156.191 78.612 156.781 78.791C156.638 78.8238 156.497 78.8598 156.357 78.9057C155.825 79.067 155.335 79.3463 154.924 79.723C154.513 80.0998 154.192 80.5644 153.984 81.0826C153.785 81.6095 153.766 82.188 153.931 82.7269C154.095 83.2657 154.433 83.7345 154.891 84.0593C155.871 84.8264 157.16 85.0428 158.361 85.2035C159.852 85.3848 161.352 85.4746 162.853 85.4723C164.153 85.5159 165.454 85.4225 166.734 85.1936C167.841 84.9576 168.885 84.4593 169.473 83.4462C169.964 82.5762 170.095 81.5473 169.839 80.581C169.711 80.1184 169.484 79.6897 169.172 79.3259C168.861 78.962 168.473 78.6718 168.037 78.4763C168.398 78.2532 168.708 77.9547 168.944 77.601C169.582 77.9538 170.124 78.4594 170.521 79.0729C171.954 81.312 171.151 84.5052 168.928 85.8821C167.54 86.7443 165.866 86.8918 164.276 86.9639C162.459 87.0482 160.639 86.9879 158.831 86.7836C157.199 86.6 155.489 86.3607 154.141 85.3444C152.949 84.4494 152.221 83.0496 152.447 81.5481Z" fill="black"/>
<path d="M163.31 71.6934C163.352 71.3656 163.676 71.4311 163.738 71.6934C163.92 72.4704 163.999 73.2736 164.234 74.0342C164.448 74.7425 164.767 75.4145 165.18 76.0274C165.875 77.1015 166.949 77.8712 168.187 78.1813C168.474 78.2436 168.409 78.9287 168.115 78.8861C167.42 78.762 166.758 78.4939 166.172 78.0988C165.586 77.7037 165.088 77.1903 164.71 76.5913C164.25 75.9058 163.894 75.1557 163.653 74.3653C163.351 73.5091 163.234 72.5984 163.31 71.6934Z" fill="black"/>
<path d="M157.816 71.3491C157.924 71.159 158.117 71.3 158.169 71.477C158.234 71.825 158.248 72.1805 158.211 72.5326C158.208 72.8764 158.224 73.2201 158.26 73.562C158.332 74.2554 158.482 74.9384 158.707 75.5979C159.077 76.8222 159.779 77.9188 160.735 78.7648C161.025 79.0041 160.764 79.627 160.467 79.3942C159.379 78.483 158.574 77.2784 158.146 75.9224C157.897 75.1785 157.733 74.4086 157.656 73.6276C157.588 72.9293 157.477 71.9327 157.816 71.3491Z" fill="black"/>
<path d="M163.956 79.8434C163.965 79.8086 163.983 79.7771 164.01 79.7532C164.037 79.7293 164.07 79.714 164.105 79.7094C164.14 79.7047 164.176 79.711 164.208 79.7273C164.24 79.7436 164.266 79.7692 164.283 79.8008C164.408 80.0574 164.498 80.3297 164.551 80.6105C164.623 80.8836 164.712 81.1518 164.818 81.4137C165.136 82.2244 165.619 82.959 166.238 83.5696C166.857 84.1801 167.596 84.6531 168.409 84.9576C168.752 85.0822 168.615 85.6133 168.255 85.5149C167.035 85.1217 165.964 84.3619 165.187 83.3381C164.798 82.8387 164.48 82.287 164.244 81.6989C164.012 81.1547 163.754 80.4269 163.956 79.8434Z" fill="black"/>
<path d="M157.529 78.8828C157.552 78.8554 157.582 78.835 157.615 78.824C157.649 78.8131 157.685 78.812 157.719 78.821C157.754 78.8299 157.785 78.8485 157.809 78.8746C157.833 78.9006 157.849 78.933 157.855 78.968C157.891 79.686 157.758 80.3974 157.816 81.1219C157.878 81.8689 158.085 82.5964 158.427 83.2627C159.06 84.4773 160.055 85.4631 161.273 86.082C161.6 86.2558 161.309 86.7377 160.973 86.564C159.605 85.9132 158.488 84.8294 157.793 83.479C157.444 82.7801 157.223 82.0239 157.141 81.2465C157.075 80.4859 157.098 79.5548 157.529 78.8828Z" fill="black"/>
<path d="M169.506 71.9556C168.157 70.9721 166.44 70.7295 164.812 70.5492C163.005 70.3493 161.186 70.2901 159.37 70.3722C157.777 70.4443 156.106 70.5886 154.715 71.4278C154.092 71.8193 153.564 72.3467 153.171 72.971C152.779 73.5953 152.531 74.3004 152.447 75.034C152.717 75.2248 152.946 75.4683 153.121 75.7498C153.296 76.0314 153.413 76.3454 153.465 76.6732C153.628 77.2251 153.92 77.7298 154.317 78.1452C154.395 78.0763 154.477 78.0075 154.565 77.9419C154.206 77.5762 153.946 77.125 153.808 76.6306C153.681 76.1623 153.648 75.6734 153.711 75.1923C153.773 74.7111 153.931 74.2472 154.173 73.8276C154.758 72.8441 155.805 72.3523 156.912 72.1228C158.192 71.8995 159.491 71.8083 160.79 71.8507C162.292 71.8478 163.793 71.9354 165.285 72.113C166.486 72.2573 167.775 72.4802 168.752 73.2309C169.728 73.9817 170.087 75.034 169.662 76.1421C169.555 76.4161 169.411 76.6742 169.235 76.9092C169.16 77.0802 169.074 77.2456 168.977 77.4043C168.858 77.5802 168.725 77.7458 168.579 77.8993C168.325 78.6106 167.81 79.1973 167.139 79.5385C167.041 79.58 166.946 79.6282 166.855 79.6827C168.97 79.2533 170.863 77.9124 171.2 75.6995C171.422 74.198 170.694 72.831 169.506 71.9556Z" fill="black"/>
<path d="M8.32958 29.8551C9.04445 30.3468 10.1119 30.3501 10.9573 30.4779C12.4197 30.7042 13.8951 30.7173 15.3706 30.8517C17.982 31.0943 20.0124 30.773 22.1047 29.2781C22.2582 28.9502 22.5389 28.3241 23.0351 26.9832C23.1224 26.4019 23.1224 25.8107 23.0351 25.2293C22.7688 24.9779 22.4852 24.7456 22.1864 24.5343C21.6543 24.1769 20.6587 23.8065 19.8328 23.3016C18.7001 23.2426 17.5674 23.2098 16.438 23.1246C15.4587 23.0525 14.5121 22.8951 13.5459 22.764C12.5796 22.6328 11.633 22.5738 10.6831 22.4361C10.6395 22.4299 10.598 22.413 10.5623 22.387C9.63202 22.387 8.82901 22.387 8.77678 22.4099L7.47108 23.0394L6.06092 25.0064C6.06092 25.0064 5.80957 27.2127 5.80957 27.4619C5.80957 27.6487 6.64522 28.8224 7.09569 29.4289C7.54285 29.4285 7.97725 29.5785 8.32958 29.8551Z" fill="#BBACA7"/>
<path d="M22.8392 24.9047C22.2288 23.9212 20.391 23.5606 19.4607 22.9541C19.2504 22.8161 19.0566 22.6544 18.8829 22.4721C18.7676 22.6284 18.6803 22.8037 18.6251 22.9901C17.8395 23.0508 17.0498 23.031 16.2683 22.9311C16.1054 22.908 15.9396 22.9203 15.7819 22.9672C15.2627 22.9088 14.7473 22.8212 14.2379 22.7049C14.138 22.6782 14.0325 22.682 13.9348 22.7158C13.8371 22.7497 13.7517 22.8121 13.6895 22.8951C13.3631 22.7672 13.0366 22.6328 12.7298 22.4885C12.6435 22.4453 12.5464 22.4285 12.4507 22.4402C12.355 22.4519 12.2647 22.4915 12.1912 22.5541C12.0476 22.3771 11.9072 22.2033 11.7766 22.023C11.5579 21.728 11.1042 22.0886 11.2707 22.3935C11.7567 23.3308 12.3757 24.1922 13.1085 24.9506C13.8393 25.6805 14.6624 26.311 15.5567 26.8258C17.119 27.7609 18.8749 28.3218 20.6881 28.465C21.5005 28.529 22.3094 28.3039 22.973 27.829C23.1689 26.7897 23.2799 25.6128 22.8392 24.9047Z" fill="#968583"/>
<path d="M22.4801 25.6128C22.604 26.4356 22.4451 27.2762 22.0297 27.9962C21.4421 28.9797 20.3975 29.4715 19.291 29.7009C18.0098 29.9238 16.7094 30.0161 15.4098 29.9763C13.9088 29.9758 12.4091 29.8883 10.9181 29.7141C9.71689 29.5698 8.42751 29.3436 7.44823 28.5929C6.46895 27.8421 6.11315 26.7898 6.54077 25.685C6.69731 25.2797 6.93254 24.9097 7.23279 24.5966C7.39339 24.3548 7.57353 24.1267 7.77139 23.9147C8.79963 22.764 10.2947 22.682 11.7375 22.7017C11.7494 22.4833 11.7494 22.2644 11.7375 22.046C8.85839 21.6788 5.45051 23.0787 4.98698 26.1275C4.76501 27.6061 5.49294 28.96 6.68439 29.8386C8.02927 30.8222 9.74627 31.0648 11.3751 31.2451C13.1829 31.4439 15.0032 31.502 16.8199 31.4188C18.4096 31.35 20.0842 31.2024 21.4715 30.3632C22.1679 29.9269 22.744 29.3217 23.1467 28.6033C23.5494 27.885 23.7658 27.0765 23.7761 26.2521C23.2905 26.173 22.8393 25.9504 22.4801 25.6128Z" fill="black"/>
<path d="M15.883 23.0163C15.9255 22.6885 16.2486 22.7508 16.3106 23.0163C16.4934 23.79 16.5685 24.5965 16.8035 25.3538C17.0194 26.0631 17.3396 26.736 17.7534 27.3503C18.4462 28.4249 19.5197 29.1949 20.7566 29.5042C21.0438 29.5665 20.9818 30.2517 20.688 30.2058C19.992 30.0831 19.3293 29.8156 18.7424 29.4203C18.1555 29.0251 17.6574 28.511 17.2801 27.9109C16.8141 27.2247 16.4532 26.4721 16.2094 25.6784C15.9146 24.8241 15.8034 23.9169 15.883 23.0163Z" fill="black"/>
<path d="M10.3698 22.6688C10.4808 22.4787 10.6734 22.6229 10.7256 22.7967C10.7889 23.1459 10.8032 23.5024 10.768 23.8556C10.7647 24.1994 10.7811 24.5431 10.817 24.885C10.889 25.5784 11.039 26.2614 11.2642 26.9209C11.6348 28.1439 12.3353 29.24 13.288 30.0877C13.5818 30.3271 13.3174 30.9499 13.0204 30.7139C11.9338 29.8031 11.1287 28.5998 10.6995 27.2454C10.4536 26.5008 10.2905 25.7312 10.2131 24.9506C10.1446 24.2523 10.0336 23.2524 10.3698 22.6688Z" fill="black"/>
<path d="M22.059 23.2754C20.7141 22.2919 18.9971 22.0493 17.3683 21.869C15.5605 21.6701 13.7402 21.612 11.9235 21.6952C10.3338 21.7641 8.65923 21.9116 7.27192 22.7508C6.6454 23.1405 6.11453 23.6671 5.71889 24.2916C5.32325 24.916 5.07305 25.622 4.98694 26.357C5.25811 26.5434 5.48937 26.7824 5.66709 27.06C5.84481 27.3376 5.96539 27.6481 6.02171 27.9733C6.18427 28.5256 6.47516 29.0312 6.87042 29.4485C6.94876 29.3764 7.03363 29.3108 7.1185 29.2453C6.76123 28.8789 6.50187 28.4278 6.36446 27.9339C6.23863 27.4649 6.20731 26.9754 6.27233 26.4941C6.33735 26.0127 6.4974 25.5493 6.74311 25.1309C7.33068 24.1474 8.37524 23.6557 9.48182 23.4262C10.763 23.2033 12.0634 23.1111 13.363 23.1508C14.864 23.1513 16.3637 23.2388 17.8546 23.4131C19.0559 23.5573 20.3453 23.7835 21.3246 24.5343C22.3038 25.285 22.6596 26.3374 22.232 27.4422C22.1281 27.7187 21.984 27.9783 21.8044 28.2126C21.7326 28.3841 21.6475 28.5496 21.5498 28.7076C21.4318 28.8839 21.2974 29.0486 21.1483 29.1994C20.8959 29.9101 20.3819 30.4967 19.712 30.8385C19.6141 30.8811 19.5194 30.9336 19.4248 30.9828C21.54 30.5566 23.4365 29.2157 23.7727 26.9996C23.9784 25.5079 23.2505 24.154 22.059 23.2754Z" fill="black"/>
<path d="M40.4318 62.4878C39.5918 61.9838 39.0598 61.3678 38.9758 60.4998C38.8638 59.2398 38.7518 57.9798 38.7798 56.7198C38.7798 55.1238 38.8918 53.5558 39.0038 51.9878C39.1158 50.5318 39.2278 49.0758 39.4238 47.6198C39.5638 46.3878 39.9838 45.1838 40.6838 44.1478C40.8798 43.8118 41.1038 43.4758 41.5518 43.3078C41.6918 44.2318 41.7478 45.1278 42.3078 45.8558C42.4478 45.8558 42.6158 45.8278 42.7278 45.8838C43.1198 46.1078 43.1758 46.1078 43.2878 45.6598C43.5398 44.6238 43.2318 43.6438 42.8958 42.6638C42.6998 42.1038 42.2518 41.7958 41.6078 41.8798C41.3278 41.9078 41.0758 41.9078 40.7958 41.9358C40.1798 41.9638 39.7038 42.2438 39.2838 42.6918C38.7798 43.2518 38.4718 43.9518 38.2198 44.6518C37.7998 45.9118 37.5478 47.1998 37.4358 48.4878C37.1558 51.8758 36.9878 55.2358 37.1558 58.6238C37.2118 59.9678 37.3798 61.2558 38.1918 62.4038C38.5838 62.9358 38.9758 63.3838 39.5918 63.5798C39.9278 63.6638 40.2918 63.7478 40.6278 63.8318C41.4678 63.9998 42.0558 63.6358 42.2518 62.7958C42.3918 62.2918 42.4478 61.8158 42.2238 61.3678C41.6078 61.3118 41.0758 61.3678 40.7958 62.0398C40.7398 62.1798 40.5998 62.3198 40.4318 62.4878ZM37.3798 56.6638C37.3798 55.8798 37.3518 55.1238 37.4078 54.3398C37.5198 52.0998 37.6038 49.8318 37.8278 47.5918C37.9398 46.5278 38.2758 45.5198 38.5558 44.4838C38.6678 44.0638 38.9198 43.6438 39.1998 43.2518C39.2278 43.3078 39.2278 43.3918 39.2278 43.4198C38.4438 44.8478 38.1358 46.4158 37.9398 48.0118C37.6318 50.5318 37.5758 53.0798 37.4918 55.6278C37.4918 55.9638 37.4358 56.3278 37.4358 56.6638C37.4078 56.6638 37.4078 56.6638 37.3798 56.6638ZM37.4918 57.6998C37.4918 58.1758 37.4918 58.6238 37.4918 59.0718C37.4918 59.0718 37.4638 59.0718 37.4358 59.0718C37.4358 58.6238 37.4358 58.1758 37.4358 57.7278C37.4638 57.7278 37.4918 57.7278 37.4918 57.6998ZM50.5282 50.8398C50.5282 50.6438 50.5282 50.4198 50.5562 50.1678C50.5842 48.2078 50.5562 46.2478 50.0242 44.3438C49.9122 43.8958 49.7442 43.4758 49.5202 43.0558C49.2122 42.4398 48.6522 42.1878 47.9802 42.2158C47.6442 42.2438 47.3082 42.3278 46.9722 42.2718C46.1882 42.2158 45.7682 42.6358 45.3762 43.2518C44.6202 44.3998 44.2842 45.7158 44.0322 47.0318C43.7242 48.7678 43.6122 50.5318 43.5282 52.2678C43.4722 54.0598 43.3882 55.8798 43.3882 57.6718C43.3882 59.2678 43.6962 60.8078 44.5642 62.2358C45.2922 63.4118 46.3282 63.8878 47.5882 63.9998C48.0922 64.0558 48.5402 63.8318 48.8202 63.4398C49.1002 63.0198 49.4082 62.5158 49.4922 62.0118C49.8002 60.2198 50.1082 58.3718 50.2762 56.5518C50.4442 54.6758 50.4722 52.7718 50.5282 50.8398ZM47.0282 62.4878C46.3282 61.9558 45.8242 61.2838 45.6002 60.4158C45.3482 59.2958 45.3202 58.1758 45.3762 57.0278C45.5442 54.6758 45.7122 52.2958 45.9082 49.9158C46.0482 48.0398 46.4682 46.1918 47.1402 44.4278C47.2522 44.1758 47.2802 43.8118 47.6722 43.8398C48.0362 43.8678 48.0922 44.1758 48.1762 44.4558C48.5682 45.8278 48.7922 47.2278 48.7642 48.6558C48.7362 51.2318 48.7362 53.8078 48.5402 56.3838C48.4282 58.0638 48.0362 59.7158 47.7842 61.3678C47.7002 61.8438 47.4762 62.2078 47.0282 62.4878ZM43.8362 58.9598C43.4442 56.8038 43.7242 54.6758 43.8362 52.5478C43.9482 50.8118 44.1162 49.0758 44.3122 47.3118C44.4242 46.2198 44.7322 45.1558 45.1802 44.1198C45.2922 43.9238 45.4042 43.6998 45.5722 43.3918C45.6002 43.5878 45.6282 43.6438 45.6002 43.6998C44.8162 45.3518 44.4802 47.1158 44.3122 48.9078C44.0042 52.2398 43.8082 55.5718 43.8362 58.9598ZM47.9242 61.8998C48.4562 59.7998 48.7362 57.6438 48.8762 55.4878C49.0442 53.3318 49.0722 51.1478 49.1282 49.0198C49.4922 52.2958 48.7642 60.4998 47.9242 61.8998ZM49.0442 47.5638C49.0442 47.7598 49.0442 47.9278 49.0442 48.1238C49.0442 48.1238 49.0442 48.1238 49.0162 48.1238C49.0162 47.9278 49.0162 47.7598 49.0162 47.5638C49.0442 47.5638 49.0442 47.5638 49.0442 47.5638ZM53.4647 63.7198C53.5207 63.3558 53.6047 63.0198 53.6047 62.6838C53.7447 60.2478 53.8847 57.7838 53.9967 55.3478C54.0527 53.3878 54.0527 51.3998 54.1087 49.4118C54.1087 49.2158 54.0247 48.9638 54.2487 48.7118C54.2767 48.8798 54.3327 48.9918 54.3607 49.1038C54.9207 51.4838 55.4527 53.8638 56.0407 56.2158C56.4887 58.0918 56.9927 59.9678 57.5527 61.8158C57.7487 62.4318 57.8887 63.3278 58.9247 63.2718C58.9527 63.2718 58.9807 63.3558 59.0087 63.3558C59.1487 63.3838 59.2887 63.4118 59.4567 63.4398C59.4847 63.2438 59.5407 63.1318 59.5407 62.9918C59.6527 60.8078 59.7647 58.6518 59.8767 56.4678C60.0167 53.4718 60.1567 50.4758 60.2967 47.4798C60.3527 45.8278 60.7447 44.1758 60.3247 42.5238C60.1847 42.0198 60.2407 41.9918 59.7367 41.9918C59.5687 41.9918 59.4287 41.9918 59.2607 41.9918C58.7007 42.0478 58.6727 42.0478 58.6447 42.6358C58.5887 43.8958 58.5047 45.1558 58.4487 46.4158C58.3367 49.4678 58.2527 52.4918 58.1687 55.5438C58.1687 55.7118 58.1407 55.8518 58.1407 56.0198C57.7767 54.8158 57.4967 53.6398 57.2167 52.4358C56.5447 49.6358 55.9567 46.8078 54.9767 44.0918C54.6967 43.3358 54.4167 42.5518 53.9407 41.8518C53.4927 41.9078 53.0447 41.9358 52.5127 41.9638C52.4567 42.7758 52.3447 43.5878 52.3167 44.3718C52.2047 48.0958 52.0927 51.7918 51.9807 55.5158C51.9247 57.5598 51.8407 59.5758 51.7287 61.6198C51.7007 62.3478 52.0927 62.8518 52.4007 63.4118C52.4287 63.4678 52.5407 63.5518 52.6247 63.5518C52.8767 63.6358 53.1567 63.6638 53.4647 63.7198ZM52.7367 43.2238C52.8767 45.0158 52.3727 60.1078 52.0367 62.1798C52.0367 61.4518 52.0087 60.6958 52.0367 59.9678C52.3167 54.6758 52.5687 49.4118 52.5687 44.1198C52.5687 43.8118 52.5687 43.5038 52.5687 43.2238C52.6247 43.2238 52.6807 43.2238 52.7367 43.2238ZM59.0647 42.2438C59.0647 44.7638 58.8127 47.2838 58.7287 49.8038C58.6167 52.3238 58.5887 54.8438 58.5327 57.4198C58.2527 56.3558 58.7007 43.3638 59.0647 42.2438ZM63.4178 63.7198C63.4738 63.3558 63.5578 63.0198 63.5578 62.6838C63.6978 60.2478 63.8378 57.7838 63.9498 55.3478C64.0058 53.3878 64.0058 51.3998 64.0618 49.4118C64.0618 49.2158 63.9778 48.9638 64.2018 48.7118C64.2298 48.8798 64.2858 48.9918 64.3138 49.1038C64.8738 51.4838 65.4058 53.8638 65.9938 56.2158C66.4418 58.0918 66.9458 59.9678 67.5058 61.8158C67.7018 62.4318 67.8418 63.3278 68.8778 63.2718C68.9058 63.2718 68.9338 63.3558 68.9618 63.3558C69.1018 63.3838 69.2418 63.4118 69.4098 63.4398C69.4378 63.2438 69.4938 63.1318 69.4938 62.9918C69.6058 60.8078 69.7178 58.6518 69.8298 56.4678C69.9698 53.4718 70.1098 50.4758 70.2498 47.4798C70.3058 45.8278 70.6978 44.1758 70.2778 42.5238C70.1378 42.0198 70.1938 41.9918 69.6898 41.9918C69.5218 41.9918 69.3818 41.9918 69.2138 41.9918C68.6538 42.0478 68.6258 42.0478 68.5978 42.6358C68.5418 43.8958 68.4578 45.1558 68.4018 46.4158C68.2898 49.4678 68.2058 52.4918 68.1218 55.5438C68.1218 55.7118 68.0938 55.8518 68.0938 56.0198C67.7298 54.8158 67.4498 53.6398 67.1698 52.4358C66.4978 49.6358 65.9098 46.8078 64.9298 44.0918C64.6498 43.3358 64.3698 42.5518 63.8938 41.8518C63.4458 41.9078 62.9978 41.9358 62.4658 41.9638C62.4098 42.7758 62.2978 43.5878 62.2698 44.3718C62.1578 48.0958 62.0458 51.7918 61.9338 55.5158C61.8778 57.5598 61.7938 59.5758 61.6818 61.6198C61.6538 62.3478 62.0458 62.8518 62.3538 63.4118C62.3818 63.4678 62.4938 63.5518 62.5778 63.5518C62.8298 63.6358 63.1098 63.6638 63.4178 63.7198ZM62.6898 43.2238C62.8298 45.0158 62.3258 60.1078 61.9898 62.1798C61.9898 61.4518 61.9618 60.6958 61.9898 59.9678C62.2698 54.6758 62.5218 49.4118 62.5218 44.1198C62.5218 43.8118 62.5218 43.5038 62.5218 43.2238C62.5778 43.2238 62.6338 43.2238 62.6898 43.2238ZM69.0178 42.2438C69.0178 44.7638 68.7658 47.2838 68.6818 49.8038C68.5698 52.3238 68.5418 54.8438 68.4858 57.4198C68.2058 56.3558 68.6538 43.3638 69.0178 42.2438ZM75.9469 62.5158C75.3589 62.5718 74.7989 62.6558 74.2109 62.7398C73.6789 62.7958 73.4829 62.6558 73.3989 62.1238C73.3989 61.9278 73.3709 61.7318 73.3709 61.5358C73.3989 60.6678 73.3989 59.7998 73.4269 58.9318C73.4549 56.4118 73.4829 53.9198 73.5109 51.3998C73.5389 51.0358 73.5949 50.6718 73.6229 50.3078C74.6029 50.1398 75.5549 50.2518 76.4229 49.8878C76.3389 49.5798 76.2829 49.3278 76.1989 48.9918C75.3869 48.9918 74.6029 48.9918 73.7629 48.9918C73.8189 47.5358 73.8469 46.1078 74.1269 44.7078C74.3509 43.4198 74.4629 43.3358 75.8069 43.2238C76.1149 43.1958 76.3949 43.1398 76.7029 43.0838C76.6189 42.7198 76.5629 42.4398 76.5069 42.1038C76.4509 42.0758 76.3669 42.0198 76.2829 42.0198C75.3029 42.0478 74.2949 42.0758 73.3149 42.1598C72.9509 42.1878 72.6709 42.4678 72.5309 42.8038C72.3909 43.0838 72.2789 43.3918 72.2229 43.6998C72.1109 44.5118 71.9709 45.3518 71.9149 46.1918C71.8309 47.6758 71.7749 49.1878 71.7469 50.6718C71.6909 54.0038 71.6349 57.3358 71.6069 60.6678C71.6069 61.0878 71.6629 61.5078 71.6629 61.9278C71.6909 62.5438 72.1109 62.9638 72.3909 63.4678C72.4469 63.6078 72.6429 63.6918 72.8109 63.7478C74.0989 64.1678 75.3869 64.2238 76.5629 63.3838C76.5069 63.1318 76.4509 62.8798 76.3949 62.5438C76.2269 62.5438 76.0869 62.5158 75.9469 62.5158ZM71.9989 61.8158C71.8029 60.5278 71.8869 51.0078 72.1389 49.4958C72.1109 53.6118 72.0549 57.7278 71.9989 61.8158ZM72.1949 48.9638C71.9149 47.4798 72.3909 43.5318 72.9229 42.7478C72.3909 44.7918 72.3629 46.8638 72.1949 48.9638ZM80.7365 62.4878C79.8965 61.9838 79.3645 61.3678 79.2805 60.4998C79.1685 59.2398 79.0565 57.9798 79.0845 56.7198C79.0845 55.1238 79.1965 53.5558 79.3085 51.9878C79.4205 50.5318 79.5325 49.0758 79.7285 47.6198C79.8685 46.3878 80.2885 45.1838 80.9885 44.1478C81.1845 43.8118 81.4085 43.4758 81.8565 43.3078C81.9965 44.2318 82.0525 45.1278 82.6125 45.8558C82.7525 45.8558 82.9205 45.8278 83.0325 45.8838C83.4245 46.1078 83.4805 46.1078 83.5925 45.6598C83.8445 44.6238 83.5365 43.6438 83.2005 42.6638C83.0045 42.1038 82.5565 41.7958 81.9125 41.8798C81.6325 41.9078 81.3805 41.9078 81.1005 41.9358C80.4845 41.9638 80.0085 42.2438 79.5885 42.6918C79.0845 43.2518 78.7765 43.9518 78.5245 44.6518C78.1045 45.9118 77.8525 47.1998 77.7405 48.4878C77.4605 51.8758 77.2925 55.2358 77.4605 58.6238C77.5165 59.9678 77.6845 61.2558 78.4965 62.4038C78.8885 62.9358 79.2805 63.3838 79.8965 63.5798C80.2325 63.6638 80.5965 63.7478 80.9325 63.8318C81.7725 63.9998 82.3605 63.6358 82.5565 62.7958C82.6965 62.2918 82.7525 61.8158 82.5285 61.3678C81.9125 61.3118 81.3805 61.3678 81.1005 62.0398C81.0445 62.1798 80.9045 62.3198 80.7365 62.4878ZM77.6845 56.6638C77.6845 55.8798 77.6565 55.1238 77.7125 54.3398C77.8245 52.0998 77.9085 49.8318 78.1325 47.5918C78.2445 46.5278 78.5805 45.5198 78.8605 44.4838C78.9725 44.0638 79.2245 43.6438 79.5045 43.2518C79.5325 43.3078 79.5325 43.3918 79.5325 43.4198C78.7485 44.8478 78.4405 46.4158 78.2445 48.0118C77.9365 50.5318 77.8805 53.0798 77.7965 55.6278C77.7965 55.9638 77.7405 56.3278 77.7405 56.6638C77.7125 56.6638 77.7125 56.6638 77.6845 56.6638ZM77.7965 57.6998C77.7965 58.1758 77.7965 58.6238 77.7965 59.0718C77.7965 59.0718 77.7685 59.0718 77.7405 59.0718C77.7405 58.6238 77.7405 58.1758 77.7405 57.7278C77.7685 57.7278 77.7965 57.7278 77.7965 57.6998ZM86.7317 62.5438C86.7877 62.5438 86.8437 62.5438 86.8997 62.5438C86.9277 62.4038 86.9837 62.2358 86.9837 62.0678C87.0957 58.3998 87.1797 54.7038 87.2637 51.0078C87.3477 48.9078 87.4317 46.8078 87.5157 44.6798C87.5437 44.4278 87.5997 44.2038 87.6277 43.9518C87.6837 43.9518 87.7397 43.9518 87.7677 43.9518C87.7677 44.1758 87.7677 44.3718 87.7677 44.5958C87.6837 46.6118 87.5997 48.6278 87.5437 50.6438C87.4877 51.9038 87.4877 53.1918 87.4597 54.4518C87.3757 57.2238 87.2917 59.9958 87.2077 62.7678C87.2077 62.9078 87.1797 63.0478 87.2357 63.1878C87.2637 63.2998 87.3477 63.4398 87.4037 63.5518C87.5437 63.4678 87.6837 63.3838 87.8237 63.2998C87.9077 63.2438 87.9917 63.1598 88.1317 63.0478C88.1597 63.2158 88.1877 63.2998 88.1877 63.3838C88.2157 63.7198 88.4117 63.8598 88.7197 63.8598C89.0277 63.8318 89.0277 63.5518 89.0277 63.3558C89.0837 62.7958 89.1117 62.2358 89.1117 61.6758C89.1957 58.4558 89.2237 55.2358 89.3357 52.0158C89.4197 49.3558 89.5317 46.6958 89.2517 44.0358C89.2237 43.9798 89.2797 43.9518 89.3077 43.9238C90.3437 43.7838 91.4077 44.3438 92.5277 43.6718C92.3877 43.5878 92.2477 43.5038 92.1077 43.4198C92.1357 43.3078 92.1637 43.1958 92.1917 43.1118C92.1917 42.9998 92.2197 42.8878 92.2197 42.7198C90.8757 42.3558 89.5317 42.3278 88.1877 42.3278C85.5837 42.3278 84.6877 42.4678 84.2397 42.7758C84.3797 42.8598 84.5757 42.9438 84.6317 43.0838C84.6877 43.1958 84.6317 43.3918 84.6037 43.6158C85.4997 43.6998 86.3677 43.8118 87.2917 43.9238C87.2357 44.4278 87.1517 44.9598 87.1237 45.4638C87.0397 47.8438 86.9837 50.2238 86.8997 52.6038C86.8437 54.3958 86.7877 56.2158 86.7317 58.0078C86.7037 59.2398 86.6477 60.4998 86.6197 61.7318C86.6197 62.0118 86.6757 62.2638 86.7317 62.5438ZM102.954 58.2598C102.982 58.2598 103.01 58.2598 103.038 58.2318C103.094 58.4838 103.15 58.7078 103.206 58.9598C103.43 60.2198 103.738 61.4798 104.494 62.5718C104.746 62.9358 104.97 63.2998 105.53 63.2158C105.642 63.1878 105.754 63.2718 105.838 63.2998C106.482 63.5518 106.762 63.4678 106.986 62.8518C107.182 62.2918 107.322 61.7318 107.462 61.1718C108.246 57.9518 108.498 54.6478 108.61 51.3438C108.694 48.7958 108.582 46.2198 108.526 43.6718C108.498 43.1398 108.302 42.6078 108.19 42.1038C107.63 42.1318 107.182 42.1878 106.706 42.2158C106.706 42.9158 106.65 43.6158 106.706 44.2878C106.874 46.9478 107.042 49.5798 106.818 52.2118C106.594 54.3958 106.37 56.5518 106.09 58.7078C106.006 59.3798 105.782 60.0518 105.614 60.7238C105.446 60.5838 105.362 60.4438 105.334 60.2758C105.166 59.2398 104.914 58.2038 104.83 57.1398C104.606 53.9198 104.438 50.6998 104.242 47.4798C104.158 46.1638 104.018 44.8198 103.878 43.5038C103.822 43.0838 103.682 42.6638 103.598 42.2438C103.094 42.2998 102.702 42.3278 102.254 42.3838C102.226 42.6078 102.142 42.8318 102.114 43.0558C101.974 45.7998 101.834 48.5158 101.75 51.2598C101.666 54.0598 101.274 56.8318 100.63 59.5758C100.574 59.7998 100.63 60.1078 100.294 60.2758C100.238 59.9118 100.154 59.5758 100.126 59.2398C100.042 57.2518 99.9576 55.2638 99.9296 53.2478C99.8736 50.3638 99.8736 47.4798 99.8456 44.5958C99.8456 43.7838 99.7056 42.9998 99.5096 42.2438C99.2296 42.2438 98.9776 42.2438 98.6136 42.2438C98.2216 47.3678 98.3056 52.4638 98.3056 57.5598C98.1936 55.8798 98.1376 54.1718 98.1376 52.4638C98.1096 50.7558 98.1096 49.0198 98.1656 47.3118C98.2216 45.6318 98.2216 43.9518 98.4456 42.2718C98.2776 42.4958 98.1936 42.7198 98.1656 42.9438C98.0816 43.3918 98.0256 43.8678 98.0256 44.3438C97.9416 47.1158 97.8576 49.8878 97.8296 52.6598C97.8296 54.3118 97.9136 55.9638 97.9976 57.5878C98.1096 59.3238 98.5296 60.9758 99.4816 62.4318C99.5936 62.5998 99.7896 62.8518 99.9576 62.8518C100.266 62.8798 100.546 62.9638 100.826 63.0758C101.106 63.2158 101.358 63.1038 101.554 62.8518C101.722 62.6278 101.89 62.4038 101.974 62.1238C102.198 61.5358 102.366 60.9478 102.534 60.3318C102.702 59.6598 102.814 58.9598 102.954 58.2598ZM106.986 44.6798C107.042 44.7918 107.154 44.9318 107.154 45.0438C107.154 45.7998 107.154 46.5838 107.098 47.3678C107.098 46.7238 107.098 46.1078 107.098 45.4638C107.07 45.2118 107.042 44.9318 106.986 44.6798C106.986 43.9518 106.986 43.1958 106.986 42.5238C107.098 42.8318 107.098 44.1198 106.986 44.6798ZM102.338 44.8758C102.338 46.0518 102.366 47.2558 102.338 48.4598C102.31 49.6358 102.17 50.7838 102.142 51.9598C102.114 54.0598 101.806 56.1318 101.414 58.1758C101.246 58.9878 101.022 59.7718 100.826 60.5558C100.798 60.7238 100.686 60.8918 100.546 61.0318C100.574 60.8918 100.574 60.7798 100.602 60.6398C101.442 57.6998 101.862 54.7038 102.002 51.6518C102.086 49.3838 102.198 47.1438 102.31 44.8758C102.338 44.8758 102.338 44.8758 102.338 44.8758ZM107.294 48.4598C107.49 52.6598 106.706 59.5478 105.754 61.2558C106.426 59.1278 106.622 56.9438 106.818 54.7598C107.014 52.5478 107.154 50.3358 107.294 48.4598ZM103.29 57.0278C103.29 57.1398 103.29 57.2798 103.29 57.3918C103.262 57.3918 103.262 57.3918 103.262 57.3918C103.262 57.2798 103.262 57.1398 103.262 57.0278C103.262 57.0278 103.262 57.0278 103.29 57.0278ZM116.113 64.1118C116.169 63.5798 116.253 63.1598 116.253 62.7398C116.225 59.4078 116.141 56.0758 115.749 52.7718C115.441 50.2518 115.189 47.7318 114.657 45.2678C114.461 44.3998 114.265 43.5318 114.069 42.6638C113.957 42.1598 113.901 42.1878 113.397 42.1598C112.697 42.0758 112.221 42.3278 111.885 42.9438C111.689 43.3078 111.437 43.6718 111.325 44.0638C111.073 45.0158 110.793 45.9678 110.681 46.9198C110.345 49.6078 110.037 52.2958 109.813 55.0118C109.645 57.1118 109.617 59.2118 109.533 61.3398C109.505 62.0118 109.589 62.7118 110.065 63.2998C110.289 63.3558 110.513 63.4118 110.849 63.4678C110.989 61.9838 110.961 60.5278 111.101 59.1278C112.193 59.0158 113.229 58.9318 114.293 58.8198C114.405 60.3038 114.321 61.7598 114.657 63.1598C114.685 63.1598 114.741 63.1598 114.797 63.1598C114.825 62.9918 114.853 62.8238 114.853 62.7398C114.881 63.0478 114.937 63.4398 114.993 63.8878C115.161 63.8038 115.273 63.7758 115.357 63.7478C115.581 63.8598 115.777 63.9438 116.113 64.1118ZM113.117 44.2598C113.929 48.6558 114.377 52.9118 114.209 57.2798C113.229 57.3638 112.249 57.4198 111.157 57.4758C111.241 56.8038 111.269 56.1878 111.353 55.5718C111.549 53.4438 111.773 51.3438 111.997 49.2158C112.137 47.6478 112.529 46.1078 112.921 44.5958C112.949 44.5398 112.977 44.4838 113.117 44.2598ZM111.857 43.6438C111.185 45.6038 110.905 47.6198 110.681 49.6638C110.513 51.1758 110.401 52.7158 110.261 54.2278C110.149 55.3758 110.037 56.5238 109.869 57.6718C109.869 57.3358 109.841 57.0278 109.869 56.6918C110.093 54.3118 110.289 51.9318 110.541 49.5518C110.709 47.8158 110.961 46.1078 111.437 44.4278C111.521 44.1478 111.633 43.8678 111.745 43.5598C111.773 43.5878 111.801 43.6158 111.857 43.6438ZM109.869 58.5398C109.869 59.6878 109.869 60.8358 109.869 61.9838C109.757 60.8078 109.673 59.6598 109.869 58.5398ZM114.545 57.1678C114.545 56.2158 114.545 55.2638 114.545 54.3398C114.573 54.3398 114.601 54.3398 114.601 54.3398C114.601 55.2638 114.601 56.2158 114.601 57.1398C114.601 57.1398 114.573 57.1678 114.545 57.1678ZM114.741 59.0998C114.741 59.9118 114.741 60.7518 114.741 61.5638C114.741 61.5638 114.713 61.5638 114.685 61.5638C114.685 60.7518 114.685 59.9398 114.685 59.1278C114.713 59.1278 114.741 59.1278 114.741 59.0998ZM114.433 53.1918C114.433 52.9118 114.433 52.6318 114.433 52.3798C114.461 52.3798 114.461 52.3798 114.489 52.3798C114.489 52.6318 114.489 52.9118 114.489 53.1918C114.461 53.1918 114.461 53.1918 114.433 53.1918ZM119.452 61.9838C119.424 61.7598 119.396 61.5918 119.396 61.4238C119.424 58.2318 119.452 55.0678 119.48 51.8758C119.48 49.2158 119.48 46.5558 119.48 43.8958C119.48 43.2238 119.34 42.6078 119.116 42.0198C118.724 42.0478 118.36 42.1038 117.912 42.1318C117.856 43.0838 117.772 44.0078 117.744 44.9318C117.66 48.4318 117.548 51.9038 117.464 55.4038C117.408 57.4478 117.38 59.4918 117.38 61.5358C117.38 61.7598 117.38 62.1238 117.52 62.2078C117.828 62.4318 117.856 62.7678 117.94 63.0758C118.388 63.1598 118.808 63.2998 119.228 63.3278C120.404 63.3278 121.608 63.2998 122.784 63.2718C122.952 63.2718 123.148 63.2438 123.288 63.1598C123.372 63.1038 123.456 62.9078 123.428 62.7958C123.4 62.5438 123.288 62.2918 123.176 61.9838C122 61.9838 120.74 61.9838 119.452 61.9838ZM118.22 42.3838C118.08 48.9078 117.968 55.4318 117.828 61.9278C117.8 61.9558 117.772 61.9558 117.744 61.9558C117.716 61.8158 117.66 61.6478 117.66 61.4798C117.716 58.7358 117.744 55.9638 117.8 53.2198C117.856 50.4478 117.94 47.6758 118.024 44.9038C118.024 44.0638 118.108 43.2238 118.136 42.3838C118.164 42.3838 118.192 42.3838 118.22 42.3838ZM126.644 61.9838C126.616 61.7598 126.588 61.5918 126.588 61.4238C126.616 58.2318 126.644 55.0678 126.672 51.8758C126.672 49.2158 126.672 46.5558 126.672 43.8958C126.672 43.2238 126.532 42.6078 126.308 42.0198C125.916 42.0478 125.552 42.1038 125.104 42.1318C125.048 43.0838 124.964 44.0078 124.936 44.9318C124.852 48.4318 124.74 51.9038 124.656 55.4038C124.6 57.4478 124.572 59.4918 124.572 61.5358C124.572 61.7598 124.572 62.1238 124.712 62.2078C125.02 62.4318 125.048 62.7678 125.132 63.0758C125.58 63.1598 126 63.2998 126.42 63.3278C127.596 63.3278 128.8 63.2998 129.976 63.2718C130.144 63.2718 130.34 63.2438 130.48 63.1598C130.564 63.1038 130.648 62.9078 130.62 62.7958C130.592 62.5438 130.48 62.2918 130.368 61.9838C129.192 61.9838 127.932 61.9838 126.644 61.9838ZM125.412 42.3838C125.272 48.9078 125.16 55.4318 125.02 61.9278C124.992 61.9558 124.964 61.9558 124.936 61.9558C124.908 61.8158 124.852 61.6478 124.852 61.4798C124.908 58.7358 124.936 55.9638 124.992 53.2198C125.048 50.4478 125.132 47.6758 125.216 44.9038C125.216 44.0638 125.3 43.2238 125.328 42.3838C125.356 42.3838 125.384 42.3838 125.412 42.3838ZM136.103 62.5158C135.515 62.5718 134.955 62.6558 134.367 62.7398C133.835 62.7958 133.639 62.6558 133.555 62.1238C133.555 61.9278 133.527 61.7318 133.527 61.5358C133.555 60.6678 133.555 59.7998 133.583 58.9318C133.611 56.4118 133.639 53.9198 133.667 51.3998C133.695 51.0358 133.751 50.6718 133.779 50.3078C134.759 50.1398 135.711 50.2518 136.579 49.8878C136.495 49.5798 136.439 49.3278 136.355 48.9918C135.543 48.9918 134.759 48.9918 133.919 48.9918C133.975 47.5358 134.003 46.1078 134.283 44.7078C134.507 43.4198 134.619 43.3358 135.963 43.2238C136.271 43.1958 136.551 43.1398 136.859 43.0838C136.775 42.7198 136.719 42.4398 136.663 42.1038C136.607 42.0758 136.523 42.0198 136.439 42.0198C135.459 42.0478 134.451 42.0758 133.471 42.1598C133.107 42.1878 132.827 42.4678 132.687 42.8038C132.547 43.0838 132.435 43.3918 132.379 43.6998C132.267 44.5118 132.127 45.3518 132.071 46.1918C131.987 47.6758 131.931 49.1878 131.903 50.6718C131.847 54.0038 131.791 57.3358 131.763 60.6678C131.763 61.0878 131.819 61.5078 131.819 61.9278C131.847 62.5438 132.267 62.9638 132.547 63.4678C132.603 63.6078 132.799 63.6918 132.967 63.7478C134.255 64.1678 135.543 64.2238 136.719 63.3838C136.663 63.1318 136.607 62.8798 136.551 62.5438C136.383 62.5438 136.243 62.5158 136.103 62.5158ZM132.155 61.8158C131.959 60.5278 132.043 51.0078 132.295 49.4958C132.267 53.6118 132.211 57.7278 132.155 61.8158ZM132.351 48.9638C132.071 47.4798 132.547 43.5318 133.079 42.7478C132.547 44.7918 132.519 46.8638 132.351 48.9638ZM140.025 62.5438C140.081 62.5438 140.137 62.5438 140.193 62.5438C140.221 62.4038 140.277 62.2358 140.277 62.0678C140.389 58.3998 140.473 54.7038 140.557 51.0078C140.641 48.9078 140.725 46.8078 140.809 44.6798C140.837 44.4278 140.893 44.2038 140.921 43.9518C140.977 43.9518 141.033 43.9518 141.061 43.9518C141.061 44.1758 141.061 44.3718 141.061 44.5958C140.977 46.6118 140.893 48.6278 140.837 50.6438C140.781 51.9038 140.781 53.1918 140.753 54.4518C140.669 57.2238 140.585 59.9958 140.501 62.7678C140.501 62.9078 140.473 63.0478 140.529 63.1878C140.557 63.2998 140.641 63.4398 140.697 63.5518C140.837 63.4678 140.977 63.3838 141.117 63.2998C141.201 63.2438 141.285 63.1598 141.425 63.0478C141.453 63.2158 141.481 63.2998 141.481 63.3838C141.509 63.7198 141.705 63.8598 142.013 63.8598C142.321 63.8318 142.321 63.5518 142.321 63.3558C142.377 62.7958 142.405 62.2358 142.405 61.6758C142.489 58.4558 142.517 55.2358 142.629 52.0158C142.713 49.3558 142.825 46.6958 142.545 44.0358C142.517 43.9798 142.573 43.9518 142.601 43.9238C143.637 43.7838 144.701 44.3438 145.821 43.6718C145.681 43.5878 145.541 43.5038 145.401 43.4198C145.429 43.3078 145.457 43.1958 145.485 43.1118C145.485 42.9998 145.513 42.8878 145.513 42.7198C144.169 42.3558 142.825 42.3278 141.481 42.3278C138.877 42.3278 137.981 42.4678 137.533 42.7758C137.673 42.8598 137.869 42.9438 137.925 43.0838C137.981 43.1958 137.925 43.3918 137.897 43.6158C138.793 43.6998 139.661 43.8118 140.585 43.9238C140.529 44.4278 140.445 44.9598 140.417 45.4638C140.333 47.8438 140.277 50.2238 140.193 52.6038C140.137 54.3958 140.081 56.2158 140.025 58.0078C139.997 59.2398 139.941 60.4998 139.913 61.7318C139.913 62.0118 139.969 62.2638 140.025 62.5438Z" fill="white"/>
</g>
<defs>
<clipPath id="clip0_103_1319">
<rect width="172" height="56.381" fill="white" transform="translate(0 23)"/>
</clipPath>
<clipPath id="clip1_103_1319">
<rect width="167.434" height="160" fill="white" transform="translate(3.8053 -73)"/>
</clipPath>
</defs>
</svg>
